M48
;DRILL file {KiCad 4.0.4-stable} date Thursday, September 28, 2017 'PMt' 10:00:40 PM
;FORMAT={-:-/ absolute / inch / decimal}
FMAT,2
INCH,TZ
T1C0.015
T2C0.028
T3C0.031
T4C0.039
T5C0.055
T6C0.071
T7C0.087
%
G90
G05
M72
T1
X3.6299Y-3.9685
X3.7126Y-4.0039
X3.8268Y-4.2677
X3.8268Y-4.3937
X3.8276Y-3.9706
X3.9016Y-4.1535
X3.9528Y-4.2992
X3.9921Y-4.1063
X4.Y-4.2677
X4.1063Y-4.1339
X4.2362Y-3.9134
X4.252Y-4.4724
X4.2913Y-4.3858
X4.3346Y-4.1024
X4.3346Y-4.1654
X4.3425Y-3.9134
X4.3465Y-4.8307
X4.3504Y-4.3858
X4.3504Y-4.4764
X4.4488Y-4.0394
X4.4488Y-4.3622
X4.4685Y-4.6142
X4.4843Y-4.0591
X4.4843Y-4.3858
X4.4882Y-3.9803
X4.685Y-4.437
X4.6969Y-4.2441
X4.8451Y-4.1024
X4.937Y-4.2017
X4.9961Y-4.0591
X4.9961Y-4.6457
X5.0118Y-4.8701
X5.0157Y-4.4843
X5.0433Y-4.9055
X5.0906Y-3.878
X5.1299Y-3.9173
X5.1693Y-3.9567
T2
X3.7008Y-4.9673
X3.7266Y-4.55
X3.7766Y-4.55
X3.8266Y-4.55
X3.8766Y-4.55
X3.9266Y-4.55
X3.9766Y-4.55
X4.0266Y-4.55
X4.0766Y-4.55
T3
X4.8189Y-4.9921
X4.8976Y-4.9921
X5.1339Y-4.9921
X5.2126Y-4.9921
T4
X3.937Y-3.7756
X4.037Y-3.7756
X4.137Y-3.7756
X4.237Y-3.7756
X4.3031Y-5.1102
X4.337Y-3.7756
X4.4031Y-5.1102
X4.437Y-3.7756
X4.5031Y-5.1102
X4.815Y-3.7756
X4.915Y-3.7756
X5.015Y-3.7756
T5
X5.2657Y-4.2441
X5.2657Y-4.4016
X5.2657Y-4.5591
X5.3642Y-4.2441
X5.3642Y-4.4016
X5.3642Y-4.5591
T6
X5.315Y-4.0827
X5.315Y-4.7205
X5.315Y-4.7205
T7
X3.5472Y-3.7283
X3.5472Y-5.1575
X5.4843Y-3.7283
X5.4843Y-5.1575
T0
M30
