G04 #@! TF.FileFunction,Copper,L2,Bot,Signal*
%FSLAX46Y46*%
G04 Gerber Fmt 4.6, Leading zero omitted, Abs format (unit mm)*
G04 Created by KiCad (PCBNEW 4.0.4-stable) date Thursday, September 28, 2017 'AMt' 07:06:15 AM*
%MOMM*%
%LPD*%
G01*
G04 APERTURE LIST*
%ADD10C,0.100000*%
%ADD11R,0.900000X0.800000*%
%ADD12R,0.800000X0.900000*%
%ADD13R,0.900000X1.200000*%
%ADD14R,1.200000X0.900000*%
%ADD15R,0.750000X1.200000*%
%ADD16R,1.700000X1.700000*%
%ADD17O,1.700000X1.700000*%
%ADD18R,1.600000X0.550000*%
%ADD19R,0.550000X1.600000*%
%ADD20R,0.650000X1.560000*%
%ADD21O,1.000000X2.400000*%
%ADD22R,1.000000X1.000000*%
%ADD23R,1.500000X1.250000*%
%ADD24R,1.200000X0.750000*%
%ADD25R,4.000000X1.700000*%
%ADD26R,4.000000X1.500000*%
%ADD27R,1.350000X1.350000*%
%ADD28O,1.350000X1.350000*%
%ADD29R,2.000000X2.000000*%
%ADD30O,2.000000X2.000000*%
%ADD31C,2.200000*%
%ADD32C,0.635000*%
%ADD33C,0.635000*%
%ADD34C,0.406400*%
%ADD35C,0.254000*%
%ADD36C,0.250000*%
G04 APERTURE END LIST*
D10*
D11*
X113547501Y-120002403D03*
X113547501Y-118102403D03*
X115547501Y-119052403D03*
D12*
X108445502Y-123699405D03*
X110345502Y-123699405D03*
X109395502Y-125699405D03*
D13*
X113600000Y-123400000D03*
X113600000Y-125600000D03*
D14*
X108566501Y-120610403D03*
X110766501Y-120610403D03*
D13*
X118666502Y-117310405D03*
X118666502Y-119510405D03*
D14*
X115600000Y-101100000D03*
X117800000Y-101100000D03*
D15*
X99900000Y-107450000D03*
X99900000Y-105550000D03*
D16*
X114380000Y-129800000D03*
D17*
X111840000Y-129800000D03*
X109300000Y-129800000D03*
D18*
X111450000Y-102600000D03*
X111450000Y-103400000D03*
X111450000Y-104200000D03*
X111450000Y-105000000D03*
X111450000Y-105800000D03*
X111450000Y-106600000D03*
X111450000Y-107400000D03*
X111450000Y-108200000D03*
D19*
X110000000Y-109650000D03*
X109200000Y-109650000D03*
X108400000Y-109650000D03*
X107600000Y-109650000D03*
X106800000Y-109650000D03*
X106000000Y-109650000D03*
X105200000Y-109650000D03*
X104400000Y-109650000D03*
D18*
X102950000Y-108200000D03*
X102950000Y-107400000D03*
X102950000Y-106600000D03*
X102950000Y-105800000D03*
X102950000Y-105000000D03*
X102950000Y-104200000D03*
X102950000Y-103400000D03*
X102950000Y-102600000D03*
D19*
X104400000Y-101150000D03*
X105200000Y-101150000D03*
X106000000Y-101150000D03*
X106800000Y-101150000D03*
X107600000Y-101150000D03*
X108400000Y-101150000D03*
X109200000Y-101150000D03*
X110000000Y-101150000D03*
D20*
X124450000Y-107850000D03*
X125400000Y-107850000D03*
X126350000Y-107850000D03*
X126350000Y-110550000D03*
X124450000Y-110550000D03*
D21*
X98465000Y-114970000D03*
X99735000Y-114970000D03*
X97195000Y-114970000D03*
X101005000Y-114970000D03*
X102275000Y-114970000D03*
X95925000Y-114970000D03*
X103545000Y-114970000D03*
X94655000Y-114970000D03*
D22*
X94000000Y-126170000D03*
D23*
X124450000Y-104200000D03*
X126950000Y-104200000D03*
X107999999Y-114800000D03*
X110499999Y-114800000D03*
D24*
X124400000Y-113900000D03*
X126300000Y-113900000D03*
D23*
X124399999Y-116900000D03*
X126899999Y-116900000D03*
D24*
X118000000Y-99000000D03*
X116100000Y-99000000D03*
D16*
X100000000Y-95900000D03*
D17*
X102540000Y-95900000D03*
X105080000Y-95900000D03*
X107620000Y-95900000D03*
X110160000Y-95900000D03*
X112700000Y-95900000D03*
D16*
X122300000Y-95900000D03*
D17*
X124840000Y-95900000D03*
X127380000Y-95900000D03*
D25*
X116900000Y-110300000D03*
D26*
X116900000Y-107800000D03*
D25*
X116900000Y-105300000D03*
D27*
X122400000Y-126800000D03*
D28*
X124400000Y-126800000D03*
D27*
X130400000Y-126800000D03*
D28*
X132400000Y-126800000D03*
D29*
X136250000Y-115800000D03*
D30*
X136250000Y-111800000D03*
X136250000Y-107800000D03*
X133750000Y-115800000D03*
X133750000Y-111800000D03*
X133750000Y-107800000D03*
D31*
X135000000Y-119900000D03*
X135000000Y-119900000D03*
X135000000Y-103700000D03*
D32*
X131300000Y-100500000D03*
X130300000Y-99500000D03*
X129300000Y-98500000D03*
X109000000Y-111400000D03*
X110500000Y-111400000D03*
X127300000Y-123700000D03*
X128100000Y-124600000D03*
X99100000Y-105500000D03*
X104300000Y-105000000D03*
X110100000Y-104200000D03*
X110100000Y-105800000D03*
X94300000Y-101700000D03*
X92200000Y-100800000D03*
X125400000Y-106723900D03*
X119300000Y-107800000D03*
X126900000Y-103100000D03*
X127400000Y-113900000D03*
X126900000Y-118000000D03*
X110400000Y-122700000D03*
X113500000Y-117200000D03*
X110500000Y-113700000D03*
X97220000Y-100853600D03*
X107600000Y-99400000D03*
X110300000Y-99400000D03*
X113900000Y-103100000D03*
X113900000Y-111400000D03*
X119000000Y-112700000D03*
X108000000Y-113600000D03*
X114000000Y-101100000D03*
X101400000Y-104300000D03*
X100400000Y-109200000D03*
X113000000Y-102600000D03*
X113000000Y-110800000D03*
X97200000Y-108400000D03*
X101600000Y-108400000D03*
X97200000Y-111600000D03*
X123065000Y-104200000D03*
D33*
X130300000Y-99500000D02*
X131300000Y-100500000D01*
X123415000Y-98500000D02*
X129300000Y-98500000D01*
X110500000Y-113700000D02*
X110500000Y-111400000D01*
X128100000Y-124600000D02*
X128100000Y-124500000D01*
X128100000Y-124500000D02*
X127300000Y-123700000D01*
X122300000Y-95900000D02*
X122300000Y-97385000D01*
X122300000Y-97385000D02*
X123415000Y-98500000D01*
X99900000Y-105550000D02*
X99150000Y-105550000D01*
X99150000Y-105550000D02*
X99100000Y-105500000D01*
D34*
X102950000Y-105000000D02*
X104300000Y-105000000D01*
X111450000Y-104200000D02*
X110100000Y-104200000D01*
X111450000Y-105800000D02*
X110100000Y-105800000D01*
X125400000Y-107850000D02*
X125400000Y-106723900D01*
D33*
X116900000Y-107800000D02*
X119300000Y-107800000D01*
X126950000Y-104200000D02*
X126950000Y-103150000D01*
X126950000Y-103150000D02*
X126900000Y-103100000D01*
X126300000Y-113900000D02*
X127400000Y-113900000D01*
X126899999Y-116900000D02*
X126899999Y-117999999D01*
X126899999Y-117999999D02*
X126900000Y-118000000D01*
X110345502Y-123699405D02*
X110345502Y-122754498D01*
X110345502Y-122754498D02*
X110400000Y-122700000D01*
X113547501Y-118102403D02*
X113547501Y-117247501D01*
X113547501Y-117247501D02*
X113500000Y-117200000D01*
X110499999Y-114800000D02*
X110499999Y-113700001D01*
X110499999Y-113700001D02*
X110500000Y-113700000D01*
X113547501Y-118102403D02*
X113497501Y-118102403D01*
D34*
X112700000Y-95900000D02*
X113549999Y-96749999D01*
X113549999Y-96749999D02*
X115749999Y-96749999D01*
X115749999Y-96749999D02*
X118000000Y-99000000D01*
X106900000Y-99400000D02*
X98673600Y-99400000D01*
X98673600Y-99400000D02*
X97220000Y-100853600D01*
X107500000Y-100000000D02*
X106900000Y-99400000D01*
X107600000Y-100000000D02*
X107600000Y-99400000D01*
X107600000Y-101150000D02*
X107600000Y-100000000D01*
X107600000Y-100000000D02*
X107500000Y-100000000D01*
X116100000Y-99000000D02*
X110700000Y-99000000D01*
X110700000Y-99000000D02*
X110300000Y-99400000D01*
X116100000Y-99000000D02*
X116100000Y-99400000D01*
X116100000Y-99400000D02*
X117800000Y-101100000D01*
X110336000Y-99436000D02*
X110300000Y-99400000D01*
X109300000Y-129800000D02*
X109300000Y-125794907D01*
X109300000Y-125794907D02*
X109395502Y-125699405D01*
X107631000Y-97790000D02*
X107631000Y-95885000D01*
X108400000Y-101110000D02*
X108400000Y-98559000D01*
X108400000Y-98559000D02*
X107631000Y-97790000D01*
X109200000Y-101110000D02*
X109200000Y-98634000D01*
X109200000Y-98634000D02*
X110171000Y-97663000D01*
X110171000Y-97663000D02*
X110171000Y-95885000D01*
X111450000Y-103400000D02*
X113600000Y-103400000D01*
X113600000Y-103400000D02*
X113900000Y-103100000D01*
X113900000Y-111400000D02*
X113900000Y-112900000D01*
X115547501Y-114547501D02*
X115547501Y-119052403D01*
X113900000Y-112900000D02*
X115547501Y-114547501D01*
X115547503Y-119052403D02*
X115705502Y-119210404D01*
X115705502Y-119210404D02*
X118366501Y-119210404D01*
X118366501Y-119210404D02*
X118666502Y-119510406D01*
X118666502Y-119660406D02*
X118666502Y-119510406D01*
X106000000Y-109650000D02*
X106000000Y-111200000D01*
X106000000Y-111200000D02*
X104900000Y-112300000D01*
X104900000Y-112300000D02*
X100600000Y-112300000D01*
X100600000Y-112300000D02*
X99735000Y-113165000D01*
X99735000Y-113165000D02*
X99735000Y-115570000D01*
X106800000Y-109650000D02*
X106800000Y-111500000D01*
X106800000Y-111500000D02*
X105200000Y-113100000D01*
X105200000Y-113100000D02*
X101300000Y-113100000D01*
X101300000Y-113100000D02*
X101005000Y-113395000D01*
X101005000Y-113395000D02*
X101005000Y-115570000D01*
X111750000Y-107410000D02*
X113390000Y-107410000D01*
X113390000Y-107410000D02*
X115477000Y-105323000D01*
X115477000Y-105323000D02*
X116902000Y-105323000D01*
X111750000Y-108210000D02*
X113410000Y-108210000D01*
X113410000Y-108210000D02*
X115523000Y-110323000D01*
X115523000Y-110323000D02*
X116902000Y-110323000D01*
D33*
X120400000Y-104600000D02*
X120400000Y-112700000D01*
X120400000Y-112700000D02*
X120400000Y-116700000D01*
X119000000Y-112700000D02*
X120400000Y-112700000D01*
X118700000Y-117276907D02*
X118666502Y-117310405D01*
X114738201Y-102500000D02*
X118300000Y-102500000D01*
X118300000Y-102500000D02*
X120400000Y-104600000D01*
X120400000Y-116700000D02*
X120200000Y-116900000D01*
X114738201Y-102500000D02*
X114738201Y-101238201D01*
X114738201Y-103502337D02*
X114738201Y-102500000D01*
X124399999Y-116900000D02*
X120200000Y-116900000D01*
X120200000Y-116900000D02*
X119076907Y-116900000D01*
X107999999Y-114800000D02*
X107999999Y-113600001D01*
X107999999Y-113600001D02*
X108000000Y-113600000D01*
X119076907Y-116900000D02*
X118666502Y-117310405D01*
X114000000Y-101100000D02*
X114600000Y-101100000D01*
X114600000Y-101100000D02*
X115600000Y-101100000D01*
X113000000Y-105287738D02*
X113000000Y-105240538D01*
X114738201Y-101238201D02*
X114600000Y-101100000D01*
X113000000Y-105240538D02*
X114738201Y-103502337D01*
X101400000Y-107400000D02*
X102950000Y-107400000D01*
X99950000Y-107400000D02*
X101400000Y-107400000D01*
X101400000Y-107400000D02*
X101400000Y-104300000D01*
X99900000Y-107450000D02*
X99900000Y-108700000D01*
X99900000Y-108700000D02*
X100400000Y-109200000D01*
X99900000Y-107450000D02*
X99950000Y-107400000D01*
X124400000Y-113900000D02*
X124400000Y-116899999D01*
X124400000Y-116899999D02*
X124399999Y-116900000D01*
X124450000Y-110550000D02*
X124450000Y-113850000D01*
X124450000Y-113850000D02*
X124400000Y-113900000D01*
X111500000Y-106600000D02*
X112712262Y-106600000D01*
X112712262Y-106600000D02*
X113000000Y-106312262D01*
X113000000Y-106312262D02*
X113000000Y-105287738D01*
X113000000Y-105287738D02*
X112712262Y-105000000D01*
X112712262Y-105000000D02*
X111500000Y-105000000D01*
D35*
X102235000Y-115570000D02*
X102119799Y-115454799D01*
D34*
X111840000Y-129800000D02*
X111840000Y-127360000D01*
X111840000Y-127360000D02*
X113600000Y-125600000D01*
X113600000Y-123400000D02*
X113600000Y-120054902D01*
X113600000Y-120054902D02*
X113547501Y-120002403D01*
D33*
X108445502Y-123699404D02*
X108445502Y-120569404D01*
X108445502Y-120569404D02*
X108506502Y-120508404D01*
D34*
X110766501Y-120610403D02*
X110766501Y-118033499D01*
X110766501Y-118033499D02*
X113000000Y-115800000D01*
X113000000Y-115800000D02*
X113000000Y-113006521D01*
X113000000Y-113006521D02*
X113000000Y-110800000D01*
X113000000Y-102600000D02*
X111500000Y-102600000D01*
X110706502Y-120508404D02*
X110706502Y-120930404D01*
X102950000Y-103400000D02*
X99600000Y-103400000D01*
X99600000Y-103400000D02*
X99200000Y-103000000D01*
X99200000Y-103000000D02*
X95600000Y-103000000D01*
X94500000Y-104100000D02*
X94500000Y-115415000D01*
X95600000Y-103000000D02*
X94500000Y-104100000D01*
X94500000Y-115415000D02*
X94655000Y-115570000D01*
X97000000Y-110100000D02*
X96800000Y-110300000D01*
X96800000Y-110300000D02*
X95925000Y-111175000D01*
X97200000Y-108400000D02*
X96882501Y-108717499D01*
X96882501Y-108717499D02*
X96882501Y-110217499D01*
X96882501Y-110217499D02*
X96800000Y-110300000D01*
X97600000Y-110100000D02*
X97200000Y-110100000D01*
X97200000Y-110100000D02*
X97000000Y-110100000D01*
X95925000Y-111175000D02*
X95925000Y-115570000D01*
X97550988Y-110100000D02*
X97600000Y-110100000D01*
X104400000Y-109650000D02*
X103950000Y-110100000D01*
X103950000Y-110100000D02*
X97600000Y-110100000D01*
X104450000Y-110185000D02*
X104365000Y-110100000D01*
X102950000Y-108200000D02*
X101800000Y-108200000D01*
X101800000Y-108200000D02*
X101600000Y-108400000D01*
X105200000Y-109650000D02*
X105200000Y-110856400D01*
X105200000Y-110856400D02*
X104656400Y-111400000D01*
X104656400Y-111400000D02*
X98200000Y-111400000D01*
X98200000Y-111400000D02*
X97195000Y-112405000D01*
X97195000Y-112405000D02*
X97195000Y-112605000D01*
X97200000Y-111600000D02*
X97200000Y-112049012D01*
X97195000Y-112054012D02*
X97195000Y-112605000D01*
X97200000Y-112049012D02*
X97195000Y-112054012D01*
X97195000Y-112605000D02*
X97195000Y-115570000D01*
D33*
X136250000Y-107800000D02*
X130550000Y-102100000D01*
X130550000Y-102100000D02*
X125700000Y-102100000D01*
X125700000Y-102100000D02*
X124450000Y-103350000D01*
X124450000Y-103350000D02*
X124450000Y-104200000D01*
X124450000Y-107850000D02*
X124450000Y-106000000D01*
D34*
X126350000Y-107850000D02*
X126350000Y-105850000D01*
X126350000Y-105850000D02*
X126300000Y-105800000D01*
X126300000Y-105800000D02*
X124650000Y-105800000D01*
X124650000Y-105800000D02*
X124450000Y-106000000D01*
D33*
X124450000Y-104200000D02*
X123065000Y-104200000D01*
X124450000Y-106000000D02*
X124450000Y-104200000D01*
X136250000Y-111800000D02*
X136250000Y-111250000D01*
X136250000Y-111250000D02*
X134900000Y-109900000D01*
X128600000Y-119800000D02*
X122400000Y-126000000D01*
X134900000Y-109900000D02*
X132400000Y-109900000D01*
X122400000Y-126000000D02*
X122400000Y-126800000D01*
X132400000Y-109900000D02*
X128600000Y-113700000D01*
X128600000Y-113700000D02*
X128600000Y-119800000D01*
X133750000Y-111800000D02*
X131000000Y-114550000D01*
X131000000Y-114550000D02*
X131000000Y-123500000D01*
X131000000Y-123500000D02*
X130400000Y-124100000D01*
X130400000Y-124100000D02*
X130400000Y-125490000D01*
X130400000Y-125490000D02*
X130400000Y-126800000D01*
X130400000Y-126800000D02*
X128700000Y-126800000D01*
X128700000Y-126800000D02*
X124400000Y-126800000D01*
D36*
G36*
X137838469Y-93721590D02*
X137575300Y-94355371D01*
X137574701Y-95041618D01*
X137836763Y-95675858D01*
X138321590Y-96161531D01*
X138955371Y-96424700D01*
X139641618Y-96425299D01*
X140275858Y-96163237D01*
X140600000Y-95839660D01*
X140600000Y-129860620D01*
X140278410Y-129538469D01*
X139644629Y-129275300D01*
X138958382Y-129274701D01*
X138324142Y-129536763D01*
X137838469Y-130021590D01*
X137575300Y-130655371D01*
X137574701Y-131341618D01*
X137836763Y-131975858D01*
X138160340Y-132300000D01*
X108125000Y-132300000D01*
X108125000Y-130674302D01*
X108257017Y-130871880D01*
X108735542Y-131191619D01*
X109300000Y-131303897D01*
X109864458Y-131191619D01*
X110342983Y-130871880D01*
X110570000Y-130532124D01*
X110797017Y-130871880D01*
X111275542Y-131191619D01*
X111840000Y-131303897D01*
X112404458Y-131191619D01*
X112882983Y-130871880D01*
X112923185Y-130811714D01*
X112936337Y-130881611D01*
X113073219Y-131094332D01*
X113282076Y-131237038D01*
X113530000Y-131287244D01*
X115230000Y-131287244D01*
X115461611Y-131243663D01*
X115674332Y-131106781D01*
X115817038Y-130897924D01*
X115867244Y-130650000D01*
X115867244Y-128950000D01*
X115823663Y-128718389D01*
X115686781Y-128505668D01*
X115477924Y-128362962D01*
X115230000Y-128312756D01*
X113530000Y-128312756D01*
X113298389Y-128356337D01*
X113085668Y-128493219D01*
X112942962Y-128702076D01*
X112924965Y-128790950D01*
X112882983Y-128728120D01*
X112668200Y-128584607D01*
X112668200Y-127703052D01*
X113534008Y-126837244D01*
X114050000Y-126837244D01*
X114281611Y-126793663D01*
X114494332Y-126656781D01*
X114637038Y-126447924D01*
X114687244Y-126200000D01*
X114687244Y-125000000D01*
X114643663Y-124768389D01*
X114506781Y-124555668D01*
X114426210Y-124500616D01*
X114494332Y-124456781D01*
X114637038Y-124247924D01*
X114687244Y-124000000D01*
X114687244Y-122800000D01*
X114643663Y-122568389D01*
X114506781Y-122355668D01*
X114428200Y-122301976D01*
X114428200Y-120867957D01*
X114441833Y-120859184D01*
X114584539Y-120650327D01*
X114634745Y-120402403D01*
X114634745Y-119887450D01*
X114640720Y-119896735D01*
X114849577Y-120039441D01*
X115097501Y-120089647D01*
X115997501Y-120089647D01*
X116229112Y-120046066D01*
X116240708Y-120038604D01*
X117579258Y-120038604D01*
X117579258Y-120110405D01*
X117622839Y-120342016D01*
X117759721Y-120554737D01*
X117968578Y-120697443D01*
X118216502Y-120747649D01*
X119116502Y-120747649D01*
X119348113Y-120704068D01*
X119560834Y-120567186D01*
X119703540Y-120358329D01*
X119753746Y-120110405D01*
X119753746Y-118910405D01*
X119710165Y-118678794D01*
X119573283Y-118466073D01*
X119492712Y-118411021D01*
X119560834Y-118367186D01*
X119703540Y-118158329D01*
X119753746Y-117910405D01*
X119753746Y-117842500D01*
X123111604Y-117842500D01*
X123193218Y-117969332D01*
X123402075Y-118112038D01*
X123649999Y-118162244D01*
X125149999Y-118162244D01*
X125381610Y-118118663D01*
X125594331Y-117981781D01*
X125646518Y-117905402D01*
X125795965Y-118054850D01*
X126025679Y-118150000D01*
X126618749Y-118150000D01*
X126774999Y-117993750D01*
X126774999Y-117025000D01*
X126754999Y-117025000D01*
X126754999Y-116775000D01*
X126774999Y-116775000D01*
X126774999Y-115806250D01*
X126618749Y-115650000D01*
X126025679Y-115650000D01*
X125795965Y-115745150D01*
X125647370Y-115893746D01*
X125606780Y-115830668D01*
X125397923Y-115687962D01*
X125342500Y-115676739D01*
X125342500Y-114801384D01*
X125345966Y-114804850D01*
X125575680Y-114900000D01*
X126018750Y-114900000D01*
X126175000Y-114743750D01*
X126175000Y-114025000D01*
X126425000Y-114025000D01*
X126425000Y-114743750D01*
X126581250Y-114900000D01*
X127024320Y-114900000D01*
X127254034Y-114804850D01*
X127429849Y-114629034D01*
X127525000Y-114399320D01*
X127525000Y-114181250D01*
X127368750Y-114025000D01*
X126425000Y-114025000D01*
X126175000Y-114025000D01*
X126155000Y-114025000D01*
X126155000Y-113775000D01*
X126175000Y-113775000D01*
X126175000Y-113056250D01*
X126425000Y-113056250D01*
X126425000Y-113775000D01*
X127368750Y-113775000D01*
X127525000Y-113618750D01*
X127525000Y-113400680D01*
X127429849Y-113170966D01*
X127254034Y-112995150D01*
X127024320Y-112900000D01*
X126581250Y-112900000D01*
X126425000Y-113056250D01*
X126175000Y-113056250D01*
X126018750Y-112900000D01*
X125575680Y-112900000D01*
X125392500Y-112975875D01*
X125392500Y-111427499D01*
X125399551Y-111392682D01*
X125431337Y-111561611D01*
X125568219Y-111774332D01*
X125777076Y-111917038D01*
X126025000Y-111967244D01*
X126675000Y-111967244D01*
X126906611Y-111923663D01*
X127119332Y-111786781D01*
X127262038Y-111577924D01*
X127312244Y-111330000D01*
X127312244Y-109770000D01*
X127268663Y-109538389D01*
X127131781Y-109325668D01*
X126945689Y-109198517D01*
X127119332Y-109086781D01*
X127262038Y-108877924D01*
X127312244Y-108630000D01*
X127312244Y-107070000D01*
X127268663Y-106838389D01*
X127178200Y-106697805D01*
X127178200Y-105850000D01*
X127115157Y-105533062D01*
X127059657Y-105450000D01*
X127075002Y-105450000D01*
X127075002Y-105293752D01*
X127231250Y-105450000D01*
X127824320Y-105450000D01*
X128054034Y-105354850D01*
X128229849Y-105179034D01*
X128325000Y-104949320D01*
X128325000Y-104481250D01*
X128168750Y-104325000D01*
X127075000Y-104325000D01*
X127075000Y-104345000D01*
X126825000Y-104345000D01*
X126825000Y-104325000D01*
X126805000Y-104325000D01*
X126805000Y-104075000D01*
X126825000Y-104075000D01*
X126825000Y-104055000D01*
X127075000Y-104055000D01*
X127075000Y-104075000D01*
X128168750Y-104075000D01*
X128325000Y-103918750D01*
X128325000Y-103450680D01*
X128229849Y-103220966D01*
X128054034Y-103045150D01*
X128047636Y-103042500D01*
X130159604Y-103042500D01*
X133341520Y-106224416D01*
X133128139Y-106266860D01*
X132600951Y-106619115D01*
X132248696Y-107146303D01*
X132125000Y-107768164D01*
X132125000Y-107831836D01*
X132248696Y-108453697D01*
X132585326Y-108957500D01*
X132400000Y-108957500D01*
X132039321Y-109029244D01*
X131733552Y-109233552D01*
X127933552Y-113033552D01*
X127729244Y-113339321D01*
X127657500Y-113700000D01*
X127657500Y-115650000D01*
X127181249Y-115650000D01*
X127024999Y-115806250D01*
X127024999Y-116775000D01*
X127044999Y-116775000D01*
X127044999Y-117025000D01*
X127024999Y-117025000D01*
X127024999Y-117993750D01*
X127181249Y-118150000D01*
X127657500Y-118150000D01*
X127657500Y-119409604D01*
X121733552Y-125333552D01*
X121616929Y-125508091D01*
X121493389Y-125531337D01*
X121280668Y-125668219D01*
X121137962Y-125877076D01*
X121087756Y-126125000D01*
X121087756Y-127475000D01*
X121131337Y-127706611D01*
X121268219Y-127919332D01*
X121477076Y-128062038D01*
X121725000Y-128112244D01*
X123075000Y-128112244D01*
X123306611Y-128068663D01*
X123519332Y-127931781D01*
X123594999Y-127821039D01*
X123902512Y-128026512D01*
X124400000Y-128125469D01*
X124897488Y-128026512D01*
X125319239Y-127744708D01*
X125320714Y-127742500D01*
X129154431Y-127742500D01*
X129268219Y-127919332D01*
X129477076Y-128062038D01*
X129725000Y-128112244D01*
X131075000Y-128112244D01*
X131306611Y-128068663D01*
X131519332Y-127931781D01*
X131607959Y-127802071D01*
X131740540Y-127920330D01*
X132074117Y-128058491D01*
X132275000Y-127936899D01*
X132275000Y-126925000D01*
X132525000Y-126925000D01*
X132525000Y-127936899D01*
X132725883Y-128058491D01*
X133059460Y-127920330D01*
X133437993Y-127582686D01*
X133658502Y-127125885D01*
X133537737Y-126925000D01*
X132525000Y-126925000D01*
X132275000Y-126925000D01*
X132255000Y-126925000D01*
X132255000Y-126675000D01*
X132275000Y-126675000D01*
X132275000Y-125663101D01*
X132525000Y-125663101D01*
X132525000Y-126675000D01*
X133537737Y-126675000D01*
X133658502Y-126474115D01*
X133437993Y-126017314D01*
X133059460Y-125679670D01*
X132725883Y-125541509D01*
X132525000Y-125663101D01*
X132275000Y-125663101D01*
X132074117Y-125541509D01*
X131740540Y-125679670D01*
X131607500Y-125798339D01*
X131531781Y-125680668D01*
X131342500Y-125551338D01*
X131342500Y-124490396D01*
X131666448Y-124166448D01*
X131870756Y-123860679D01*
X131942500Y-123500000D01*
X131942500Y-120241618D01*
X133274701Y-120241618D01*
X133536763Y-120875858D01*
X134021590Y-121361531D01*
X134655371Y-121624700D01*
X135341618Y-121625299D01*
X135975858Y-121363237D01*
X136461531Y-120878410D01*
X136724700Y-120244629D01*
X136725299Y-119558382D01*
X136463237Y-118924142D01*
X135978410Y-118438469D01*
X135344629Y-118175300D01*
X134658382Y-118174701D01*
X134024142Y-118436763D01*
X133538469Y-118921590D01*
X133275300Y-119555371D01*
X133274701Y-120241618D01*
X131942500Y-120241618D01*
X131942500Y-115768164D01*
X132125000Y-115768164D01*
X132125000Y-115831836D01*
X132248696Y-116453697D01*
X132600951Y-116980885D01*
X133128139Y-117333140D01*
X133750000Y-117456836D01*
X134371861Y-117333140D01*
X134706489Y-117109549D01*
X134793219Y-117244332D01*
X135002076Y-117387038D01*
X135250000Y-117437244D01*
X137250000Y-117437244D01*
X137481611Y-117393663D01*
X137694332Y-117256781D01*
X137837038Y-117047924D01*
X137887244Y-116800000D01*
X137887244Y-114800000D01*
X137843663Y-114568389D01*
X137706781Y-114355668D01*
X137497924Y-114212962D01*
X137250000Y-114162756D01*
X135250000Y-114162756D01*
X135018389Y-114206337D01*
X134805668Y-114343219D01*
X134705514Y-114489799D01*
X134371861Y-114266860D01*
X133750000Y-114143164D01*
X133128139Y-114266860D01*
X132600951Y-114619115D01*
X132248696Y-115146303D01*
X132125000Y-115768164D01*
X131942500Y-115768164D01*
X131942500Y-114940396D01*
X133479805Y-113403091D01*
X133750000Y-113456836D01*
X134371861Y-113333140D01*
X134899049Y-112980885D01*
X135000000Y-112829801D01*
X135100951Y-112980885D01*
X135628139Y-113333140D01*
X136250000Y-113456836D01*
X136871861Y-113333140D01*
X137399049Y-112980885D01*
X137751304Y-112453697D01*
X137875000Y-111831836D01*
X137875000Y-111768164D01*
X137751304Y-111146303D01*
X137399049Y-110619115D01*
X136871861Y-110266860D01*
X136532191Y-110199295D01*
X135675446Y-109342550D01*
X136250000Y-109456836D01*
X136871861Y-109333140D01*
X137399049Y-108980885D01*
X137751304Y-108453697D01*
X137875000Y-107831836D01*
X137875000Y-107768164D01*
X137751304Y-107146303D01*
X137399049Y-106619115D01*
X136871861Y-106266860D01*
X136250000Y-106143164D01*
X135979805Y-106196909D01*
X135208078Y-105425182D01*
X135341618Y-105425299D01*
X135975858Y-105163237D01*
X136461531Y-104678410D01*
X136724700Y-104044629D01*
X136725299Y-103358382D01*
X136463237Y-102724142D01*
X135978410Y-102238469D01*
X135344629Y-101975300D01*
X134658382Y-101974701D01*
X134024142Y-102236763D01*
X133538469Y-102721590D01*
X133275300Y-103355371D01*
X133275180Y-103492284D01*
X131216448Y-101433552D01*
X130910679Y-101229244D01*
X130550000Y-101157500D01*
X125700000Y-101157500D01*
X125339321Y-101229244D01*
X125033552Y-101433552D01*
X123783552Y-102683552D01*
X123601288Y-102956330D01*
X123468389Y-102981337D01*
X123255668Y-103118219D01*
X123160501Y-103257500D01*
X123065822Y-103257500D01*
X122878348Y-103257336D01*
X122531814Y-103400521D01*
X122266453Y-103665419D01*
X122122664Y-104011703D01*
X122122336Y-104386652D01*
X122265521Y-104733186D01*
X122530419Y-104998547D01*
X122876703Y-105142336D01*
X123161660Y-105142585D01*
X123243219Y-105269332D01*
X123452076Y-105412038D01*
X123507500Y-105423262D01*
X123507500Y-106972501D01*
X123487756Y-107070000D01*
X123487756Y-108630000D01*
X123531337Y-108861611D01*
X123668219Y-109074332D01*
X123854311Y-109201483D01*
X123680668Y-109313219D01*
X123537962Y-109522076D01*
X123487756Y-109770000D01*
X123487756Y-111330000D01*
X123507500Y-111434929D01*
X123507500Y-112970518D01*
X123355668Y-113068219D01*
X123212962Y-113277076D01*
X123162756Y-113525000D01*
X123162756Y-114275000D01*
X123206337Y-114506611D01*
X123343219Y-114719332D01*
X123457500Y-114797417D01*
X123457500Y-115673978D01*
X123418388Y-115681337D01*
X123205667Y-115818219D01*
X123110500Y-115957500D01*
X121342500Y-115957500D01*
X121342500Y-104600000D01*
X121270756Y-104239321D01*
X121066448Y-103933552D01*
X118966448Y-101833552D01*
X118963871Y-101831830D01*
X118987038Y-101797924D01*
X119037244Y-101550000D01*
X119037244Y-100650000D01*
X118993663Y-100418389D01*
X118856781Y-100205668D01*
X118647924Y-100062962D01*
X118400000Y-100012756D01*
X117884008Y-100012756D01*
X117883496Y-100012244D01*
X118600000Y-100012244D01*
X118831611Y-99968663D01*
X119044332Y-99831781D01*
X119187038Y-99622924D01*
X119237244Y-99375000D01*
X119237244Y-98625000D01*
X119193663Y-98393389D01*
X119056781Y-98180668D01*
X118847924Y-98037962D01*
X118600000Y-97987756D01*
X118159008Y-97987756D01*
X116352502Y-96181250D01*
X120825000Y-96181250D01*
X120825000Y-96874320D01*
X120920150Y-97104034D01*
X121095966Y-97279849D01*
X121325680Y-97375000D01*
X122018750Y-97375000D01*
X122175000Y-97218750D01*
X122175000Y-96025000D01*
X120981250Y-96025000D01*
X120825000Y-96181250D01*
X116352502Y-96181250D01*
X116335625Y-96164373D01*
X116066938Y-95984842D01*
X115749999Y-95921799D01*
X114175000Y-95921799D01*
X114175000Y-95871103D01*
X114062722Y-95306645D01*
X113808171Y-94925680D01*
X120825000Y-94925680D01*
X120825000Y-95618750D01*
X120981250Y-95775000D01*
X122175000Y-95775000D01*
X122175000Y-94581250D01*
X122425000Y-94581250D01*
X122425000Y-95775000D01*
X122445000Y-95775000D01*
X122445000Y-96025000D01*
X122425000Y-96025000D01*
X122425000Y-97218750D01*
X122581250Y-97375000D01*
X123274320Y-97375000D01*
X123504034Y-97279849D01*
X123679850Y-97104034D01*
X123758479Y-96914204D01*
X123797017Y-96971880D01*
X124275542Y-97291619D01*
X124840000Y-97403897D01*
X125404458Y-97291619D01*
X125882983Y-96971880D01*
X126110000Y-96632124D01*
X126337017Y-96971880D01*
X126815542Y-97291619D01*
X127380000Y-97403897D01*
X127944458Y-97291619D01*
X128422983Y-96971880D01*
X128742722Y-96493355D01*
X128855000Y-95928897D01*
X128855000Y-95871103D01*
X128742722Y-95306645D01*
X128422983Y-94828120D01*
X127944458Y-94508381D01*
X127380000Y-94396103D01*
X126815542Y-94508381D01*
X126337017Y-94828120D01*
X126110000Y-95167876D01*
X125882983Y-94828120D01*
X125404458Y-94508381D01*
X124840000Y-94396103D01*
X124275542Y-94508381D01*
X123797017Y-94828120D01*
X123758479Y-94885796D01*
X123679850Y-94695966D01*
X123504034Y-94520151D01*
X123274320Y-94425000D01*
X122581250Y-94425000D01*
X122425000Y-94581250D01*
X122175000Y-94581250D01*
X122018750Y-94425000D01*
X121325680Y-94425000D01*
X121095966Y-94520151D01*
X120920150Y-94695966D01*
X120825000Y-94925680D01*
X113808171Y-94925680D01*
X113742983Y-94828120D01*
X113264458Y-94508381D01*
X112700000Y-94396103D01*
X112135542Y-94508381D01*
X111657017Y-94828120D01*
X111430000Y-95167876D01*
X111202983Y-94828120D01*
X110724458Y-94508381D01*
X110160000Y-94396103D01*
X109595542Y-94508381D01*
X109117017Y-94828120D01*
X108890000Y-95167876D01*
X108662983Y-94828120D01*
X108184458Y-94508381D01*
X107620000Y-94396103D01*
X107055542Y-94508381D01*
X106577017Y-94828120D01*
X106350000Y-95167876D01*
X106122983Y-94828120D01*
X105644458Y-94508381D01*
X105080000Y-94396103D01*
X104515542Y-94508381D01*
X104037017Y-94828120D01*
X103800915Y-95181473D01*
X103727815Y-95025503D01*
X103302742Y-94637513D01*
X102893372Y-94467955D01*
X102665000Y-94587188D01*
X102665000Y-95775000D01*
X102685000Y-95775000D01*
X102685000Y-96025000D01*
X102665000Y-96025000D01*
X102665000Y-97212812D01*
X102893372Y-97332045D01*
X103302742Y-97162487D01*
X103727815Y-96774497D01*
X103800915Y-96618527D01*
X104037017Y-96971880D01*
X104515542Y-97291619D01*
X105080000Y-97403897D01*
X105644458Y-97291619D01*
X106122983Y-96971880D01*
X106350000Y-96632124D01*
X106577017Y-96971880D01*
X106802800Y-97122743D01*
X106802800Y-97790000D01*
X106865843Y-98106939D01*
X107045374Y-98375626D01*
X107210782Y-98541034D01*
X107066814Y-98600521D01*
X107063088Y-98604240D01*
X106900000Y-98571800D01*
X98673600Y-98571800D01*
X98356661Y-98634843D01*
X98087974Y-98814374D01*
X96961883Y-99940465D01*
X96686814Y-100054121D01*
X96421453Y-100319019D01*
X96277664Y-100665303D01*
X96277336Y-101040252D01*
X96420521Y-101386786D01*
X96685419Y-101652147D01*
X97031703Y-101795936D01*
X97406652Y-101796264D01*
X97753186Y-101653079D01*
X98018547Y-101388181D01*
X98133493Y-101111359D01*
X99016652Y-100228200D01*
X103512421Y-100228200D01*
X103487756Y-100350000D01*
X103487756Y-101687756D01*
X102150000Y-101687756D01*
X101918389Y-101731337D01*
X101705668Y-101868219D01*
X101562962Y-102077076D01*
X101512756Y-102325000D01*
X101512756Y-102571800D01*
X99943052Y-102571800D01*
X99785626Y-102414374D01*
X99516939Y-102234843D01*
X99200000Y-102171800D01*
X95600000Y-102171800D01*
X95283061Y-102234843D01*
X95014374Y-102414374D01*
X93914374Y-103514374D01*
X93734843Y-103783061D01*
X93707853Y-103918750D01*
X93671800Y-104100000D01*
X93671800Y-113719672D01*
X93615636Y-113803727D01*
X93530000Y-114234246D01*
X93530000Y-115705754D01*
X93615636Y-116136273D01*
X93859505Y-116501249D01*
X94224481Y-116745118D01*
X94655000Y-116830754D01*
X95085519Y-116745118D01*
X95290000Y-116608488D01*
X95494481Y-116745118D01*
X95925000Y-116830754D01*
X96355519Y-116745118D01*
X96560000Y-116608488D01*
X96764481Y-116745118D01*
X97195000Y-116830754D01*
X97625519Y-116745118D01*
X97830000Y-116608488D01*
X98034481Y-116745118D01*
X98465000Y-116830754D01*
X98895519Y-116745118D01*
X99100000Y-116608488D01*
X99304481Y-116745118D01*
X99735000Y-116830754D01*
X100165519Y-116745118D01*
X100370000Y-116608488D01*
X100574481Y-116745118D01*
X101005000Y-116830754D01*
X101435519Y-116745118D01*
X101640000Y-116608488D01*
X101844481Y-116745118D01*
X102275000Y-116830754D01*
X102705519Y-116745118D01*
X102926538Y-116597438D01*
X103246640Y-116754715D01*
X103420000Y-116630652D01*
X103420000Y-115095000D01*
X103670000Y-115095000D01*
X103670000Y-116630652D01*
X103843360Y-116754715D01*
X104252107Y-116553884D01*
X104536529Y-116216004D01*
X104670000Y-115795000D01*
X104670000Y-115095000D01*
X103670000Y-115095000D01*
X103420000Y-115095000D01*
X103400000Y-115095000D01*
X103400000Y-114845000D01*
X103420000Y-114845000D01*
X103420000Y-114825000D01*
X103670000Y-114825000D01*
X103670000Y-114845000D01*
X104670000Y-114845000D01*
X104670000Y-114175000D01*
X106612755Y-114175000D01*
X106612755Y-115425000D01*
X106656336Y-115656611D01*
X106793218Y-115869332D01*
X107002075Y-116012038D01*
X107249999Y-116062244D01*
X108749999Y-116062244D01*
X108981610Y-116018663D01*
X109194331Y-115881781D01*
X109246518Y-115805402D01*
X109395965Y-115954850D01*
X109625679Y-116050000D01*
X110218749Y-116050000D01*
X110374999Y-115893750D01*
X110374999Y-114925000D01*
X110624999Y-114925000D01*
X110624999Y-115893750D01*
X110781249Y-116050000D01*
X111374319Y-116050000D01*
X111604033Y-115954850D01*
X111779848Y-115779034D01*
X111874999Y-115549320D01*
X111874999Y-115081250D01*
X111718749Y-114925000D01*
X110624999Y-114925000D01*
X110374999Y-114925000D01*
X110354999Y-114925000D01*
X110354999Y-114675000D01*
X110374999Y-114675000D01*
X110374999Y-113706250D01*
X110624999Y-113706250D01*
X110624999Y-114675000D01*
X111718749Y-114675000D01*
X111874999Y-114518750D01*
X111874999Y-114050680D01*
X111779848Y-113820966D01*
X111604033Y-113645150D01*
X111374319Y-113550000D01*
X110781249Y-113550000D01*
X110624999Y-113706250D01*
X110374999Y-113706250D01*
X110218749Y-113550000D01*
X109625679Y-113550000D01*
X109395965Y-113645150D01*
X109247370Y-113793746D01*
X109206780Y-113730668D01*
X108997923Y-113587962D01*
X108942521Y-113576743D01*
X108942664Y-113413348D01*
X108799479Y-113066814D01*
X108534581Y-112801453D01*
X108188297Y-112657664D01*
X107813348Y-112657336D01*
X107466814Y-112800521D01*
X107201453Y-113065419D01*
X107057664Y-113411703D01*
X107057522Y-113573973D01*
X107018388Y-113581337D01*
X106805667Y-113718219D01*
X106662961Y-113927076D01*
X106612755Y-114175000D01*
X104670000Y-114175000D01*
X104670000Y-114145000D01*
X104601268Y-113928200D01*
X105200000Y-113928200D01*
X105516939Y-113865157D01*
X105785626Y-113685626D01*
X107385626Y-112085626D01*
X107565157Y-111816938D01*
X107628200Y-111500000D01*
X107628200Y-111087244D01*
X107875000Y-111087244D01*
X108004589Y-111062860D01*
X108125000Y-111087244D01*
X108675000Y-111087244D01*
X108804589Y-111062860D01*
X108925000Y-111087244D01*
X109475000Y-111087244D01*
X109604589Y-111062860D01*
X109725000Y-111087244D01*
X110275000Y-111087244D01*
X110506611Y-111043663D01*
X110719332Y-110906781D01*
X110862038Y-110697924D01*
X110912244Y-110450000D01*
X110912244Y-109112244D01*
X112250000Y-109112244D01*
X112481611Y-109068663D01*
X112528952Y-109038200D01*
X113066948Y-109038200D01*
X114262756Y-110234008D01*
X114262756Y-110530105D01*
X114088297Y-110457664D01*
X113878261Y-110457480D01*
X113799479Y-110266814D01*
X113534581Y-110001453D01*
X113188297Y-109857664D01*
X112813348Y-109857336D01*
X112466814Y-110000521D01*
X112201453Y-110265419D01*
X112057664Y-110611703D01*
X112057336Y-110986652D01*
X112171800Y-111263676D01*
X112171800Y-115456948D01*
X110180875Y-117447873D01*
X110001344Y-117716560D01*
X109990564Y-117770755D01*
X109938301Y-118033499D01*
X109938301Y-119566098D01*
X109934890Y-119566740D01*
X109722169Y-119703622D01*
X109667117Y-119784193D01*
X109623282Y-119716071D01*
X109414425Y-119573365D01*
X109166501Y-119523159D01*
X107966501Y-119523159D01*
X107734890Y-119566740D01*
X107522169Y-119703622D01*
X107379463Y-119912479D01*
X107329257Y-120160403D01*
X107329257Y-121060403D01*
X107372838Y-121292014D01*
X107503002Y-121494295D01*
X107503002Y-122936298D01*
X107458464Y-123001481D01*
X107408258Y-123249405D01*
X107408258Y-124149405D01*
X107451839Y-124381016D01*
X107588721Y-124593737D01*
X107797578Y-124736443D01*
X108045502Y-124786649D01*
X108560455Y-124786649D01*
X108551170Y-124792624D01*
X108408464Y-125001481D01*
X108358258Y-125249405D01*
X108358258Y-126149405D01*
X108401839Y-126381016D01*
X108471800Y-126489739D01*
X108471800Y-128584607D01*
X108257017Y-128728120D01*
X108125000Y-128925698D01*
X108125000Y-125000000D01*
X108116451Y-124954568D01*
X108089601Y-124912841D01*
X108048632Y-124884848D01*
X108000000Y-124875000D01*
X88800000Y-124875000D01*
X88800000Y-95839380D01*
X89121590Y-96161531D01*
X89755371Y-96424700D01*
X90441618Y-96425299D01*
X91032263Y-96181250D01*
X98525000Y-96181250D01*
X98525000Y-96874320D01*
X98620150Y-97104034D01*
X98795966Y-97279849D01*
X99025680Y-97375000D01*
X99718750Y-97375000D01*
X99875000Y-97218750D01*
X99875000Y-96025000D01*
X100125000Y-96025000D01*
X100125000Y-97218750D01*
X100281250Y-97375000D01*
X100974320Y-97375000D01*
X101204034Y-97279849D01*
X101379850Y-97104034D01*
X101471310Y-96883229D01*
X101777258Y-97162487D01*
X102186628Y-97332045D01*
X102415000Y-97212812D01*
X102415000Y-96025000D01*
X100125000Y-96025000D01*
X99875000Y-96025000D01*
X98681250Y-96025000D01*
X98525000Y-96181250D01*
X91032263Y-96181250D01*
X91075858Y-96163237D01*
X91561531Y-95678410D01*
X91824700Y-95044629D01*
X91824803Y-94925680D01*
X98525000Y-94925680D01*
X98525000Y-95618750D01*
X98681250Y-95775000D01*
X99875000Y-95775000D01*
X99875000Y-94581250D01*
X100125000Y-94581250D01*
X100125000Y-95775000D01*
X102415000Y-95775000D01*
X102415000Y-94587188D01*
X102186628Y-94467955D01*
X101777258Y-94637513D01*
X101471310Y-94916771D01*
X101379850Y-94695966D01*
X101204034Y-94520151D01*
X100974320Y-94425000D01*
X100281250Y-94425000D01*
X100125000Y-94581250D01*
X99875000Y-94581250D01*
X99718750Y-94425000D01*
X99025680Y-94425000D01*
X98795966Y-94520151D01*
X98620150Y-94695966D01*
X98525000Y-94925680D01*
X91824803Y-94925680D01*
X91825299Y-94358382D01*
X91563237Y-93724142D01*
X91239660Y-93400000D01*
X138160620Y-93400000D01*
X137838469Y-93721590D01*
X137838469Y-93721590D01*
G37*
X137838469Y-93721590D02*
X137575300Y-94355371D01*
X137574701Y-95041618D01*
X137836763Y-95675858D01*
X138321590Y-96161531D01*
X138955371Y-96424700D01*
X139641618Y-96425299D01*
X140275858Y-96163237D01*
X140600000Y-95839660D01*
X140600000Y-129860620D01*
X140278410Y-129538469D01*
X139644629Y-129275300D01*
X138958382Y-129274701D01*
X138324142Y-129536763D01*
X137838469Y-130021590D01*
X137575300Y-130655371D01*
X137574701Y-131341618D01*
X137836763Y-131975858D01*
X138160340Y-132300000D01*
X108125000Y-132300000D01*
X108125000Y-130674302D01*
X108257017Y-130871880D01*
X108735542Y-131191619D01*
X109300000Y-131303897D01*
X109864458Y-131191619D01*
X110342983Y-130871880D01*
X110570000Y-130532124D01*
X110797017Y-130871880D01*
X111275542Y-131191619D01*
X111840000Y-131303897D01*
X112404458Y-131191619D01*
X112882983Y-130871880D01*
X112923185Y-130811714D01*
X112936337Y-130881611D01*
X113073219Y-131094332D01*
X113282076Y-131237038D01*
X113530000Y-131287244D01*
X115230000Y-131287244D01*
X115461611Y-131243663D01*
X115674332Y-131106781D01*
X115817038Y-130897924D01*
X115867244Y-130650000D01*
X115867244Y-128950000D01*
X115823663Y-128718389D01*
X115686781Y-128505668D01*
X115477924Y-128362962D01*
X115230000Y-128312756D01*
X113530000Y-128312756D01*
X113298389Y-128356337D01*
X113085668Y-128493219D01*
X112942962Y-128702076D01*
X112924965Y-128790950D01*
X112882983Y-128728120D01*
X112668200Y-128584607D01*
X112668200Y-127703052D01*
X113534008Y-126837244D01*
X114050000Y-126837244D01*
X114281611Y-126793663D01*
X114494332Y-126656781D01*
X114637038Y-126447924D01*
X114687244Y-126200000D01*
X114687244Y-125000000D01*
X114643663Y-124768389D01*
X114506781Y-124555668D01*
X114426210Y-124500616D01*
X114494332Y-124456781D01*
X114637038Y-124247924D01*
X114687244Y-124000000D01*
X114687244Y-122800000D01*
X114643663Y-122568389D01*
X114506781Y-122355668D01*
X114428200Y-122301976D01*
X114428200Y-120867957D01*
X114441833Y-120859184D01*
X114584539Y-120650327D01*
X114634745Y-120402403D01*
X114634745Y-119887450D01*
X114640720Y-119896735D01*
X114849577Y-120039441D01*
X115097501Y-120089647D01*
X115997501Y-120089647D01*
X116229112Y-120046066D01*
X116240708Y-120038604D01*
X117579258Y-120038604D01*
X117579258Y-120110405D01*
X117622839Y-120342016D01*
X117759721Y-120554737D01*
X117968578Y-120697443D01*
X118216502Y-120747649D01*
X119116502Y-120747649D01*
X119348113Y-120704068D01*
X119560834Y-120567186D01*
X119703540Y-120358329D01*
X119753746Y-120110405D01*
X119753746Y-118910405D01*
X119710165Y-118678794D01*
X119573283Y-118466073D01*
X119492712Y-118411021D01*
X119560834Y-118367186D01*
X119703540Y-118158329D01*
X119753746Y-117910405D01*
X119753746Y-117842500D01*
X123111604Y-117842500D01*
X123193218Y-117969332D01*
X123402075Y-118112038D01*
X123649999Y-118162244D01*
X125149999Y-118162244D01*
X125381610Y-118118663D01*
X125594331Y-117981781D01*
X125646518Y-117905402D01*
X125795965Y-118054850D01*
X126025679Y-118150000D01*
X126618749Y-118150000D01*
X126774999Y-117993750D01*
X126774999Y-117025000D01*
X126754999Y-117025000D01*
X126754999Y-116775000D01*
X126774999Y-116775000D01*
X126774999Y-115806250D01*
X126618749Y-115650000D01*
X126025679Y-115650000D01*
X125795965Y-115745150D01*
X125647370Y-115893746D01*
X125606780Y-115830668D01*
X125397923Y-115687962D01*
X125342500Y-115676739D01*
X125342500Y-114801384D01*
X125345966Y-114804850D01*
X125575680Y-114900000D01*
X126018750Y-114900000D01*
X126175000Y-114743750D01*
X126175000Y-114025000D01*
X126425000Y-114025000D01*
X126425000Y-114743750D01*
X126581250Y-114900000D01*
X127024320Y-114900000D01*
X127254034Y-114804850D01*
X127429849Y-114629034D01*
X127525000Y-114399320D01*
X127525000Y-114181250D01*
X127368750Y-114025000D01*
X126425000Y-114025000D01*
X126175000Y-114025000D01*
X126155000Y-114025000D01*
X126155000Y-113775000D01*
X126175000Y-113775000D01*
X126175000Y-113056250D01*
X126425000Y-113056250D01*
X126425000Y-113775000D01*
X127368750Y-113775000D01*
X127525000Y-113618750D01*
X127525000Y-113400680D01*
X127429849Y-113170966D01*
X127254034Y-112995150D01*
X127024320Y-112900000D01*
X126581250Y-112900000D01*
X126425000Y-113056250D01*
X126175000Y-113056250D01*
X126018750Y-112900000D01*
X125575680Y-112900000D01*
X125392500Y-112975875D01*
X125392500Y-111427499D01*
X125399551Y-111392682D01*
X125431337Y-111561611D01*
X125568219Y-111774332D01*
X125777076Y-111917038D01*
X126025000Y-111967244D01*
X126675000Y-111967244D01*
X126906611Y-111923663D01*
X127119332Y-111786781D01*
X127262038Y-111577924D01*
X127312244Y-111330000D01*
X127312244Y-109770000D01*
X127268663Y-109538389D01*
X127131781Y-109325668D01*
X126945689Y-109198517D01*
X127119332Y-109086781D01*
X127262038Y-108877924D01*
X127312244Y-108630000D01*
X127312244Y-107070000D01*
X127268663Y-106838389D01*
X127178200Y-106697805D01*
X127178200Y-105850000D01*
X127115157Y-105533062D01*
X127059657Y-105450000D01*
X127075002Y-105450000D01*
X127075002Y-105293752D01*
X127231250Y-105450000D01*
X127824320Y-105450000D01*
X128054034Y-105354850D01*
X128229849Y-105179034D01*
X128325000Y-104949320D01*
X128325000Y-104481250D01*
X128168750Y-104325000D01*
X127075000Y-104325000D01*
X127075000Y-104345000D01*
X126825000Y-104345000D01*
X126825000Y-104325000D01*
X126805000Y-104325000D01*
X126805000Y-104075000D01*
X126825000Y-104075000D01*
X126825000Y-104055000D01*
X127075000Y-104055000D01*
X127075000Y-104075000D01*
X128168750Y-104075000D01*
X128325000Y-103918750D01*
X128325000Y-103450680D01*
X128229849Y-103220966D01*
X128054034Y-103045150D01*
X128047636Y-103042500D01*
X130159604Y-103042500D01*
X133341520Y-106224416D01*
X133128139Y-106266860D01*
X132600951Y-106619115D01*
X132248696Y-107146303D01*
X132125000Y-107768164D01*
X132125000Y-107831836D01*
X132248696Y-108453697D01*
X132585326Y-108957500D01*
X132400000Y-108957500D01*
X132039321Y-109029244D01*
X131733552Y-109233552D01*
X127933552Y-113033552D01*
X127729244Y-113339321D01*
X127657500Y-113700000D01*
X127657500Y-115650000D01*
X127181249Y-115650000D01*
X127024999Y-115806250D01*
X127024999Y-116775000D01*
X127044999Y-116775000D01*
X127044999Y-117025000D01*
X127024999Y-117025000D01*
X127024999Y-117993750D01*
X127181249Y-118150000D01*
X127657500Y-118150000D01*
X127657500Y-119409604D01*
X121733552Y-125333552D01*
X121616929Y-125508091D01*
X121493389Y-125531337D01*
X121280668Y-125668219D01*
X121137962Y-125877076D01*
X121087756Y-126125000D01*
X121087756Y-127475000D01*
X121131337Y-127706611D01*
X121268219Y-127919332D01*
X121477076Y-128062038D01*
X121725000Y-128112244D01*
X123075000Y-128112244D01*
X123306611Y-128068663D01*
X123519332Y-127931781D01*
X123594999Y-127821039D01*
X123902512Y-128026512D01*
X124400000Y-128125469D01*
X124897488Y-128026512D01*
X125319239Y-127744708D01*
X125320714Y-127742500D01*
X129154431Y-127742500D01*
X129268219Y-127919332D01*
X129477076Y-128062038D01*
X129725000Y-128112244D01*
X131075000Y-128112244D01*
X131306611Y-128068663D01*
X131519332Y-127931781D01*
X131607959Y-127802071D01*
X131740540Y-127920330D01*
X132074117Y-128058491D01*
X132275000Y-127936899D01*
X132275000Y-126925000D01*
X132525000Y-126925000D01*
X132525000Y-127936899D01*
X132725883Y-128058491D01*
X133059460Y-127920330D01*
X133437993Y-127582686D01*
X133658502Y-127125885D01*
X133537737Y-126925000D01*
X132525000Y-126925000D01*
X132275000Y-126925000D01*
X132255000Y-126925000D01*
X132255000Y-126675000D01*
X132275000Y-126675000D01*
X132275000Y-125663101D01*
X132525000Y-125663101D01*
X132525000Y-126675000D01*
X133537737Y-126675000D01*
X133658502Y-126474115D01*
X133437993Y-126017314D01*
X133059460Y-125679670D01*
X132725883Y-125541509D01*
X132525000Y-125663101D01*
X132275000Y-125663101D01*
X132074117Y-125541509D01*
X131740540Y-125679670D01*
X131607500Y-125798339D01*
X131531781Y-125680668D01*
X131342500Y-125551338D01*
X131342500Y-124490396D01*
X131666448Y-124166448D01*
X131870756Y-123860679D01*
X131942500Y-123500000D01*
X131942500Y-120241618D01*
X133274701Y-120241618D01*
X133536763Y-120875858D01*
X134021590Y-121361531D01*
X134655371Y-121624700D01*
X135341618Y-121625299D01*
X135975858Y-121363237D01*
X136461531Y-120878410D01*
X136724700Y-120244629D01*
X136725299Y-119558382D01*
X136463237Y-118924142D01*
X135978410Y-118438469D01*
X135344629Y-118175300D01*
X134658382Y-118174701D01*
X134024142Y-118436763D01*
X133538469Y-118921590D01*
X133275300Y-119555371D01*
X133274701Y-120241618D01*
X131942500Y-120241618D01*
X131942500Y-115768164D01*
X132125000Y-115768164D01*
X132125000Y-115831836D01*
X132248696Y-116453697D01*
X132600951Y-116980885D01*
X133128139Y-117333140D01*
X133750000Y-117456836D01*
X134371861Y-117333140D01*
X134706489Y-117109549D01*
X134793219Y-117244332D01*
X135002076Y-117387038D01*
X135250000Y-117437244D01*
X137250000Y-117437244D01*
X137481611Y-117393663D01*
X137694332Y-117256781D01*
X137837038Y-117047924D01*
X137887244Y-116800000D01*
X137887244Y-114800000D01*
X137843663Y-114568389D01*
X137706781Y-114355668D01*
X137497924Y-114212962D01*
X137250000Y-114162756D01*
X135250000Y-114162756D01*
X135018389Y-114206337D01*
X134805668Y-114343219D01*
X134705514Y-114489799D01*
X134371861Y-114266860D01*
X133750000Y-114143164D01*
X133128139Y-114266860D01*
X132600951Y-114619115D01*
X132248696Y-115146303D01*
X132125000Y-115768164D01*
X131942500Y-115768164D01*
X131942500Y-114940396D01*
X133479805Y-113403091D01*
X133750000Y-113456836D01*
X134371861Y-113333140D01*
X134899049Y-112980885D01*
X135000000Y-112829801D01*
X135100951Y-112980885D01*
X135628139Y-113333140D01*
X136250000Y-113456836D01*
X136871861Y-113333140D01*
X137399049Y-112980885D01*
X137751304Y-112453697D01*
X137875000Y-111831836D01*
X137875000Y-111768164D01*
X137751304Y-111146303D01*
X137399049Y-110619115D01*
X136871861Y-110266860D01*
X136532191Y-110199295D01*
X135675446Y-109342550D01*
X136250000Y-109456836D01*
X136871861Y-109333140D01*
X137399049Y-108980885D01*
X137751304Y-108453697D01*
X137875000Y-107831836D01*
X137875000Y-107768164D01*
X137751304Y-107146303D01*
X137399049Y-106619115D01*
X136871861Y-106266860D01*
X136250000Y-106143164D01*
X135979805Y-106196909D01*
X135208078Y-105425182D01*
X135341618Y-105425299D01*
X135975858Y-105163237D01*
X136461531Y-104678410D01*
X136724700Y-104044629D01*
X136725299Y-103358382D01*
X136463237Y-102724142D01*
X135978410Y-102238469D01*
X135344629Y-101975300D01*
X134658382Y-101974701D01*
X134024142Y-102236763D01*
X133538469Y-102721590D01*
X133275300Y-103355371D01*
X133275180Y-103492284D01*
X131216448Y-101433552D01*
X130910679Y-101229244D01*
X130550000Y-101157500D01*
X125700000Y-101157500D01*
X125339321Y-101229244D01*
X125033552Y-101433552D01*
X123783552Y-102683552D01*
X123601288Y-102956330D01*
X123468389Y-102981337D01*
X123255668Y-103118219D01*
X123160501Y-103257500D01*
X123065822Y-103257500D01*
X122878348Y-103257336D01*
X122531814Y-103400521D01*
X122266453Y-103665419D01*
X122122664Y-104011703D01*
X122122336Y-104386652D01*
X122265521Y-104733186D01*
X122530419Y-104998547D01*
X122876703Y-105142336D01*
X123161660Y-105142585D01*
X123243219Y-105269332D01*
X123452076Y-105412038D01*
X123507500Y-105423262D01*
X123507500Y-106972501D01*
X123487756Y-107070000D01*
X123487756Y-108630000D01*
X123531337Y-108861611D01*
X123668219Y-109074332D01*
X123854311Y-109201483D01*
X123680668Y-109313219D01*
X123537962Y-109522076D01*
X123487756Y-109770000D01*
X123487756Y-111330000D01*
X123507500Y-111434929D01*
X123507500Y-112970518D01*
X123355668Y-113068219D01*
X123212962Y-113277076D01*
X123162756Y-113525000D01*
X123162756Y-114275000D01*
X123206337Y-114506611D01*
X123343219Y-114719332D01*
X123457500Y-114797417D01*
X123457500Y-115673978D01*
X123418388Y-115681337D01*
X123205667Y-115818219D01*
X123110500Y-115957500D01*
X121342500Y-115957500D01*
X121342500Y-104600000D01*
X121270756Y-104239321D01*
X121066448Y-103933552D01*
X118966448Y-101833552D01*
X118963871Y-101831830D01*
X118987038Y-101797924D01*
X119037244Y-101550000D01*
X119037244Y-100650000D01*
X118993663Y-100418389D01*
X118856781Y-100205668D01*
X118647924Y-100062962D01*
X118400000Y-100012756D01*
X117884008Y-100012756D01*
X117883496Y-100012244D01*
X118600000Y-100012244D01*
X118831611Y-99968663D01*
X119044332Y-99831781D01*
X119187038Y-99622924D01*
X119237244Y-99375000D01*
X119237244Y-98625000D01*
X119193663Y-98393389D01*
X119056781Y-98180668D01*
X118847924Y-98037962D01*
X118600000Y-97987756D01*
X118159008Y-97987756D01*
X116352502Y-96181250D01*
X120825000Y-96181250D01*
X120825000Y-96874320D01*
X120920150Y-97104034D01*
X121095966Y-97279849D01*
X121325680Y-97375000D01*
X122018750Y-97375000D01*
X122175000Y-97218750D01*
X122175000Y-96025000D01*
X120981250Y-96025000D01*
X120825000Y-96181250D01*
X116352502Y-96181250D01*
X116335625Y-96164373D01*
X116066938Y-95984842D01*
X115749999Y-95921799D01*
X114175000Y-95921799D01*
X114175000Y-95871103D01*
X114062722Y-95306645D01*
X113808171Y-94925680D01*
X120825000Y-94925680D01*
X120825000Y-95618750D01*
X120981250Y-95775000D01*
X122175000Y-95775000D01*
X122175000Y-94581250D01*
X122425000Y-94581250D01*
X122425000Y-95775000D01*
X122445000Y-95775000D01*
X122445000Y-96025000D01*
X122425000Y-96025000D01*
X122425000Y-97218750D01*
X122581250Y-97375000D01*
X123274320Y-97375000D01*
X123504034Y-97279849D01*
X123679850Y-97104034D01*
X123758479Y-96914204D01*
X123797017Y-96971880D01*
X124275542Y-97291619D01*
X124840000Y-97403897D01*
X125404458Y-97291619D01*
X125882983Y-96971880D01*
X126110000Y-96632124D01*
X126337017Y-96971880D01*
X126815542Y-97291619D01*
X127380000Y-97403897D01*
X127944458Y-97291619D01*
X128422983Y-96971880D01*
X128742722Y-96493355D01*
X128855000Y-95928897D01*
X128855000Y-95871103D01*
X128742722Y-95306645D01*
X128422983Y-94828120D01*
X127944458Y-94508381D01*
X127380000Y-94396103D01*
X126815542Y-94508381D01*
X126337017Y-94828120D01*
X126110000Y-95167876D01*
X125882983Y-94828120D01*
X125404458Y-94508381D01*
X124840000Y-94396103D01*
X124275542Y-94508381D01*
X123797017Y-94828120D01*
X123758479Y-94885796D01*
X123679850Y-94695966D01*
X123504034Y-94520151D01*
X123274320Y-94425000D01*
X122581250Y-94425000D01*
X122425000Y-94581250D01*
X122175000Y-94581250D01*
X122018750Y-94425000D01*
X121325680Y-94425000D01*
X121095966Y-94520151D01*
X120920150Y-94695966D01*
X120825000Y-94925680D01*
X113808171Y-94925680D01*
X113742983Y-94828120D01*
X113264458Y-94508381D01*
X112700000Y-94396103D01*
X112135542Y-94508381D01*
X111657017Y-94828120D01*
X111430000Y-95167876D01*
X111202983Y-94828120D01*
X110724458Y-94508381D01*
X110160000Y-94396103D01*
X109595542Y-94508381D01*
X109117017Y-94828120D01*
X108890000Y-95167876D01*
X108662983Y-94828120D01*
X108184458Y-94508381D01*
X107620000Y-94396103D01*
X107055542Y-94508381D01*
X106577017Y-94828120D01*
X106350000Y-95167876D01*
X106122983Y-94828120D01*
X105644458Y-94508381D01*
X105080000Y-94396103D01*
X104515542Y-94508381D01*
X104037017Y-94828120D01*
X103800915Y-95181473D01*
X103727815Y-95025503D01*
X103302742Y-94637513D01*
X102893372Y-94467955D01*
X102665000Y-94587188D01*
X102665000Y-95775000D01*
X102685000Y-95775000D01*
X102685000Y-96025000D01*
X102665000Y-96025000D01*
X102665000Y-97212812D01*
X102893372Y-97332045D01*
X103302742Y-97162487D01*
X103727815Y-96774497D01*
X103800915Y-96618527D01*
X104037017Y-96971880D01*
X104515542Y-97291619D01*
X105080000Y-97403897D01*
X105644458Y-97291619D01*
X106122983Y-96971880D01*
X106350000Y-96632124D01*
X106577017Y-96971880D01*
X106802800Y-97122743D01*
X106802800Y-97790000D01*
X106865843Y-98106939D01*
X107045374Y-98375626D01*
X107210782Y-98541034D01*
X107066814Y-98600521D01*
X107063088Y-98604240D01*
X106900000Y-98571800D01*
X98673600Y-98571800D01*
X98356661Y-98634843D01*
X98087974Y-98814374D01*
X96961883Y-99940465D01*
X96686814Y-100054121D01*
X96421453Y-100319019D01*
X96277664Y-100665303D01*
X96277336Y-101040252D01*
X96420521Y-101386786D01*
X96685419Y-101652147D01*
X97031703Y-101795936D01*
X97406652Y-101796264D01*
X97753186Y-101653079D01*
X98018547Y-101388181D01*
X98133493Y-101111359D01*
X99016652Y-100228200D01*
X103512421Y-100228200D01*
X103487756Y-100350000D01*
X103487756Y-101687756D01*
X102150000Y-101687756D01*
X101918389Y-101731337D01*
X101705668Y-101868219D01*
X101562962Y-102077076D01*
X101512756Y-102325000D01*
X101512756Y-102571800D01*
X99943052Y-102571800D01*
X99785626Y-102414374D01*
X99516939Y-102234843D01*
X99200000Y-102171800D01*
X95600000Y-102171800D01*
X95283061Y-102234843D01*
X95014374Y-102414374D01*
X93914374Y-103514374D01*
X93734843Y-103783061D01*
X93707853Y-103918750D01*
X93671800Y-104100000D01*
X93671800Y-113719672D01*
X93615636Y-113803727D01*
X93530000Y-114234246D01*
X93530000Y-115705754D01*
X93615636Y-116136273D01*
X93859505Y-116501249D01*
X94224481Y-116745118D01*
X94655000Y-116830754D01*
X95085519Y-116745118D01*
X95290000Y-116608488D01*
X95494481Y-116745118D01*
X95925000Y-116830754D01*
X96355519Y-116745118D01*
X96560000Y-116608488D01*
X96764481Y-116745118D01*
X97195000Y-116830754D01*
X97625519Y-116745118D01*
X97830000Y-116608488D01*
X98034481Y-116745118D01*
X98465000Y-116830754D01*
X98895519Y-116745118D01*
X99100000Y-116608488D01*
X99304481Y-116745118D01*
X99735000Y-116830754D01*
X100165519Y-116745118D01*
X100370000Y-116608488D01*
X100574481Y-116745118D01*
X101005000Y-116830754D01*
X101435519Y-116745118D01*
X101640000Y-116608488D01*
X101844481Y-116745118D01*
X102275000Y-116830754D01*
X102705519Y-116745118D01*
X102926538Y-116597438D01*
X103246640Y-116754715D01*
X103420000Y-116630652D01*
X103420000Y-115095000D01*
X103670000Y-115095000D01*
X103670000Y-116630652D01*
X103843360Y-116754715D01*
X104252107Y-116553884D01*
X104536529Y-116216004D01*
X104670000Y-115795000D01*
X104670000Y-115095000D01*
X103670000Y-115095000D01*
X103420000Y-115095000D01*
X103400000Y-115095000D01*
X103400000Y-114845000D01*
X103420000Y-114845000D01*
X103420000Y-114825000D01*
X103670000Y-114825000D01*
X103670000Y-114845000D01*
X104670000Y-114845000D01*
X104670000Y-114175000D01*
X106612755Y-114175000D01*
X106612755Y-115425000D01*
X106656336Y-115656611D01*
X106793218Y-115869332D01*
X107002075Y-116012038D01*
X107249999Y-116062244D01*
X108749999Y-116062244D01*
X108981610Y-116018663D01*
X109194331Y-115881781D01*
X109246518Y-115805402D01*
X109395965Y-115954850D01*
X109625679Y-116050000D01*
X110218749Y-116050000D01*
X110374999Y-115893750D01*
X110374999Y-114925000D01*
X110624999Y-114925000D01*
X110624999Y-115893750D01*
X110781249Y-116050000D01*
X111374319Y-116050000D01*
X111604033Y-115954850D01*
X111779848Y-115779034D01*
X111874999Y-115549320D01*
X111874999Y-115081250D01*
X111718749Y-114925000D01*
X110624999Y-114925000D01*
X110374999Y-114925000D01*
X110354999Y-114925000D01*
X110354999Y-114675000D01*
X110374999Y-114675000D01*
X110374999Y-113706250D01*
X110624999Y-113706250D01*
X110624999Y-114675000D01*
X111718749Y-114675000D01*
X111874999Y-114518750D01*
X111874999Y-114050680D01*
X111779848Y-113820966D01*
X111604033Y-113645150D01*
X111374319Y-113550000D01*
X110781249Y-113550000D01*
X110624999Y-113706250D01*
X110374999Y-113706250D01*
X110218749Y-113550000D01*
X109625679Y-113550000D01*
X109395965Y-113645150D01*
X109247370Y-113793746D01*
X109206780Y-113730668D01*
X108997923Y-113587962D01*
X108942521Y-113576743D01*
X108942664Y-113413348D01*
X108799479Y-113066814D01*
X108534581Y-112801453D01*
X108188297Y-112657664D01*
X107813348Y-112657336D01*
X107466814Y-112800521D01*
X107201453Y-113065419D01*
X107057664Y-113411703D01*
X107057522Y-113573973D01*
X107018388Y-113581337D01*
X106805667Y-113718219D01*
X106662961Y-113927076D01*
X106612755Y-114175000D01*
X104670000Y-114175000D01*
X104670000Y-114145000D01*
X104601268Y-113928200D01*
X105200000Y-113928200D01*
X105516939Y-113865157D01*
X105785626Y-113685626D01*
X107385626Y-112085626D01*
X107565157Y-111816938D01*
X107628200Y-111500000D01*
X107628200Y-111087244D01*
X107875000Y-111087244D01*
X108004589Y-111062860D01*
X108125000Y-111087244D01*
X108675000Y-111087244D01*
X108804589Y-111062860D01*
X108925000Y-111087244D01*
X109475000Y-111087244D01*
X109604589Y-111062860D01*
X109725000Y-111087244D01*
X110275000Y-111087244D01*
X110506611Y-111043663D01*
X110719332Y-110906781D01*
X110862038Y-110697924D01*
X110912244Y-110450000D01*
X110912244Y-109112244D01*
X112250000Y-109112244D01*
X112481611Y-109068663D01*
X112528952Y-109038200D01*
X113066948Y-109038200D01*
X114262756Y-110234008D01*
X114262756Y-110530105D01*
X114088297Y-110457664D01*
X113878261Y-110457480D01*
X113799479Y-110266814D01*
X113534581Y-110001453D01*
X113188297Y-109857664D01*
X112813348Y-109857336D01*
X112466814Y-110000521D01*
X112201453Y-110265419D01*
X112057664Y-110611703D01*
X112057336Y-110986652D01*
X112171800Y-111263676D01*
X112171800Y-115456948D01*
X110180875Y-117447873D01*
X110001344Y-117716560D01*
X109990564Y-117770755D01*
X109938301Y-118033499D01*
X109938301Y-119566098D01*
X109934890Y-119566740D01*
X109722169Y-119703622D01*
X109667117Y-119784193D01*
X109623282Y-119716071D01*
X109414425Y-119573365D01*
X109166501Y-119523159D01*
X107966501Y-119523159D01*
X107734890Y-119566740D01*
X107522169Y-119703622D01*
X107379463Y-119912479D01*
X107329257Y-120160403D01*
X107329257Y-121060403D01*
X107372838Y-121292014D01*
X107503002Y-121494295D01*
X107503002Y-122936298D01*
X107458464Y-123001481D01*
X107408258Y-123249405D01*
X107408258Y-124149405D01*
X107451839Y-124381016D01*
X107588721Y-124593737D01*
X107797578Y-124736443D01*
X108045502Y-124786649D01*
X108560455Y-124786649D01*
X108551170Y-124792624D01*
X108408464Y-125001481D01*
X108358258Y-125249405D01*
X108358258Y-126149405D01*
X108401839Y-126381016D01*
X108471800Y-126489739D01*
X108471800Y-128584607D01*
X108257017Y-128728120D01*
X108125000Y-128925698D01*
X108125000Y-125000000D01*
X108116451Y-124954568D01*
X108089601Y-124912841D01*
X108048632Y-124884848D01*
X108000000Y-124875000D01*
X88800000Y-124875000D01*
X88800000Y-95839380D01*
X89121590Y-96161531D01*
X89755371Y-96424700D01*
X90441618Y-96425299D01*
X91032263Y-96181250D01*
X98525000Y-96181250D01*
X98525000Y-96874320D01*
X98620150Y-97104034D01*
X98795966Y-97279849D01*
X99025680Y-97375000D01*
X99718750Y-97375000D01*
X99875000Y-97218750D01*
X99875000Y-96025000D01*
X100125000Y-96025000D01*
X100125000Y-97218750D01*
X100281250Y-97375000D01*
X100974320Y-97375000D01*
X101204034Y-97279849D01*
X101379850Y-97104034D01*
X101471310Y-96883229D01*
X101777258Y-97162487D01*
X102186628Y-97332045D01*
X102415000Y-97212812D01*
X102415000Y-96025000D01*
X100125000Y-96025000D01*
X99875000Y-96025000D01*
X98681250Y-96025000D01*
X98525000Y-96181250D01*
X91032263Y-96181250D01*
X91075858Y-96163237D01*
X91561531Y-95678410D01*
X91824700Y-95044629D01*
X91824803Y-94925680D01*
X98525000Y-94925680D01*
X98525000Y-95618750D01*
X98681250Y-95775000D01*
X99875000Y-95775000D01*
X99875000Y-94581250D01*
X100125000Y-94581250D01*
X100125000Y-95775000D01*
X102415000Y-95775000D01*
X102415000Y-94587188D01*
X102186628Y-94467955D01*
X101777258Y-94637513D01*
X101471310Y-94916771D01*
X101379850Y-94695966D01*
X101204034Y-94520151D01*
X100974320Y-94425000D01*
X100281250Y-94425000D01*
X100125000Y-94581250D01*
X99875000Y-94581250D01*
X99718750Y-94425000D01*
X99025680Y-94425000D01*
X98795966Y-94520151D01*
X98620150Y-94695966D01*
X98525000Y-94925680D01*
X91824803Y-94925680D01*
X91825299Y-94358382D01*
X91563237Y-93724142D01*
X91239660Y-93400000D01*
X138160620Y-93400000D01*
X137838469Y-93721590D01*
G36*
X114719301Y-114890553D02*
X114719301Y-118153067D01*
X114653169Y-118195622D01*
X114564395Y-118325547D01*
X114466251Y-118227403D01*
X113672501Y-118227403D01*
X113672501Y-118247403D01*
X113422501Y-118247403D01*
X113422501Y-118227403D01*
X112628751Y-118227403D01*
X112472501Y-118383653D01*
X112472501Y-118626723D01*
X112567652Y-118856437D01*
X112743467Y-119032253D01*
X112795717Y-119053895D01*
X112653169Y-119145622D01*
X112510463Y-119354479D01*
X112460257Y-119602403D01*
X112460257Y-120402403D01*
X112503838Y-120634014D01*
X112640720Y-120846735D01*
X112771800Y-120936298D01*
X112771800Y-122300664D01*
X112705668Y-122343219D01*
X112562962Y-122552076D01*
X112512756Y-122800000D01*
X112512756Y-124000000D01*
X112556337Y-124231611D01*
X112693219Y-124444332D01*
X112773790Y-124499384D01*
X112705668Y-124543219D01*
X112562962Y-124752076D01*
X112512756Y-125000000D01*
X112512756Y-125515992D01*
X111254374Y-126774374D01*
X111074843Y-127043061D01*
X111074843Y-127043062D01*
X111011800Y-127360000D01*
X111011800Y-128584607D01*
X110797017Y-128728120D01*
X110570000Y-129067876D01*
X110342983Y-128728120D01*
X110128200Y-128584607D01*
X110128200Y-126678020D01*
X110239834Y-126606186D01*
X110382540Y-126397329D01*
X110432746Y-126149405D01*
X110432746Y-125249405D01*
X110389165Y-125017794D01*
X110252283Y-124805073D01*
X110122358Y-124716299D01*
X110220502Y-124618155D01*
X110220502Y-123824405D01*
X110470502Y-123824405D01*
X110470502Y-124618155D01*
X110626752Y-124774405D01*
X110869822Y-124774405D01*
X111099536Y-124679254D01*
X111275352Y-124503439D01*
X111370502Y-124273725D01*
X111370502Y-123980655D01*
X111214252Y-123824405D01*
X110470502Y-123824405D01*
X110220502Y-123824405D01*
X110200502Y-123824405D01*
X110200502Y-123574405D01*
X110220502Y-123574405D01*
X110220502Y-122780655D01*
X110470502Y-122780655D01*
X110470502Y-123574405D01*
X111214252Y-123574405D01*
X111370502Y-123418155D01*
X111370502Y-123125085D01*
X111275352Y-122895371D01*
X111099536Y-122719556D01*
X110869822Y-122624405D01*
X110626752Y-122624405D01*
X110470502Y-122780655D01*
X110220502Y-122780655D01*
X110064252Y-122624405D01*
X109821182Y-122624405D01*
X109591468Y-122719556D01*
X109415652Y-122895371D01*
X109394010Y-122947621D01*
X109388002Y-122938284D01*
X109388002Y-121655968D01*
X109398112Y-121654066D01*
X109610833Y-121517184D01*
X109665885Y-121436613D01*
X109709720Y-121504735D01*
X109918577Y-121647441D01*
X110166501Y-121697647D01*
X110400051Y-121697647D01*
X110706502Y-121758604D01*
X111012953Y-121697647D01*
X111366501Y-121697647D01*
X111598112Y-121654066D01*
X111810833Y-121517184D01*
X111953539Y-121308327D01*
X112003745Y-121060403D01*
X112003745Y-120160403D01*
X111960164Y-119928792D01*
X111823282Y-119716071D01*
X111614425Y-119573365D01*
X111594701Y-119569371D01*
X111594701Y-118376551D01*
X112528598Y-117442654D01*
X112472501Y-117578083D01*
X112472501Y-117821153D01*
X112628751Y-117977403D01*
X113422501Y-117977403D01*
X113422501Y-117233653D01*
X113672501Y-117233653D01*
X113672501Y-117977403D01*
X114466251Y-117977403D01*
X114622501Y-117821153D01*
X114622501Y-117578083D01*
X114527350Y-117348369D01*
X114351535Y-117172553D01*
X114121821Y-117077403D01*
X113828751Y-117077403D01*
X113672501Y-117233653D01*
X113422501Y-117233653D01*
X113266251Y-117077403D01*
X112973181Y-117077403D01*
X112837753Y-117133499D01*
X113585626Y-116385626D01*
X113765157Y-116116938D01*
X113828201Y-115800000D01*
X113828200Y-115799995D01*
X113828200Y-113999452D01*
X114719301Y-114890553D01*
X114719301Y-114890553D01*
G37*
X114719301Y-114890553D02*
X114719301Y-118153067D01*
X114653169Y-118195622D01*
X114564395Y-118325547D01*
X114466251Y-118227403D01*
X113672501Y-118227403D01*
X113672501Y-118247403D01*
X113422501Y-118247403D01*
X113422501Y-118227403D01*
X112628751Y-118227403D01*
X112472501Y-118383653D01*
X112472501Y-118626723D01*
X112567652Y-118856437D01*
X112743467Y-119032253D01*
X112795717Y-119053895D01*
X112653169Y-119145622D01*
X112510463Y-119354479D01*
X112460257Y-119602403D01*
X112460257Y-120402403D01*
X112503838Y-120634014D01*
X112640720Y-120846735D01*
X112771800Y-120936298D01*
X112771800Y-122300664D01*
X112705668Y-122343219D01*
X112562962Y-122552076D01*
X112512756Y-122800000D01*
X112512756Y-124000000D01*
X112556337Y-124231611D01*
X112693219Y-124444332D01*
X112773790Y-124499384D01*
X112705668Y-124543219D01*
X112562962Y-124752076D01*
X112512756Y-125000000D01*
X112512756Y-125515992D01*
X111254374Y-126774374D01*
X111074843Y-127043061D01*
X111074843Y-127043062D01*
X111011800Y-127360000D01*
X111011800Y-128584607D01*
X110797017Y-128728120D01*
X110570000Y-129067876D01*
X110342983Y-128728120D01*
X110128200Y-128584607D01*
X110128200Y-126678020D01*
X110239834Y-126606186D01*
X110382540Y-126397329D01*
X110432746Y-126149405D01*
X110432746Y-125249405D01*
X110389165Y-125017794D01*
X110252283Y-124805073D01*
X110122358Y-124716299D01*
X110220502Y-124618155D01*
X110220502Y-123824405D01*
X110470502Y-123824405D01*
X110470502Y-124618155D01*
X110626752Y-124774405D01*
X110869822Y-124774405D01*
X111099536Y-124679254D01*
X111275352Y-124503439D01*
X111370502Y-124273725D01*
X111370502Y-123980655D01*
X111214252Y-123824405D01*
X110470502Y-123824405D01*
X110220502Y-123824405D01*
X110200502Y-123824405D01*
X110200502Y-123574405D01*
X110220502Y-123574405D01*
X110220502Y-122780655D01*
X110470502Y-122780655D01*
X110470502Y-123574405D01*
X111214252Y-123574405D01*
X111370502Y-123418155D01*
X111370502Y-123125085D01*
X111275352Y-122895371D01*
X111099536Y-122719556D01*
X110869822Y-122624405D01*
X110626752Y-122624405D01*
X110470502Y-122780655D01*
X110220502Y-122780655D01*
X110064252Y-122624405D01*
X109821182Y-122624405D01*
X109591468Y-122719556D01*
X109415652Y-122895371D01*
X109394010Y-122947621D01*
X109388002Y-122938284D01*
X109388002Y-121655968D01*
X109398112Y-121654066D01*
X109610833Y-121517184D01*
X109665885Y-121436613D01*
X109709720Y-121504735D01*
X109918577Y-121647441D01*
X110166501Y-121697647D01*
X110400051Y-121697647D01*
X110706502Y-121758604D01*
X111012953Y-121697647D01*
X111366501Y-121697647D01*
X111598112Y-121654066D01*
X111810833Y-121517184D01*
X111953539Y-121308327D01*
X112003745Y-121060403D01*
X112003745Y-120160403D01*
X111960164Y-119928792D01*
X111823282Y-119716071D01*
X111614425Y-119573365D01*
X111594701Y-119569371D01*
X111594701Y-118376551D01*
X112528598Y-117442654D01*
X112472501Y-117578083D01*
X112472501Y-117821153D01*
X112628751Y-117977403D01*
X113422501Y-117977403D01*
X113422501Y-117233653D01*
X113672501Y-117233653D01*
X113672501Y-117977403D01*
X114466251Y-117977403D01*
X114622501Y-117821153D01*
X114622501Y-117578083D01*
X114527350Y-117348369D01*
X114351535Y-117172553D01*
X114121821Y-117077403D01*
X113828751Y-117077403D01*
X113672501Y-117233653D01*
X113422501Y-117233653D01*
X113266251Y-117077403D01*
X112973181Y-117077403D01*
X112837753Y-117133499D01*
X113585626Y-116385626D01*
X113765157Y-116116938D01*
X113828201Y-115800000D01*
X113828200Y-115799995D01*
X113828200Y-113999452D01*
X114719301Y-114890553D01*
G36*
X132125000Y-111768164D02*
X132125000Y-111831836D01*
X132168181Y-112048923D01*
X130333552Y-113883552D01*
X130129244Y-114189321D01*
X130057500Y-114550000D01*
X130057500Y-123109604D01*
X129733552Y-123433552D01*
X129529244Y-123739321D01*
X129457500Y-124100000D01*
X129457500Y-125554431D01*
X129280668Y-125668219D01*
X129151338Y-125857500D01*
X125320714Y-125857500D01*
X125319239Y-125855292D01*
X124897488Y-125573488D01*
X124400000Y-125474531D01*
X124223196Y-125509700D01*
X129266448Y-120466448D01*
X129470756Y-120160679D01*
X129542500Y-119800000D01*
X129542500Y-114090396D01*
X132189625Y-111443271D01*
X132125000Y-111768164D01*
X132125000Y-111768164D01*
G37*
X132125000Y-111768164D02*
X132125000Y-111831836D01*
X132168181Y-112048923D01*
X130333552Y-113883552D01*
X130129244Y-114189321D01*
X130057500Y-114550000D01*
X130057500Y-123109604D01*
X129733552Y-123433552D01*
X129529244Y-123739321D01*
X129457500Y-124100000D01*
X129457500Y-125554431D01*
X129280668Y-125668219D01*
X129151338Y-125857500D01*
X125320714Y-125857500D01*
X125319239Y-125855292D01*
X124897488Y-125573488D01*
X124400000Y-125474531D01*
X124223196Y-125509700D01*
X129266448Y-120466448D01*
X129470756Y-120160679D01*
X129542500Y-119800000D01*
X129542500Y-114090396D01*
X132189625Y-111443271D01*
X132125000Y-111768164D01*
G36*
X99014374Y-103985626D02*
X99283062Y-104165157D01*
X99600000Y-104228200D01*
X100457562Y-104228200D01*
X100457456Y-104349081D01*
X100399320Y-104325000D01*
X100181250Y-104325000D01*
X100025000Y-104481250D01*
X100025000Y-105425000D01*
X100045000Y-105425000D01*
X100045000Y-105675000D01*
X100025000Y-105675000D01*
X100025000Y-105695000D01*
X99775000Y-105695000D01*
X99775000Y-105675000D01*
X99056250Y-105675000D01*
X98900000Y-105831250D01*
X98900000Y-106274320D01*
X98995150Y-106504034D01*
X99000973Y-106509857D01*
X98937962Y-106602076D01*
X98887756Y-106850000D01*
X98887756Y-108050000D01*
X98931337Y-108281611D01*
X98957500Y-108322270D01*
X98957500Y-108700000D01*
X99029244Y-109060679D01*
X99170310Y-109271800D01*
X97710701Y-109271800D01*
X97710701Y-109208770D01*
X97733186Y-109199479D01*
X97998547Y-108934581D01*
X98142336Y-108588297D01*
X98142664Y-108213348D01*
X97999479Y-107866814D01*
X97734581Y-107601453D01*
X97388297Y-107457664D01*
X97013348Y-107457336D01*
X96666814Y-107600521D01*
X96401453Y-107865419D01*
X96280859Y-108155842D01*
X96117344Y-108400560D01*
X96094195Y-108516938D01*
X96054301Y-108717499D01*
X96054301Y-109874447D01*
X95339374Y-110589374D01*
X95328200Y-110606097D01*
X95328200Y-104825680D01*
X98900000Y-104825680D01*
X98900000Y-105268750D01*
X99056250Y-105425000D01*
X99775000Y-105425000D01*
X99775000Y-104481250D01*
X99618750Y-104325000D01*
X99400680Y-104325000D01*
X99170966Y-104420151D01*
X98995150Y-104595966D01*
X98900000Y-104825680D01*
X95328200Y-104825680D01*
X95328200Y-104443052D01*
X95943052Y-103828200D01*
X98856948Y-103828200D01*
X99014374Y-103985626D01*
X99014374Y-103985626D01*
G37*
X99014374Y-103985626D02*
X99283062Y-104165157D01*
X99600000Y-104228200D01*
X100457562Y-104228200D01*
X100457456Y-104349081D01*
X100399320Y-104325000D01*
X100181250Y-104325000D01*
X100025000Y-104481250D01*
X100025000Y-105425000D01*
X100045000Y-105425000D01*
X100045000Y-105675000D01*
X100025000Y-105675000D01*
X100025000Y-105695000D01*
X99775000Y-105695000D01*
X99775000Y-105675000D01*
X99056250Y-105675000D01*
X98900000Y-105831250D01*
X98900000Y-106274320D01*
X98995150Y-106504034D01*
X99000973Y-106509857D01*
X98937962Y-106602076D01*
X98887756Y-106850000D01*
X98887756Y-108050000D01*
X98931337Y-108281611D01*
X98957500Y-108322270D01*
X98957500Y-108700000D01*
X99029244Y-109060679D01*
X99170310Y-109271800D01*
X97710701Y-109271800D01*
X97710701Y-109208770D01*
X97733186Y-109199479D01*
X97998547Y-108934581D01*
X98142336Y-108588297D01*
X98142664Y-108213348D01*
X97999479Y-107866814D01*
X97734581Y-107601453D01*
X97388297Y-107457664D01*
X97013348Y-107457336D01*
X96666814Y-107600521D01*
X96401453Y-107865419D01*
X96280859Y-108155842D01*
X96117344Y-108400560D01*
X96094195Y-108516938D01*
X96054301Y-108717499D01*
X96054301Y-109874447D01*
X95339374Y-110589374D01*
X95328200Y-110606097D01*
X95328200Y-104825680D01*
X98900000Y-104825680D01*
X98900000Y-105268750D01*
X99056250Y-105425000D01*
X99775000Y-105425000D01*
X99775000Y-104481250D01*
X99618750Y-104325000D01*
X99400680Y-104325000D01*
X99170966Y-104420151D01*
X98995150Y-104595966D01*
X98900000Y-104825680D01*
X95328200Y-104825680D01*
X95328200Y-104443052D01*
X95943052Y-103828200D01*
X98856948Y-103828200D01*
X99014374Y-103985626D01*
G36*
X109725000Y-102587244D02*
X110012756Y-102587244D01*
X110012756Y-102875000D01*
X110037140Y-103004589D01*
X110012756Y-103125000D01*
X110012756Y-103675000D01*
X110032842Y-103781748D01*
X110025000Y-103800680D01*
X110025000Y-103918750D01*
X110134807Y-104028557D01*
X110193219Y-104119332D01*
X110311476Y-104200134D01*
X110205668Y-104268219D01*
X110135852Y-104370398D01*
X110025000Y-104481250D01*
X110025000Y-104599320D01*
X110033870Y-104620735D01*
X110012756Y-104725000D01*
X110012756Y-105275000D01*
X110032842Y-105381748D01*
X110025000Y-105400680D01*
X110025000Y-105518750D01*
X110134807Y-105628557D01*
X110193219Y-105719332D01*
X110311476Y-105800134D01*
X110205668Y-105868219D01*
X110135852Y-105970398D01*
X110025000Y-106081250D01*
X110025000Y-106199320D01*
X110033870Y-106220735D01*
X110012756Y-106325000D01*
X110012756Y-106875000D01*
X110037140Y-107004589D01*
X110012756Y-107125000D01*
X110012756Y-107675000D01*
X110037140Y-107804589D01*
X110012756Y-107925000D01*
X110012756Y-108212756D01*
X109725000Y-108212756D01*
X109595411Y-108237140D01*
X109475000Y-108212756D01*
X108925000Y-108212756D01*
X108795411Y-108237140D01*
X108675000Y-108212756D01*
X108125000Y-108212756D01*
X107995411Y-108237140D01*
X107875000Y-108212756D01*
X107325000Y-108212756D01*
X107195411Y-108237140D01*
X107075000Y-108212756D01*
X106525000Y-108212756D01*
X106395411Y-108237140D01*
X106275000Y-108212756D01*
X105725000Y-108212756D01*
X105595411Y-108237140D01*
X105475000Y-108212756D01*
X104925000Y-108212756D01*
X104795411Y-108237140D01*
X104675000Y-108212756D01*
X104387244Y-108212756D01*
X104387244Y-107925000D01*
X104362860Y-107795411D01*
X104387244Y-107675000D01*
X104387244Y-107125000D01*
X104362860Y-106995411D01*
X104387244Y-106875000D01*
X104387244Y-106325000D01*
X104362860Y-106195411D01*
X104387244Y-106075000D01*
X104387244Y-105525000D01*
X104367158Y-105418252D01*
X104375000Y-105399320D01*
X104375000Y-105281250D01*
X104265193Y-105171443D01*
X104206781Y-105080668D01*
X104088524Y-104999866D01*
X104194332Y-104931781D01*
X104264148Y-104829602D01*
X104375000Y-104718750D01*
X104375000Y-104600680D01*
X104366130Y-104579265D01*
X104387244Y-104475000D01*
X104387244Y-103925000D01*
X104362860Y-103795411D01*
X104387244Y-103675000D01*
X104387244Y-103125000D01*
X104362860Y-102995411D01*
X104387244Y-102875000D01*
X104387244Y-102587244D01*
X104675000Y-102587244D01*
X104804589Y-102562860D01*
X104925000Y-102587244D01*
X105475000Y-102587244D01*
X105604589Y-102562860D01*
X105725000Y-102587244D01*
X106275000Y-102587244D01*
X106404589Y-102562860D01*
X106525000Y-102587244D01*
X107075000Y-102587244D01*
X107204589Y-102562860D01*
X107325000Y-102587244D01*
X107875000Y-102587244D01*
X108004589Y-102562860D01*
X108125000Y-102587244D01*
X108675000Y-102587244D01*
X108804589Y-102562860D01*
X108925000Y-102587244D01*
X109475000Y-102587244D01*
X109604589Y-102562860D01*
X109725000Y-102587244D01*
X109725000Y-102587244D01*
G37*
X109725000Y-102587244D02*
X110012756Y-102587244D01*
X110012756Y-102875000D01*
X110037140Y-103004589D01*
X110012756Y-103125000D01*
X110012756Y-103675000D01*
X110032842Y-103781748D01*
X110025000Y-103800680D01*
X110025000Y-103918750D01*
X110134807Y-104028557D01*
X110193219Y-104119332D01*
X110311476Y-104200134D01*
X110205668Y-104268219D01*
X110135852Y-104370398D01*
X110025000Y-104481250D01*
X110025000Y-104599320D01*
X110033870Y-104620735D01*
X110012756Y-104725000D01*
X110012756Y-105275000D01*
X110032842Y-105381748D01*
X110025000Y-105400680D01*
X110025000Y-105518750D01*
X110134807Y-105628557D01*
X110193219Y-105719332D01*
X110311476Y-105800134D01*
X110205668Y-105868219D01*
X110135852Y-105970398D01*
X110025000Y-106081250D01*
X110025000Y-106199320D01*
X110033870Y-106220735D01*
X110012756Y-106325000D01*
X110012756Y-106875000D01*
X110037140Y-107004589D01*
X110012756Y-107125000D01*
X110012756Y-107675000D01*
X110037140Y-107804589D01*
X110012756Y-107925000D01*
X110012756Y-108212756D01*
X109725000Y-108212756D01*
X109595411Y-108237140D01*
X109475000Y-108212756D01*
X108925000Y-108212756D01*
X108795411Y-108237140D01*
X108675000Y-108212756D01*
X108125000Y-108212756D01*
X107995411Y-108237140D01*
X107875000Y-108212756D01*
X107325000Y-108212756D01*
X107195411Y-108237140D01*
X107075000Y-108212756D01*
X106525000Y-108212756D01*
X106395411Y-108237140D01*
X106275000Y-108212756D01*
X105725000Y-108212756D01*
X105595411Y-108237140D01*
X105475000Y-108212756D01*
X104925000Y-108212756D01*
X104795411Y-108237140D01*
X104675000Y-108212756D01*
X104387244Y-108212756D01*
X104387244Y-107925000D01*
X104362860Y-107795411D01*
X104387244Y-107675000D01*
X104387244Y-107125000D01*
X104362860Y-106995411D01*
X104387244Y-106875000D01*
X104387244Y-106325000D01*
X104362860Y-106195411D01*
X104387244Y-106075000D01*
X104387244Y-105525000D01*
X104367158Y-105418252D01*
X104375000Y-105399320D01*
X104375000Y-105281250D01*
X104265193Y-105171443D01*
X104206781Y-105080668D01*
X104088524Y-104999866D01*
X104194332Y-104931781D01*
X104264148Y-104829602D01*
X104375000Y-104718750D01*
X104375000Y-104600680D01*
X104366130Y-104579265D01*
X104387244Y-104475000D01*
X104387244Y-103925000D01*
X104362860Y-103795411D01*
X104387244Y-103675000D01*
X104387244Y-103125000D01*
X104362860Y-102995411D01*
X104387244Y-102875000D01*
X104387244Y-102587244D01*
X104675000Y-102587244D01*
X104804589Y-102562860D01*
X104925000Y-102587244D01*
X105475000Y-102587244D01*
X105604589Y-102562860D01*
X105725000Y-102587244D01*
X106275000Y-102587244D01*
X106404589Y-102562860D01*
X106525000Y-102587244D01*
X107075000Y-102587244D01*
X107204589Y-102562860D01*
X107325000Y-102587244D01*
X107875000Y-102587244D01*
X108004589Y-102562860D01*
X108125000Y-102587244D01*
X108675000Y-102587244D01*
X108804589Y-102562860D01*
X108925000Y-102587244D01*
X109475000Y-102587244D01*
X109604589Y-102562860D01*
X109725000Y-102587244D01*
G36*
X114431250Y-107675000D02*
X116775000Y-107675000D01*
X116775000Y-107655000D01*
X117025000Y-107655000D01*
X117025000Y-107675000D01*
X117045000Y-107675000D01*
X117045000Y-107925000D01*
X117025000Y-107925000D01*
X117025000Y-107945000D01*
X116775000Y-107945000D01*
X116775000Y-107925000D01*
X114431250Y-107925000D01*
X114363751Y-107992499D01*
X114171252Y-107800000D01*
X114363751Y-107607501D01*
X114431250Y-107675000D01*
X114431250Y-107675000D01*
G37*
X114431250Y-107675000D02*
X116775000Y-107675000D01*
X116775000Y-107655000D01*
X117025000Y-107655000D01*
X117025000Y-107675000D01*
X117045000Y-107675000D01*
X117045000Y-107925000D01*
X117025000Y-107925000D01*
X117025000Y-107945000D01*
X116775000Y-107945000D01*
X116775000Y-107925000D01*
X114431250Y-107925000D01*
X114363751Y-107992499D01*
X114171252Y-107800000D01*
X114363751Y-107607501D01*
X114431250Y-107675000D01*
M02*
