G04 #@! TF.FileFunction,Legend,Top*
%FSLAX46Y46*%
G04 Gerber Fmt 4.6, Leading zero omitted, Abs format (unit mm)*
G04 Created by KiCad (PCBNEW 4.0.4-stable) date Thursday, September 28, 2017 'PMt' 10:00:37 PM*
%MOMM*%
%LPD*%
G01*
G04 APERTURE LIST*
%ADD10C,0.100000*%
%ADD11C,0.150000*%
%ADD12C,0.300000*%
%ADD13C,0.120000*%
%ADD14C,0.010000*%
G04 APERTURE END LIST*
D10*
D11*
X112642857Y-115360714D02*
X112833333Y-116027381D01*
X113023810Y-115551190D01*
X113214286Y-116027381D01*
X113404762Y-115360714D01*
X114119048Y-115503571D02*
X113785714Y-115503571D01*
X113785714Y-116027381D02*
X113785714Y-115027381D01*
X114261905Y-115027381D01*
X114642857Y-116027381D02*
X114642857Y-115027381D01*
X114976191Y-115741667D01*
X115309524Y-115027381D01*
X115309524Y-116027381D01*
X115785714Y-115646429D02*
X116547619Y-115646429D01*
X116880952Y-115027381D02*
X117452381Y-115027381D01*
X117166666Y-116027381D02*
X117166666Y-115027381D01*
X117690476Y-116027381D02*
X118214286Y-115360714D01*
X117690476Y-115360714D02*
X118214286Y-116027381D01*
X119547619Y-115027381D02*
X119642858Y-115027381D01*
X119738096Y-115075000D01*
X119785715Y-115122619D01*
X119833334Y-115217857D01*
X119880953Y-115408333D01*
X119880953Y-115646429D01*
X119833334Y-115836905D01*
X119785715Y-115932143D01*
X119738096Y-115979762D01*
X119642858Y-116027381D01*
X119547619Y-116027381D01*
X119452381Y-115979762D01*
X119404762Y-115932143D01*
X119357143Y-115836905D01*
X119309524Y-115646429D01*
X119309524Y-115408333D01*
X119357143Y-115217857D01*
X119404762Y-115122619D01*
X119452381Y-115075000D01*
X119547619Y-115027381D01*
X120309524Y-115932143D02*
X120357143Y-115979762D01*
X120309524Y-116027381D01*
X120261905Y-115979762D01*
X120309524Y-115932143D01*
X120309524Y-116027381D01*
X121309524Y-116027381D02*
X120738095Y-116027381D01*
X121023809Y-116027381D02*
X121023809Y-115027381D01*
X120928571Y-115170238D01*
X120833333Y-115265476D01*
X120738095Y-115313095D01*
X107071429Y-117629762D02*
X106976191Y-117677381D01*
X106785714Y-117677381D01*
X106690476Y-117629762D01*
X106642857Y-117582143D01*
X106595238Y-117486905D01*
X106595238Y-117201190D01*
X106642857Y-117105952D01*
X106690476Y-117058333D01*
X106785714Y-117010714D01*
X106976191Y-117010714D01*
X107071429Y-117058333D01*
X107928572Y-117677381D02*
X107928572Y-117153571D01*
X107880953Y-117058333D01*
X107785715Y-117010714D01*
X107595238Y-117010714D01*
X107500000Y-117058333D01*
X107928572Y-117629762D02*
X107833334Y-117677381D01*
X107595238Y-117677381D01*
X107500000Y-117629762D01*
X107452381Y-117534524D01*
X107452381Y-117439286D01*
X107500000Y-117344048D01*
X107595238Y-117296429D01*
X107833334Y-117296429D01*
X107928572Y-117248810D01*
X108547619Y-117677381D02*
X108452381Y-117629762D01*
X108404762Y-117534524D01*
X108404762Y-116677381D01*
X109357144Y-117629762D02*
X109261906Y-117677381D01*
X109071429Y-117677381D01*
X108976191Y-117629762D01*
X108928572Y-117582143D01*
X108880953Y-117486905D01*
X108880953Y-117201190D01*
X108928572Y-117105952D01*
X108976191Y-117058333D01*
X109071429Y-117010714D01*
X109261906Y-117010714D01*
X109357144Y-117058333D01*
X109785715Y-117677381D02*
X109785715Y-117010714D01*
X109785715Y-116677381D02*
X109738096Y-116725000D01*
X109785715Y-116772619D01*
X109833334Y-116725000D01*
X109785715Y-116677381D01*
X109785715Y-116772619D01*
X110690477Y-117010714D02*
X110690477Y-117677381D01*
X110261905Y-117010714D02*
X110261905Y-117534524D01*
X110309524Y-117629762D01*
X110404762Y-117677381D01*
X110547620Y-117677381D01*
X110642858Y-117629762D01*
X110690477Y-117582143D01*
X111166667Y-117677381D02*
X111166667Y-117010714D01*
X111166667Y-117105952D02*
X111214286Y-117058333D01*
X111309524Y-117010714D01*
X111452382Y-117010714D01*
X111547620Y-117058333D01*
X111595239Y-117153571D01*
X111595239Y-117677381D01*
X111595239Y-117153571D02*
X111642858Y-117058333D01*
X111738096Y-117010714D01*
X111880953Y-117010714D01*
X111976191Y-117058333D01*
X112023810Y-117153571D01*
X112023810Y-117677381D01*
X112404762Y-116677381D02*
X113023810Y-116677381D01*
X112690476Y-117058333D01*
X112833334Y-117058333D01*
X112928572Y-117105952D01*
X112976191Y-117153571D01*
X113023810Y-117248810D01*
X113023810Y-117486905D01*
X112976191Y-117582143D01*
X112928572Y-117629762D01*
X112833334Y-117677381D01*
X112547619Y-117677381D01*
X112452381Y-117629762D01*
X112404762Y-117582143D01*
X113642857Y-116677381D02*
X113738096Y-116677381D01*
X113833334Y-116725000D01*
X113880953Y-116772619D01*
X113928572Y-116867857D01*
X113976191Y-117058333D01*
X113976191Y-117296429D01*
X113928572Y-117486905D01*
X113880953Y-117582143D01*
X113833334Y-117629762D01*
X113738096Y-117677381D01*
X113642857Y-117677381D01*
X113547619Y-117629762D01*
X113500000Y-117582143D01*
X113452381Y-117486905D01*
X113404762Y-117296429D01*
X113404762Y-117058333D01*
X113452381Y-116867857D01*
X113500000Y-116772619D01*
X113547619Y-116725000D01*
X113642857Y-116677381D01*
X114595238Y-116677381D02*
X114690477Y-116677381D01*
X114785715Y-116725000D01*
X114833334Y-116772619D01*
X114880953Y-116867857D01*
X114928572Y-117058333D01*
X114928572Y-117296429D01*
X114880953Y-117486905D01*
X114833334Y-117582143D01*
X114785715Y-117629762D01*
X114690477Y-117677381D01*
X114595238Y-117677381D01*
X114500000Y-117629762D01*
X114452381Y-117582143D01*
X114404762Y-117486905D01*
X114357143Y-117296429D01*
X114357143Y-117058333D01*
X114404762Y-116867857D01*
X114452381Y-116772619D01*
X114500000Y-116725000D01*
X114595238Y-116677381D01*
X115547619Y-116677381D02*
X115642858Y-116677381D01*
X115738096Y-116725000D01*
X115785715Y-116772619D01*
X115833334Y-116867857D01*
X115880953Y-117058333D01*
X115880953Y-117296429D01*
X115833334Y-117486905D01*
X115785715Y-117582143D01*
X115738096Y-117629762D01*
X115642858Y-117677381D01*
X115547619Y-117677381D01*
X115452381Y-117629762D01*
X115404762Y-117582143D01*
X115357143Y-117486905D01*
X115309524Y-117296429D01*
X115309524Y-117058333D01*
X115357143Y-116867857D01*
X115404762Y-116772619D01*
X115452381Y-116725000D01*
X115547619Y-116677381D01*
X116309524Y-117582143D02*
X116357143Y-117629762D01*
X116309524Y-117677381D01*
X116261905Y-117629762D01*
X116309524Y-117582143D01*
X116309524Y-117677381D01*
X116690476Y-117010714D02*
X116880952Y-117677381D01*
X117071429Y-117201190D01*
X117261905Y-117677381D01*
X117452381Y-117010714D01*
X117976190Y-117677381D02*
X117880952Y-117629762D01*
X117833333Y-117582143D01*
X117785714Y-117486905D01*
X117785714Y-117201190D01*
X117833333Y-117105952D01*
X117880952Y-117058333D01*
X117976190Y-117010714D01*
X118119048Y-117010714D01*
X118214286Y-117058333D01*
X118261905Y-117105952D01*
X118309524Y-117201190D01*
X118309524Y-117486905D01*
X118261905Y-117582143D01*
X118214286Y-117629762D01*
X118119048Y-117677381D01*
X117976190Y-117677381D01*
X118738095Y-117677381D02*
X118738095Y-117010714D01*
X118738095Y-117201190D02*
X118785714Y-117105952D01*
X118833333Y-117058333D01*
X118928571Y-117010714D01*
X119023810Y-117010714D01*
X119785715Y-117677381D02*
X119785715Y-116677381D01*
X119785715Y-117629762D02*
X119690477Y-117677381D01*
X119500000Y-117677381D01*
X119404762Y-117629762D01*
X119357143Y-117582143D01*
X119309524Y-117486905D01*
X119309524Y-117201190D01*
X119357143Y-117105952D01*
X119404762Y-117058333D01*
X119500000Y-117010714D01*
X119690477Y-117010714D01*
X119785715Y-117058333D01*
X120261905Y-117010714D02*
X120261905Y-118010714D01*
X120261905Y-117058333D02*
X120357143Y-117010714D01*
X120547620Y-117010714D01*
X120642858Y-117058333D01*
X120690477Y-117105952D01*
X120738096Y-117201190D01*
X120738096Y-117486905D01*
X120690477Y-117582143D01*
X120642858Y-117629762D01*
X120547620Y-117677381D01*
X120357143Y-117677381D01*
X120261905Y-117629762D01*
X121166667Y-117677381D02*
X121166667Y-117010714D01*
X121166667Y-117201190D02*
X121214286Y-117105952D01*
X121261905Y-117058333D01*
X121357143Y-117010714D01*
X121452382Y-117010714D01*
X122166668Y-117629762D02*
X122071430Y-117677381D01*
X121880953Y-117677381D01*
X121785715Y-117629762D01*
X121738096Y-117534524D01*
X121738096Y-117153571D01*
X121785715Y-117058333D01*
X121880953Y-117010714D01*
X122071430Y-117010714D01*
X122166668Y-117058333D01*
X122214287Y-117153571D01*
X122214287Y-117248810D01*
X121738096Y-117344048D01*
X122595239Y-117629762D02*
X122690477Y-117677381D01*
X122880953Y-117677381D01*
X122976192Y-117629762D01*
X123023811Y-117534524D01*
X123023811Y-117486905D01*
X122976192Y-117391667D01*
X122880953Y-117344048D01*
X122738096Y-117344048D01*
X122642858Y-117296429D01*
X122595239Y-117201190D01*
X122595239Y-117153571D01*
X122642858Y-117058333D01*
X122738096Y-117010714D01*
X122880953Y-117010714D01*
X122976192Y-117058333D01*
X123404763Y-117629762D02*
X123500001Y-117677381D01*
X123690477Y-117677381D01*
X123785716Y-117629762D01*
X123833335Y-117534524D01*
X123833335Y-117486905D01*
X123785716Y-117391667D01*
X123690477Y-117344048D01*
X123547620Y-117344048D01*
X123452382Y-117296429D01*
X123404763Y-117201190D01*
X123404763Y-117153571D01*
X123452382Y-117058333D01*
X123547620Y-117010714D01*
X123690477Y-117010714D01*
X123785716Y-117058333D01*
X124261906Y-117582143D02*
X124309525Y-117629762D01*
X124261906Y-117677381D01*
X124214287Y-117629762D01*
X124261906Y-117582143D01*
X124261906Y-117677381D01*
X125166668Y-117629762D02*
X125071430Y-117677381D01*
X124880953Y-117677381D01*
X124785715Y-117629762D01*
X124738096Y-117582143D01*
X124690477Y-117486905D01*
X124690477Y-117201190D01*
X124738096Y-117105952D01*
X124785715Y-117058333D01*
X124880953Y-117010714D01*
X125071430Y-117010714D01*
X125166668Y-117058333D01*
X125738096Y-117677381D02*
X125642858Y-117629762D01*
X125595239Y-117582143D01*
X125547620Y-117486905D01*
X125547620Y-117201190D01*
X125595239Y-117105952D01*
X125642858Y-117058333D01*
X125738096Y-117010714D01*
X125880954Y-117010714D01*
X125976192Y-117058333D01*
X126023811Y-117105952D01*
X126071430Y-117201190D01*
X126071430Y-117486905D01*
X126023811Y-117582143D01*
X125976192Y-117629762D01*
X125880954Y-117677381D01*
X125738096Y-117677381D01*
X126500001Y-117677381D02*
X126500001Y-117010714D01*
X126500001Y-117105952D02*
X126547620Y-117058333D01*
X126642858Y-117010714D01*
X126785716Y-117010714D01*
X126880954Y-117058333D01*
X126928573Y-117153571D01*
X126928573Y-117677381D01*
X126928573Y-117153571D02*
X126976192Y-117058333D01*
X127071430Y-117010714D01*
X127214287Y-117010714D01*
X127309525Y-117058333D01*
X127357144Y-117153571D01*
X127357144Y-117677381D01*
X113452381Y-109727381D02*
X114023810Y-109727381D01*
X113738095Y-110727381D02*
X113738095Y-109727381D01*
X114309524Y-110441667D02*
X114785715Y-110441667D01*
X114214286Y-110727381D02*
X114547619Y-109727381D01*
X114880953Y-110727381D01*
X115214286Y-110727381D02*
X115214286Y-109727381D01*
X115595239Y-109727381D01*
X115690477Y-109775000D01*
X115738096Y-109822619D01*
X115785715Y-109917857D01*
X115785715Y-110060714D01*
X115738096Y-110155952D01*
X115690477Y-110203571D01*
X115595239Y-110251190D01*
X115214286Y-110251190D01*
X116785715Y-110727381D02*
X116452381Y-110251190D01*
X116214286Y-110727381D02*
X116214286Y-109727381D01*
X116595239Y-109727381D01*
X116690477Y-109775000D01*
X116738096Y-109822619D01*
X116785715Y-109917857D01*
X116785715Y-110060714D01*
X116738096Y-110155952D01*
X116690477Y-110203571D01*
X116595239Y-110251190D01*
X116214286Y-110251190D01*
X118166667Y-109727381D02*
X118357144Y-109727381D01*
X118452382Y-109775000D01*
X118547620Y-109870238D01*
X118595239Y-110060714D01*
X118595239Y-110394048D01*
X118547620Y-110584524D01*
X118452382Y-110679762D01*
X118357144Y-110727381D01*
X118166667Y-110727381D01*
X118071429Y-110679762D01*
X117976191Y-110584524D01*
X117928572Y-110394048D01*
X117928572Y-110060714D01*
X117976191Y-109870238D01*
X118071429Y-109775000D01*
X118166667Y-109727381D01*
X119023810Y-110727381D02*
X119023810Y-109727381D01*
X119023810Y-110203571D02*
X119595239Y-110203571D01*
X119595239Y-110727381D02*
X119595239Y-109727381D01*
X120547620Y-110727381D02*
X120071429Y-110727381D01*
X120071429Y-109727381D01*
X112452380Y-111710714D02*
X112833332Y-111710714D01*
X112595237Y-111377381D02*
X112595237Y-112234524D01*
X112642856Y-112329762D01*
X112738094Y-112377381D01*
X112833332Y-112377381D01*
X113595238Y-112377381D02*
X113595238Y-111853571D01*
X113547619Y-111758333D01*
X113452381Y-111710714D01*
X113261904Y-111710714D01*
X113166666Y-111758333D01*
X113595238Y-112329762D02*
X113500000Y-112377381D01*
X113261904Y-112377381D01*
X113166666Y-112329762D01*
X113119047Y-112234524D01*
X113119047Y-112139286D01*
X113166666Y-112044048D01*
X113261904Y-111996429D01*
X113500000Y-111996429D01*
X113595238Y-111948810D01*
X114071428Y-111710714D02*
X114071428Y-112710714D01*
X114071428Y-111758333D02*
X114166666Y-111710714D01*
X114357143Y-111710714D01*
X114452381Y-111758333D01*
X114500000Y-111805952D01*
X114547619Y-111901190D01*
X114547619Y-112186905D01*
X114500000Y-112282143D01*
X114452381Y-112329762D01*
X114357143Y-112377381D01*
X114166666Y-112377381D01*
X114071428Y-112329762D01*
X114976190Y-112377381D02*
X114976190Y-111710714D01*
X114976190Y-111901190D02*
X115023809Y-111805952D01*
X115071428Y-111758333D01*
X115166666Y-111710714D01*
X115261905Y-111710714D01*
X115595238Y-112282143D02*
X115642857Y-112329762D01*
X115595238Y-112377381D01*
X115547619Y-112329762D01*
X115595238Y-112282143D01*
X115595238Y-112377381D01*
X116214285Y-112377381D02*
X116119047Y-112329762D01*
X116071428Y-112282143D01*
X116023809Y-112186905D01*
X116023809Y-111901190D01*
X116071428Y-111805952D01*
X116119047Y-111758333D01*
X116214285Y-111710714D01*
X116357143Y-111710714D01*
X116452381Y-111758333D01*
X116500000Y-111805952D01*
X116547619Y-111901190D01*
X116547619Y-112186905D01*
X116500000Y-112282143D01*
X116452381Y-112329762D01*
X116357143Y-112377381D01*
X116214285Y-112377381D01*
X116976190Y-112377381D02*
X116976190Y-111710714D01*
X116976190Y-111901190D02*
X117023809Y-111805952D01*
X117071428Y-111758333D01*
X117166666Y-111710714D01*
X117261905Y-111710714D01*
X118023810Y-111710714D02*
X118023810Y-112520238D01*
X117976191Y-112615476D01*
X117928572Y-112663095D01*
X117833333Y-112710714D01*
X117690476Y-112710714D01*
X117595238Y-112663095D01*
X118023810Y-112329762D02*
X117928572Y-112377381D01*
X117738095Y-112377381D01*
X117642857Y-112329762D01*
X117595238Y-112282143D01*
X117547619Y-112186905D01*
X117547619Y-111901190D01*
X117595238Y-111805952D01*
X117642857Y-111758333D01*
X117738095Y-111710714D01*
X117928572Y-111710714D01*
X118023810Y-111758333D01*
X119214286Y-111329762D02*
X118357143Y-112615476D01*
X119690476Y-112377381D02*
X119595238Y-112329762D01*
X119547619Y-112282143D01*
X119500000Y-112186905D01*
X119500000Y-111901190D01*
X119547619Y-111805952D01*
X119595238Y-111758333D01*
X119690476Y-111710714D01*
X119833334Y-111710714D01*
X119928572Y-111758333D01*
X119976191Y-111805952D01*
X120023810Y-111901190D01*
X120023810Y-112186905D01*
X119976191Y-112282143D01*
X119928572Y-112329762D01*
X119833334Y-112377381D01*
X119690476Y-112377381D01*
X120452381Y-112377381D02*
X120452381Y-111377381D01*
X120880953Y-112377381D02*
X120880953Y-111853571D01*
X120833334Y-111758333D01*
X120738096Y-111710714D01*
X120595238Y-111710714D01*
X120500000Y-111758333D01*
X120452381Y-111805952D01*
X121500000Y-112377381D02*
X121404762Y-112329762D01*
X121357143Y-112234524D01*
X121357143Y-111377381D01*
X90195238Y-108752381D02*
X90528571Y-109752381D01*
X90861905Y-108752381D01*
X91195238Y-109752381D02*
X91195238Y-108752381D01*
X91433333Y-108752381D01*
X91576191Y-108800000D01*
X91671429Y-108895238D01*
X91719048Y-108990476D01*
X91766667Y-109180952D01*
X91766667Y-109323810D01*
X91719048Y-109514286D01*
X91671429Y-109609524D01*
X91576191Y-109704762D01*
X91433333Y-109752381D01*
X91195238Y-109752381D01*
X92195238Y-109752381D02*
X92195238Y-108752381D01*
X92433333Y-108752381D01*
X92576191Y-108800000D01*
X92671429Y-108895238D01*
X92719048Y-108990476D01*
X92766667Y-109180952D01*
X92766667Y-109323810D01*
X92719048Y-109514286D01*
X92671429Y-109609524D01*
X92576191Y-109704762D01*
X92433333Y-109752381D01*
X92195238Y-109752381D01*
X90861905Y-98900000D02*
X90766667Y-98852381D01*
X90623810Y-98852381D01*
X90480952Y-98900000D01*
X90385714Y-98995238D01*
X90338095Y-99090476D01*
X90290476Y-99280952D01*
X90290476Y-99423810D01*
X90338095Y-99614286D01*
X90385714Y-99709524D01*
X90480952Y-99804762D01*
X90623810Y-99852381D01*
X90719048Y-99852381D01*
X90861905Y-99804762D01*
X90909524Y-99757143D01*
X90909524Y-99423810D01*
X90719048Y-99423810D01*
X91338095Y-99852381D02*
X91338095Y-98852381D01*
X91909524Y-99852381D01*
X91909524Y-98852381D01*
X92385714Y-99852381D02*
X92385714Y-98852381D01*
X92623809Y-98852381D01*
X92766667Y-98900000D01*
X92861905Y-98995238D01*
X92909524Y-99090476D01*
X92957143Y-99280952D01*
X92957143Y-99423810D01*
X92909524Y-99614286D01*
X92861905Y-99709524D01*
X92766667Y-99804762D01*
X92623809Y-99852381D01*
X92385714Y-99852381D01*
X95738095Y-109752381D02*
X95738095Y-108752381D01*
X96071429Y-109466667D01*
X96404762Y-108752381D01*
X96404762Y-109752381D01*
X96880952Y-109752381D02*
X96880952Y-108752381D01*
X97309523Y-109704762D02*
X97452380Y-109752381D01*
X97690476Y-109752381D01*
X97785714Y-109704762D01*
X97833333Y-109657143D01*
X97880952Y-109561905D01*
X97880952Y-109466667D01*
X97833333Y-109371429D01*
X97785714Y-109323810D01*
X97690476Y-109276190D01*
X97499999Y-109228571D01*
X97404761Y-109180952D01*
X97357142Y-109133333D01*
X97309523Y-109038095D01*
X97309523Y-108942857D01*
X97357142Y-108847619D01*
X97404761Y-108800000D01*
X97499999Y-108752381D01*
X97738095Y-108752381D01*
X97880952Y-108800000D01*
X98499999Y-108752381D02*
X98690476Y-108752381D01*
X98785714Y-108800000D01*
X98880952Y-108895238D01*
X98928571Y-109085714D01*
X98928571Y-109419048D01*
X98880952Y-109609524D01*
X98785714Y-109704762D01*
X98690476Y-109752381D01*
X98499999Y-109752381D01*
X98404761Y-109704762D01*
X98309523Y-109609524D01*
X98261904Y-109419048D01*
X98261904Y-109085714D01*
X98309523Y-108895238D01*
X98404761Y-108800000D01*
X98499999Y-108752381D01*
X96309524Y-99852381D02*
X95976190Y-99376190D01*
X95738095Y-99852381D02*
X95738095Y-98852381D01*
X96119048Y-98852381D01*
X96214286Y-98900000D01*
X96261905Y-98947619D01*
X96309524Y-99042857D01*
X96309524Y-99185714D01*
X96261905Y-99280952D01*
X96214286Y-99328571D01*
X96119048Y-99376190D01*
X95738095Y-99376190D01*
X96690476Y-99804762D02*
X96833333Y-99852381D01*
X97071429Y-99852381D01*
X97166667Y-99804762D01*
X97214286Y-99757143D01*
X97261905Y-99661905D01*
X97261905Y-99566667D01*
X97214286Y-99471429D01*
X97166667Y-99423810D01*
X97071429Y-99376190D01*
X96880952Y-99328571D01*
X96785714Y-99280952D01*
X96738095Y-99233333D01*
X96690476Y-99138095D01*
X96690476Y-99042857D01*
X96738095Y-98947619D01*
X96785714Y-98900000D01*
X96880952Y-98852381D01*
X97119048Y-98852381D01*
X97261905Y-98900000D01*
X97547619Y-98852381D02*
X98119048Y-98852381D01*
X97833333Y-99852381D02*
X97833333Y-98852381D01*
X99490476Y-104704762D02*
X99633333Y-104752381D01*
X99871429Y-104752381D01*
X99966667Y-104704762D01*
X100014286Y-104657143D01*
X100061905Y-104561905D01*
X100061905Y-104466667D01*
X100014286Y-104371429D01*
X99966667Y-104323810D01*
X99871429Y-104276190D01*
X99680952Y-104228571D01*
X99585714Y-104180952D01*
X99538095Y-104133333D01*
X99490476Y-104038095D01*
X99490476Y-103942857D01*
X99538095Y-103847619D01*
X99585714Y-103800000D01*
X99680952Y-103752381D01*
X99919048Y-103752381D01*
X100061905Y-103800000D01*
X101061905Y-104657143D02*
X101014286Y-104704762D01*
X100871429Y-104752381D01*
X100776191Y-104752381D01*
X100633333Y-104704762D01*
X100538095Y-104609524D01*
X100490476Y-104514286D01*
X100442857Y-104323810D01*
X100442857Y-104180952D01*
X100490476Y-103990476D01*
X100538095Y-103895238D01*
X100633333Y-103800000D01*
X100776191Y-103752381D01*
X100871429Y-103752381D01*
X101014286Y-103800000D01*
X101061905Y-103847619D01*
X101490476Y-104752381D02*
X101490476Y-103752381D01*
X102061905Y-104752381D02*
X101633333Y-104180952D01*
X102061905Y-103752381D02*
X101490476Y-104323810D01*
X89952381Y-105871428D02*
X88952381Y-105871428D01*
X89666667Y-105538094D01*
X88952381Y-105204761D01*
X89952381Y-105204761D01*
X88952381Y-104538095D02*
X88952381Y-104347618D01*
X89000000Y-104252380D01*
X89095238Y-104157142D01*
X89285714Y-104109523D01*
X89619048Y-104109523D01*
X89809524Y-104157142D01*
X89904762Y-104252380D01*
X89952381Y-104347618D01*
X89952381Y-104538095D01*
X89904762Y-104633333D01*
X89809524Y-104728571D01*
X89619048Y-104776190D01*
X89285714Y-104776190D01*
X89095238Y-104728571D01*
X89000000Y-104633333D01*
X88952381Y-104538095D01*
X89904762Y-103728571D02*
X89952381Y-103585714D01*
X89952381Y-103347618D01*
X89904762Y-103252380D01*
X89857143Y-103204761D01*
X89761905Y-103157142D01*
X89666667Y-103157142D01*
X89571429Y-103204761D01*
X89523810Y-103252380D01*
X89476190Y-103347618D01*
X89428571Y-103538095D01*
X89380952Y-103633333D01*
X89333333Y-103680952D01*
X89238095Y-103728571D01*
X89142857Y-103728571D01*
X89047619Y-103680952D01*
X89000000Y-103633333D01*
X88952381Y-103538095D01*
X88952381Y-103299999D01*
X89000000Y-103157142D01*
X89952381Y-102728571D02*
X88952381Y-102728571D01*
X100500000Y-98461905D02*
X100547619Y-98366667D01*
X100547619Y-98223810D01*
X100500000Y-98080952D01*
X100404762Y-97985714D01*
X100309524Y-97938095D01*
X100119048Y-97890476D01*
X99976190Y-97890476D01*
X99785714Y-97938095D01*
X99690476Y-97985714D01*
X99595238Y-98080952D01*
X99547619Y-98223810D01*
X99547619Y-98319048D01*
X99595238Y-98461905D01*
X99642857Y-98509524D01*
X99976190Y-98509524D01*
X99976190Y-98319048D01*
X99547619Y-98938095D02*
X100547619Y-98938095D01*
X99547619Y-99509524D01*
X100547619Y-99509524D01*
X99547619Y-99985714D02*
X100547619Y-99985714D01*
X100547619Y-100223809D01*
X100500000Y-100366667D01*
X100404762Y-100461905D01*
X100309524Y-100509524D01*
X100119048Y-100557143D01*
X99976190Y-100557143D01*
X99785714Y-100509524D01*
X99690476Y-100461905D01*
X99595238Y-100366667D01*
X99547619Y-100223809D01*
X99547619Y-99985714D01*
X102142857Y-98509524D02*
X102095238Y-98461905D01*
X102047619Y-98319048D01*
X102047619Y-98223810D01*
X102095238Y-98080952D01*
X102190476Y-97985714D01*
X102285714Y-97938095D01*
X102476190Y-97890476D01*
X102619048Y-97890476D01*
X102809524Y-97938095D01*
X102904762Y-97985714D01*
X103000000Y-98080952D01*
X103047619Y-98223810D01*
X103047619Y-98319048D01*
X103000000Y-98461905D01*
X102952381Y-98509524D01*
X103047619Y-98795238D02*
X103047619Y-99366667D01*
X102047619Y-99080952D02*
X103047619Y-99080952D01*
X102095238Y-99652381D02*
X102047619Y-99795238D01*
X102047619Y-100033334D01*
X102095238Y-100128572D01*
X102142857Y-100176191D01*
X102238095Y-100223810D01*
X102333333Y-100223810D01*
X102428571Y-100176191D01*
X102476190Y-100128572D01*
X102523810Y-100033334D01*
X102571429Y-99842857D01*
X102619048Y-99747619D01*
X102666667Y-99700000D01*
X102761905Y-99652381D01*
X102857143Y-99652381D01*
X102952381Y-99700000D01*
X103000000Y-99747619D01*
X103047619Y-99842857D01*
X103047619Y-100080953D01*
X103000000Y-100223810D01*
X105647619Y-97795238D02*
X104647619Y-98128571D01*
X105647619Y-98461905D01*
X104647619Y-98795238D02*
X105647619Y-98795238D01*
X105647619Y-99033333D01*
X105600000Y-99176191D01*
X105504762Y-99271429D01*
X105409524Y-99319048D01*
X105219048Y-99366667D01*
X105076190Y-99366667D01*
X104885714Y-99319048D01*
X104790476Y-99271429D01*
X104695238Y-99176191D01*
X104647619Y-99033333D01*
X104647619Y-98795238D01*
X104647619Y-99795238D02*
X105647619Y-99795238D01*
X105647619Y-100033333D01*
X105600000Y-100176191D01*
X105504762Y-100271429D01*
X105409524Y-100319048D01*
X105219048Y-100366667D01*
X105076190Y-100366667D01*
X104885714Y-100319048D01*
X104790476Y-100271429D01*
X104695238Y-100176191D01*
X104647619Y-100033333D01*
X104647619Y-99795238D01*
X107147619Y-98509524D02*
X107623810Y-98176190D01*
X107147619Y-97938095D02*
X108147619Y-97938095D01*
X108147619Y-98319048D01*
X108100000Y-98414286D01*
X108052381Y-98461905D01*
X107957143Y-98509524D01*
X107814286Y-98509524D01*
X107719048Y-98461905D01*
X107671429Y-98414286D01*
X107623810Y-98319048D01*
X107623810Y-97938095D01*
X108147619Y-98842857D02*
X107147619Y-99509524D01*
X108147619Y-99509524D02*
X107147619Y-98842857D01*
X110747619Y-97795238D02*
X110747619Y-98366667D01*
X109747619Y-98080952D02*
X110747619Y-98080952D01*
X110747619Y-98604762D02*
X109747619Y-99271429D01*
X110747619Y-99271429D02*
X109747619Y-98604762D01*
X112247619Y-97938095D02*
X113247619Y-97938095D01*
X113247619Y-98176190D01*
X113200000Y-98319048D01*
X113104762Y-98414286D01*
X113009524Y-98461905D01*
X112819048Y-98509524D01*
X112676190Y-98509524D01*
X112485714Y-98461905D01*
X112390476Y-98414286D01*
X112295238Y-98319048D01*
X112247619Y-98176190D01*
X112247619Y-97938095D01*
X113247619Y-98795238D02*
X113247619Y-99366667D01*
X112247619Y-99080952D02*
X113247619Y-99080952D01*
X112247619Y-100271429D02*
X112723810Y-99938095D01*
X112247619Y-99700000D02*
X113247619Y-99700000D01*
X113247619Y-100080953D01*
X113200000Y-100176191D01*
X113152381Y-100223810D01*
X113057143Y-100271429D01*
X112914286Y-100271429D01*
X112819048Y-100223810D01*
X112771429Y-100176191D01*
X112723810Y-100080953D01*
X112723810Y-99700000D01*
X127471429Y-98271429D02*
X127423810Y-98414286D01*
X127376190Y-98461905D01*
X127280952Y-98509524D01*
X127138095Y-98509524D01*
X127042857Y-98461905D01*
X126995238Y-98414286D01*
X126947619Y-98319048D01*
X126947619Y-97938095D01*
X127947619Y-97938095D01*
X127947619Y-98271429D01*
X127900000Y-98366667D01*
X127852381Y-98414286D01*
X127757143Y-98461905D01*
X127661905Y-98461905D01*
X127566667Y-98414286D01*
X127519048Y-98366667D01*
X127471429Y-98271429D01*
X127471429Y-97938095D01*
X127233333Y-98890476D02*
X127233333Y-99366667D01*
X126947619Y-98795238D02*
X127947619Y-99128571D01*
X126947619Y-99461905D01*
X127947619Y-99652381D02*
X127947619Y-100223810D01*
X126947619Y-99938095D02*
X127947619Y-99938095D01*
X127947619Y-100414286D02*
X127947619Y-100985715D01*
X126947619Y-100700000D02*
X127947619Y-100700000D01*
X126852381Y-101080953D02*
X126852381Y-101842858D01*
X126947619Y-102080953D02*
X127947619Y-102080953D01*
X127947619Y-102461906D01*
X127900000Y-102557144D01*
X127852381Y-102604763D01*
X127757143Y-102652382D01*
X127614286Y-102652382D01*
X127519048Y-102604763D01*
X127471429Y-102557144D01*
X127423810Y-102461906D01*
X127423810Y-102080953D01*
X127947619Y-103271429D02*
X127947619Y-103461906D01*
X127900000Y-103557144D01*
X127804762Y-103652382D01*
X127614286Y-103700001D01*
X127280952Y-103700001D01*
X127090476Y-103652382D01*
X126995238Y-103557144D01*
X126947619Y-103461906D01*
X126947619Y-103271429D01*
X126995238Y-103176191D01*
X127090476Y-103080953D01*
X127280952Y-103033334D01*
X127614286Y-103033334D01*
X127804762Y-103080953D01*
X127900000Y-103176191D01*
X127947619Y-103271429D01*
X126995238Y-104080953D02*
X126947619Y-104223810D01*
X126947619Y-104461906D01*
X126995238Y-104557144D01*
X127042857Y-104604763D01*
X127138095Y-104652382D01*
X127233333Y-104652382D01*
X127328571Y-104604763D01*
X127376190Y-104557144D01*
X127423810Y-104461906D01*
X127471429Y-104271429D01*
X127519048Y-104176191D01*
X127566667Y-104128572D01*
X127661905Y-104080953D01*
X127757143Y-104080953D01*
X127852381Y-104128572D01*
X127900000Y-104176191D01*
X127947619Y-104271429D01*
X127947619Y-104509525D01*
X127900000Y-104652382D01*
X124871429Y-98271429D02*
X124823810Y-98414286D01*
X124776190Y-98461905D01*
X124680952Y-98509524D01*
X124538095Y-98509524D01*
X124442857Y-98461905D01*
X124395238Y-98414286D01*
X124347619Y-98319048D01*
X124347619Y-97938095D01*
X125347619Y-97938095D01*
X125347619Y-98271429D01*
X125300000Y-98366667D01*
X125252381Y-98414286D01*
X125157143Y-98461905D01*
X125061905Y-98461905D01*
X124966667Y-98414286D01*
X124919048Y-98366667D01*
X124871429Y-98271429D01*
X124871429Y-97938095D01*
X124633333Y-98890476D02*
X124633333Y-99366667D01*
X124347619Y-98795238D02*
X125347619Y-99128571D01*
X124347619Y-99461905D01*
X125347619Y-99652381D02*
X125347619Y-100223810D01*
X124347619Y-99938095D02*
X125347619Y-99938095D01*
X125347619Y-100414286D02*
X125347619Y-100985715D01*
X124347619Y-100700000D02*
X125347619Y-100700000D01*
X124252381Y-101080953D02*
X124252381Y-101842858D01*
X124347619Y-102080953D02*
X125347619Y-102080953D01*
X124633333Y-102414287D01*
X125347619Y-102747620D01*
X124347619Y-102747620D01*
X124347619Y-103223810D02*
X125347619Y-103223810D01*
X124347619Y-103700000D02*
X125347619Y-103700000D01*
X125347619Y-103938095D01*
X125300000Y-104080953D01*
X125204762Y-104176191D01*
X125109524Y-104223810D01*
X124919048Y-104271429D01*
X124776190Y-104271429D01*
X124585714Y-104223810D01*
X124490476Y-104176191D01*
X124395238Y-104080953D01*
X124347619Y-103938095D01*
X124347619Y-103700000D01*
X122800000Y-98461905D02*
X122847619Y-98366667D01*
X122847619Y-98223810D01*
X122800000Y-98080952D01*
X122704762Y-97985714D01*
X122609524Y-97938095D01*
X122419048Y-97890476D01*
X122276190Y-97890476D01*
X122085714Y-97938095D01*
X121990476Y-97985714D01*
X121895238Y-98080952D01*
X121847619Y-98223810D01*
X121847619Y-98319048D01*
X121895238Y-98461905D01*
X121942857Y-98509524D01*
X122276190Y-98509524D01*
X122276190Y-98319048D01*
X121847619Y-98938095D02*
X122847619Y-98938095D01*
X121847619Y-99509524D01*
X122847619Y-99509524D01*
X121847619Y-99985714D02*
X122847619Y-99985714D01*
X122847619Y-100223809D01*
X122800000Y-100366667D01*
X122704762Y-100461905D01*
X122609524Y-100509524D01*
X122419048Y-100557143D01*
X122276190Y-100557143D01*
X122085714Y-100509524D01*
X121990476Y-100461905D01*
X121895238Y-100366667D01*
X121847619Y-100223809D01*
X121847619Y-99985714D01*
X109228571Y-127428571D02*
X109228571Y-127761905D01*
X109752381Y-127761905D02*
X108752381Y-127761905D01*
X108752381Y-127285714D01*
X109752381Y-126428571D02*
X109752381Y-126904762D01*
X108752381Y-126904762D01*
X108752381Y-125904762D02*
X108752381Y-125714285D01*
X108800000Y-125619047D01*
X108895238Y-125523809D01*
X109085714Y-125476190D01*
X109419048Y-125476190D01*
X109609524Y-125523809D01*
X109704762Y-125619047D01*
X109752381Y-125714285D01*
X109752381Y-125904762D01*
X109704762Y-126000000D01*
X109609524Y-126095238D01*
X109419048Y-126142857D01*
X109085714Y-126142857D01*
X108895238Y-126095238D01*
X108800000Y-126000000D01*
X108752381Y-125904762D01*
X108752381Y-125142857D02*
X109752381Y-124904762D01*
X109038095Y-124714285D01*
X109752381Y-124523809D01*
X108752381Y-124285714D01*
X109847619Y-124142857D02*
X109847619Y-123380952D01*
X108800000Y-122619047D02*
X108752381Y-122714285D01*
X108752381Y-122857142D01*
X108800000Y-123000000D01*
X108895238Y-123095238D01*
X108990476Y-123142857D01*
X109180952Y-123190476D01*
X109323810Y-123190476D01*
X109514286Y-123142857D01*
X109609524Y-123095238D01*
X109704762Y-123000000D01*
X109752381Y-122857142D01*
X109752381Y-122761904D01*
X109704762Y-122619047D01*
X109657143Y-122571428D01*
X109323810Y-122571428D01*
X109323810Y-122761904D01*
X109752381Y-122142857D02*
X108752381Y-122142857D01*
X109752381Y-121571428D01*
X108752381Y-121571428D01*
X109752381Y-121095238D02*
X108752381Y-121095238D01*
X108752381Y-120857143D01*
X108800000Y-120714285D01*
X108895238Y-120619047D01*
X108990476Y-120571428D01*
X109180952Y-120523809D01*
X109323810Y-120523809D01*
X109514286Y-120571428D01*
X109609524Y-120619047D01*
X109704762Y-120714285D01*
X109752381Y-120857143D01*
X109752381Y-121095238D01*
X111728571Y-127428571D02*
X111728571Y-127761905D01*
X112252381Y-127761905D02*
X111252381Y-127761905D01*
X111252381Y-127285714D01*
X112252381Y-126428571D02*
X112252381Y-126904762D01*
X111252381Y-126904762D01*
X111252381Y-125904762D02*
X111252381Y-125714285D01*
X111300000Y-125619047D01*
X111395238Y-125523809D01*
X111585714Y-125476190D01*
X111919048Y-125476190D01*
X112109524Y-125523809D01*
X112204762Y-125619047D01*
X112252381Y-125714285D01*
X112252381Y-125904762D01*
X112204762Y-126000000D01*
X112109524Y-126095238D01*
X111919048Y-126142857D01*
X111585714Y-126142857D01*
X111395238Y-126095238D01*
X111300000Y-126000000D01*
X111252381Y-125904762D01*
X111252381Y-125142857D02*
X112252381Y-124904762D01*
X111538095Y-124714285D01*
X112252381Y-124523809D01*
X111252381Y-124285714D01*
X112347619Y-124142857D02*
X112347619Y-123380952D01*
X112252381Y-123142857D02*
X111252381Y-123142857D01*
X112252381Y-122666667D02*
X111252381Y-122666667D01*
X112252381Y-122095238D01*
X111252381Y-122095238D01*
X114328571Y-127428571D02*
X114328571Y-127761905D01*
X114852381Y-127761905D02*
X113852381Y-127761905D01*
X113852381Y-127285714D01*
X114852381Y-126428571D02*
X114852381Y-126904762D01*
X113852381Y-126904762D01*
X113852381Y-125904762D02*
X113852381Y-125714285D01*
X113900000Y-125619047D01*
X113995238Y-125523809D01*
X114185714Y-125476190D01*
X114519048Y-125476190D01*
X114709524Y-125523809D01*
X114804762Y-125619047D01*
X114852381Y-125714285D01*
X114852381Y-125904762D01*
X114804762Y-126000000D01*
X114709524Y-126095238D01*
X114519048Y-126142857D01*
X114185714Y-126142857D01*
X113995238Y-126095238D01*
X113900000Y-126000000D01*
X113852381Y-125904762D01*
X113852381Y-125142857D02*
X114852381Y-124904762D01*
X114138095Y-124714285D01*
X114852381Y-124523809D01*
X113852381Y-124285714D01*
X114947619Y-124142857D02*
X114947619Y-123380952D01*
X113852381Y-123285714D02*
X114852381Y-122952381D01*
X113852381Y-122619047D01*
X114757143Y-121714285D02*
X114804762Y-121761904D01*
X114852381Y-121904761D01*
X114852381Y-121999999D01*
X114804762Y-122142857D01*
X114709524Y-122238095D01*
X114614286Y-122285714D01*
X114423810Y-122333333D01*
X114280952Y-122333333D01*
X114090476Y-122285714D01*
X113995238Y-122238095D01*
X113900000Y-122142857D01*
X113852381Y-121999999D01*
X113852381Y-121904761D01*
X113900000Y-121761904D01*
X113947619Y-121714285D01*
X114757143Y-120714285D02*
X114804762Y-120761904D01*
X114852381Y-120904761D01*
X114852381Y-120999999D01*
X114804762Y-121142857D01*
X114709524Y-121238095D01*
X114614286Y-121285714D01*
X114423810Y-121333333D01*
X114280952Y-121333333D01*
X114090476Y-121285714D01*
X113995238Y-121238095D01*
X113900000Y-121142857D01*
X113852381Y-120999999D01*
X113852381Y-120904761D01*
X113900000Y-120761904D01*
X113947619Y-120714285D01*
D12*
X132971428Y-124207143D02*
X131828571Y-124207143D01*
X124971428Y-124207143D02*
X123828571Y-124207143D01*
X130971428Y-124207143D02*
X129828571Y-124207143D01*
X130400000Y-124778571D02*
X130400000Y-123635714D01*
X122971428Y-124107143D02*
X121828571Y-124107143D01*
X122400000Y-124678571D02*
X122400000Y-123535714D01*
D13*
X113110000Y-128470000D02*
X107970000Y-128470000D01*
X107970000Y-128470000D02*
X107970000Y-131130000D01*
X107970000Y-131130000D02*
X113110000Y-131130000D01*
X113110000Y-131130000D02*
X113110000Y-128470000D01*
X114380000Y-128470000D02*
X115710000Y-128470000D01*
X115710000Y-128470000D02*
X115710000Y-129800000D01*
D11*
X105023607Y-114170000D02*
G75*
G03X105023607Y-114170000I-223607J0D01*
G01*
X104900000Y-114170000D02*
G75*
G03X104900000Y-114170000I-100000J0D01*
G01*
X105100000Y-132670000D02*
X105100000Y-114670000D01*
X93100000Y-132670000D02*
X105100000Y-132670000D01*
X93100000Y-114670000D02*
X93100000Y-132670000D01*
X105100000Y-114670000D02*
X93100000Y-114670000D01*
D13*
X101270000Y-97230000D02*
X114030000Y-97230000D01*
X114030000Y-97230000D02*
X114030000Y-94570000D01*
X114030000Y-94570000D02*
X101270000Y-94570000D01*
X101270000Y-94570000D02*
X101270000Y-97230000D01*
X100000000Y-97230000D02*
X98670000Y-97230000D01*
X98670000Y-97230000D02*
X98670000Y-95900000D01*
X123570000Y-97230000D02*
X128710000Y-97230000D01*
X128710000Y-97230000D02*
X128710000Y-94570000D01*
X128710000Y-94570000D02*
X123570000Y-94570000D01*
X123570000Y-94570000D02*
X123570000Y-97230000D01*
X122300000Y-97230000D02*
X120970000Y-97230000D01*
X120970000Y-97230000D02*
X120970000Y-95900000D01*
X97300000Y-107640000D02*
X97300000Y-108170000D01*
X97300000Y-108170000D02*
X92100000Y-108170000D01*
X92100000Y-108170000D02*
X92100000Y-107640000D01*
X97300000Y-100960000D02*
X97300000Y-100430000D01*
X97300000Y-100430000D02*
X92100000Y-100430000D01*
X92100000Y-100430000D02*
X92100000Y-100960000D01*
X98720000Y-107640000D02*
X97300000Y-107640000D01*
X123400000Y-127860000D02*
X125460000Y-127860000D01*
X125460000Y-127860000D02*
X125460000Y-125740000D01*
X125460000Y-125740000D02*
X123400000Y-125740000D01*
X123400000Y-125740000D02*
X123400000Y-127860000D01*
X122400000Y-127860000D02*
X121340000Y-127860000D01*
X121340000Y-127860000D02*
X121340000Y-126800000D01*
X131400000Y-127860000D02*
X133460000Y-127860000D01*
X133460000Y-127860000D02*
X133460000Y-125740000D01*
X133460000Y-125740000D02*
X131400000Y-125740000D01*
X131400000Y-125740000D02*
X131400000Y-127860000D01*
X130400000Y-127860000D02*
X129340000Y-127860000D01*
X129340000Y-127860000D02*
X129340000Y-126800000D01*
D10*
X131200000Y-120300000D02*
X138800000Y-120300000D01*
X138800000Y-120300000D02*
X138800000Y-103300000D01*
X138800000Y-103300000D02*
X131200000Y-103300000D01*
X131200000Y-103300000D02*
X131200000Y-120300000D01*
D14*
G36*
X113768886Y-108084505D02*
X113843539Y-108121727D01*
X113909431Y-108190261D01*
X113927577Y-108215648D01*
X113947345Y-108248866D01*
X113960172Y-108284945D01*
X113967510Y-108333098D01*
X113970813Y-108402536D01*
X113971538Y-108494206D01*
X113968263Y-108619830D01*
X113956877Y-108714154D01*
X113935041Y-108784523D01*
X113900419Y-108838286D01*
X113850670Y-108882788D01*
X113847014Y-108885423D01*
X113797985Y-108912377D01*
X113738945Y-108925712D01*
X113663859Y-108929000D01*
X113541795Y-108929000D01*
X113541744Y-109047497D01*
X113540608Y-109113492D01*
X113533686Y-109152202D01*
X113515598Y-109175419D01*
X113480962Y-109194933D01*
X113472645Y-109198920D01*
X113433720Y-109217603D01*
X113403583Y-109229403D01*
X113381174Y-109230422D01*
X113365433Y-109216761D01*
X113355302Y-109184522D01*
X113349723Y-109129804D01*
X113347635Y-109048711D01*
X113347981Y-108937344D01*
X113349700Y-108791802D01*
X113350237Y-108748269D01*
X113352172Y-108598205D01*
X113353904Y-108500042D01*
X113541692Y-108500042D01*
X113542748Y-108583364D01*
X113547438Y-108637880D01*
X113558051Y-108673837D01*
X113576872Y-108701482D01*
X113589650Y-108714965D01*
X113641890Y-108754417D01*
X113688142Y-108757628D01*
X113735867Y-108725049D01*
X113737077Y-108723846D01*
X113756494Y-108698668D01*
X113768307Y-108664447D01*
X113774265Y-108611748D01*
X113776120Y-108531131D01*
X113776154Y-108513271D01*
X113771670Y-108402175D01*
X113757074Y-108325161D01*
X113730650Y-108278147D01*
X113690683Y-108257050D01*
X113667584Y-108254923D01*
X113612762Y-108264900D01*
X113575158Y-108297752D01*
X113552523Y-108357857D01*
X113542606Y-108449598D01*
X113541692Y-108500042D01*
X113353904Y-108500042D01*
X113354222Y-108482060D01*
X113356873Y-108394679D01*
X113360606Y-108330905D01*
X113365907Y-108285582D01*
X113373258Y-108253555D01*
X113383143Y-108229668D01*
X113396046Y-108208764D01*
X113401579Y-108200898D01*
X113474969Y-108126595D01*
X113567760Y-108084467D01*
X113675096Y-108072722D01*
X113768886Y-108084505D01*
X113768886Y-108084505D01*
G37*
X113768886Y-108084505D02*
X113843539Y-108121727D01*
X113909431Y-108190261D01*
X113927577Y-108215648D01*
X113947345Y-108248866D01*
X113960172Y-108284945D01*
X113967510Y-108333098D01*
X113970813Y-108402536D01*
X113971538Y-108494206D01*
X113968263Y-108619830D01*
X113956877Y-108714154D01*
X113935041Y-108784523D01*
X113900419Y-108838286D01*
X113850670Y-108882788D01*
X113847014Y-108885423D01*
X113797985Y-108912377D01*
X113738945Y-108925712D01*
X113663859Y-108929000D01*
X113541795Y-108929000D01*
X113541744Y-109047497D01*
X113540608Y-109113492D01*
X113533686Y-109152202D01*
X113515598Y-109175419D01*
X113480962Y-109194933D01*
X113472645Y-109198920D01*
X113433720Y-109217603D01*
X113403583Y-109229403D01*
X113381174Y-109230422D01*
X113365433Y-109216761D01*
X113355302Y-109184522D01*
X113349723Y-109129804D01*
X113347635Y-109048711D01*
X113347981Y-108937344D01*
X113349700Y-108791802D01*
X113350237Y-108748269D01*
X113352172Y-108598205D01*
X113353904Y-108500042D01*
X113541692Y-108500042D01*
X113542748Y-108583364D01*
X113547438Y-108637880D01*
X113558051Y-108673837D01*
X113576872Y-108701482D01*
X113589650Y-108714965D01*
X113641890Y-108754417D01*
X113688142Y-108757628D01*
X113735867Y-108725049D01*
X113737077Y-108723846D01*
X113756494Y-108698668D01*
X113768307Y-108664447D01*
X113774265Y-108611748D01*
X113776120Y-108531131D01*
X113776154Y-108513271D01*
X113771670Y-108402175D01*
X113757074Y-108325161D01*
X113730650Y-108278147D01*
X113690683Y-108257050D01*
X113667584Y-108254923D01*
X113612762Y-108264900D01*
X113575158Y-108297752D01*
X113552523Y-108357857D01*
X113542606Y-108449598D01*
X113541692Y-108500042D01*
X113353904Y-108500042D01*
X113354222Y-108482060D01*
X113356873Y-108394679D01*
X113360606Y-108330905D01*
X113365907Y-108285582D01*
X113373258Y-108253555D01*
X113383143Y-108229668D01*
X113396046Y-108208764D01*
X113401579Y-108200898D01*
X113474969Y-108126595D01*
X113567760Y-108084467D01*
X113675096Y-108072722D01*
X113768886Y-108084505D01*
G36*
X115271664Y-108095089D02*
X115334367Y-108131358D01*
X115377961Y-108167358D01*
X115409845Y-108205075D01*
X115431810Y-108251199D01*
X115445649Y-108312421D01*
X115453153Y-108395431D01*
X115456117Y-108506919D01*
X115456461Y-108587062D01*
X115456461Y-108882065D01*
X115290385Y-108956515D01*
X115280615Y-108633402D01*
X115276579Y-108512729D01*
X115272344Y-108425141D01*
X115267097Y-108364650D01*
X115260025Y-108325268D01*
X115250311Y-108301007D01*
X115237144Y-108285880D01*
X115232919Y-108282606D01*
X115168909Y-108257034D01*
X115104208Y-108267153D01*
X115065692Y-108294000D01*
X115050025Y-108313024D01*
X115039180Y-108337988D01*
X115032288Y-108375834D01*
X115028479Y-108433502D01*
X115026883Y-108517935D01*
X115026615Y-108605928D01*
X115026563Y-108716323D01*
X115024672Y-108794463D01*
X115018345Y-108847165D01*
X115004983Y-108881242D01*
X114981985Y-108903511D01*
X114946754Y-108920787D01*
X114899697Y-108938738D01*
X114848303Y-108958278D01*
X114854421Y-108611485D01*
X114856884Y-108486468D01*
X114859767Y-108394082D01*
X114863898Y-108327881D01*
X114870107Y-108281420D01*
X114879226Y-108248256D01*
X114892083Y-108221944D01*
X114907584Y-108198729D01*
X114982371Y-108124569D01*
X115073628Y-108081684D01*
X115172883Y-108071412D01*
X115271664Y-108095089D01*
X115271664Y-108095089D01*
G37*
X115271664Y-108095089D02*
X115334367Y-108131358D01*
X115377961Y-108167358D01*
X115409845Y-108205075D01*
X115431810Y-108251199D01*
X115445649Y-108312421D01*
X115453153Y-108395431D01*
X115456117Y-108506919D01*
X115456461Y-108587062D01*
X115456461Y-108882065D01*
X115290385Y-108956515D01*
X115280615Y-108633402D01*
X115276579Y-108512729D01*
X115272344Y-108425141D01*
X115267097Y-108364650D01*
X115260025Y-108325268D01*
X115250311Y-108301007D01*
X115237144Y-108285880D01*
X115232919Y-108282606D01*
X115168909Y-108257034D01*
X115104208Y-108267153D01*
X115065692Y-108294000D01*
X115050025Y-108313024D01*
X115039180Y-108337988D01*
X115032288Y-108375834D01*
X115028479Y-108433502D01*
X115026883Y-108517935D01*
X115026615Y-108605928D01*
X115026563Y-108716323D01*
X115024672Y-108794463D01*
X115018345Y-108847165D01*
X115004983Y-108881242D01*
X114981985Y-108903511D01*
X114946754Y-108920787D01*
X114899697Y-108938738D01*
X114848303Y-108958278D01*
X114854421Y-108611485D01*
X114856884Y-108486468D01*
X114859767Y-108394082D01*
X114863898Y-108327881D01*
X114870107Y-108281420D01*
X114879226Y-108248256D01*
X114892083Y-108221944D01*
X114907584Y-108198729D01*
X114982371Y-108124569D01*
X115073628Y-108081684D01*
X115172883Y-108071412D01*
X115271664Y-108095089D01*
G36*
X113016886Y-108087256D02*
X113108464Y-108135409D01*
X113176049Y-108212905D01*
X113200057Y-108262727D01*
X113218738Y-108337533D01*
X113228301Y-108432052D01*
X113229208Y-108535210D01*
X113221921Y-108635935D01*
X113206903Y-108723153D01*
X113184615Y-108785791D01*
X113177765Y-108796579D01*
X113096632Y-108877105D01*
X113000266Y-108925336D01*
X112895701Y-108939450D01*
X112789968Y-108917629D01*
X112760543Y-108904547D01*
X112703241Y-108864231D01*
X112652950Y-108810775D01*
X112648197Y-108803995D01*
X112628878Y-108771321D01*
X112616108Y-108736394D01*
X112608564Y-108690414D01*
X112604924Y-108624584D01*
X112603865Y-108530105D01*
X112603846Y-108508923D01*
X112603894Y-108502182D01*
X112799231Y-108502182D01*
X112800368Y-108591349D01*
X112804841Y-108650520D01*
X112814246Y-108688741D01*
X112830176Y-108715053D01*
X112838308Y-108723846D01*
X112885058Y-108757261D01*
X112930447Y-108755737D01*
X112976340Y-108726752D01*
X113003712Y-108695809D01*
X113019923Y-108650643D01*
X113029026Y-108579420D01*
X113029651Y-108571114D01*
X113031204Y-108442037D01*
X113014965Y-108346172D01*
X112981152Y-108284107D01*
X112929984Y-108256432D01*
X112911720Y-108254923D01*
X112863760Y-108262513D01*
X112830953Y-108288808D01*
X112810895Y-108339095D01*
X112801178Y-108418664D01*
X112799231Y-108502182D01*
X112603894Y-108502182D01*
X112604574Y-108408249D01*
X112607629Y-108337906D01*
X112614322Y-108289163D01*
X112625960Y-108253288D01*
X112643853Y-108221548D01*
X112647808Y-108215648D01*
X112714267Y-108136104D01*
X112786685Y-108089929D01*
X112874849Y-108071599D01*
X112904787Y-108070703D01*
X113016886Y-108087256D01*
X113016886Y-108087256D01*
G37*
X113016886Y-108087256D02*
X113108464Y-108135409D01*
X113176049Y-108212905D01*
X113200057Y-108262727D01*
X113218738Y-108337533D01*
X113228301Y-108432052D01*
X113229208Y-108535210D01*
X113221921Y-108635935D01*
X113206903Y-108723153D01*
X113184615Y-108785791D01*
X113177765Y-108796579D01*
X113096632Y-108877105D01*
X113000266Y-108925336D01*
X112895701Y-108939450D01*
X112789968Y-108917629D01*
X112760543Y-108904547D01*
X112703241Y-108864231D01*
X112652950Y-108810775D01*
X112648197Y-108803995D01*
X112628878Y-108771321D01*
X112616108Y-108736394D01*
X112608564Y-108690414D01*
X112604924Y-108624584D01*
X112603865Y-108530105D01*
X112603846Y-108508923D01*
X112603894Y-108502182D01*
X112799231Y-108502182D01*
X112800368Y-108591349D01*
X112804841Y-108650520D01*
X112814246Y-108688741D01*
X112830176Y-108715053D01*
X112838308Y-108723846D01*
X112885058Y-108757261D01*
X112930447Y-108755737D01*
X112976340Y-108726752D01*
X113003712Y-108695809D01*
X113019923Y-108650643D01*
X113029026Y-108579420D01*
X113029651Y-108571114D01*
X113031204Y-108442037D01*
X113014965Y-108346172D01*
X112981152Y-108284107D01*
X112929984Y-108256432D01*
X112911720Y-108254923D01*
X112863760Y-108262513D01*
X112830953Y-108288808D01*
X112810895Y-108339095D01*
X112801178Y-108418664D01*
X112799231Y-108502182D01*
X112603894Y-108502182D01*
X112604574Y-108408249D01*
X112607629Y-108337906D01*
X112614322Y-108289163D01*
X112625960Y-108253288D01*
X112643853Y-108221548D01*
X112647808Y-108215648D01*
X112714267Y-108136104D01*
X112786685Y-108089929D01*
X112874849Y-108071599D01*
X112904787Y-108070703D01*
X113016886Y-108087256D01*
G36*
X114534254Y-108099745D02*
X114611286Y-108151567D01*
X114670816Y-108226412D01*
X114706378Y-108321654D01*
X114713571Y-108391756D01*
X114712754Y-108421009D01*
X114705914Y-108443407D01*
X114687112Y-108463474D01*
X114650408Y-108485733D01*
X114589862Y-108514709D01*
X114499534Y-108554927D01*
X114499077Y-108555129D01*
X114415933Y-108593210D01*
X114347753Y-108627025D01*
X114301505Y-108652933D01*
X114284158Y-108667295D01*
X114284154Y-108667411D01*
X114299443Y-108698685D01*
X114335196Y-108733157D01*
X114376242Y-108757990D01*
X114397037Y-108762923D01*
X114453770Y-108745862D01*
X114502627Y-108703133D01*
X114526465Y-108656155D01*
X114549397Y-108621522D01*
X114594318Y-108582081D01*
X114647123Y-108548009D01*
X114693710Y-108529480D01*
X114703452Y-108528462D01*
X114714418Y-108545215D01*
X114715079Y-108588039D01*
X114707020Y-108645781D01*
X114691827Y-108707289D01*
X114671086Y-108761409D01*
X114670038Y-108763510D01*
X114607621Y-108850660D01*
X114526726Y-108909939D01*
X114434856Y-108939034D01*
X114339513Y-108935634D01*
X114248198Y-108897428D01*
X114244138Y-108894741D01*
X114172306Y-108829642D01*
X114125073Y-108744705D01*
X114098934Y-108633021D01*
X114095426Y-108601643D01*
X114089213Y-108453536D01*
X114096661Y-108384468D01*
X114284154Y-108384468D01*
X114286590Y-108427552D01*
X114299914Y-108440126D01*
X114333132Y-108430719D01*
X114385494Y-108408483D01*
X114444024Y-108380610D01*
X114445479Y-108379872D01*
X114495089Y-108353777D01*
X114515000Y-108336363D01*
X114510090Y-108318107D01*
X114489416Y-108294120D01*
X114436819Y-108259406D01*
X114380177Y-108256856D01*
X114329369Y-108282119D01*
X114294276Y-108330847D01*
X114284154Y-108384468D01*
X114096661Y-108384468D01*
X114101992Y-108335036D01*
X114134778Y-108241055D01*
X114180421Y-108175215D01*
X114262802Y-108108681D01*
X114353546Y-108075676D01*
X114446185Y-108073573D01*
X114534254Y-108099745D01*
X114534254Y-108099745D01*
G37*
X114534254Y-108099745D02*
X114611286Y-108151567D01*
X114670816Y-108226412D01*
X114706378Y-108321654D01*
X114713571Y-108391756D01*
X114712754Y-108421009D01*
X114705914Y-108443407D01*
X114687112Y-108463474D01*
X114650408Y-108485733D01*
X114589862Y-108514709D01*
X114499534Y-108554927D01*
X114499077Y-108555129D01*
X114415933Y-108593210D01*
X114347753Y-108627025D01*
X114301505Y-108652933D01*
X114284158Y-108667295D01*
X114284154Y-108667411D01*
X114299443Y-108698685D01*
X114335196Y-108733157D01*
X114376242Y-108757990D01*
X114397037Y-108762923D01*
X114453770Y-108745862D01*
X114502627Y-108703133D01*
X114526465Y-108656155D01*
X114549397Y-108621522D01*
X114594318Y-108582081D01*
X114647123Y-108548009D01*
X114693710Y-108529480D01*
X114703452Y-108528462D01*
X114714418Y-108545215D01*
X114715079Y-108588039D01*
X114707020Y-108645781D01*
X114691827Y-108707289D01*
X114671086Y-108761409D01*
X114670038Y-108763510D01*
X114607621Y-108850660D01*
X114526726Y-108909939D01*
X114434856Y-108939034D01*
X114339513Y-108935634D01*
X114248198Y-108897428D01*
X114244138Y-108894741D01*
X114172306Y-108829642D01*
X114125073Y-108744705D01*
X114098934Y-108633021D01*
X114095426Y-108601643D01*
X114089213Y-108453536D01*
X114096661Y-108384468D01*
X114284154Y-108384468D01*
X114286590Y-108427552D01*
X114299914Y-108440126D01*
X114333132Y-108430719D01*
X114385494Y-108408483D01*
X114444024Y-108380610D01*
X114445479Y-108379872D01*
X114495089Y-108353777D01*
X114515000Y-108336363D01*
X114510090Y-108318107D01*
X114489416Y-108294120D01*
X114436819Y-108259406D01*
X114380177Y-108256856D01*
X114329369Y-108282119D01*
X114294276Y-108330847D01*
X114284154Y-108384468D01*
X114096661Y-108384468D01*
X114101992Y-108335036D01*
X114134778Y-108241055D01*
X114180421Y-108175215D01*
X114262802Y-108108681D01*
X114353546Y-108075676D01*
X114446185Y-108073573D01*
X114534254Y-108099745D01*
G36*
X116159846Y-107992120D02*
X116165572Y-108071980D01*
X116172149Y-108119039D01*
X116181262Y-108139566D01*
X116194598Y-108139829D01*
X116198923Y-108137378D01*
X116256444Y-108119636D01*
X116331268Y-108120672D01*
X116407339Y-108138910D01*
X116454918Y-108162505D01*
X116503702Y-108200198D01*
X116539364Y-108242855D01*
X116563845Y-108297057D01*
X116579087Y-108369384D01*
X116587030Y-108466419D01*
X116589616Y-108594742D01*
X116589662Y-108619358D01*
X116589692Y-108895870D01*
X116528161Y-108917320D01*
X116484459Y-108931912D01*
X116460482Y-108938706D01*
X116459777Y-108938769D01*
X116457415Y-108920345D01*
X116455406Y-108869526D01*
X116453901Y-108792993D01*
X116453053Y-108697430D01*
X116452923Y-108639329D01*
X116452651Y-108524771D01*
X116451252Y-108442667D01*
X116447849Y-108386393D01*
X116441567Y-108349326D01*
X116431529Y-108324844D01*
X116416861Y-108306325D01*
X116407702Y-108297406D01*
X116344789Y-108261466D01*
X116276136Y-108258775D01*
X116213848Y-108289170D01*
X116202329Y-108300144D01*
X116185433Y-108320779D01*
X116173714Y-108345256D01*
X116166233Y-108380647D01*
X116162054Y-108434026D01*
X116160237Y-108512466D01*
X116159846Y-108620617D01*
X116159846Y-108895870D01*
X116098315Y-108917320D01*
X116054613Y-108931912D01*
X116030636Y-108938706D01*
X116029930Y-108938769D01*
X116028126Y-108920069D01*
X116026500Y-108867322D01*
X116025117Y-108785557D01*
X116024042Y-108679805D01*
X116023340Y-108555094D01*
X116023077Y-108416455D01*
X116023077Y-107881806D01*
X116150077Y-107828236D01*
X116159846Y-107992120D01*
X116159846Y-107992120D01*
G37*
X116159846Y-107992120D02*
X116165572Y-108071980D01*
X116172149Y-108119039D01*
X116181262Y-108139566D01*
X116194598Y-108139829D01*
X116198923Y-108137378D01*
X116256444Y-108119636D01*
X116331268Y-108120672D01*
X116407339Y-108138910D01*
X116454918Y-108162505D01*
X116503702Y-108200198D01*
X116539364Y-108242855D01*
X116563845Y-108297057D01*
X116579087Y-108369384D01*
X116587030Y-108466419D01*
X116589616Y-108594742D01*
X116589662Y-108619358D01*
X116589692Y-108895870D01*
X116528161Y-108917320D01*
X116484459Y-108931912D01*
X116460482Y-108938706D01*
X116459777Y-108938769D01*
X116457415Y-108920345D01*
X116455406Y-108869526D01*
X116453901Y-108792993D01*
X116453053Y-108697430D01*
X116452923Y-108639329D01*
X116452651Y-108524771D01*
X116451252Y-108442667D01*
X116447849Y-108386393D01*
X116441567Y-108349326D01*
X116431529Y-108324844D01*
X116416861Y-108306325D01*
X116407702Y-108297406D01*
X116344789Y-108261466D01*
X116276136Y-108258775D01*
X116213848Y-108289170D01*
X116202329Y-108300144D01*
X116185433Y-108320779D01*
X116173714Y-108345256D01*
X116166233Y-108380647D01*
X116162054Y-108434026D01*
X116160237Y-108512466D01*
X116159846Y-108620617D01*
X116159846Y-108895870D01*
X116098315Y-108917320D01*
X116054613Y-108931912D01*
X116030636Y-108938706D01*
X116029930Y-108938769D01*
X116028126Y-108920069D01*
X116026500Y-108867322D01*
X116025117Y-108785557D01*
X116024042Y-108679805D01*
X116023340Y-108555094D01*
X116023077Y-108416455D01*
X116023077Y-107881806D01*
X116150077Y-107828236D01*
X116159846Y-107992120D01*
G36*
X117053501Y-108126303D02*
X117130060Y-108154733D01*
X117130936Y-108155279D01*
X117178285Y-108190127D01*
X117213241Y-108230852D01*
X117237825Y-108283925D01*
X117254062Y-108355814D01*
X117263975Y-108452992D01*
X117269586Y-108581928D01*
X117270077Y-108600298D01*
X117277141Y-108877287D01*
X117217695Y-108908028D01*
X117174681Y-108928802D01*
X117148710Y-108938646D01*
X117147509Y-108938769D01*
X117143014Y-108920606D01*
X117139444Y-108871612D01*
X117137248Y-108800031D01*
X117136769Y-108742068D01*
X117136758Y-108648170D01*
X117132466Y-108589203D01*
X117117503Y-108561079D01*
X117085482Y-108559706D01*
X117030014Y-108580998D01*
X116946269Y-108620136D01*
X116884689Y-108652643D01*
X116853017Y-108680845D01*
X116843706Y-108711582D01*
X116843692Y-108713104D01*
X116859057Y-108766054D01*
X116904547Y-108794660D01*
X116974166Y-108798803D01*
X117024313Y-108798084D01*
X117050754Y-108812527D01*
X117067243Y-108847218D01*
X117076733Y-108891416D01*
X117063057Y-108916493D01*
X117057907Y-108920082D01*
X117009425Y-108934496D01*
X116941531Y-108936537D01*
X116871612Y-108926983D01*
X116822068Y-108909522D01*
X116753570Y-108851364D01*
X116714634Y-108770408D01*
X116706923Y-108707160D01*
X116712807Y-108650111D01*
X116734101Y-108603542D01*
X116776265Y-108562181D01*
X116844759Y-108520755D01*
X116945044Y-108473993D01*
X116951154Y-108471350D01*
X117041490Y-108429617D01*
X117097235Y-108395391D01*
X117121129Y-108364635D01*
X117115913Y-108333311D01*
X117084328Y-108297383D01*
X117074883Y-108289116D01*
X117011617Y-108257058D01*
X116946064Y-108258407D01*
X116888972Y-108289838D01*
X116851093Y-108348024D01*
X116847574Y-108359446D01*
X116813300Y-108414837D01*
X116769809Y-108441518D01*
X116706923Y-108467960D01*
X116706923Y-108399548D01*
X116726052Y-108300110D01*
X116782831Y-108208902D01*
X116812378Y-108178389D01*
X116879542Y-108139228D01*
X116964956Y-108121500D01*
X117053501Y-108126303D01*
X117053501Y-108126303D01*
G37*
X117053501Y-108126303D02*
X117130060Y-108154733D01*
X117130936Y-108155279D01*
X117178285Y-108190127D01*
X117213241Y-108230852D01*
X117237825Y-108283925D01*
X117254062Y-108355814D01*
X117263975Y-108452992D01*
X117269586Y-108581928D01*
X117270077Y-108600298D01*
X117277141Y-108877287D01*
X117217695Y-108908028D01*
X117174681Y-108928802D01*
X117148710Y-108938646D01*
X117147509Y-108938769D01*
X117143014Y-108920606D01*
X117139444Y-108871612D01*
X117137248Y-108800031D01*
X117136769Y-108742068D01*
X117136758Y-108648170D01*
X117132466Y-108589203D01*
X117117503Y-108561079D01*
X117085482Y-108559706D01*
X117030014Y-108580998D01*
X116946269Y-108620136D01*
X116884689Y-108652643D01*
X116853017Y-108680845D01*
X116843706Y-108711582D01*
X116843692Y-108713104D01*
X116859057Y-108766054D01*
X116904547Y-108794660D01*
X116974166Y-108798803D01*
X117024313Y-108798084D01*
X117050754Y-108812527D01*
X117067243Y-108847218D01*
X117076733Y-108891416D01*
X117063057Y-108916493D01*
X117057907Y-108920082D01*
X117009425Y-108934496D01*
X116941531Y-108936537D01*
X116871612Y-108926983D01*
X116822068Y-108909522D01*
X116753570Y-108851364D01*
X116714634Y-108770408D01*
X116706923Y-108707160D01*
X116712807Y-108650111D01*
X116734101Y-108603542D01*
X116776265Y-108562181D01*
X116844759Y-108520755D01*
X116945044Y-108473993D01*
X116951154Y-108471350D01*
X117041490Y-108429617D01*
X117097235Y-108395391D01*
X117121129Y-108364635D01*
X117115913Y-108333311D01*
X117084328Y-108297383D01*
X117074883Y-108289116D01*
X117011617Y-108257058D01*
X116946064Y-108258407D01*
X116888972Y-108289838D01*
X116851093Y-108348024D01*
X116847574Y-108359446D01*
X116813300Y-108414837D01*
X116769809Y-108441518D01*
X116706923Y-108467960D01*
X116706923Y-108399548D01*
X116726052Y-108300110D01*
X116782831Y-108208902D01*
X116812378Y-108178389D01*
X116879542Y-108139228D01*
X116964956Y-108121500D01*
X117053501Y-108126303D01*
G36*
X117713362Y-108124670D02*
X117802117Y-108157421D01*
X117874022Y-108215350D01*
X117902144Y-108256128D01*
X117932802Y-108330954D01*
X117932165Y-108385058D01*
X117899987Y-108421446D01*
X117888081Y-108427633D01*
X117836675Y-108446925D01*
X117810422Y-108441982D01*
X117801530Y-108409587D01*
X117801077Y-108391692D01*
X117784797Y-108325859D01*
X117742365Y-108279807D01*
X117683388Y-108257564D01*
X117617475Y-108263161D01*
X117563895Y-108292229D01*
X117545798Y-108308810D01*
X117532971Y-108328925D01*
X117524306Y-108359332D01*
X117518696Y-108406788D01*
X117515035Y-108478050D01*
X117512215Y-108579875D01*
X117511484Y-108612115D01*
X117508820Y-108722410D01*
X117505792Y-108800036D01*
X117501250Y-108851396D01*
X117494046Y-108882890D01*
X117483033Y-108900920D01*
X117467060Y-108911888D01*
X117456834Y-108916733D01*
X117413406Y-108933301D01*
X117387842Y-108938769D01*
X117379395Y-108920507D01*
X117374239Y-108865296D01*
X117372346Y-108772499D01*
X117373689Y-108641478D01*
X117374107Y-108621269D01*
X117377058Y-108501733D01*
X117380548Y-108414449D01*
X117385514Y-108352591D01*
X117392893Y-108309336D01*
X117403624Y-108277860D01*
X117418645Y-108251339D01*
X117426502Y-108239975D01*
X117471553Y-108189692D01*
X117521940Y-108150581D01*
X117528108Y-108147167D01*
X117618458Y-108120212D01*
X117713362Y-108124670D01*
X117713362Y-108124670D01*
G37*
X117713362Y-108124670D02*
X117802117Y-108157421D01*
X117874022Y-108215350D01*
X117902144Y-108256128D01*
X117932802Y-108330954D01*
X117932165Y-108385058D01*
X117899987Y-108421446D01*
X117888081Y-108427633D01*
X117836675Y-108446925D01*
X117810422Y-108441982D01*
X117801530Y-108409587D01*
X117801077Y-108391692D01*
X117784797Y-108325859D01*
X117742365Y-108279807D01*
X117683388Y-108257564D01*
X117617475Y-108263161D01*
X117563895Y-108292229D01*
X117545798Y-108308810D01*
X117532971Y-108328925D01*
X117524306Y-108359332D01*
X117518696Y-108406788D01*
X117515035Y-108478050D01*
X117512215Y-108579875D01*
X117511484Y-108612115D01*
X117508820Y-108722410D01*
X117505792Y-108800036D01*
X117501250Y-108851396D01*
X117494046Y-108882890D01*
X117483033Y-108900920D01*
X117467060Y-108911888D01*
X117456834Y-108916733D01*
X117413406Y-108933301D01*
X117387842Y-108938769D01*
X117379395Y-108920507D01*
X117374239Y-108865296D01*
X117372346Y-108772499D01*
X117373689Y-108641478D01*
X117374107Y-108621269D01*
X117377058Y-108501733D01*
X117380548Y-108414449D01*
X117385514Y-108352591D01*
X117392893Y-108309336D01*
X117403624Y-108277860D01*
X117418645Y-108251339D01*
X117426502Y-108239975D01*
X117471553Y-108189692D01*
X117521940Y-108150581D01*
X117528108Y-108147167D01*
X117618458Y-108120212D01*
X117713362Y-108124670D01*
G36*
X118602081Y-108280289D02*
X118601833Y-108426320D01*
X118600872Y-108538655D01*
X118598794Y-108622678D01*
X118595193Y-108683769D01*
X118589665Y-108727309D01*
X118581804Y-108758679D01*
X118571207Y-108783262D01*
X118563182Y-108797294D01*
X118496728Y-108873388D01*
X118412470Y-108921084D01*
X118319249Y-108938199D01*
X118225900Y-108922546D01*
X118170312Y-108894418D01*
X118111957Y-108845760D01*
X118072186Y-108786333D01*
X118048190Y-108708507D01*
X118037161Y-108604652D01*
X118035599Y-108528462D01*
X118035809Y-108522986D01*
X118172308Y-108522986D01*
X118173141Y-108610355D01*
X118176961Y-108668192D01*
X118185746Y-108706029D01*
X118201474Y-108733398D01*
X118220266Y-108754042D01*
X118283375Y-108793890D01*
X118351137Y-108797295D01*
X118415179Y-108764025D01*
X118420164Y-108759517D01*
X118441439Y-108736067D01*
X118454779Y-108708166D01*
X118462001Y-108666641D01*
X118464923Y-108602316D01*
X118465385Y-108531200D01*
X118464383Y-108441858D01*
X118460238Y-108382258D01*
X118451236Y-108343089D01*
X118435667Y-108315040D01*
X118422902Y-108300144D01*
X118363600Y-108262575D01*
X118295301Y-108258057D01*
X118230110Y-108286753D01*
X118217528Y-108297406D01*
X118196111Y-108321063D01*
X118182744Y-108349251D01*
X118175566Y-108391245D01*
X118172719Y-108456319D01*
X118172308Y-108522986D01*
X118035809Y-108522986D01*
X118040322Y-108405765D01*
X118056362Y-108313577D01*
X118086528Y-108244269D01*
X118133629Y-108190211D01*
X118170312Y-108162505D01*
X118236990Y-108132572D01*
X118314272Y-108118678D01*
X118386110Y-108122397D01*
X118426308Y-108137400D01*
X118442082Y-108141670D01*
X118452550Y-108125750D01*
X118459856Y-108083089D01*
X118465385Y-108018106D01*
X118471437Y-107945732D01*
X118479844Y-107902187D01*
X118495141Y-107877287D01*
X118521864Y-107860845D01*
X118538654Y-107853564D01*
X118602154Y-107826963D01*
X118602081Y-108280289D01*
X118602081Y-108280289D01*
G37*
X118602081Y-108280289D02*
X118601833Y-108426320D01*
X118600872Y-108538655D01*
X118598794Y-108622678D01*
X118595193Y-108683769D01*
X118589665Y-108727309D01*
X118581804Y-108758679D01*
X118571207Y-108783262D01*
X118563182Y-108797294D01*
X118496728Y-108873388D01*
X118412470Y-108921084D01*
X118319249Y-108938199D01*
X118225900Y-108922546D01*
X118170312Y-108894418D01*
X118111957Y-108845760D01*
X118072186Y-108786333D01*
X118048190Y-108708507D01*
X118037161Y-108604652D01*
X118035599Y-108528462D01*
X118035809Y-108522986D01*
X118172308Y-108522986D01*
X118173141Y-108610355D01*
X118176961Y-108668192D01*
X118185746Y-108706029D01*
X118201474Y-108733398D01*
X118220266Y-108754042D01*
X118283375Y-108793890D01*
X118351137Y-108797295D01*
X118415179Y-108764025D01*
X118420164Y-108759517D01*
X118441439Y-108736067D01*
X118454779Y-108708166D01*
X118462001Y-108666641D01*
X118464923Y-108602316D01*
X118465385Y-108531200D01*
X118464383Y-108441858D01*
X118460238Y-108382258D01*
X118451236Y-108343089D01*
X118435667Y-108315040D01*
X118422902Y-108300144D01*
X118363600Y-108262575D01*
X118295301Y-108258057D01*
X118230110Y-108286753D01*
X118217528Y-108297406D01*
X118196111Y-108321063D01*
X118182744Y-108349251D01*
X118175566Y-108391245D01*
X118172719Y-108456319D01*
X118172308Y-108522986D01*
X118035809Y-108522986D01*
X118040322Y-108405765D01*
X118056362Y-108313577D01*
X118086528Y-108244269D01*
X118133629Y-108190211D01*
X118170312Y-108162505D01*
X118236990Y-108132572D01*
X118314272Y-108118678D01*
X118386110Y-108122397D01*
X118426308Y-108137400D01*
X118442082Y-108141670D01*
X118452550Y-108125750D01*
X118459856Y-108083089D01*
X118465385Y-108018106D01*
X118471437Y-107945732D01*
X118479844Y-107902187D01*
X118495141Y-107877287D01*
X118521864Y-107860845D01*
X118538654Y-107853564D01*
X118602154Y-107826963D01*
X118602081Y-108280289D01*
G36*
X119395929Y-108136662D02*
X119398911Y-108188068D01*
X119401247Y-108266192D01*
X119402749Y-108364857D01*
X119403231Y-108468343D01*
X119403231Y-108818533D01*
X119341401Y-108880363D01*
X119298793Y-108918462D01*
X119261390Y-108933895D01*
X119210270Y-108932918D01*
X119189978Y-108930433D01*
X119126554Y-108923200D01*
X119074095Y-108919055D01*
X119061308Y-108918672D01*
X119018199Y-108921176D01*
X118956544Y-108927462D01*
X118932638Y-108930433D01*
X118873922Y-108935028D01*
X118834464Y-108925046D01*
X118795338Y-108894228D01*
X118781215Y-108880363D01*
X118719385Y-108818533D01*
X118719385Y-108163503D01*
X118769150Y-108140829D01*
X118812002Y-108124034D01*
X118837073Y-108118154D01*
X118843501Y-108136736D01*
X118849509Y-108188655D01*
X118854697Y-108268172D01*
X118858664Y-108369546D01*
X118860577Y-108455192D01*
X118865923Y-108792231D01*
X118912560Y-108798825D01*
X118954976Y-108794214D01*
X118975760Y-108779287D01*
X118981570Y-108751377D01*
X118986530Y-108691925D01*
X118990246Y-108608466D01*
X118992324Y-108508532D01*
X118992624Y-108457104D01*
X118992923Y-108161054D01*
X119054454Y-108139604D01*
X119098004Y-108125020D01*
X119121694Y-108118219D01*
X119122377Y-108118154D01*
X119124754Y-108136642D01*
X119127366Y-108187906D01*
X119129995Y-108265649D01*
X119132421Y-108363574D01*
X119134115Y-108455192D01*
X119139461Y-108792231D01*
X119256692Y-108792231D01*
X119262072Y-108484746D01*
X119267451Y-108177261D01*
X119324601Y-108147707D01*
X119366797Y-108127413D01*
X119391770Y-108118204D01*
X119392491Y-108118154D01*
X119395929Y-108136662D01*
X119395929Y-108136662D01*
G37*
X119395929Y-108136662D02*
X119398911Y-108188068D01*
X119401247Y-108266192D01*
X119402749Y-108364857D01*
X119403231Y-108468343D01*
X119403231Y-108818533D01*
X119341401Y-108880363D01*
X119298793Y-108918462D01*
X119261390Y-108933895D01*
X119210270Y-108932918D01*
X119189978Y-108930433D01*
X119126554Y-108923200D01*
X119074095Y-108919055D01*
X119061308Y-108918672D01*
X119018199Y-108921176D01*
X118956544Y-108927462D01*
X118932638Y-108930433D01*
X118873922Y-108935028D01*
X118834464Y-108925046D01*
X118795338Y-108894228D01*
X118781215Y-108880363D01*
X118719385Y-108818533D01*
X118719385Y-108163503D01*
X118769150Y-108140829D01*
X118812002Y-108124034D01*
X118837073Y-108118154D01*
X118843501Y-108136736D01*
X118849509Y-108188655D01*
X118854697Y-108268172D01*
X118858664Y-108369546D01*
X118860577Y-108455192D01*
X118865923Y-108792231D01*
X118912560Y-108798825D01*
X118954976Y-108794214D01*
X118975760Y-108779287D01*
X118981570Y-108751377D01*
X118986530Y-108691925D01*
X118990246Y-108608466D01*
X118992324Y-108508532D01*
X118992624Y-108457104D01*
X118992923Y-108161054D01*
X119054454Y-108139604D01*
X119098004Y-108125020D01*
X119121694Y-108118219D01*
X119122377Y-108118154D01*
X119124754Y-108136642D01*
X119127366Y-108187906D01*
X119129995Y-108265649D01*
X119132421Y-108363574D01*
X119134115Y-108455192D01*
X119139461Y-108792231D01*
X119256692Y-108792231D01*
X119262072Y-108484746D01*
X119267451Y-108177261D01*
X119324601Y-108147707D01*
X119366797Y-108127413D01*
X119391770Y-108118204D01*
X119392491Y-108118154D01*
X119395929Y-108136662D01*
G36*
X119887333Y-108133528D02*
X119943590Y-108159117D01*
X119987747Y-108190124D01*
X120020101Y-108224795D01*
X120042438Y-108269520D01*
X120056546Y-108330692D01*
X120064211Y-108414701D01*
X120067220Y-108527940D01*
X120067538Y-108602509D01*
X120067538Y-108893420D01*
X120017773Y-108916095D01*
X119978576Y-108932667D01*
X119959157Y-108938769D01*
X119955442Y-108920610D01*
X119952495Y-108871648D01*
X119950691Y-108800153D01*
X119950308Y-108743385D01*
X119948661Y-108661371D01*
X119944222Y-108596309D01*
X119937740Y-108556467D01*
X119932590Y-108548000D01*
X119897977Y-108556646D01*
X119843640Y-108578823D01*
X119780722Y-108608886D01*
X119720368Y-108641192D01*
X119673721Y-108670098D01*
X119651926Y-108689961D01*
X119651839Y-108690175D01*
X119653714Y-108726935D01*
X119670525Y-108762026D01*
X119700039Y-108790528D01*
X119743116Y-108800061D01*
X119779932Y-108798950D01*
X119832074Y-108798133D01*
X119859444Y-108810349D01*
X119875882Y-108842624D01*
X119877955Y-108848710D01*
X119885081Y-108894739D01*
X119866024Y-108922687D01*
X119816353Y-108936007D01*
X119762697Y-108938470D01*
X119666142Y-108920210D01*
X119616159Y-108894131D01*
X119554429Y-108832868D01*
X119521690Y-108757670D01*
X119518753Y-108678211D01*
X119546424Y-108604167D01*
X119588047Y-108557769D01*
X119629604Y-108531793D01*
X119694922Y-108498907D01*
X119771038Y-108465557D01*
X119783726Y-108460461D01*
X119867333Y-108423565D01*
X119915530Y-108391046D01*
X119931030Y-108358718D01*
X119916550Y-108322394D01*
X119891692Y-108294000D01*
X119832939Y-108259039D01*
X119768293Y-108256417D01*
X119709008Y-108283358D01*
X119666339Y-108337088D01*
X119660739Y-108350950D01*
X119628133Y-108401936D01*
X119580530Y-108439787D01*
X119520461Y-108470850D01*
X119520461Y-108382768D01*
X119523997Y-108328951D01*
X119539156Y-108286534D01*
X119572768Y-108241279D01*
X119605035Y-108206420D01*
X119655209Y-108157062D01*
X119694193Y-108130547D01*
X119736064Y-108119911D01*
X119783460Y-108118154D01*
X119887333Y-108133528D01*
X119887333Y-108133528D01*
G37*
X119887333Y-108133528D02*
X119943590Y-108159117D01*
X119987747Y-108190124D01*
X120020101Y-108224795D01*
X120042438Y-108269520D01*
X120056546Y-108330692D01*
X120064211Y-108414701D01*
X120067220Y-108527940D01*
X120067538Y-108602509D01*
X120067538Y-108893420D01*
X120017773Y-108916095D01*
X119978576Y-108932667D01*
X119959157Y-108938769D01*
X119955442Y-108920610D01*
X119952495Y-108871648D01*
X119950691Y-108800153D01*
X119950308Y-108743385D01*
X119948661Y-108661371D01*
X119944222Y-108596309D01*
X119937740Y-108556467D01*
X119932590Y-108548000D01*
X119897977Y-108556646D01*
X119843640Y-108578823D01*
X119780722Y-108608886D01*
X119720368Y-108641192D01*
X119673721Y-108670098D01*
X119651926Y-108689961D01*
X119651839Y-108690175D01*
X119653714Y-108726935D01*
X119670525Y-108762026D01*
X119700039Y-108790528D01*
X119743116Y-108800061D01*
X119779932Y-108798950D01*
X119832074Y-108798133D01*
X119859444Y-108810349D01*
X119875882Y-108842624D01*
X119877955Y-108848710D01*
X119885081Y-108894739D01*
X119866024Y-108922687D01*
X119816353Y-108936007D01*
X119762697Y-108938470D01*
X119666142Y-108920210D01*
X119616159Y-108894131D01*
X119554429Y-108832868D01*
X119521690Y-108757670D01*
X119518753Y-108678211D01*
X119546424Y-108604167D01*
X119588047Y-108557769D01*
X119629604Y-108531793D01*
X119694922Y-108498907D01*
X119771038Y-108465557D01*
X119783726Y-108460461D01*
X119867333Y-108423565D01*
X119915530Y-108391046D01*
X119931030Y-108358718D01*
X119916550Y-108322394D01*
X119891692Y-108294000D01*
X119832939Y-108259039D01*
X119768293Y-108256417D01*
X119709008Y-108283358D01*
X119666339Y-108337088D01*
X119660739Y-108350950D01*
X119628133Y-108401936D01*
X119580530Y-108439787D01*
X119520461Y-108470850D01*
X119520461Y-108382768D01*
X119523997Y-108328951D01*
X119539156Y-108286534D01*
X119572768Y-108241279D01*
X119605035Y-108206420D01*
X119655209Y-108157062D01*
X119694193Y-108130547D01*
X119736064Y-108119911D01*
X119783460Y-108118154D01*
X119887333Y-108133528D01*
G36*
X120570807Y-108136782D02*
X120594161Y-108146988D01*
X120649902Y-108191134D01*
X120697569Y-108254967D01*
X120727048Y-108323087D01*
X120731846Y-108356670D01*
X120715760Y-108403556D01*
X120680475Y-108428365D01*
X120642644Y-108443387D01*
X120625321Y-108446155D01*
X120616886Y-108426066D01*
X120600230Y-108382351D01*
X120592923Y-108362598D01*
X120551948Y-108294271D01*
X120492622Y-108260191D01*
X120416552Y-108261239D01*
X120410918Y-108262581D01*
X120370305Y-108281836D01*
X120340448Y-108319375D01*
X120320055Y-108379809D01*
X120307836Y-108467751D01*
X120302500Y-108587813D01*
X120302000Y-108651698D01*
X120301752Y-108752403D01*
X120300126Y-108821054D01*
X120295801Y-108864673D01*
X120287454Y-108890282D01*
X120273765Y-108904903D01*
X120253411Y-108915558D01*
X120252234Y-108916095D01*
X120213038Y-108932667D01*
X120193619Y-108938769D01*
X120190635Y-108920319D01*
X120188081Y-108869323D01*
X120186140Y-108792308D01*
X120184997Y-108695805D01*
X120184769Y-108625184D01*
X120185932Y-108488525D01*
X120190479Y-108384851D01*
X120199999Y-108308108D01*
X120216081Y-108252246D01*
X120240313Y-108211212D01*
X120274286Y-108178954D01*
X120307833Y-108156440D01*
X120388499Y-108126476D01*
X120482381Y-108119718D01*
X120570807Y-108136782D01*
X120570807Y-108136782D01*
G37*
X120570807Y-108136782D02*
X120594161Y-108146988D01*
X120649902Y-108191134D01*
X120697569Y-108254967D01*
X120727048Y-108323087D01*
X120731846Y-108356670D01*
X120715760Y-108403556D01*
X120680475Y-108428365D01*
X120642644Y-108443387D01*
X120625321Y-108446155D01*
X120616886Y-108426066D01*
X120600230Y-108382351D01*
X120592923Y-108362598D01*
X120551948Y-108294271D01*
X120492622Y-108260191D01*
X120416552Y-108261239D01*
X120410918Y-108262581D01*
X120370305Y-108281836D01*
X120340448Y-108319375D01*
X120320055Y-108379809D01*
X120307836Y-108467751D01*
X120302500Y-108587813D01*
X120302000Y-108651698D01*
X120301752Y-108752403D01*
X120300126Y-108821054D01*
X120295801Y-108864673D01*
X120287454Y-108890282D01*
X120273765Y-108904903D01*
X120253411Y-108915558D01*
X120252234Y-108916095D01*
X120213038Y-108932667D01*
X120193619Y-108938769D01*
X120190635Y-108920319D01*
X120188081Y-108869323D01*
X120186140Y-108792308D01*
X120184997Y-108695805D01*
X120184769Y-108625184D01*
X120185932Y-108488525D01*
X120190479Y-108384851D01*
X120199999Y-108308108D01*
X120216081Y-108252246D01*
X120240313Y-108211212D01*
X120274286Y-108178954D01*
X120307833Y-108156440D01*
X120388499Y-108126476D01*
X120482381Y-108119718D01*
X120570807Y-108136782D01*
G36*
X121245224Y-108147838D02*
X121322528Y-108198361D01*
X121359814Y-108243590D01*
X121389353Y-108325663D01*
X121391699Y-108390607D01*
X121386385Y-108477445D01*
X121186115Y-108565103D01*
X121088739Y-108609887D01*
X121025113Y-108645913D01*
X120992029Y-108677117D01*
X120986280Y-108707436D01*
X121004658Y-108740805D01*
X121024923Y-108762923D01*
X121083889Y-108798393D01*
X121148024Y-108800879D01*
X121206926Y-108773235D01*
X121250197Y-108718320D01*
X121257936Y-108698928D01*
X121295006Y-108638364D01*
X121337654Y-108612552D01*
X121396154Y-108590471D01*
X121396154Y-108674184D01*
X121390982Y-108731150D01*
X121370723Y-108779189D01*
X121328262Y-108834346D01*
X121321951Y-108841514D01*
X121274720Y-108890585D01*
X121234121Y-108916920D01*
X121183328Y-108929035D01*
X121141220Y-108933003D01*
X121065902Y-108933991D01*
X121012286Y-108921466D01*
X120978838Y-108902869D01*
X120926268Y-108861975D01*
X120889879Y-108817748D01*
X120866850Y-108762126D01*
X120854359Y-108687047D01*
X120849587Y-108584449D01*
X120849206Y-108532376D01*
X120850501Y-108469948D01*
X120968471Y-108469948D01*
X120969839Y-108503438D01*
X120973249Y-108508923D01*
X120995753Y-108501472D01*
X121044182Y-108481753D01*
X121108908Y-108453718D01*
X121122443Y-108447692D01*
X121204244Y-108406096D01*
X121249312Y-108369538D01*
X121259217Y-108335296D01*
X121235526Y-108300648D01*
X121215960Y-108285339D01*
X121145360Y-108254721D01*
X121079280Y-108259780D01*
X121023959Y-108297151D01*
X120985636Y-108363473D01*
X120973349Y-108416116D01*
X120968471Y-108469948D01*
X120850501Y-108469948D01*
X120851730Y-108410720D01*
X120861032Y-108320710D01*
X120879460Y-108255167D01*
X120909360Y-108206912D01*
X120953080Y-108168767D01*
X120972141Y-108156440D01*
X121058726Y-108124336D01*
X121153522Y-108122316D01*
X121245224Y-108147838D01*
X121245224Y-108147838D01*
G37*
X121245224Y-108147838D02*
X121322528Y-108198361D01*
X121359814Y-108243590D01*
X121389353Y-108325663D01*
X121391699Y-108390607D01*
X121386385Y-108477445D01*
X121186115Y-108565103D01*
X121088739Y-108609887D01*
X121025113Y-108645913D01*
X120992029Y-108677117D01*
X120986280Y-108707436D01*
X121004658Y-108740805D01*
X121024923Y-108762923D01*
X121083889Y-108798393D01*
X121148024Y-108800879D01*
X121206926Y-108773235D01*
X121250197Y-108718320D01*
X121257936Y-108698928D01*
X121295006Y-108638364D01*
X121337654Y-108612552D01*
X121396154Y-108590471D01*
X121396154Y-108674184D01*
X121390982Y-108731150D01*
X121370723Y-108779189D01*
X121328262Y-108834346D01*
X121321951Y-108841514D01*
X121274720Y-108890585D01*
X121234121Y-108916920D01*
X121183328Y-108929035D01*
X121141220Y-108933003D01*
X121065902Y-108933991D01*
X121012286Y-108921466D01*
X120978838Y-108902869D01*
X120926268Y-108861975D01*
X120889879Y-108817748D01*
X120866850Y-108762126D01*
X120854359Y-108687047D01*
X120849587Y-108584449D01*
X120849206Y-108532376D01*
X120850501Y-108469948D01*
X120968471Y-108469948D01*
X120969839Y-108503438D01*
X120973249Y-108508923D01*
X120995753Y-108501472D01*
X121044182Y-108481753D01*
X121108908Y-108453718D01*
X121122443Y-108447692D01*
X121204244Y-108406096D01*
X121249312Y-108369538D01*
X121259217Y-108335296D01*
X121235526Y-108300648D01*
X121215960Y-108285339D01*
X121145360Y-108254721D01*
X121079280Y-108259780D01*
X121023959Y-108297151D01*
X120985636Y-108363473D01*
X120973349Y-108416116D01*
X120968471Y-108469948D01*
X120850501Y-108469948D01*
X120851730Y-108410720D01*
X120861032Y-108320710D01*
X120879460Y-108255167D01*
X120909360Y-108206912D01*
X120953080Y-108168767D01*
X120972141Y-108156440D01*
X121058726Y-108124336D01*
X121153522Y-108122316D01*
X121245224Y-108147838D01*
G36*
X117139878Y-101787776D02*
X117245612Y-101788355D01*
X117322132Y-101789922D01*
X117374372Y-101792972D01*
X117407263Y-101797996D01*
X117425737Y-101805489D01*
X117434727Y-101815944D01*
X117439163Y-101829853D01*
X117439594Y-101831654D01*
X117446333Y-101864145D01*
X117458808Y-101928252D01*
X117475719Y-102017151D01*
X117495771Y-102124019D01*
X117517664Y-102242033D01*
X117518429Y-102246178D01*
X117540359Y-102361831D01*
X117560877Y-102464014D01*
X117578659Y-102546598D01*
X117592381Y-102603456D01*
X117600718Y-102628458D01*
X117601116Y-102628901D01*
X117625677Y-102641110D01*
X117676315Y-102661456D01*
X117742095Y-102685545D01*
X117742461Y-102685674D01*
X117825317Y-102716818D01*
X117923000Y-102756491D01*
X118015077Y-102796381D01*
X118019434Y-102798353D01*
X118169407Y-102866420D01*
X118501498Y-102639639D01*
X118603374Y-102570504D01*
X118695657Y-102508697D01*
X118773003Y-102457733D01*
X118830064Y-102421127D01*
X118861495Y-102402394D01*
X118864479Y-102401004D01*
X118887321Y-102407190D01*
X118929982Y-102437035D01*
X118994128Y-102491947D01*
X119081421Y-102573334D01*
X119170535Y-102659922D01*
X119256441Y-102745247D01*
X119333327Y-102823108D01*
X119396564Y-102888697D01*
X119441523Y-102937205D01*
X119463576Y-102963825D01*
X119464396Y-102965195D01*
X119466834Y-102983463D01*
X119457650Y-103013295D01*
X119434574Y-103058721D01*
X119395337Y-103123770D01*
X119337670Y-103212470D01*
X119260795Y-103326657D01*
X119192570Y-103427162D01*
X119131582Y-103517303D01*
X119081356Y-103591849D01*
X119045416Y-103645565D01*
X119027287Y-103673218D01*
X119026146Y-103675095D01*
X119028359Y-103701590D01*
X119045138Y-103753086D01*
X119073142Y-103819851D01*
X119083122Y-103841172D01*
X119126672Y-103936159D01*
X119173134Y-104043937D01*
X119210877Y-104137192D01*
X119238073Y-104206406D01*
X119259675Y-104259006D01*
X119272158Y-104286497D01*
X119273709Y-104288616D01*
X119296668Y-104292124D01*
X119350786Y-104301738D01*
X119428868Y-104316089D01*
X119523719Y-104333807D01*
X119628143Y-104353525D01*
X119734944Y-104373874D01*
X119836926Y-104393486D01*
X119926894Y-104410991D01*
X119997653Y-104425022D01*
X120042006Y-104434209D01*
X120052885Y-104436807D01*
X120064122Y-104443218D01*
X120072605Y-104457697D01*
X120078714Y-104485133D01*
X120082832Y-104530411D01*
X120085341Y-104598420D01*
X120086621Y-104694047D01*
X120087054Y-104822180D01*
X120087077Y-104874701D01*
X120087077Y-105301845D01*
X119984500Y-105322091D01*
X119927431Y-105333070D01*
X119842269Y-105349095D01*
X119739372Y-105368233D01*
X119629096Y-105388551D01*
X119598615Y-105394132D01*
X119496855Y-105413917D01*
X119408205Y-105433373D01*
X119340108Y-105450697D01*
X119300004Y-105464088D01*
X119293323Y-105468079D01*
X119276919Y-105496342D01*
X119253399Y-105551109D01*
X119227316Y-105621588D01*
X119222142Y-105636769D01*
X119187956Y-105730896D01*
X119145523Y-105837101D01*
X119103997Y-105932473D01*
X119103792Y-105932916D01*
X119034640Y-106082525D01*
X119489512Y-106751617D01*
X119197500Y-107044116D01*
X119109180Y-107131170D01*
X119028625Y-107207909D01*
X118960360Y-107270237D01*
X118908908Y-107314056D01*
X118878794Y-107335270D01*
X118874474Y-107336616D01*
X118849111Y-107326016D01*
X118797358Y-107296547D01*
X118724868Y-107251705D01*
X118637294Y-107194984D01*
X118542612Y-107131462D01*
X118446516Y-107066668D01*
X118360837Y-107010287D01*
X118291016Y-106965788D01*
X118242494Y-106936639D01*
X118220782Y-106926308D01*
X118194293Y-106935050D01*
X118144062Y-106958087D01*
X118080451Y-106990631D01*
X118073708Y-106994249D01*
X117988046Y-107037210D01*
X117929306Y-107058279D01*
X117892772Y-107058503D01*
X117873731Y-107038928D01*
X117873620Y-107038654D01*
X117864102Y-107015472D01*
X117841403Y-106960441D01*
X117807282Y-106877822D01*
X117763500Y-106771872D01*
X117711816Y-106646852D01*
X117653992Y-106507020D01*
X117597991Y-106371637D01*
X117536447Y-106222234D01*
X117479939Y-106083832D01*
X117430161Y-105960673D01*
X117388806Y-105857002D01*
X117357568Y-105777059D01*
X117338141Y-105725088D01*
X117332154Y-105705692D01*
X117347168Y-105683443D01*
X117386439Y-105647982D01*
X117438807Y-105608887D01*
X117587941Y-105485245D01*
X117704511Y-105343522D01*
X117787118Y-105186704D01*
X117834366Y-105017775D01*
X117844857Y-104839722D01*
X117837231Y-104757539D01*
X117795682Y-104587031D01*
X117724123Y-104436459D01*
X117626995Y-104307309D01*
X117508734Y-104201064D01*
X117373780Y-104119210D01*
X117226571Y-104063232D01*
X117071544Y-104034615D01*
X116913139Y-104034844D01*
X116755794Y-104065405D01*
X116603946Y-104127782D01*
X116462035Y-104223460D01*
X116402803Y-104277572D01*
X116289203Y-104416520D01*
X116210106Y-104568361D01*
X116164986Y-104728667D01*
X116153316Y-104893012D01*
X116174569Y-105056971D01*
X116228220Y-105216118D01*
X116313740Y-105366025D01*
X116430605Y-105502267D01*
X116561193Y-105608887D01*
X116615588Y-105649642D01*
X116654014Y-105684718D01*
X116667846Y-105705726D01*
X116660603Y-105728635D01*
X116640005Y-105783365D01*
X116607746Y-105865672D01*
X116565521Y-105971315D01*
X116515023Y-106096050D01*
X116457948Y-106235636D01*
X116401854Y-106371670D01*
X116339967Y-106521201D01*
X116282644Y-106659767D01*
X116231644Y-106783107D01*
X116188727Y-106886964D01*
X116155653Y-106967080D01*
X116134181Y-107019195D01*
X116126225Y-107038654D01*
X116107429Y-107058423D01*
X116071074Y-107058365D01*
X116012479Y-107037441D01*
X115926968Y-106994613D01*
X115926292Y-106994249D01*
X115861907Y-106961012D01*
X115809861Y-106936802D01*
X115780512Y-106926404D01*
X115779217Y-106926308D01*
X115757124Y-106936855D01*
X115708348Y-106966184D01*
X115638331Y-107010827D01*
X115552514Y-107067314D01*
X115457388Y-107131462D01*
X115360540Y-107196411D01*
X115273253Y-107252896D01*
X115201181Y-107297421D01*
X115149977Y-107326490D01*
X115125526Y-107336616D01*
X115103010Y-107323307D01*
X115057742Y-107286112D01*
X114994244Y-107229128D01*
X114917039Y-107156449D01*
X114830651Y-107072171D01*
X114802399Y-107044016D01*
X114510287Y-106751416D01*
X114732631Y-106425104D01*
X114800202Y-106324897D01*
X114859507Y-106234963D01*
X114907217Y-106160510D01*
X114940007Y-106106751D01*
X114954548Y-106078894D01*
X114954974Y-106076912D01*
X114947308Y-106050655D01*
X114926689Y-105997837D01*
X114896685Y-105927310D01*
X114875625Y-105880093D01*
X114836248Y-105789694D01*
X114799165Y-105698366D01*
X114770415Y-105621200D01*
X114762605Y-105597692D01*
X114740417Y-105534916D01*
X114718727Y-105486411D01*
X114706813Y-105468079D01*
X114680523Y-105456859D01*
X114623142Y-105440954D01*
X114542118Y-105422167D01*
X114444895Y-105402299D01*
X114401385Y-105394132D01*
X114290896Y-105373829D01*
X114184916Y-105354170D01*
X114093801Y-105337088D01*
X114027908Y-105324518D01*
X114015500Y-105322091D01*
X113912923Y-105301845D01*
X113912923Y-104874701D01*
X113913153Y-104734246D01*
X113914099Y-104627979D01*
X113916141Y-104551013D01*
X113919662Y-104498460D01*
X113925043Y-104465433D01*
X113932666Y-104447045D01*
X113942912Y-104438408D01*
X113947115Y-104436807D01*
X113972470Y-104431127D01*
X114028484Y-104419795D01*
X114107964Y-104404179D01*
X114203712Y-104385647D01*
X114308533Y-104365569D01*
X114415232Y-104345312D01*
X114516613Y-104326246D01*
X114605479Y-104309739D01*
X114674637Y-104297159D01*
X114716889Y-104289875D01*
X114726290Y-104288616D01*
X114734807Y-104271763D01*
X114753660Y-104226870D01*
X114779324Y-104162430D01*
X114789123Y-104137192D01*
X114828648Y-104039686D01*
X114875192Y-103931959D01*
X114916877Y-103841172D01*
X114947550Y-103771753D01*
X114967956Y-103714710D01*
X114974768Y-103679777D01*
X114973682Y-103675095D01*
X114959285Y-103652991D01*
X114926412Y-103603831D01*
X114878590Y-103532848D01*
X114819348Y-103445278D01*
X114752215Y-103346357D01*
X114738941Y-103326830D01*
X114661046Y-103211140D01*
X114603787Y-103123044D01*
X114564881Y-103058486D01*
X114542044Y-103013411D01*
X114532994Y-102983763D01*
X114535448Y-102965485D01*
X114535511Y-102965369D01*
X114554827Y-102941361D01*
X114597551Y-102894947D01*
X114659051Y-102830937D01*
X114734698Y-102754145D01*
X114819861Y-102669382D01*
X114829465Y-102659922D01*
X114936790Y-102555989D01*
X115019615Y-102479675D01*
X115079605Y-102429571D01*
X115118423Y-102404270D01*
X115135520Y-102401004D01*
X115160473Y-102415250D01*
X115212255Y-102448156D01*
X115285520Y-102496208D01*
X115374920Y-102555890D01*
X115475111Y-102623688D01*
X115498501Y-102639639D01*
X115830593Y-102866420D01*
X115980565Y-102798353D01*
X116071770Y-102758685D01*
X116169669Y-102718791D01*
X116253831Y-102686983D01*
X116257538Y-102685674D01*
X116323369Y-102661576D01*
X116374116Y-102641200D01*
X116398842Y-102628936D01*
X116398884Y-102628901D01*
X116406729Y-102606734D01*
X116420066Y-102552217D01*
X116437570Y-102471480D01*
X116457917Y-102370650D01*
X116479782Y-102255856D01*
X116481571Y-102246178D01*
X116503504Y-102127904D01*
X116523640Y-102020542D01*
X116540680Y-101930917D01*
X116553328Y-101865851D01*
X116560284Y-101832168D01*
X116560406Y-101831654D01*
X116564639Y-101817325D01*
X116572871Y-101806507D01*
X116590033Y-101798706D01*
X116621058Y-101793429D01*
X116670878Y-101790182D01*
X116744424Y-101788472D01*
X116846629Y-101787807D01*
X116982425Y-101787693D01*
X117000000Y-101787692D01*
X117139878Y-101787776D01*
X117139878Y-101787776D01*
G37*
X117139878Y-101787776D02*
X117245612Y-101788355D01*
X117322132Y-101789922D01*
X117374372Y-101792972D01*
X117407263Y-101797996D01*
X117425737Y-101805489D01*
X117434727Y-101815944D01*
X117439163Y-101829853D01*
X117439594Y-101831654D01*
X117446333Y-101864145D01*
X117458808Y-101928252D01*
X117475719Y-102017151D01*
X117495771Y-102124019D01*
X117517664Y-102242033D01*
X117518429Y-102246178D01*
X117540359Y-102361831D01*
X117560877Y-102464014D01*
X117578659Y-102546598D01*
X117592381Y-102603456D01*
X117600718Y-102628458D01*
X117601116Y-102628901D01*
X117625677Y-102641110D01*
X117676315Y-102661456D01*
X117742095Y-102685545D01*
X117742461Y-102685674D01*
X117825317Y-102716818D01*
X117923000Y-102756491D01*
X118015077Y-102796381D01*
X118019434Y-102798353D01*
X118169407Y-102866420D01*
X118501498Y-102639639D01*
X118603374Y-102570504D01*
X118695657Y-102508697D01*
X118773003Y-102457733D01*
X118830064Y-102421127D01*
X118861495Y-102402394D01*
X118864479Y-102401004D01*
X118887321Y-102407190D01*
X118929982Y-102437035D01*
X118994128Y-102491947D01*
X119081421Y-102573334D01*
X119170535Y-102659922D01*
X119256441Y-102745247D01*
X119333327Y-102823108D01*
X119396564Y-102888697D01*
X119441523Y-102937205D01*
X119463576Y-102963825D01*
X119464396Y-102965195D01*
X119466834Y-102983463D01*
X119457650Y-103013295D01*
X119434574Y-103058721D01*
X119395337Y-103123770D01*
X119337670Y-103212470D01*
X119260795Y-103326657D01*
X119192570Y-103427162D01*
X119131582Y-103517303D01*
X119081356Y-103591849D01*
X119045416Y-103645565D01*
X119027287Y-103673218D01*
X119026146Y-103675095D01*
X119028359Y-103701590D01*
X119045138Y-103753086D01*
X119073142Y-103819851D01*
X119083122Y-103841172D01*
X119126672Y-103936159D01*
X119173134Y-104043937D01*
X119210877Y-104137192D01*
X119238073Y-104206406D01*
X119259675Y-104259006D01*
X119272158Y-104286497D01*
X119273709Y-104288616D01*
X119296668Y-104292124D01*
X119350786Y-104301738D01*
X119428868Y-104316089D01*
X119523719Y-104333807D01*
X119628143Y-104353525D01*
X119734944Y-104373874D01*
X119836926Y-104393486D01*
X119926894Y-104410991D01*
X119997653Y-104425022D01*
X120042006Y-104434209D01*
X120052885Y-104436807D01*
X120064122Y-104443218D01*
X120072605Y-104457697D01*
X120078714Y-104485133D01*
X120082832Y-104530411D01*
X120085341Y-104598420D01*
X120086621Y-104694047D01*
X120087054Y-104822180D01*
X120087077Y-104874701D01*
X120087077Y-105301845D01*
X119984500Y-105322091D01*
X119927431Y-105333070D01*
X119842269Y-105349095D01*
X119739372Y-105368233D01*
X119629096Y-105388551D01*
X119598615Y-105394132D01*
X119496855Y-105413917D01*
X119408205Y-105433373D01*
X119340108Y-105450697D01*
X119300004Y-105464088D01*
X119293323Y-105468079D01*
X119276919Y-105496342D01*
X119253399Y-105551109D01*
X119227316Y-105621588D01*
X119222142Y-105636769D01*
X119187956Y-105730896D01*
X119145523Y-105837101D01*
X119103997Y-105932473D01*
X119103792Y-105932916D01*
X119034640Y-106082525D01*
X119489512Y-106751617D01*
X119197500Y-107044116D01*
X119109180Y-107131170D01*
X119028625Y-107207909D01*
X118960360Y-107270237D01*
X118908908Y-107314056D01*
X118878794Y-107335270D01*
X118874474Y-107336616D01*
X118849111Y-107326016D01*
X118797358Y-107296547D01*
X118724868Y-107251705D01*
X118637294Y-107194984D01*
X118542612Y-107131462D01*
X118446516Y-107066668D01*
X118360837Y-107010287D01*
X118291016Y-106965788D01*
X118242494Y-106936639D01*
X118220782Y-106926308D01*
X118194293Y-106935050D01*
X118144062Y-106958087D01*
X118080451Y-106990631D01*
X118073708Y-106994249D01*
X117988046Y-107037210D01*
X117929306Y-107058279D01*
X117892772Y-107058503D01*
X117873731Y-107038928D01*
X117873620Y-107038654D01*
X117864102Y-107015472D01*
X117841403Y-106960441D01*
X117807282Y-106877822D01*
X117763500Y-106771872D01*
X117711816Y-106646852D01*
X117653992Y-106507020D01*
X117597991Y-106371637D01*
X117536447Y-106222234D01*
X117479939Y-106083832D01*
X117430161Y-105960673D01*
X117388806Y-105857002D01*
X117357568Y-105777059D01*
X117338141Y-105725088D01*
X117332154Y-105705692D01*
X117347168Y-105683443D01*
X117386439Y-105647982D01*
X117438807Y-105608887D01*
X117587941Y-105485245D01*
X117704511Y-105343522D01*
X117787118Y-105186704D01*
X117834366Y-105017775D01*
X117844857Y-104839722D01*
X117837231Y-104757539D01*
X117795682Y-104587031D01*
X117724123Y-104436459D01*
X117626995Y-104307309D01*
X117508734Y-104201064D01*
X117373780Y-104119210D01*
X117226571Y-104063232D01*
X117071544Y-104034615D01*
X116913139Y-104034844D01*
X116755794Y-104065405D01*
X116603946Y-104127782D01*
X116462035Y-104223460D01*
X116402803Y-104277572D01*
X116289203Y-104416520D01*
X116210106Y-104568361D01*
X116164986Y-104728667D01*
X116153316Y-104893012D01*
X116174569Y-105056971D01*
X116228220Y-105216118D01*
X116313740Y-105366025D01*
X116430605Y-105502267D01*
X116561193Y-105608887D01*
X116615588Y-105649642D01*
X116654014Y-105684718D01*
X116667846Y-105705726D01*
X116660603Y-105728635D01*
X116640005Y-105783365D01*
X116607746Y-105865672D01*
X116565521Y-105971315D01*
X116515023Y-106096050D01*
X116457948Y-106235636D01*
X116401854Y-106371670D01*
X116339967Y-106521201D01*
X116282644Y-106659767D01*
X116231644Y-106783107D01*
X116188727Y-106886964D01*
X116155653Y-106967080D01*
X116134181Y-107019195D01*
X116126225Y-107038654D01*
X116107429Y-107058423D01*
X116071074Y-107058365D01*
X116012479Y-107037441D01*
X115926968Y-106994613D01*
X115926292Y-106994249D01*
X115861907Y-106961012D01*
X115809861Y-106936802D01*
X115780512Y-106926404D01*
X115779217Y-106926308D01*
X115757124Y-106936855D01*
X115708348Y-106966184D01*
X115638331Y-107010827D01*
X115552514Y-107067314D01*
X115457388Y-107131462D01*
X115360540Y-107196411D01*
X115273253Y-107252896D01*
X115201181Y-107297421D01*
X115149977Y-107326490D01*
X115125526Y-107336616D01*
X115103010Y-107323307D01*
X115057742Y-107286112D01*
X114994244Y-107229128D01*
X114917039Y-107156449D01*
X114830651Y-107072171D01*
X114802399Y-107044016D01*
X114510287Y-106751416D01*
X114732631Y-106425104D01*
X114800202Y-106324897D01*
X114859507Y-106234963D01*
X114907217Y-106160510D01*
X114940007Y-106106751D01*
X114954548Y-106078894D01*
X114954974Y-106076912D01*
X114947308Y-106050655D01*
X114926689Y-105997837D01*
X114896685Y-105927310D01*
X114875625Y-105880093D01*
X114836248Y-105789694D01*
X114799165Y-105698366D01*
X114770415Y-105621200D01*
X114762605Y-105597692D01*
X114740417Y-105534916D01*
X114718727Y-105486411D01*
X114706813Y-105468079D01*
X114680523Y-105456859D01*
X114623142Y-105440954D01*
X114542118Y-105422167D01*
X114444895Y-105402299D01*
X114401385Y-105394132D01*
X114290896Y-105373829D01*
X114184916Y-105354170D01*
X114093801Y-105337088D01*
X114027908Y-105324518D01*
X114015500Y-105322091D01*
X113912923Y-105301845D01*
X113912923Y-104874701D01*
X113913153Y-104734246D01*
X113914099Y-104627979D01*
X113916141Y-104551013D01*
X113919662Y-104498460D01*
X113925043Y-104465433D01*
X113932666Y-104447045D01*
X113942912Y-104438408D01*
X113947115Y-104436807D01*
X113972470Y-104431127D01*
X114028484Y-104419795D01*
X114107964Y-104404179D01*
X114203712Y-104385647D01*
X114308533Y-104365569D01*
X114415232Y-104345312D01*
X114516613Y-104326246D01*
X114605479Y-104309739D01*
X114674637Y-104297159D01*
X114716889Y-104289875D01*
X114726290Y-104288616D01*
X114734807Y-104271763D01*
X114753660Y-104226870D01*
X114779324Y-104162430D01*
X114789123Y-104137192D01*
X114828648Y-104039686D01*
X114875192Y-103931959D01*
X114916877Y-103841172D01*
X114947550Y-103771753D01*
X114967956Y-103714710D01*
X114974768Y-103679777D01*
X114973682Y-103675095D01*
X114959285Y-103652991D01*
X114926412Y-103603831D01*
X114878590Y-103532848D01*
X114819348Y-103445278D01*
X114752215Y-103346357D01*
X114738941Y-103326830D01*
X114661046Y-103211140D01*
X114603787Y-103123044D01*
X114564881Y-103058486D01*
X114542044Y-103013411D01*
X114532994Y-102983763D01*
X114535448Y-102965485D01*
X114535511Y-102965369D01*
X114554827Y-102941361D01*
X114597551Y-102894947D01*
X114659051Y-102830937D01*
X114734698Y-102754145D01*
X114819861Y-102669382D01*
X114829465Y-102659922D01*
X114936790Y-102555989D01*
X115019615Y-102479675D01*
X115079605Y-102429571D01*
X115118423Y-102404270D01*
X115135520Y-102401004D01*
X115160473Y-102415250D01*
X115212255Y-102448156D01*
X115285520Y-102496208D01*
X115374920Y-102555890D01*
X115475111Y-102623688D01*
X115498501Y-102639639D01*
X115830593Y-102866420D01*
X115980565Y-102798353D01*
X116071770Y-102758685D01*
X116169669Y-102718791D01*
X116253831Y-102686983D01*
X116257538Y-102685674D01*
X116323369Y-102661576D01*
X116374116Y-102641200D01*
X116398842Y-102628936D01*
X116398884Y-102628901D01*
X116406729Y-102606734D01*
X116420066Y-102552217D01*
X116437570Y-102471480D01*
X116457917Y-102370650D01*
X116479782Y-102255856D01*
X116481571Y-102246178D01*
X116503504Y-102127904D01*
X116523640Y-102020542D01*
X116540680Y-101930917D01*
X116553328Y-101865851D01*
X116560284Y-101832168D01*
X116560406Y-101831654D01*
X116564639Y-101817325D01*
X116572871Y-101806507D01*
X116590033Y-101798706D01*
X116621058Y-101793429D01*
X116670878Y-101790182D01*
X116744424Y-101788472D01*
X116846629Y-101787807D01*
X116982425Y-101787693D01*
X117000000Y-101787692D01*
X117139878Y-101787776D01*
D10*
X116183334Y-130116667D02*
X116183334Y-129416667D01*
X116450000Y-129416667D01*
X116516667Y-129450000D01*
X116550000Y-129483333D01*
X116583334Y-129550000D01*
X116583334Y-129650000D01*
X116550000Y-129716667D01*
X116516667Y-129750000D01*
X116450000Y-129783333D01*
X116183334Y-129783333D01*
X117250000Y-130116667D02*
X116850000Y-130116667D01*
X117050000Y-130116667D02*
X117050000Y-129416667D01*
X116983334Y-129516667D01*
X116916667Y-129583333D01*
X116850000Y-129616667D01*
X105666667Y-114716667D02*
X105666667Y-115283333D01*
X105700000Y-115350000D01*
X105733333Y-115383333D01*
X105800000Y-115416667D01*
X105933333Y-115416667D01*
X106000000Y-115383333D01*
X106033333Y-115350000D01*
X106066667Y-115283333D01*
X106066667Y-114716667D01*
X106333333Y-114716667D02*
X106766666Y-114716667D01*
X106533333Y-114983333D01*
X106633333Y-114983333D01*
X106700000Y-115016667D01*
X106733333Y-115050000D01*
X106766666Y-115116667D01*
X106766666Y-115283333D01*
X106733333Y-115350000D01*
X106700000Y-115383333D01*
X106633333Y-115416667D01*
X106433333Y-115416667D01*
X106366666Y-115383333D01*
X106333333Y-115350000D01*
X97083334Y-96216667D02*
X97083334Y-95516667D01*
X97350000Y-95516667D01*
X97416667Y-95550000D01*
X97450000Y-95583333D01*
X97483334Y-95650000D01*
X97483334Y-95750000D01*
X97450000Y-95816667D01*
X97416667Y-95850000D01*
X97350000Y-95883333D01*
X97083334Y-95883333D01*
X98083334Y-95750000D02*
X98083334Y-96216667D01*
X97916667Y-95483333D02*
X97750000Y-95983333D01*
X98183334Y-95983333D01*
X119383334Y-96216667D02*
X119383334Y-95516667D01*
X119650000Y-95516667D01*
X119716667Y-95550000D01*
X119750000Y-95583333D01*
X119783334Y-95650000D01*
X119783334Y-95750000D01*
X119750000Y-95816667D01*
X119716667Y-95850000D01*
X119650000Y-95883333D01*
X119383334Y-95883333D01*
X120383334Y-95516667D02*
X120250000Y-95516667D01*
X120183334Y-95550000D01*
X120150000Y-95583333D01*
X120083334Y-95683333D01*
X120050000Y-95816667D01*
X120050000Y-96083333D01*
X120083334Y-96150000D01*
X120116667Y-96183333D01*
X120183334Y-96216667D01*
X120316667Y-96216667D01*
X120383334Y-96183333D01*
X120416667Y-96150000D01*
X120450000Y-96083333D01*
X120450000Y-95916667D01*
X120416667Y-95850000D01*
X120383334Y-95816667D01*
X120316667Y-95783333D01*
X120183334Y-95783333D01*
X120116667Y-95816667D01*
X120083334Y-95850000D01*
X120050000Y-95916667D01*
X99483334Y-107216667D02*
X99483334Y-106516667D01*
X99750000Y-106516667D01*
X99816667Y-106550000D01*
X99850000Y-106583333D01*
X99883334Y-106650000D01*
X99883334Y-106750000D01*
X99850000Y-106816667D01*
X99816667Y-106850000D01*
X99750000Y-106883333D01*
X99483334Y-106883333D01*
X100516667Y-106516667D02*
X100183334Y-106516667D01*
X100150000Y-106850000D01*
X100183334Y-106816667D01*
X100250000Y-106783333D01*
X100416667Y-106783333D01*
X100483334Y-106816667D01*
X100516667Y-106850000D01*
X100550000Y-106916667D01*
X100550000Y-107083333D01*
X100516667Y-107150000D01*
X100483334Y-107183333D01*
X100416667Y-107216667D01*
X100250000Y-107216667D01*
X100183334Y-107183333D01*
X100150000Y-107150000D01*
X119083334Y-127116667D02*
X119083334Y-126416667D01*
X119350000Y-126416667D01*
X119416667Y-126450000D01*
X119450000Y-126483333D01*
X119483334Y-126550000D01*
X119483334Y-126650000D01*
X119450000Y-126716667D01*
X119416667Y-126750000D01*
X119350000Y-126783333D01*
X119083334Y-126783333D01*
X119750000Y-126483333D02*
X119783334Y-126450000D01*
X119850000Y-126416667D01*
X120016667Y-126416667D01*
X120083334Y-126450000D01*
X120116667Y-126483333D01*
X120150000Y-126550000D01*
X120150000Y-126616667D01*
X120116667Y-126716667D01*
X119716667Y-127116667D01*
X120150000Y-127116667D01*
X127083334Y-127116667D02*
X127083334Y-126416667D01*
X127350000Y-126416667D01*
X127416667Y-126450000D01*
X127450000Y-126483333D01*
X127483334Y-126550000D01*
X127483334Y-126650000D01*
X127450000Y-126716667D01*
X127416667Y-126750000D01*
X127350000Y-126783333D01*
X127083334Y-126783333D01*
X127716667Y-126416667D02*
X128150000Y-126416667D01*
X127916667Y-126683333D01*
X128016667Y-126683333D01*
X128083334Y-126716667D01*
X128116667Y-126750000D01*
X128150000Y-126816667D01*
X128150000Y-126983333D01*
X128116667Y-127050000D01*
X128083334Y-127083333D01*
X128016667Y-127116667D01*
X127816667Y-127116667D01*
X127750000Y-127083333D01*
X127716667Y-127050000D01*
X136866666Y-121683333D02*
X136966666Y-121716667D01*
X137133333Y-121716667D01*
X137200000Y-121683333D01*
X137233333Y-121650000D01*
X137266666Y-121583333D01*
X137266666Y-121516667D01*
X137233333Y-121450000D01*
X137200000Y-121416667D01*
X137133333Y-121383333D01*
X137000000Y-121350000D01*
X136933333Y-121316667D01*
X136900000Y-121283333D01*
X136866666Y-121216667D01*
X136866666Y-121150000D01*
X136900000Y-121083333D01*
X136933333Y-121050000D01*
X137000000Y-121016667D01*
X137166666Y-121016667D01*
X137266666Y-121050000D01*
X137500000Y-121016667D02*
X137666667Y-121716667D01*
X137800000Y-121216667D01*
X137933333Y-121716667D01*
X138100000Y-121016667D01*
X138733333Y-121716667D02*
X138333333Y-121716667D01*
X138533333Y-121716667D02*
X138533333Y-121016667D01*
X138466667Y-121116667D01*
X138400000Y-121183333D01*
X138333333Y-121216667D01*
M02*
