G04 #@! TF.FileFunction,Legend,Bot*
%FSLAX46Y46*%
G04 Gerber Fmt 4.6, Leading zero omitted, Abs format (unit mm)*
G04 Created by KiCad (PCBNEW 4.0.4-stable) date Thursday, September 28, 2017 'AMt' 07:06:15 AM*
%MOMM*%
%LPD*%
G01*
G04 APERTURE LIST*
%ADD10C,0.100000*%
%ADD11C,0.120000*%
%ADD12C,0.150000*%
G04 APERTURE END LIST*
D10*
D11*
X115307501Y-117472403D02*
X115307501Y-118402403D01*
X115307501Y-120632403D02*
X115307501Y-119702403D01*
X115307501Y-120632403D02*
X113147501Y-120632403D01*
X115307501Y-117472403D02*
X113847501Y-117472403D01*
X110975502Y-125459405D02*
X110045502Y-125459405D01*
X107815502Y-125459405D02*
X108745502Y-125459405D01*
X107815502Y-125459405D02*
X107815502Y-123299405D01*
X110975502Y-125459405D02*
X110975502Y-123999405D01*
X114280000Y-125000000D02*
X114280000Y-124000000D01*
X112920000Y-124000000D02*
X112920000Y-125000000D01*
X110166501Y-119930403D02*
X109166501Y-119930403D01*
X109166501Y-121290403D02*
X110166501Y-121290403D01*
X119346502Y-118910405D02*
X119346502Y-117910405D01*
X117986502Y-117910405D02*
X117986502Y-118910405D01*
X117200000Y-100420000D02*
X116200000Y-100420000D01*
X116200000Y-101780000D02*
X117200000Y-101780000D01*
X100500000Y-106850000D02*
X100500000Y-106150000D01*
X99300000Y-106150000D02*
X99300000Y-106850000D01*
D12*
X110825000Y-101775000D02*
X110825000Y-102000000D01*
X103575000Y-101775000D02*
X103575000Y-102100000D01*
X103575000Y-109025000D02*
X103575000Y-108700000D01*
X110825000Y-109025000D02*
X110825000Y-108700000D01*
X110825000Y-101775000D02*
X110500000Y-101775000D01*
X110825000Y-109025000D02*
X110500000Y-109025000D01*
X103575000Y-109025000D02*
X103900000Y-109025000D01*
X103575000Y-101775000D02*
X103900000Y-101775000D01*
X110825000Y-102000000D02*
X112250000Y-102000000D01*
D11*
X127010000Y-108300000D02*
X127010000Y-110100000D01*
X123790000Y-110100000D02*
X123790000Y-107650000D01*
X126200000Y-105050000D02*
X125200000Y-105050000D01*
X125200000Y-103350000D02*
X126200000Y-103350000D01*
X109749999Y-115650000D02*
X108749999Y-115650000D01*
X108749999Y-113950000D02*
X109749999Y-113950000D01*
X125000000Y-114500000D02*
X125700000Y-114500000D01*
X125700000Y-113300000D02*
X125000000Y-113300000D01*
X126149999Y-117750000D02*
X125149999Y-117750000D01*
X125149999Y-116050000D02*
X126149999Y-116050000D01*
X117400000Y-98400000D02*
X116700000Y-98400000D01*
X116700000Y-99600000D02*
X117400000Y-99600000D01*
D10*
X113566667Y-121683333D02*
X113633333Y-121650000D01*
X113700000Y-121583333D01*
X113800000Y-121483333D01*
X113866667Y-121450000D01*
X113933333Y-121450000D01*
X113900000Y-121616667D02*
X113966667Y-121583333D01*
X114033333Y-121516667D01*
X114066667Y-121383333D01*
X114066667Y-121150000D01*
X114033333Y-121016667D01*
X113966667Y-120950000D01*
X113900000Y-120916667D01*
X113766667Y-120916667D01*
X113700000Y-120950000D01*
X113633333Y-121016667D01*
X113600000Y-121150000D01*
X113600000Y-121383333D01*
X113633333Y-121516667D01*
X113700000Y-121583333D01*
X113766667Y-121616667D01*
X113900000Y-121616667D01*
X112933334Y-121616667D02*
X113333334Y-121616667D01*
X113133334Y-121616667D02*
X113133334Y-120916667D01*
X113200000Y-121016667D01*
X113266667Y-121083333D01*
X113333334Y-121116667D01*
X106966667Y-124083333D02*
X107033333Y-124050000D01*
X107100000Y-123983333D01*
X107200000Y-123883333D01*
X107266667Y-123850000D01*
X107333333Y-123850000D01*
X107300000Y-124016667D02*
X107366667Y-123983333D01*
X107433333Y-123916667D01*
X107466667Y-123783333D01*
X107466667Y-123550000D01*
X107433333Y-123416667D01*
X107366667Y-123350000D01*
X107300000Y-123316667D01*
X107166667Y-123316667D01*
X107100000Y-123350000D01*
X107033333Y-123416667D01*
X107000000Y-123550000D01*
X107000000Y-123783333D01*
X107033333Y-123916667D01*
X107100000Y-123983333D01*
X107166667Y-124016667D01*
X107300000Y-124016667D01*
X106733334Y-123383333D02*
X106700000Y-123350000D01*
X106633334Y-123316667D01*
X106466667Y-123316667D01*
X106400000Y-123350000D01*
X106366667Y-123383333D01*
X106333334Y-123450000D01*
X106333334Y-123516667D01*
X106366667Y-123616667D01*
X106766667Y-124016667D01*
X106333334Y-124016667D01*
X115116666Y-124816667D02*
X115350000Y-124483333D01*
X115516666Y-124816667D02*
X115516666Y-124116667D01*
X115250000Y-124116667D01*
X115183333Y-124150000D01*
X115150000Y-124183333D01*
X115116666Y-124250000D01*
X115116666Y-124350000D01*
X115150000Y-124416667D01*
X115183333Y-124450000D01*
X115250000Y-124483333D01*
X115516666Y-124483333D01*
X114450000Y-124816667D02*
X114850000Y-124816667D01*
X114650000Y-124816667D02*
X114650000Y-124116667D01*
X114716666Y-124216667D01*
X114783333Y-124283333D01*
X114850000Y-124316667D01*
X109716666Y-119716667D02*
X109950000Y-119383333D01*
X110116666Y-119716667D02*
X110116666Y-119016667D01*
X109850000Y-119016667D01*
X109783333Y-119050000D01*
X109750000Y-119083333D01*
X109716666Y-119150000D01*
X109716666Y-119250000D01*
X109750000Y-119316667D01*
X109783333Y-119350000D01*
X109850000Y-119383333D01*
X110116666Y-119383333D01*
X109450000Y-119083333D02*
X109416666Y-119050000D01*
X109350000Y-119016667D01*
X109183333Y-119016667D01*
X109116666Y-119050000D01*
X109083333Y-119083333D01*
X109050000Y-119150000D01*
X109050000Y-119216667D01*
X109083333Y-119316667D01*
X109483333Y-119716667D01*
X109050000Y-119716667D01*
X117316666Y-118727072D02*
X117550000Y-118393738D01*
X117716666Y-118727072D02*
X117716666Y-118027072D01*
X117450000Y-118027072D01*
X117383333Y-118060405D01*
X117350000Y-118093738D01*
X117316666Y-118160405D01*
X117316666Y-118260405D01*
X117350000Y-118327072D01*
X117383333Y-118360405D01*
X117450000Y-118393738D01*
X117716666Y-118393738D01*
X117083333Y-118027072D02*
X116650000Y-118027072D01*
X116883333Y-118293738D01*
X116783333Y-118293738D01*
X116716666Y-118327072D01*
X116683333Y-118360405D01*
X116650000Y-118427072D01*
X116650000Y-118593738D01*
X116683333Y-118660405D01*
X116716666Y-118693738D01*
X116783333Y-118727072D01*
X116983333Y-118727072D01*
X117050000Y-118693738D01*
X117083333Y-118660405D01*
X116816666Y-102716667D02*
X117050000Y-102383333D01*
X117216666Y-102716667D02*
X117216666Y-102016667D01*
X116950000Y-102016667D01*
X116883333Y-102050000D01*
X116850000Y-102083333D01*
X116816666Y-102150000D01*
X116816666Y-102250000D01*
X116850000Y-102316667D01*
X116883333Y-102350000D01*
X116950000Y-102383333D01*
X117216666Y-102383333D01*
X116216666Y-102250000D02*
X116216666Y-102716667D01*
X116383333Y-101983333D02*
X116550000Y-102483333D01*
X116116666Y-102483333D01*
X98616666Y-106750000D02*
X98650000Y-106783333D01*
X98750000Y-106816667D01*
X98816666Y-106816667D01*
X98916666Y-106783333D01*
X98983333Y-106716667D01*
X99016666Y-106650000D01*
X99050000Y-106516667D01*
X99050000Y-106416667D01*
X99016666Y-106283333D01*
X98983333Y-106216667D01*
X98916666Y-106150000D01*
X98816666Y-106116667D01*
X98750000Y-106116667D01*
X98650000Y-106150000D01*
X98616666Y-106183333D01*
X97950000Y-106816667D02*
X98350000Y-106816667D01*
X98150000Y-106816667D02*
X98150000Y-106116667D01*
X98216666Y-106216667D01*
X98283333Y-106283333D01*
X98350000Y-106316667D01*
X112233333Y-100716667D02*
X112233333Y-101283333D01*
X112200000Y-101350000D01*
X112166667Y-101383333D01*
X112100000Y-101416667D01*
X111966667Y-101416667D01*
X111900000Y-101383333D01*
X111866667Y-101350000D01*
X111833333Y-101283333D01*
X111833333Y-100716667D01*
X111133334Y-101416667D02*
X111533334Y-101416667D01*
X111333334Y-101416667D02*
X111333334Y-100716667D01*
X111400000Y-100816667D01*
X111466667Y-100883333D01*
X111533334Y-100916667D01*
X123433333Y-107616667D02*
X123433333Y-108183333D01*
X123400000Y-108250000D01*
X123366667Y-108283333D01*
X123300000Y-108316667D01*
X123166667Y-108316667D01*
X123100000Y-108283333D01*
X123066667Y-108250000D01*
X123033333Y-108183333D01*
X123033333Y-107616667D01*
X122733334Y-107683333D02*
X122700000Y-107650000D01*
X122633334Y-107616667D01*
X122466667Y-107616667D01*
X122400000Y-107650000D01*
X122366667Y-107683333D01*
X122333334Y-107750000D01*
X122333334Y-107816667D01*
X122366667Y-107916667D01*
X122766667Y-108316667D01*
X122333334Y-108316667D01*
X125816666Y-103050000D02*
X125850000Y-103083333D01*
X125950000Y-103116667D01*
X126016666Y-103116667D01*
X126116666Y-103083333D01*
X126183333Y-103016667D01*
X126216666Y-102950000D01*
X126250000Y-102816667D01*
X126250000Y-102716667D01*
X126216666Y-102583333D01*
X126183333Y-102516667D01*
X126116666Y-102450000D01*
X126016666Y-102416667D01*
X125950000Y-102416667D01*
X125850000Y-102450000D01*
X125816666Y-102483333D01*
X125550000Y-102483333D02*
X125516666Y-102450000D01*
X125450000Y-102416667D01*
X125283333Y-102416667D01*
X125216666Y-102450000D01*
X125183333Y-102483333D01*
X125150000Y-102550000D01*
X125150000Y-102616667D01*
X125183333Y-102716667D01*
X125583333Y-103116667D01*
X125150000Y-103116667D01*
X109366665Y-116550000D02*
X109399999Y-116583333D01*
X109499999Y-116616667D01*
X109566665Y-116616667D01*
X109666665Y-116583333D01*
X109733332Y-116516667D01*
X109766665Y-116450000D01*
X109799999Y-116316667D01*
X109799999Y-116216667D01*
X109766665Y-116083333D01*
X109733332Y-116016667D01*
X109666665Y-115950000D01*
X109566665Y-115916667D01*
X109499999Y-115916667D01*
X109399999Y-115950000D01*
X109366665Y-115983333D01*
X109133332Y-115916667D02*
X108699999Y-115916667D01*
X108933332Y-116183333D01*
X108833332Y-116183333D01*
X108766665Y-116216667D01*
X108733332Y-116250000D01*
X108699999Y-116316667D01*
X108699999Y-116483333D01*
X108733332Y-116550000D01*
X108766665Y-116583333D01*
X108833332Y-116616667D01*
X109033332Y-116616667D01*
X109099999Y-116583333D01*
X109133332Y-116550000D01*
X125466666Y-115350000D02*
X125500000Y-115383333D01*
X125600000Y-115416667D01*
X125666666Y-115416667D01*
X125766666Y-115383333D01*
X125833333Y-115316667D01*
X125866666Y-115250000D01*
X125900000Y-115116667D01*
X125900000Y-115016667D01*
X125866666Y-114883333D01*
X125833333Y-114816667D01*
X125766666Y-114750000D01*
X125666666Y-114716667D01*
X125600000Y-114716667D01*
X125500000Y-114750000D01*
X125466666Y-114783333D01*
X124866666Y-114950000D02*
X124866666Y-115416667D01*
X125033333Y-114683333D02*
X125200000Y-115183333D01*
X124766666Y-115183333D01*
X125716666Y-118650000D02*
X125750000Y-118683333D01*
X125850000Y-118716667D01*
X125916666Y-118716667D01*
X126016666Y-118683333D01*
X126083333Y-118616667D01*
X126116666Y-118550000D01*
X126150000Y-118416667D01*
X126150000Y-118316667D01*
X126116666Y-118183333D01*
X126083333Y-118116667D01*
X126016666Y-118050000D01*
X125916666Y-118016667D01*
X125850000Y-118016667D01*
X125750000Y-118050000D01*
X125716666Y-118083333D01*
X125083333Y-118016667D02*
X125416666Y-118016667D01*
X125450000Y-118350000D01*
X125416666Y-118316667D01*
X125350000Y-118283333D01*
X125183333Y-118283333D01*
X125116666Y-118316667D01*
X125083333Y-118350000D01*
X125050000Y-118416667D01*
X125050000Y-118583333D01*
X125083333Y-118650000D01*
X125116666Y-118683333D01*
X125183333Y-118716667D01*
X125350000Y-118716667D01*
X125416666Y-118683333D01*
X125450000Y-118650000D01*
X117166666Y-98150000D02*
X117200000Y-98183333D01*
X117300000Y-98216667D01*
X117366666Y-98216667D01*
X117466666Y-98183333D01*
X117533333Y-98116667D01*
X117566666Y-98050000D01*
X117600000Y-97916667D01*
X117600000Y-97816667D01*
X117566666Y-97683333D01*
X117533333Y-97616667D01*
X117466666Y-97550000D01*
X117366666Y-97516667D01*
X117300000Y-97516667D01*
X117200000Y-97550000D01*
X117166666Y-97583333D01*
X116566666Y-97516667D02*
X116700000Y-97516667D01*
X116766666Y-97550000D01*
X116800000Y-97583333D01*
X116866666Y-97683333D01*
X116900000Y-97816667D01*
X116900000Y-98083333D01*
X116866666Y-98150000D01*
X116833333Y-98183333D01*
X116766666Y-98216667D01*
X116633333Y-98216667D01*
X116566666Y-98183333D01*
X116533333Y-98150000D01*
X116500000Y-98083333D01*
X116500000Y-97916667D01*
X116533333Y-97850000D01*
X116566666Y-97816667D01*
X116633333Y-97783333D01*
X116766666Y-97783333D01*
X116833333Y-97816667D01*
X116866666Y-97850000D01*
X116900000Y-97916667D01*
X120133333Y-110883333D02*
X120133333Y-111216667D01*
X120366666Y-110516667D02*
X120133333Y-110883333D01*
X119900000Y-110516667D01*
X119300000Y-111216667D02*
X119700000Y-111216667D01*
X119500000Y-111216667D02*
X119500000Y-110516667D01*
X119566666Y-110616667D01*
X119633333Y-110683333D01*
X119700000Y-110716667D01*
M02*
