G04 #@! TF.FileFunction,Legend,Top*
%FSLAX46Y46*%
G04 Gerber Fmt 4.6, Leading zero omitted, Abs format (unit mm)*
G04 Created by KiCad (PCBNEW 4.0.4-stable) date Thursday, September 28, 2017 'AMt' 07:06:15 AM*
%MOMM*%
%LPD*%
G01*
G04 APERTURE LIST*
%ADD10C,0.100000*%
%ADD11C,0.150000*%
%ADD12C,0.300000*%
%ADD13C,0.120000*%
G04 APERTURE END LIST*
D10*
D11*
X130009524Y-96257143D02*
X129961905Y-96304762D01*
X129819048Y-96352381D01*
X129723810Y-96352381D01*
X129580952Y-96304762D01*
X129485714Y-96209524D01*
X129438095Y-96114286D01*
X129390476Y-95923810D01*
X129390476Y-95780952D01*
X129438095Y-95590476D01*
X129485714Y-95495238D01*
X129580952Y-95400000D01*
X129723810Y-95352381D01*
X129819048Y-95352381D01*
X129961905Y-95400000D01*
X130009524Y-95447619D01*
X130438095Y-96352381D02*
X130438095Y-95352381D01*
X130438095Y-95828571D02*
X131009524Y-95828571D01*
X131009524Y-96352381D02*
X131009524Y-95352381D01*
X131438095Y-96066667D02*
X131914286Y-96066667D01*
X131342857Y-96352381D02*
X131676190Y-95352381D01*
X132009524Y-96352381D01*
X132914286Y-96352381D02*
X132580952Y-95876190D01*
X132342857Y-96352381D02*
X132342857Y-95352381D01*
X132723810Y-95352381D01*
X132819048Y-95400000D01*
X132866667Y-95447619D01*
X132914286Y-95542857D01*
X132914286Y-95685714D01*
X132866667Y-95780952D01*
X132819048Y-95828571D01*
X132723810Y-95876190D01*
X132342857Y-95876190D01*
X133866667Y-95400000D02*
X133771429Y-95352381D01*
X133628572Y-95352381D01*
X133485714Y-95400000D01*
X133390476Y-95495238D01*
X133342857Y-95590476D01*
X133295238Y-95780952D01*
X133295238Y-95923810D01*
X133342857Y-96114286D01*
X133390476Y-96209524D01*
X133485714Y-96304762D01*
X133628572Y-96352381D01*
X133723810Y-96352381D01*
X133866667Y-96304762D01*
X133914286Y-96257143D01*
X133914286Y-95923810D01*
X133723810Y-95923810D01*
X134342857Y-95828571D02*
X134676191Y-95828571D01*
X134819048Y-96352381D02*
X134342857Y-96352381D01*
X134342857Y-95352381D01*
X134819048Y-95352381D01*
X90195238Y-108752381D02*
X90528571Y-109752381D01*
X90861905Y-108752381D01*
X91195238Y-109752381D02*
X91195238Y-108752381D01*
X91433333Y-108752381D01*
X91576191Y-108800000D01*
X91671429Y-108895238D01*
X91719048Y-108990476D01*
X91766667Y-109180952D01*
X91766667Y-109323810D01*
X91719048Y-109514286D01*
X91671429Y-109609524D01*
X91576191Y-109704762D01*
X91433333Y-109752381D01*
X91195238Y-109752381D01*
X92195238Y-109752381D02*
X92195238Y-108752381D01*
X92433333Y-108752381D01*
X92576191Y-108800000D01*
X92671429Y-108895238D01*
X92719048Y-108990476D01*
X92766667Y-109180952D01*
X92766667Y-109323810D01*
X92719048Y-109514286D01*
X92671429Y-109609524D01*
X92576191Y-109704762D01*
X92433333Y-109752381D01*
X92195238Y-109752381D01*
X90861905Y-98900000D02*
X90766667Y-98852381D01*
X90623810Y-98852381D01*
X90480952Y-98900000D01*
X90385714Y-98995238D01*
X90338095Y-99090476D01*
X90290476Y-99280952D01*
X90290476Y-99423810D01*
X90338095Y-99614286D01*
X90385714Y-99709524D01*
X90480952Y-99804762D01*
X90623810Y-99852381D01*
X90719048Y-99852381D01*
X90861905Y-99804762D01*
X90909524Y-99757143D01*
X90909524Y-99423810D01*
X90719048Y-99423810D01*
X91338095Y-99852381D02*
X91338095Y-98852381D01*
X91909524Y-99852381D01*
X91909524Y-98852381D01*
X92385714Y-99852381D02*
X92385714Y-98852381D01*
X92623809Y-98852381D01*
X92766667Y-98900000D01*
X92861905Y-98995238D01*
X92909524Y-99090476D01*
X92957143Y-99280952D01*
X92957143Y-99423810D01*
X92909524Y-99614286D01*
X92861905Y-99709524D01*
X92766667Y-99804762D01*
X92623809Y-99852381D01*
X92385714Y-99852381D01*
X95738095Y-109752381D02*
X95738095Y-108752381D01*
X96071429Y-109466667D01*
X96404762Y-108752381D01*
X96404762Y-109752381D01*
X96880952Y-109752381D02*
X96880952Y-108752381D01*
X97309523Y-109704762D02*
X97452380Y-109752381D01*
X97690476Y-109752381D01*
X97785714Y-109704762D01*
X97833333Y-109657143D01*
X97880952Y-109561905D01*
X97880952Y-109466667D01*
X97833333Y-109371429D01*
X97785714Y-109323810D01*
X97690476Y-109276190D01*
X97499999Y-109228571D01*
X97404761Y-109180952D01*
X97357142Y-109133333D01*
X97309523Y-109038095D01*
X97309523Y-108942857D01*
X97357142Y-108847619D01*
X97404761Y-108800000D01*
X97499999Y-108752381D01*
X97738095Y-108752381D01*
X97880952Y-108800000D01*
X98499999Y-108752381D02*
X98690476Y-108752381D01*
X98785714Y-108800000D01*
X98880952Y-108895238D01*
X98928571Y-109085714D01*
X98928571Y-109419048D01*
X98880952Y-109609524D01*
X98785714Y-109704762D01*
X98690476Y-109752381D01*
X98499999Y-109752381D01*
X98404761Y-109704762D01*
X98309523Y-109609524D01*
X98261904Y-109419048D01*
X98261904Y-109085714D01*
X98309523Y-108895238D01*
X98404761Y-108800000D01*
X98499999Y-108752381D01*
X96309524Y-99852381D02*
X95976190Y-99376190D01*
X95738095Y-99852381D02*
X95738095Y-98852381D01*
X96119048Y-98852381D01*
X96214286Y-98900000D01*
X96261905Y-98947619D01*
X96309524Y-99042857D01*
X96309524Y-99185714D01*
X96261905Y-99280952D01*
X96214286Y-99328571D01*
X96119048Y-99376190D01*
X95738095Y-99376190D01*
X96690476Y-99804762D02*
X96833333Y-99852381D01*
X97071429Y-99852381D01*
X97166667Y-99804762D01*
X97214286Y-99757143D01*
X97261905Y-99661905D01*
X97261905Y-99566667D01*
X97214286Y-99471429D01*
X97166667Y-99423810D01*
X97071429Y-99376190D01*
X96880952Y-99328571D01*
X96785714Y-99280952D01*
X96738095Y-99233333D01*
X96690476Y-99138095D01*
X96690476Y-99042857D01*
X96738095Y-98947619D01*
X96785714Y-98900000D01*
X96880952Y-98852381D01*
X97119048Y-98852381D01*
X97261905Y-98900000D01*
X97547619Y-98852381D02*
X98119048Y-98852381D01*
X97833333Y-99852381D02*
X97833333Y-98852381D01*
X99490476Y-104704762D02*
X99633333Y-104752381D01*
X99871429Y-104752381D01*
X99966667Y-104704762D01*
X100014286Y-104657143D01*
X100061905Y-104561905D01*
X100061905Y-104466667D01*
X100014286Y-104371429D01*
X99966667Y-104323810D01*
X99871429Y-104276190D01*
X99680952Y-104228571D01*
X99585714Y-104180952D01*
X99538095Y-104133333D01*
X99490476Y-104038095D01*
X99490476Y-103942857D01*
X99538095Y-103847619D01*
X99585714Y-103800000D01*
X99680952Y-103752381D01*
X99919048Y-103752381D01*
X100061905Y-103800000D01*
X101061905Y-104657143D02*
X101014286Y-104704762D01*
X100871429Y-104752381D01*
X100776191Y-104752381D01*
X100633333Y-104704762D01*
X100538095Y-104609524D01*
X100490476Y-104514286D01*
X100442857Y-104323810D01*
X100442857Y-104180952D01*
X100490476Y-103990476D01*
X100538095Y-103895238D01*
X100633333Y-103800000D01*
X100776191Y-103752381D01*
X100871429Y-103752381D01*
X101014286Y-103800000D01*
X101061905Y-103847619D01*
X101490476Y-104752381D02*
X101490476Y-103752381D01*
X102061905Y-104752381D02*
X101633333Y-104180952D01*
X102061905Y-103752381D02*
X101490476Y-104323810D01*
X89952381Y-105871428D02*
X88952381Y-105871428D01*
X89666667Y-105538094D01*
X88952381Y-105204761D01*
X89952381Y-105204761D01*
X88952381Y-104538095D02*
X88952381Y-104347618D01*
X89000000Y-104252380D01*
X89095238Y-104157142D01*
X89285714Y-104109523D01*
X89619048Y-104109523D01*
X89809524Y-104157142D01*
X89904762Y-104252380D01*
X89952381Y-104347618D01*
X89952381Y-104538095D01*
X89904762Y-104633333D01*
X89809524Y-104728571D01*
X89619048Y-104776190D01*
X89285714Y-104776190D01*
X89095238Y-104728571D01*
X89000000Y-104633333D01*
X88952381Y-104538095D01*
X89904762Y-103728571D02*
X89952381Y-103585714D01*
X89952381Y-103347618D01*
X89904762Y-103252380D01*
X89857143Y-103204761D01*
X89761905Y-103157142D01*
X89666667Y-103157142D01*
X89571429Y-103204761D01*
X89523810Y-103252380D01*
X89476190Y-103347618D01*
X89428571Y-103538095D01*
X89380952Y-103633333D01*
X89333333Y-103680952D01*
X89238095Y-103728571D01*
X89142857Y-103728571D01*
X89047619Y-103680952D01*
X89000000Y-103633333D01*
X88952381Y-103538095D01*
X88952381Y-103299999D01*
X89000000Y-103157142D01*
X89952381Y-102728571D02*
X88952381Y-102728571D01*
X100500000Y-98461905D02*
X100547619Y-98366667D01*
X100547619Y-98223810D01*
X100500000Y-98080952D01*
X100404762Y-97985714D01*
X100309524Y-97938095D01*
X100119048Y-97890476D01*
X99976190Y-97890476D01*
X99785714Y-97938095D01*
X99690476Y-97985714D01*
X99595238Y-98080952D01*
X99547619Y-98223810D01*
X99547619Y-98319048D01*
X99595238Y-98461905D01*
X99642857Y-98509524D01*
X99976190Y-98509524D01*
X99976190Y-98319048D01*
X99547619Y-98938095D02*
X100547619Y-98938095D01*
X99547619Y-99509524D01*
X100547619Y-99509524D01*
X99547619Y-99985714D02*
X100547619Y-99985714D01*
X100547619Y-100223809D01*
X100500000Y-100366667D01*
X100404762Y-100461905D01*
X100309524Y-100509524D01*
X100119048Y-100557143D01*
X99976190Y-100557143D01*
X99785714Y-100509524D01*
X99690476Y-100461905D01*
X99595238Y-100366667D01*
X99547619Y-100223809D01*
X99547619Y-99985714D01*
X102142857Y-98509524D02*
X102095238Y-98461905D01*
X102047619Y-98319048D01*
X102047619Y-98223810D01*
X102095238Y-98080952D01*
X102190476Y-97985714D01*
X102285714Y-97938095D01*
X102476190Y-97890476D01*
X102619048Y-97890476D01*
X102809524Y-97938095D01*
X102904762Y-97985714D01*
X103000000Y-98080952D01*
X103047619Y-98223810D01*
X103047619Y-98319048D01*
X103000000Y-98461905D01*
X102952381Y-98509524D01*
X103047619Y-98795238D02*
X103047619Y-99366667D01*
X102047619Y-99080952D02*
X103047619Y-99080952D01*
X102095238Y-99652381D02*
X102047619Y-99795238D01*
X102047619Y-100033334D01*
X102095238Y-100128572D01*
X102142857Y-100176191D01*
X102238095Y-100223810D01*
X102333333Y-100223810D01*
X102428571Y-100176191D01*
X102476190Y-100128572D01*
X102523810Y-100033334D01*
X102571429Y-99842857D01*
X102619048Y-99747619D01*
X102666667Y-99700000D01*
X102761905Y-99652381D01*
X102857143Y-99652381D01*
X102952381Y-99700000D01*
X103000000Y-99747619D01*
X103047619Y-99842857D01*
X103047619Y-100080953D01*
X103000000Y-100223810D01*
X105647619Y-97795238D02*
X104647619Y-98128571D01*
X105647619Y-98461905D01*
X104647619Y-98795238D02*
X105647619Y-98795238D01*
X105647619Y-99033333D01*
X105600000Y-99176191D01*
X105504762Y-99271429D01*
X105409524Y-99319048D01*
X105219048Y-99366667D01*
X105076190Y-99366667D01*
X104885714Y-99319048D01*
X104790476Y-99271429D01*
X104695238Y-99176191D01*
X104647619Y-99033333D01*
X104647619Y-98795238D01*
X104647619Y-99795238D02*
X105647619Y-99795238D01*
X105647619Y-100033333D01*
X105600000Y-100176191D01*
X105504762Y-100271429D01*
X105409524Y-100319048D01*
X105219048Y-100366667D01*
X105076190Y-100366667D01*
X104885714Y-100319048D01*
X104790476Y-100271429D01*
X104695238Y-100176191D01*
X104647619Y-100033333D01*
X104647619Y-99795238D01*
X107147619Y-98509524D02*
X107623810Y-98176190D01*
X107147619Y-97938095D02*
X108147619Y-97938095D01*
X108147619Y-98319048D01*
X108100000Y-98414286D01*
X108052381Y-98461905D01*
X107957143Y-98509524D01*
X107814286Y-98509524D01*
X107719048Y-98461905D01*
X107671429Y-98414286D01*
X107623810Y-98319048D01*
X107623810Y-97938095D01*
X108147619Y-98842857D02*
X107147619Y-99509524D01*
X108147619Y-99509524D02*
X107147619Y-98842857D01*
X110747619Y-97795238D02*
X110747619Y-98366667D01*
X109747619Y-98080952D02*
X110747619Y-98080952D01*
X110747619Y-98604762D02*
X109747619Y-99271429D01*
X110747619Y-99271429D02*
X109747619Y-98604762D01*
X112247619Y-97938095D02*
X113247619Y-97938095D01*
X113247619Y-98176190D01*
X113200000Y-98319048D01*
X113104762Y-98414286D01*
X113009524Y-98461905D01*
X112819048Y-98509524D01*
X112676190Y-98509524D01*
X112485714Y-98461905D01*
X112390476Y-98414286D01*
X112295238Y-98319048D01*
X112247619Y-98176190D01*
X112247619Y-97938095D01*
X113247619Y-98795238D02*
X113247619Y-99366667D01*
X112247619Y-99080952D02*
X113247619Y-99080952D01*
X112247619Y-100271429D02*
X112723810Y-99938095D01*
X112247619Y-99700000D02*
X113247619Y-99700000D01*
X113247619Y-100080953D01*
X113200000Y-100176191D01*
X113152381Y-100223810D01*
X113057143Y-100271429D01*
X112914286Y-100271429D01*
X112819048Y-100223810D01*
X112771429Y-100176191D01*
X112723810Y-100080953D01*
X112723810Y-99700000D01*
X127471429Y-98271429D02*
X127423810Y-98414286D01*
X127376190Y-98461905D01*
X127280952Y-98509524D01*
X127138095Y-98509524D01*
X127042857Y-98461905D01*
X126995238Y-98414286D01*
X126947619Y-98319048D01*
X126947619Y-97938095D01*
X127947619Y-97938095D01*
X127947619Y-98271429D01*
X127900000Y-98366667D01*
X127852381Y-98414286D01*
X127757143Y-98461905D01*
X127661905Y-98461905D01*
X127566667Y-98414286D01*
X127519048Y-98366667D01*
X127471429Y-98271429D01*
X127471429Y-97938095D01*
X127233333Y-98890476D02*
X127233333Y-99366667D01*
X126947619Y-98795238D02*
X127947619Y-99128571D01*
X126947619Y-99461905D01*
X127947619Y-99652381D02*
X127947619Y-100223810D01*
X126947619Y-99938095D02*
X127947619Y-99938095D01*
X127947619Y-100414286D02*
X127947619Y-100985715D01*
X126947619Y-100700000D02*
X127947619Y-100700000D01*
X126852381Y-101080953D02*
X126852381Y-101842858D01*
X126947619Y-102080953D02*
X127947619Y-102080953D01*
X127947619Y-102461906D01*
X127900000Y-102557144D01*
X127852381Y-102604763D01*
X127757143Y-102652382D01*
X127614286Y-102652382D01*
X127519048Y-102604763D01*
X127471429Y-102557144D01*
X127423810Y-102461906D01*
X127423810Y-102080953D01*
X127947619Y-103271429D02*
X127947619Y-103461906D01*
X127900000Y-103557144D01*
X127804762Y-103652382D01*
X127614286Y-103700001D01*
X127280952Y-103700001D01*
X127090476Y-103652382D01*
X126995238Y-103557144D01*
X126947619Y-103461906D01*
X126947619Y-103271429D01*
X126995238Y-103176191D01*
X127090476Y-103080953D01*
X127280952Y-103033334D01*
X127614286Y-103033334D01*
X127804762Y-103080953D01*
X127900000Y-103176191D01*
X127947619Y-103271429D01*
X126995238Y-104080953D02*
X126947619Y-104223810D01*
X126947619Y-104461906D01*
X126995238Y-104557144D01*
X127042857Y-104604763D01*
X127138095Y-104652382D01*
X127233333Y-104652382D01*
X127328571Y-104604763D01*
X127376190Y-104557144D01*
X127423810Y-104461906D01*
X127471429Y-104271429D01*
X127519048Y-104176191D01*
X127566667Y-104128572D01*
X127661905Y-104080953D01*
X127757143Y-104080953D01*
X127852381Y-104128572D01*
X127900000Y-104176191D01*
X127947619Y-104271429D01*
X127947619Y-104509525D01*
X127900000Y-104652382D01*
X124871429Y-98271429D02*
X124823810Y-98414286D01*
X124776190Y-98461905D01*
X124680952Y-98509524D01*
X124538095Y-98509524D01*
X124442857Y-98461905D01*
X124395238Y-98414286D01*
X124347619Y-98319048D01*
X124347619Y-97938095D01*
X125347619Y-97938095D01*
X125347619Y-98271429D01*
X125300000Y-98366667D01*
X125252381Y-98414286D01*
X125157143Y-98461905D01*
X125061905Y-98461905D01*
X124966667Y-98414286D01*
X124919048Y-98366667D01*
X124871429Y-98271429D01*
X124871429Y-97938095D01*
X124633333Y-98890476D02*
X124633333Y-99366667D01*
X124347619Y-98795238D02*
X125347619Y-99128571D01*
X124347619Y-99461905D01*
X125347619Y-99652381D02*
X125347619Y-100223810D01*
X124347619Y-99938095D02*
X125347619Y-99938095D01*
X125347619Y-100414286D02*
X125347619Y-100985715D01*
X124347619Y-100700000D02*
X125347619Y-100700000D01*
X124252381Y-101080953D02*
X124252381Y-101842858D01*
X124347619Y-102080953D02*
X125347619Y-102080953D01*
X124633333Y-102414287D01*
X125347619Y-102747620D01*
X124347619Y-102747620D01*
X124347619Y-103223810D02*
X125347619Y-103223810D01*
X124347619Y-103700000D02*
X125347619Y-103700000D01*
X125347619Y-103938095D01*
X125300000Y-104080953D01*
X125204762Y-104176191D01*
X125109524Y-104223810D01*
X124919048Y-104271429D01*
X124776190Y-104271429D01*
X124585714Y-104223810D01*
X124490476Y-104176191D01*
X124395238Y-104080953D01*
X124347619Y-103938095D01*
X124347619Y-103700000D01*
X122800000Y-98461905D02*
X122847619Y-98366667D01*
X122847619Y-98223810D01*
X122800000Y-98080952D01*
X122704762Y-97985714D01*
X122609524Y-97938095D01*
X122419048Y-97890476D01*
X122276190Y-97890476D01*
X122085714Y-97938095D01*
X121990476Y-97985714D01*
X121895238Y-98080952D01*
X121847619Y-98223810D01*
X121847619Y-98319048D01*
X121895238Y-98461905D01*
X121942857Y-98509524D01*
X122276190Y-98509524D01*
X122276190Y-98319048D01*
X121847619Y-98938095D02*
X122847619Y-98938095D01*
X121847619Y-99509524D01*
X122847619Y-99509524D01*
X121847619Y-99985714D02*
X122847619Y-99985714D01*
X122847619Y-100223809D01*
X122800000Y-100366667D01*
X122704762Y-100461905D01*
X122609524Y-100509524D01*
X122419048Y-100557143D01*
X122276190Y-100557143D01*
X122085714Y-100509524D01*
X121990476Y-100461905D01*
X121895238Y-100366667D01*
X121847619Y-100223809D01*
X121847619Y-99985714D01*
X109228571Y-127428571D02*
X109228571Y-127761905D01*
X109752381Y-127761905D02*
X108752381Y-127761905D01*
X108752381Y-127285714D01*
X109752381Y-126428571D02*
X109752381Y-126904762D01*
X108752381Y-126904762D01*
X108752381Y-125904762D02*
X108752381Y-125714285D01*
X108800000Y-125619047D01*
X108895238Y-125523809D01*
X109085714Y-125476190D01*
X109419048Y-125476190D01*
X109609524Y-125523809D01*
X109704762Y-125619047D01*
X109752381Y-125714285D01*
X109752381Y-125904762D01*
X109704762Y-126000000D01*
X109609524Y-126095238D01*
X109419048Y-126142857D01*
X109085714Y-126142857D01*
X108895238Y-126095238D01*
X108800000Y-126000000D01*
X108752381Y-125904762D01*
X108752381Y-125142857D02*
X109752381Y-124904762D01*
X109038095Y-124714285D01*
X109752381Y-124523809D01*
X108752381Y-124285714D01*
X109847619Y-124142857D02*
X109847619Y-123380952D01*
X108800000Y-122619047D02*
X108752381Y-122714285D01*
X108752381Y-122857142D01*
X108800000Y-123000000D01*
X108895238Y-123095238D01*
X108990476Y-123142857D01*
X109180952Y-123190476D01*
X109323810Y-123190476D01*
X109514286Y-123142857D01*
X109609524Y-123095238D01*
X109704762Y-123000000D01*
X109752381Y-122857142D01*
X109752381Y-122761904D01*
X109704762Y-122619047D01*
X109657143Y-122571428D01*
X109323810Y-122571428D01*
X109323810Y-122761904D01*
X109752381Y-122142857D02*
X108752381Y-122142857D01*
X109752381Y-121571428D01*
X108752381Y-121571428D01*
X109752381Y-121095238D02*
X108752381Y-121095238D01*
X108752381Y-120857143D01*
X108800000Y-120714285D01*
X108895238Y-120619047D01*
X108990476Y-120571428D01*
X109180952Y-120523809D01*
X109323810Y-120523809D01*
X109514286Y-120571428D01*
X109609524Y-120619047D01*
X109704762Y-120714285D01*
X109752381Y-120857143D01*
X109752381Y-121095238D01*
X111728571Y-127428571D02*
X111728571Y-127761905D01*
X112252381Y-127761905D02*
X111252381Y-127761905D01*
X111252381Y-127285714D01*
X112252381Y-126428571D02*
X112252381Y-126904762D01*
X111252381Y-126904762D01*
X111252381Y-125904762D02*
X111252381Y-125714285D01*
X111300000Y-125619047D01*
X111395238Y-125523809D01*
X111585714Y-125476190D01*
X111919048Y-125476190D01*
X112109524Y-125523809D01*
X112204762Y-125619047D01*
X112252381Y-125714285D01*
X112252381Y-125904762D01*
X112204762Y-126000000D01*
X112109524Y-126095238D01*
X111919048Y-126142857D01*
X111585714Y-126142857D01*
X111395238Y-126095238D01*
X111300000Y-126000000D01*
X111252381Y-125904762D01*
X111252381Y-125142857D02*
X112252381Y-124904762D01*
X111538095Y-124714285D01*
X112252381Y-124523809D01*
X111252381Y-124285714D01*
X112347619Y-124142857D02*
X112347619Y-123380952D01*
X112252381Y-123142857D02*
X111252381Y-123142857D01*
X112252381Y-122666667D02*
X111252381Y-122666667D01*
X112252381Y-122095238D01*
X111252381Y-122095238D01*
X114328571Y-127428571D02*
X114328571Y-127761905D01*
X114852381Y-127761905D02*
X113852381Y-127761905D01*
X113852381Y-127285714D01*
X114852381Y-126428571D02*
X114852381Y-126904762D01*
X113852381Y-126904762D01*
X113852381Y-125904762D02*
X113852381Y-125714285D01*
X113900000Y-125619047D01*
X113995238Y-125523809D01*
X114185714Y-125476190D01*
X114519048Y-125476190D01*
X114709524Y-125523809D01*
X114804762Y-125619047D01*
X114852381Y-125714285D01*
X114852381Y-125904762D01*
X114804762Y-126000000D01*
X114709524Y-126095238D01*
X114519048Y-126142857D01*
X114185714Y-126142857D01*
X113995238Y-126095238D01*
X113900000Y-126000000D01*
X113852381Y-125904762D01*
X113852381Y-125142857D02*
X114852381Y-124904762D01*
X114138095Y-124714285D01*
X114852381Y-124523809D01*
X113852381Y-124285714D01*
X114947619Y-124142857D02*
X114947619Y-123380952D01*
X113852381Y-123285714D02*
X114852381Y-122952381D01*
X113852381Y-122619047D01*
X114757143Y-121714285D02*
X114804762Y-121761904D01*
X114852381Y-121904761D01*
X114852381Y-121999999D01*
X114804762Y-122142857D01*
X114709524Y-122238095D01*
X114614286Y-122285714D01*
X114423810Y-122333333D01*
X114280952Y-122333333D01*
X114090476Y-122285714D01*
X113995238Y-122238095D01*
X113900000Y-122142857D01*
X113852381Y-121999999D01*
X113852381Y-121904761D01*
X113900000Y-121761904D01*
X113947619Y-121714285D01*
X114757143Y-120714285D02*
X114804762Y-120761904D01*
X114852381Y-120904761D01*
X114852381Y-120999999D01*
X114804762Y-121142857D01*
X114709524Y-121238095D01*
X114614286Y-121285714D01*
X114423810Y-121333333D01*
X114280952Y-121333333D01*
X114090476Y-121285714D01*
X113995238Y-121238095D01*
X113900000Y-121142857D01*
X113852381Y-120999999D01*
X113852381Y-120904761D01*
X113900000Y-120761904D01*
X113947619Y-120714285D01*
D12*
X132971428Y-124207143D02*
X131828571Y-124207143D01*
X124971428Y-124207143D02*
X123828571Y-124207143D01*
X130971428Y-124207143D02*
X129828571Y-124207143D01*
X130400000Y-124778571D02*
X130400000Y-123635714D01*
X122971428Y-124107143D02*
X121828571Y-124107143D01*
X122400000Y-124678571D02*
X122400000Y-123535714D01*
D13*
X113110000Y-128470000D02*
X107970000Y-128470000D01*
X107970000Y-128470000D02*
X107970000Y-131130000D01*
X107970000Y-131130000D02*
X113110000Y-131130000D01*
X113110000Y-131130000D02*
X113110000Y-128470000D01*
X114380000Y-128470000D02*
X115710000Y-128470000D01*
X115710000Y-128470000D02*
X115710000Y-129800000D01*
D11*
X105023607Y-114170000D02*
G75*
G03X105023607Y-114170000I-223607J0D01*
G01*
X104900000Y-114170000D02*
G75*
G03X104900000Y-114170000I-100000J0D01*
G01*
X105100000Y-132670000D02*
X105100000Y-114670000D01*
X93100000Y-132670000D02*
X105100000Y-132670000D01*
X93100000Y-114670000D02*
X93100000Y-132670000D01*
X105100000Y-114670000D02*
X93100000Y-114670000D01*
D13*
X101270000Y-97230000D02*
X114030000Y-97230000D01*
X114030000Y-97230000D02*
X114030000Y-94570000D01*
X114030000Y-94570000D02*
X101270000Y-94570000D01*
X101270000Y-94570000D02*
X101270000Y-97230000D01*
X100000000Y-97230000D02*
X98670000Y-97230000D01*
X98670000Y-97230000D02*
X98670000Y-95900000D01*
X123570000Y-97230000D02*
X128710000Y-97230000D01*
X128710000Y-97230000D02*
X128710000Y-94570000D01*
X128710000Y-94570000D02*
X123570000Y-94570000D01*
X123570000Y-94570000D02*
X123570000Y-97230000D01*
X122300000Y-97230000D02*
X120970000Y-97230000D01*
X120970000Y-97230000D02*
X120970000Y-95900000D01*
X97300000Y-107640000D02*
X97300000Y-108170000D01*
X97300000Y-108170000D02*
X92100000Y-108170000D01*
X92100000Y-108170000D02*
X92100000Y-107640000D01*
X97300000Y-100960000D02*
X97300000Y-100430000D01*
X97300000Y-100430000D02*
X92100000Y-100430000D01*
X92100000Y-100430000D02*
X92100000Y-100960000D01*
X98720000Y-107640000D02*
X97300000Y-107640000D01*
X123400000Y-127860000D02*
X125460000Y-127860000D01*
X125460000Y-127860000D02*
X125460000Y-125740000D01*
X125460000Y-125740000D02*
X123400000Y-125740000D01*
X123400000Y-125740000D02*
X123400000Y-127860000D01*
X122400000Y-127860000D02*
X121340000Y-127860000D01*
X121340000Y-127860000D02*
X121340000Y-126800000D01*
X131400000Y-127860000D02*
X133460000Y-127860000D01*
X133460000Y-127860000D02*
X133460000Y-125740000D01*
X133460000Y-125740000D02*
X131400000Y-125740000D01*
X131400000Y-125740000D02*
X131400000Y-127860000D01*
X130400000Y-127860000D02*
X129340000Y-127860000D01*
X129340000Y-127860000D02*
X129340000Y-126800000D01*
D10*
X131200000Y-120300000D02*
X138800000Y-120300000D01*
X138800000Y-120300000D02*
X138800000Y-103300000D01*
X138800000Y-103300000D02*
X131200000Y-103300000D01*
X131200000Y-103300000D02*
X131200000Y-120300000D01*
X116183334Y-130116667D02*
X116183334Y-129416667D01*
X116450000Y-129416667D01*
X116516667Y-129450000D01*
X116550000Y-129483333D01*
X116583334Y-129550000D01*
X116583334Y-129650000D01*
X116550000Y-129716667D01*
X116516667Y-129750000D01*
X116450000Y-129783333D01*
X116183334Y-129783333D01*
X117250000Y-130116667D02*
X116850000Y-130116667D01*
X117050000Y-130116667D02*
X117050000Y-129416667D01*
X116983334Y-129516667D01*
X116916667Y-129583333D01*
X116850000Y-129616667D01*
X105666667Y-114716667D02*
X105666667Y-115283333D01*
X105700000Y-115350000D01*
X105733333Y-115383333D01*
X105800000Y-115416667D01*
X105933333Y-115416667D01*
X106000000Y-115383333D01*
X106033333Y-115350000D01*
X106066667Y-115283333D01*
X106066667Y-114716667D01*
X106333333Y-114716667D02*
X106766666Y-114716667D01*
X106533333Y-114983333D01*
X106633333Y-114983333D01*
X106700000Y-115016667D01*
X106733333Y-115050000D01*
X106766666Y-115116667D01*
X106766666Y-115283333D01*
X106733333Y-115350000D01*
X106700000Y-115383333D01*
X106633333Y-115416667D01*
X106433333Y-115416667D01*
X106366666Y-115383333D01*
X106333333Y-115350000D01*
X97083334Y-96216667D02*
X97083334Y-95516667D01*
X97350000Y-95516667D01*
X97416667Y-95550000D01*
X97450000Y-95583333D01*
X97483334Y-95650000D01*
X97483334Y-95750000D01*
X97450000Y-95816667D01*
X97416667Y-95850000D01*
X97350000Y-95883333D01*
X97083334Y-95883333D01*
X98083334Y-95750000D02*
X98083334Y-96216667D01*
X97916667Y-95483333D02*
X97750000Y-95983333D01*
X98183334Y-95983333D01*
X119383334Y-96216667D02*
X119383334Y-95516667D01*
X119650000Y-95516667D01*
X119716667Y-95550000D01*
X119750000Y-95583333D01*
X119783334Y-95650000D01*
X119783334Y-95750000D01*
X119750000Y-95816667D01*
X119716667Y-95850000D01*
X119650000Y-95883333D01*
X119383334Y-95883333D01*
X120383334Y-95516667D02*
X120250000Y-95516667D01*
X120183334Y-95550000D01*
X120150000Y-95583333D01*
X120083334Y-95683333D01*
X120050000Y-95816667D01*
X120050000Y-96083333D01*
X120083334Y-96150000D01*
X120116667Y-96183333D01*
X120183334Y-96216667D01*
X120316667Y-96216667D01*
X120383334Y-96183333D01*
X120416667Y-96150000D01*
X120450000Y-96083333D01*
X120450000Y-95916667D01*
X120416667Y-95850000D01*
X120383334Y-95816667D01*
X120316667Y-95783333D01*
X120183334Y-95783333D01*
X120116667Y-95816667D01*
X120083334Y-95850000D01*
X120050000Y-95916667D01*
X99483334Y-107216667D02*
X99483334Y-106516667D01*
X99750000Y-106516667D01*
X99816667Y-106550000D01*
X99850000Y-106583333D01*
X99883334Y-106650000D01*
X99883334Y-106750000D01*
X99850000Y-106816667D01*
X99816667Y-106850000D01*
X99750000Y-106883333D01*
X99483334Y-106883333D01*
X100516667Y-106516667D02*
X100183334Y-106516667D01*
X100150000Y-106850000D01*
X100183334Y-106816667D01*
X100250000Y-106783333D01*
X100416667Y-106783333D01*
X100483334Y-106816667D01*
X100516667Y-106850000D01*
X100550000Y-106916667D01*
X100550000Y-107083333D01*
X100516667Y-107150000D01*
X100483334Y-107183333D01*
X100416667Y-107216667D01*
X100250000Y-107216667D01*
X100183334Y-107183333D01*
X100150000Y-107150000D01*
X119083334Y-127116667D02*
X119083334Y-126416667D01*
X119350000Y-126416667D01*
X119416667Y-126450000D01*
X119450000Y-126483333D01*
X119483334Y-126550000D01*
X119483334Y-126650000D01*
X119450000Y-126716667D01*
X119416667Y-126750000D01*
X119350000Y-126783333D01*
X119083334Y-126783333D01*
X119750000Y-126483333D02*
X119783334Y-126450000D01*
X119850000Y-126416667D01*
X120016667Y-126416667D01*
X120083334Y-126450000D01*
X120116667Y-126483333D01*
X120150000Y-126550000D01*
X120150000Y-126616667D01*
X120116667Y-126716667D01*
X119716667Y-127116667D01*
X120150000Y-127116667D01*
X127083334Y-127116667D02*
X127083334Y-126416667D01*
X127350000Y-126416667D01*
X127416667Y-126450000D01*
X127450000Y-126483333D01*
X127483334Y-126550000D01*
X127483334Y-126650000D01*
X127450000Y-126716667D01*
X127416667Y-126750000D01*
X127350000Y-126783333D01*
X127083334Y-126783333D01*
X127716667Y-126416667D02*
X128150000Y-126416667D01*
X127916667Y-126683333D01*
X128016667Y-126683333D01*
X128083334Y-126716667D01*
X128116667Y-126750000D01*
X128150000Y-126816667D01*
X128150000Y-126983333D01*
X128116667Y-127050000D01*
X128083334Y-127083333D01*
X128016667Y-127116667D01*
X127816667Y-127116667D01*
X127750000Y-127083333D01*
X127716667Y-127050000D01*
X136866666Y-121683333D02*
X136966666Y-121716667D01*
X137133333Y-121716667D01*
X137200000Y-121683333D01*
X137233333Y-121650000D01*
X137266666Y-121583333D01*
X137266666Y-121516667D01*
X137233333Y-121450000D01*
X137200000Y-121416667D01*
X137133333Y-121383333D01*
X137000000Y-121350000D01*
X136933333Y-121316667D01*
X136900000Y-121283333D01*
X136866666Y-121216667D01*
X136866666Y-121150000D01*
X136900000Y-121083333D01*
X136933333Y-121050000D01*
X137000000Y-121016667D01*
X137166666Y-121016667D01*
X137266666Y-121050000D01*
X137500000Y-121016667D02*
X137666667Y-121716667D01*
X137800000Y-121216667D01*
X137933333Y-121716667D01*
X138100000Y-121016667D01*
X138733333Y-121716667D02*
X138333333Y-121716667D01*
X138533333Y-121716667D02*
X138533333Y-121016667D01*
X138466667Y-121116667D01*
X138400000Y-121183333D01*
X138333333Y-121216667D01*
M02*
