G04 #@! TF.FileFunction,Soldermask,Bot*
%FSLAX46Y46*%
G04 Gerber Fmt 4.6, Leading zero omitted, Abs format (unit mm)*
G04 Created by KiCad (PCBNEW 4.0.4-stable) date Thursday, September 28, 2017 'PMt' 10:00:37 PM*
%MOMM*%
%LPD*%
G01*
G04 APERTURE LIST*
%ADD10C,0.100000*%
%ADD11C,2.600000*%
%ADD12R,1.300000X1.200000*%
%ADD13R,1.200000X1.300000*%
%ADD14R,1.300000X1.600000*%
%ADD15R,1.600000X1.300000*%
%ADD16R,1.150000X1.600000*%
%ADD17R,2.100000X2.100000*%
%ADD18O,2.100000X2.100000*%
%ADD19R,2.000000X0.950000*%
%ADD20R,0.950000X2.000000*%
%ADD21R,1.050000X1.960000*%
%ADD22O,1.400000X2.800000*%
%ADD23R,1.400000X1.400000*%
%ADD24R,1.900000X1.650000*%
%ADD25R,1.600000X1.150000*%
%ADD26R,4.400000X2.100000*%
%ADD27R,4.400000X1.900000*%
%ADD28R,1.750000X1.750000*%
%ADD29O,1.750000X1.750000*%
%ADD30R,2.400000X2.400000*%
%ADD31O,2.400000X2.400000*%
G04 APERTURE END LIST*
D10*
D11*
X139300000Y-131000000D03*
X139300000Y-94700000D03*
X90100000Y-131000000D03*
D12*
X113547501Y-120002403D03*
X113547501Y-118102403D03*
X115547501Y-119052403D03*
D13*
X108445502Y-123699405D03*
X110345502Y-123699405D03*
X109395502Y-125699405D03*
D14*
X113600000Y-123400000D03*
X113600000Y-125600000D03*
D15*
X108566501Y-120610403D03*
X110766501Y-120610403D03*
D14*
X118666502Y-117310405D03*
X118666502Y-119510405D03*
D15*
X115600000Y-101100000D03*
X117800000Y-101100000D03*
D16*
X99900000Y-107450000D03*
X99900000Y-105550000D03*
D17*
X114380000Y-129800000D03*
D18*
X111840000Y-129800000D03*
X109300000Y-129800000D03*
D19*
X111450000Y-102600000D03*
X111450000Y-103400000D03*
X111450000Y-104200000D03*
X111450000Y-105000000D03*
X111450000Y-105800000D03*
X111450000Y-106600000D03*
X111450000Y-107400000D03*
X111450000Y-108200000D03*
D20*
X110000000Y-109650000D03*
X109200000Y-109650000D03*
X108400000Y-109650000D03*
X107600000Y-109650000D03*
X106800000Y-109650000D03*
X106000000Y-109650000D03*
X105200000Y-109650000D03*
X104400000Y-109650000D03*
D19*
X102950000Y-108200000D03*
X102950000Y-107400000D03*
X102950000Y-106600000D03*
X102950000Y-105800000D03*
X102950000Y-105000000D03*
X102950000Y-104200000D03*
X102950000Y-103400000D03*
X102950000Y-102600000D03*
D20*
X104400000Y-101150000D03*
X105200000Y-101150000D03*
X106000000Y-101150000D03*
X106800000Y-101150000D03*
X107600000Y-101150000D03*
X108400000Y-101150000D03*
X109200000Y-101150000D03*
X110000000Y-101150000D03*
D21*
X124450000Y-107850000D03*
X125400000Y-107850000D03*
X126350000Y-107850000D03*
X126350000Y-110550000D03*
X124450000Y-110550000D03*
D22*
X98465000Y-114970000D03*
X99735000Y-114970000D03*
X97195000Y-114970000D03*
X101005000Y-114970000D03*
X102275000Y-114970000D03*
X95925000Y-114970000D03*
X103545000Y-114970000D03*
X94655000Y-114970000D03*
D23*
X94000000Y-126170000D03*
D24*
X124450000Y-104200000D03*
X126950000Y-104200000D03*
X107999999Y-114800000D03*
X110499999Y-114800000D03*
D25*
X124400000Y-113900000D03*
X126300000Y-113900000D03*
D24*
X124399999Y-116900000D03*
X126899999Y-116900000D03*
D25*
X118000000Y-99000000D03*
X116100000Y-99000000D03*
D17*
X100000000Y-95900000D03*
D18*
X102540000Y-95900000D03*
X105080000Y-95900000D03*
X107620000Y-95900000D03*
X110160000Y-95900000D03*
X112700000Y-95900000D03*
D17*
X122300000Y-95900000D03*
D18*
X124840000Y-95900000D03*
X127380000Y-95900000D03*
D26*
X116900000Y-110300000D03*
D27*
X116900000Y-107800000D03*
D26*
X116900000Y-105300000D03*
D11*
X90100000Y-94700000D03*
D28*
X122400000Y-126800000D03*
D29*
X124400000Y-126800000D03*
D28*
X130400000Y-126800000D03*
D29*
X132400000Y-126800000D03*
D30*
X136250000Y-115800000D03*
D31*
X136250000Y-111800000D03*
X136250000Y-107800000D03*
X133750000Y-115800000D03*
X133750000Y-111800000D03*
X133750000Y-107800000D03*
D11*
X135000000Y-119900000D03*
X135000000Y-119900000D03*
X135000000Y-103700000D03*
M02*
