G04 #@! TF.FileFunction,Copper,L1,Top,Signal*
%FSLAX46Y46*%
G04 Gerber Fmt 4.6, Leading zero omitted, Abs format (unit mm)*
G04 Created by KiCad (PCBNEW 4.0.4-stable) date Thursday, September 28, 2017 'AMt' 07:06:15 AM*
%MOMM*%
%LPD*%
G01*
G04 APERTURE LIST*
%ADD10C,0.100000*%
%ADD11R,1.700000X1.700000*%
%ADD12O,1.700000X1.700000*%
%ADD13O,1.000000X2.400000*%
%ADD14R,1.000000X1.000000*%
%ADD15R,3.000000X1.000000*%
%ADD16R,1.350000X1.350000*%
%ADD17O,1.350000X1.350000*%
%ADD18R,2.000000X2.000000*%
%ADD19O,2.000000X2.000000*%
%ADD20C,2.200000*%
%ADD21C,0.635000*%
%ADD22C,0.635000*%
%ADD23C,0.406400*%
%ADD24C,0.250000*%
G04 APERTURE END LIST*
D10*
D11*
X114380000Y-129800000D03*
D12*
X111840000Y-129800000D03*
X109300000Y-129800000D03*
D13*
X98465000Y-114970000D03*
X99735000Y-114970000D03*
X97195000Y-114970000D03*
X101005000Y-114970000D03*
X102275000Y-114970000D03*
X95925000Y-114970000D03*
X103545000Y-114970000D03*
X94655000Y-114970000D03*
D14*
X94000000Y-126170000D03*
D11*
X100000000Y-95900000D03*
D12*
X102540000Y-95900000D03*
X105080000Y-95900000D03*
X107620000Y-95900000D03*
X110160000Y-95900000D03*
X112700000Y-95900000D03*
D11*
X122300000Y-95900000D03*
D12*
X124840000Y-95900000D03*
X127380000Y-95900000D03*
D15*
X92180000Y-106840000D03*
X97220000Y-106840000D03*
X92180000Y-104300000D03*
X97220000Y-104300000D03*
X92180000Y-101760000D03*
X97220000Y-101760000D03*
D16*
X122400000Y-126800000D03*
D17*
X124400000Y-126800000D03*
D16*
X130400000Y-126800000D03*
D17*
X132400000Y-126800000D03*
D18*
X136250000Y-115800000D03*
D19*
X136250000Y-111800000D03*
X136250000Y-107800000D03*
X133750000Y-115800000D03*
X133750000Y-111800000D03*
X133750000Y-107800000D03*
D20*
X135000000Y-119900000D03*
X135000000Y-119900000D03*
X135000000Y-103700000D03*
D21*
X131300000Y-100500000D03*
X130300000Y-99500000D03*
X129300000Y-98500000D03*
X109000000Y-111400000D03*
X110500000Y-111400000D03*
X127300000Y-123700000D03*
X128100000Y-124600000D03*
X99100000Y-105500000D03*
X104300000Y-105000000D03*
X110100000Y-104200000D03*
X110100000Y-105800000D03*
X94300000Y-101700000D03*
X92200000Y-100800000D03*
X125400000Y-106723900D03*
X119300000Y-107800000D03*
X126900000Y-103100000D03*
X127400000Y-113900000D03*
X126900000Y-118000000D03*
X110400000Y-122700000D03*
X113500000Y-117200000D03*
X110500000Y-113700000D03*
X97220000Y-100853600D03*
X107600000Y-99400000D03*
X110300000Y-99400000D03*
X113900000Y-103100000D03*
X113900000Y-111400000D03*
X119000000Y-112700000D03*
X108000000Y-113600000D03*
X114000000Y-101100000D03*
X101400000Y-104300000D03*
X100400000Y-109200000D03*
X113000000Y-102600000D03*
X113000000Y-110800000D03*
X97200000Y-108400000D03*
X101600000Y-108400000D03*
X97200000Y-111600000D03*
X123065000Y-104200000D03*
D22*
X129300000Y-98500000D02*
X130300000Y-99500000D01*
X110500000Y-111400000D02*
X109000000Y-111400000D01*
X132400000Y-126800000D02*
X132400000Y-125845406D01*
X132400000Y-125845406D02*
X131154594Y-124600000D01*
X131154594Y-124600000D02*
X128100000Y-124600000D01*
X99100000Y-105500000D02*
X95403763Y-105500000D01*
X92180000Y-101760000D02*
X94240000Y-101760000D01*
X94240000Y-101760000D02*
X94300000Y-101700000D01*
X95403763Y-105500000D02*
X94500000Y-104596237D01*
X94500000Y-104596237D02*
X94500000Y-103080000D01*
X94500000Y-103080000D02*
X93180000Y-101760000D01*
X93180000Y-101760000D02*
X92180000Y-101760000D01*
X92180000Y-101760000D02*
X92180000Y-100820000D01*
X92180000Y-100820000D02*
X92200000Y-100800000D01*
X119300000Y-107800000D02*
X119300000Y-107350988D01*
D23*
X110300000Y-99400000D02*
X107676090Y-99400000D01*
X97220000Y-101760000D02*
X97220000Y-100853600D01*
X113900000Y-103100000D02*
X113900000Y-111400000D01*
D22*
X108000000Y-112700000D02*
X102275000Y-112700000D01*
X108000000Y-112700000D02*
X115800000Y-112700000D01*
X108000000Y-113600000D02*
X108000000Y-113150988D01*
X108000000Y-113150988D02*
X108000000Y-112700000D01*
X115800000Y-112700000D02*
X119000000Y-112700000D01*
X92180000Y-106840000D02*
X91180000Y-106840000D01*
X92100000Y-98600000D02*
X104100000Y-98600000D01*
X91180000Y-106840000D02*
X89900000Y-105560000D01*
X89900000Y-105560000D02*
X89900000Y-100800000D01*
X89900000Y-100800000D02*
X92100000Y-98600000D01*
X101400000Y-101300000D02*
X104100000Y-98600000D01*
X104100000Y-98600000D02*
X105080000Y-97620000D01*
X102275000Y-110315538D02*
X102275000Y-112700000D01*
X102275000Y-112700000D02*
X102275000Y-115570000D01*
X110520000Y-97620000D02*
X114000000Y-101100000D01*
X105080000Y-97620000D02*
X110520000Y-97620000D01*
X101400000Y-104300000D02*
X101400000Y-101300000D01*
X105080000Y-97620000D02*
X105080000Y-95900000D01*
X100400000Y-109200000D02*
X101159462Y-109200000D01*
X101159462Y-109200000D02*
X102275000Y-110315538D01*
D23*
X113000000Y-110800000D02*
X113000000Y-102600000D01*
X97220000Y-106840000D02*
X97220000Y-108380000D01*
X97220000Y-108380000D02*
X97200000Y-108400000D01*
X97220000Y-104300000D02*
X100300000Y-104300000D01*
X100300000Y-104300000D02*
X100800000Y-104800000D01*
X100800000Y-104800000D02*
X100800000Y-108400000D01*
X101600000Y-108400000D02*
X100800000Y-108400000D01*
X100800000Y-108400000D02*
X99800000Y-108400000D01*
X99800000Y-108400000D02*
X98465000Y-109735000D01*
X98465000Y-109735000D02*
X98465000Y-115570000D01*
X96400000Y-111600000D02*
X97200000Y-111600000D01*
X95000000Y-110200000D02*
X96400000Y-111600000D01*
X92180000Y-104300000D02*
X93180000Y-104300000D01*
X93180000Y-104300000D02*
X95000000Y-106120000D01*
X95000000Y-106120000D02*
X95000000Y-110200000D01*
D22*
X123065000Y-104200000D02*
X121200000Y-104200000D01*
X121200000Y-104200000D02*
X121200000Y-121495000D01*
X114380000Y-128315000D02*
X114380000Y-129800000D01*
X121200000Y-121495000D02*
X114380000Y-128315000D01*
X127380000Y-95900000D02*
X130600000Y-95900000D01*
X130600000Y-95900000D02*
X138400000Y-103700000D01*
X138400000Y-103700000D02*
X138400000Y-112700000D01*
X136250000Y-114850000D02*
X136250000Y-115800000D01*
X138400000Y-112700000D02*
X136250000Y-114850000D01*
X136200000Y-114900000D02*
X136200000Y-115750000D01*
X136200000Y-115750000D02*
X136250000Y-115800000D01*
X124840000Y-95900000D02*
X124840000Y-97740000D01*
X124840000Y-97740000D02*
X130800000Y-103700000D01*
X131700000Y-115800000D02*
X133750000Y-115800000D01*
X130800000Y-103700000D02*
X130800000Y-114900000D01*
X130800000Y-114900000D02*
X131700000Y-115800000D01*
D24*
G36*
X137838469Y-93721590D02*
X137575300Y-94355371D01*
X137574701Y-95041618D01*
X137836763Y-95675858D01*
X138321590Y-96161531D01*
X138955371Y-96424700D01*
X139641618Y-96425299D01*
X140275858Y-96163237D01*
X140600000Y-95839660D01*
X140600000Y-129860620D01*
X140278410Y-129538469D01*
X139644629Y-129275300D01*
X138958382Y-129274701D01*
X138324142Y-129536763D01*
X137838469Y-130021590D01*
X137575300Y-130655371D01*
X137574701Y-131341618D01*
X137836763Y-131975858D01*
X138160340Y-132300000D01*
X108125000Y-132300000D01*
X108125000Y-130674302D01*
X108257017Y-130871880D01*
X108735542Y-131191619D01*
X109300000Y-131303897D01*
X109864458Y-131191619D01*
X110342983Y-130871880D01*
X110570000Y-130532124D01*
X110797017Y-130871880D01*
X111275542Y-131191619D01*
X111840000Y-131303897D01*
X112404458Y-131191619D01*
X112882983Y-130871880D01*
X112923185Y-130811714D01*
X112936337Y-130881611D01*
X113073219Y-131094332D01*
X113282076Y-131237038D01*
X113530000Y-131287244D01*
X115230000Y-131287244D01*
X115461611Y-131243663D01*
X115674332Y-131106781D01*
X115817038Y-130897924D01*
X115867244Y-130650000D01*
X115867244Y-128950000D01*
X115823663Y-128718389D01*
X115686781Y-128505668D01*
X115589023Y-128438873D01*
X117902896Y-126125000D01*
X121087756Y-126125000D01*
X121087756Y-127475000D01*
X121131337Y-127706611D01*
X121268219Y-127919332D01*
X121477076Y-128062038D01*
X121725000Y-128112244D01*
X123075000Y-128112244D01*
X123306611Y-128068663D01*
X123519332Y-127931781D01*
X123594999Y-127821039D01*
X123902512Y-128026512D01*
X124400000Y-128125469D01*
X124897488Y-128026512D01*
X125319239Y-127744708D01*
X125601043Y-127322957D01*
X125700000Y-126825469D01*
X125700000Y-126774531D01*
X125601043Y-126277043D01*
X125499452Y-126125000D01*
X129087756Y-126125000D01*
X129087756Y-127475000D01*
X129131337Y-127706611D01*
X129268219Y-127919332D01*
X129477076Y-128062038D01*
X129725000Y-128112244D01*
X131075000Y-128112244D01*
X131306611Y-128068663D01*
X131519332Y-127931781D01*
X131607959Y-127802071D01*
X131740540Y-127920330D01*
X132074117Y-128058491D01*
X132275000Y-127936899D01*
X132275000Y-126925000D01*
X132525000Y-126925000D01*
X132525000Y-127936899D01*
X132725883Y-128058491D01*
X133059460Y-127920330D01*
X133437993Y-127582686D01*
X133658502Y-127125885D01*
X133537737Y-126925000D01*
X132525000Y-126925000D01*
X132275000Y-126925000D01*
X132255000Y-126925000D01*
X132255000Y-126675000D01*
X132275000Y-126675000D01*
X132275000Y-125663101D01*
X132525000Y-125663101D01*
X132525000Y-126675000D01*
X133537737Y-126675000D01*
X133658502Y-126474115D01*
X133437993Y-126017314D01*
X133059460Y-125679670D01*
X132725883Y-125541509D01*
X132525000Y-125663101D01*
X132275000Y-125663101D01*
X132074117Y-125541509D01*
X131740540Y-125679670D01*
X131607500Y-125798339D01*
X131531781Y-125680668D01*
X131322924Y-125537962D01*
X131075000Y-125487756D01*
X129725000Y-125487756D01*
X129493389Y-125531337D01*
X129280668Y-125668219D01*
X129137962Y-125877076D01*
X129087756Y-126125000D01*
X125499452Y-126125000D01*
X125319239Y-125855292D01*
X124897488Y-125573488D01*
X124400000Y-125474531D01*
X123902512Y-125573488D01*
X123595021Y-125778946D01*
X123531781Y-125680668D01*
X123322924Y-125537962D01*
X123075000Y-125487756D01*
X121725000Y-125487756D01*
X121493389Y-125531337D01*
X121280668Y-125668219D01*
X121137962Y-125877076D01*
X121087756Y-126125000D01*
X117902896Y-126125000D01*
X121866448Y-122161448D01*
X122070756Y-121855679D01*
X122142500Y-121495000D01*
X122142500Y-120241618D01*
X133274701Y-120241618D01*
X133536763Y-120875858D01*
X134021590Y-121361531D01*
X134655371Y-121624700D01*
X135341618Y-121625299D01*
X135975858Y-121363237D01*
X136461531Y-120878410D01*
X136724700Y-120244629D01*
X136725299Y-119558382D01*
X136463237Y-118924142D01*
X135978410Y-118438469D01*
X135344629Y-118175300D01*
X134658382Y-118174701D01*
X134024142Y-118436763D01*
X133538469Y-118921590D01*
X133275300Y-119555371D01*
X133274701Y-120241618D01*
X122142500Y-120241618D01*
X122142500Y-105142500D01*
X123064177Y-105142500D01*
X123251652Y-105142664D01*
X123598186Y-104999479D01*
X123863547Y-104734581D01*
X124007336Y-104388297D01*
X124007664Y-104013348D01*
X123864479Y-103666814D01*
X123599581Y-103401453D01*
X123253297Y-103257664D01*
X122878348Y-103257336D01*
X122877951Y-103257500D01*
X121200000Y-103257500D01*
X120839321Y-103329244D01*
X120533552Y-103533552D01*
X120329244Y-103839321D01*
X120257500Y-104200000D01*
X120257500Y-121104604D01*
X113713552Y-127648552D01*
X113509244Y-127954321D01*
X113437500Y-128315000D01*
X113437500Y-128330161D01*
X113298389Y-128356337D01*
X113085668Y-128493219D01*
X112942962Y-128702076D01*
X112924965Y-128790950D01*
X112882983Y-128728120D01*
X112404458Y-128408381D01*
X111840000Y-128296103D01*
X111275542Y-128408381D01*
X110797017Y-128728120D01*
X110570000Y-129067876D01*
X110342983Y-128728120D01*
X109864458Y-128408381D01*
X109300000Y-128296103D01*
X108735542Y-128408381D01*
X108257017Y-128728120D01*
X108125000Y-128925698D01*
X108125000Y-125000000D01*
X108116451Y-124954568D01*
X108089601Y-124912841D01*
X108048632Y-124884848D01*
X108000000Y-124875000D01*
X88800000Y-124875000D01*
X88800000Y-100800000D01*
X88957500Y-100800000D01*
X88957500Y-105560000D01*
X89029244Y-105920679D01*
X89233552Y-106226448D01*
X90042756Y-107035652D01*
X90042756Y-107340000D01*
X90086337Y-107571611D01*
X90223219Y-107784332D01*
X90432076Y-107927038D01*
X90680000Y-107977244D01*
X93680000Y-107977244D01*
X93911611Y-107933663D01*
X94124332Y-107796781D01*
X94171800Y-107727309D01*
X94171800Y-110200000D01*
X94234843Y-110516939D01*
X94414374Y-110785626D01*
X95814374Y-112185626D01*
X96083061Y-112365157D01*
X96400000Y-112428200D01*
X96736832Y-112428200D01*
X97011703Y-112542336D01*
X97386652Y-112542664D01*
X97636800Y-112439305D01*
X97636800Y-113202420D01*
X97625519Y-113194882D01*
X97195000Y-113109246D01*
X96764481Y-113194882D01*
X96560000Y-113331512D01*
X96355519Y-113194882D01*
X95925000Y-113109246D01*
X95494481Y-113194882D01*
X95290000Y-113331512D01*
X95085519Y-113194882D01*
X94655000Y-113109246D01*
X94224481Y-113194882D01*
X93859505Y-113438751D01*
X93615636Y-113803727D01*
X93530000Y-114234246D01*
X93530000Y-115705754D01*
X93615636Y-116136273D01*
X93859505Y-116501249D01*
X94224481Y-116745118D01*
X94655000Y-116830754D01*
X95085519Y-116745118D01*
X95290000Y-116608488D01*
X95494481Y-116745118D01*
X95925000Y-116830754D01*
X96355519Y-116745118D01*
X96560000Y-116608488D01*
X96764481Y-116745118D01*
X97195000Y-116830754D01*
X97625519Y-116745118D01*
X97830000Y-116608488D01*
X98034481Y-116745118D01*
X98465000Y-116830754D01*
X98895519Y-116745118D01*
X99100000Y-116608488D01*
X99304481Y-116745118D01*
X99735000Y-116830754D01*
X100165519Y-116745118D01*
X100370000Y-116608488D01*
X100574481Y-116745118D01*
X101005000Y-116830754D01*
X101435519Y-116745118D01*
X101640000Y-116608488D01*
X101844481Y-116745118D01*
X102275000Y-116830754D01*
X102705519Y-116745118D01*
X102926538Y-116597438D01*
X103246640Y-116754715D01*
X103420000Y-116630652D01*
X103420000Y-115095000D01*
X103670000Y-115095000D01*
X103670000Y-116630652D01*
X103843360Y-116754715D01*
X104252107Y-116553884D01*
X104536529Y-116216004D01*
X104670000Y-115795000D01*
X104670000Y-115095000D01*
X103670000Y-115095000D01*
X103420000Y-115095000D01*
X103400000Y-115095000D01*
X103400000Y-114845000D01*
X103420000Y-114845000D01*
X103420000Y-114825000D01*
X103670000Y-114825000D01*
X103670000Y-114845000D01*
X104670000Y-114845000D01*
X104670000Y-114145000D01*
X104536529Y-113723996D01*
X104467927Y-113642500D01*
X107057462Y-113642500D01*
X107057336Y-113786652D01*
X107200521Y-114133186D01*
X107465419Y-114398547D01*
X107811703Y-114542336D01*
X108186652Y-114542664D01*
X108533186Y-114399479D01*
X108798547Y-114134581D01*
X108942336Y-113788297D01*
X108942464Y-113642500D01*
X118999177Y-113642500D01*
X119186652Y-113642664D01*
X119533186Y-113499479D01*
X119798547Y-113234581D01*
X119942336Y-112888297D01*
X119942664Y-112513348D01*
X119799479Y-112166814D01*
X119534581Y-111901453D01*
X119188297Y-111757664D01*
X118813348Y-111757336D01*
X118812951Y-111757500D01*
X114772077Y-111757500D01*
X114842336Y-111588297D01*
X114842664Y-111213348D01*
X114728200Y-110936324D01*
X114728200Y-103563168D01*
X114842336Y-103288297D01*
X114842664Y-102913348D01*
X114699479Y-102566814D01*
X114434581Y-102301453D01*
X114088297Y-102157664D01*
X113836927Y-102157444D01*
X113799479Y-102066814D01*
X113749090Y-102016337D01*
X113811703Y-102042336D01*
X114186652Y-102042664D01*
X114533186Y-101899479D01*
X114798547Y-101634581D01*
X114942336Y-101288297D01*
X114942664Y-100913348D01*
X114799479Y-100566814D01*
X114534581Y-100301453D01*
X114534184Y-100301288D01*
X111203701Y-96970805D01*
X111430000Y-96632124D01*
X111657017Y-96971880D01*
X112135542Y-97291619D01*
X112700000Y-97403897D01*
X113264458Y-97291619D01*
X113742983Y-96971880D01*
X114062722Y-96493355D01*
X114124803Y-96181250D01*
X120825000Y-96181250D01*
X120825000Y-96874320D01*
X120920150Y-97104034D01*
X121095966Y-97279849D01*
X121325680Y-97375000D01*
X122018750Y-97375000D01*
X122175000Y-97218750D01*
X122175000Y-96025000D01*
X120981250Y-96025000D01*
X120825000Y-96181250D01*
X114124803Y-96181250D01*
X114175000Y-95928897D01*
X114175000Y-95871103D01*
X114062722Y-95306645D01*
X113808171Y-94925680D01*
X120825000Y-94925680D01*
X120825000Y-95618750D01*
X120981250Y-95775000D01*
X122175000Y-95775000D01*
X122175000Y-94581250D01*
X122425000Y-94581250D01*
X122425000Y-95775000D01*
X122445000Y-95775000D01*
X122445000Y-96025000D01*
X122425000Y-96025000D01*
X122425000Y-97218750D01*
X122581250Y-97375000D01*
X123274320Y-97375000D01*
X123504034Y-97279849D01*
X123679850Y-97104034D01*
X123758479Y-96914204D01*
X123797017Y-96971880D01*
X123897500Y-97039020D01*
X123897500Y-97740000D01*
X123969244Y-98100679D01*
X124173552Y-98406448D01*
X129857500Y-104090396D01*
X129857500Y-114900000D01*
X129929244Y-115260679D01*
X130133552Y-115566448D01*
X131033552Y-116466448D01*
X131339321Y-116670756D01*
X131700000Y-116742500D01*
X132441668Y-116742500D01*
X132600951Y-116980885D01*
X133128139Y-117333140D01*
X133750000Y-117456836D01*
X134371861Y-117333140D01*
X134706489Y-117109549D01*
X134793219Y-117244332D01*
X135002076Y-117387038D01*
X135250000Y-117437244D01*
X137250000Y-117437244D01*
X137481611Y-117393663D01*
X137694332Y-117256781D01*
X137837038Y-117047924D01*
X137887244Y-116800000D01*
X137887244Y-114800000D01*
X137846964Y-114585932D01*
X139066448Y-113366448D01*
X139270756Y-113060679D01*
X139342500Y-112700000D01*
X139342500Y-103700000D01*
X139270756Y-103339321D01*
X139066448Y-103033552D01*
X131266448Y-95233552D01*
X130960679Y-95029244D01*
X130600000Y-94957500D01*
X128509432Y-94957500D01*
X128422983Y-94828120D01*
X127944458Y-94508381D01*
X127380000Y-94396103D01*
X126815542Y-94508381D01*
X126337017Y-94828120D01*
X126110000Y-95167876D01*
X125882983Y-94828120D01*
X125404458Y-94508381D01*
X124840000Y-94396103D01*
X124275542Y-94508381D01*
X123797017Y-94828120D01*
X123758479Y-94885796D01*
X123679850Y-94695966D01*
X123504034Y-94520151D01*
X123274320Y-94425000D01*
X122581250Y-94425000D01*
X122425000Y-94581250D01*
X122175000Y-94581250D01*
X122018750Y-94425000D01*
X121325680Y-94425000D01*
X121095966Y-94520151D01*
X120920150Y-94695966D01*
X120825000Y-94925680D01*
X113808171Y-94925680D01*
X113742983Y-94828120D01*
X113264458Y-94508381D01*
X112700000Y-94396103D01*
X112135542Y-94508381D01*
X111657017Y-94828120D01*
X111430000Y-95167876D01*
X111202983Y-94828120D01*
X110724458Y-94508381D01*
X110160000Y-94396103D01*
X109595542Y-94508381D01*
X109117017Y-94828120D01*
X108890000Y-95167876D01*
X108662983Y-94828120D01*
X108184458Y-94508381D01*
X107620000Y-94396103D01*
X107055542Y-94508381D01*
X106577017Y-94828120D01*
X106350000Y-95167876D01*
X106122983Y-94828120D01*
X105644458Y-94508381D01*
X105080000Y-94396103D01*
X104515542Y-94508381D01*
X104037017Y-94828120D01*
X103800915Y-95181473D01*
X103727815Y-95025503D01*
X103302742Y-94637513D01*
X102893372Y-94467955D01*
X102665000Y-94587188D01*
X102665000Y-95775000D01*
X102685000Y-95775000D01*
X102685000Y-96025000D01*
X102665000Y-96025000D01*
X102665000Y-97212812D01*
X102893372Y-97332045D01*
X103302742Y-97162487D01*
X103727815Y-96774497D01*
X103800915Y-96618527D01*
X104037017Y-96971880D01*
X104137500Y-97039020D01*
X104137500Y-97229604D01*
X103709604Y-97657500D01*
X92100000Y-97657500D01*
X91739321Y-97729244D01*
X91433552Y-97933552D01*
X89233552Y-100133552D01*
X89029244Y-100439321D01*
X88957500Y-100800000D01*
X88800000Y-100800000D01*
X88800000Y-95839380D01*
X89121590Y-96161531D01*
X89755371Y-96424700D01*
X90441618Y-96425299D01*
X91032263Y-96181250D01*
X98525000Y-96181250D01*
X98525000Y-96874320D01*
X98620150Y-97104034D01*
X98795966Y-97279849D01*
X99025680Y-97375000D01*
X99718750Y-97375000D01*
X99875000Y-97218750D01*
X99875000Y-96025000D01*
X100125000Y-96025000D01*
X100125000Y-97218750D01*
X100281250Y-97375000D01*
X100974320Y-97375000D01*
X101204034Y-97279849D01*
X101379850Y-97104034D01*
X101471310Y-96883229D01*
X101777258Y-97162487D01*
X102186628Y-97332045D01*
X102415000Y-97212812D01*
X102415000Y-96025000D01*
X100125000Y-96025000D01*
X99875000Y-96025000D01*
X98681250Y-96025000D01*
X98525000Y-96181250D01*
X91032263Y-96181250D01*
X91075858Y-96163237D01*
X91561531Y-95678410D01*
X91824700Y-95044629D01*
X91824803Y-94925680D01*
X98525000Y-94925680D01*
X98525000Y-95618750D01*
X98681250Y-95775000D01*
X99875000Y-95775000D01*
X99875000Y-94581250D01*
X100125000Y-94581250D01*
X100125000Y-95775000D01*
X102415000Y-95775000D01*
X102415000Y-94587188D01*
X102186628Y-94467955D01*
X101777258Y-94637513D01*
X101471310Y-94916771D01*
X101379850Y-94695966D01*
X101204034Y-94520151D01*
X100974320Y-94425000D01*
X100281250Y-94425000D01*
X100125000Y-94581250D01*
X99875000Y-94581250D01*
X99718750Y-94425000D01*
X99025680Y-94425000D01*
X98795966Y-94520151D01*
X98620150Y-94695966D01*
X98525000Y-94925680D01*
X91824803Y-94925680D01*
X91825299Y-94358382D01*
X91563237Y-93724142D01*
X91239660Y-93400000D01*
X138160620Y-93400000D01*
X137838469Y-93721590D01*
X137838469Y-93721590D01*
G37*
X137838469Y-93721590D02*
X137575300Y-94355371D01*
X137574701Y-95041618D01*
X137836763Y-95675858D01*
X138321590Y-96161531D01*
X138955371Y-96424700D01*
X139641618Y-96425299D01*
X140275858Y-96163237D01*
X140600000Y-95839660D01*
X140600000Y-129860620D01*
X140278410Y-129538469D01*
X139644629Y-129275300D01*
X138958382Y-129274701D01*
X138324142Y-129536763D01*
X137838469Y-130021590D01*
X137575300Y-130655371D01*
X137574701Y-131341618D01*
X137836763Y-131975858D01*
X138160340Y-132300000D01*
X108125000Y-132300000D01*
X108125000Y-130674302D01*
X108257017Y-130871880D01*
X108735542Y-131191619D01*
X109300000Y-131303897D01*
X109864458Y-131191619D01*
X110342983Y-130871880D01*
X110570000Y-130532124D01*
X110797017Y-130871880D01*
X111275542Y-131191619D01*
X111840000Y-131303897D01*
X112404458Y-131191619D01*
X112882983Y-130871880D01*
X112923185Y-130811714D01*
X112936337Y-130881611D01*
X113073219Y-131094332D01*
X113282076Y-131237038D01*
X113530000Y-131287244D01*
X115230000Y-131287244D01*
X115461611Y-131243663D01*
X115674332Y-131106781D01*
X115817038Y-130897924D01*
X115867244Y-130650000D01*
X115867244Y-128950000D01*
X115823663Y-128718389D01*
X115686781Y-128505668D01*
X115589023Y-128438873D01*
X117902896Y-126125000D01*
X121087756Y-126125000D01*
X121087756Y-127475000D01*
X121131337Y-127706611D01*
X121268219Y-127919332D01*
X121477076Y-128062038D01*
X121725000Y-128112244D01*
X123075000Y-128112244D01*
X123306611Y-128068663D01*
X123519332Y-127931781D01*
X123594999Y-127821039D01*
X123902512Y-128026512D01*
X124400000Y-128125469D01*
X124897488Y-128026512D01*
X125319239Y-127744708D01*
X125601043Y-127322957D01*
X125700000Y-126825469D01*
X125700000Y-126774531D01*
X125601043Y-126277043D01*
X125499452Y-126125000D01*
X129087756Y-126125000D01*
X129087756Y-127475000D01*
X129131337Y-127706611D01*
X129268219Y-127919332D01*
X129477076Y-128062038D01*
X129725000Y-128112244D01*
X131075000Y-128112244D01*
X131306611Y-128068663D01*
X131519332Y-127931781D01*
X131607959Y-127802071D01*
X131740540Y-127920330D01*
X132074117Y-128058491D01*
X132275000Y-127936899D01*
X132275000Y-126925000D01*
X132525000Y-126925000D01*
X132525000Y-127936899D01*
X132725883Y-128058491D01*
X133059460Y-127920330D01*
X133437993Y-127582686D01*
X133658502Y-127125885D01*
X133537737Y-126925000D01*
X132525000Y-126925000D01*
X132275000Y-126925000D01*
X132255000Y-126925000D01*
X132255000Y-126675000D01*
X132275000Y-126675000D01*
X132275000Y-125663101D01*
X132525000Y-125663101D01*
X132525000Y-126675000D01*
X133537737Y-126675000D01*
X133658502Y-126474115D01*
X133437993Y-126017314D01*
X133059460Y-125679670D01*
X132725883Y-125541509D01*
X132525000Y-125663101D01*
X132275000Y-125663101D01*
X132074117Y-125541509D01*
X131740540Y-125679670D01*
X131607500Y-125798339D01*
X131531781Y-125680668D01*
X131322924Y-125537962D01*
X131075000Y-125487756D01*
X129725000Y-125487756D01*
X129493389Y-125531337D01*
X129280668Y-125668219D01*
X129137962Y-125877076D01*
X129087756Y-126125000D01*
X125499452Y-126125000D01*
X125319239Y-125855292D01*
X124897488Y-125573488D01*
X124400000Y-125474531D01*
X123902512Y-125573488D01*
X123595021Y-125778946D01*
X123531781Y-125680668D01*
X123322924Y-125537962D01*
X123075000Y-125487756D01*
X121725000Y-125487756D01*
X121493389Y-125531337D01*
X121280668Y-125668219D01*
X121137962Y-125877076D01*
X121087756Y-126125000D01*
X117902896Y-126125000D01*
X121866448Y-122161448D01*
X122070756Y-121855679D01*
X122142500Y-121495000D01*
X122142500Y-120241618D01*
X133274701Y-120241618D01*
X133536763Y-120875858D01*
X134021590Y-121361531D01*
X134655371Y-121624700D01*
X135341618Y-121625299D01*
X135975858Y-121363237D01*
X136461531Y-120878410D01*
X136724700Y-120244629D01*
X136725299Y-119558382D01*
X136463237Y-118924142D01*
X135978410Y-118438469D01*
X135344629Y-118175300D01*
X134658382Y-118174701D01*
X134024142Y-118436763D01*
X133538469Y-118921590D01*
X133275300Y-119555371D01*
X133274701Y-120241618D01*
X122142500Y-120241618D01*
X122142500Y-105142500D01*
X123064177Y-105142500D01*
X123251652Y-105142664D01*
X123598186Y-104999479D01*
X123863547Y-104734581D01*
X124007336Y-104388297D01*
X124007664Y-104013348D01*
X123864479Y-103666814D01*
X123599581Y-103401453D01*
X123253297Y-103257664D01*
X122878348Y-103257336D01*
X122877951Y-103257500D01*
X121200000Y-103257500D01*
X120839321Y-103329244D01*
X120533552Y-103533552D01*
X120329244Y-103839321D01*
X120257500Y-104200000D01*
X120257500Y-121104604D01*
X113713552Y-127648552D01*
X113509244Y-127954321D01*
X113437500Y-128315000D01*
X113437500Y-128330161D01*
X113298389Y-128356337D01*
X113085668Y-128493219D01*
X112942962Y-128702076D01*
X112924965Y-128790950D01*
X112882983Y-128728120D01*
X112404458Y-128408381D01*
X111840000Y-128296103D01*
X111275542Y-128408381D01*
X110797017Y-128728120D01*
X110570000Y-129067876D01*
X110342983Y-128728120D01*
X109864458Y-128408381D01*
X109300000Y-128296103D01*
X108735542Y-128408381D01*
X108257017Y-128728120D01*
X108125000Y-128925698D01*
X108125000Y-125000000D01*
X108116451Y-124954568D01*
X108089601Y-124912841D01*
X108048632Y-124884848D01*
X108000000Y-124875000D01*
X88800000Y-124875000D01*
X88800000Y-100800000D01*
X88957500Y-100800000D01*
X88957500Y-105560000D01*
X89029244Y-105920679D01*
X89233552Y-106226448D01*
X90042756Y-107035652D01*
X90042756Y-107340000D01*
X90086337Y-107571611D01*
X90223219Y-107784332D01*
X90432076Y-107927038D01*
X90680000Y-107977244D01*
X93680000Y-107977244D01*
X93911611Y-107933663D01*
X94124332Y-107796781D01*
X94171800Y-107727309D01*
X94171800Y-110200000D01*
X94234843Y-110516939D01*
X94414374Y-110785626D01*
X95814374Y-112185626D01*
X96083061Y-112365157D01*
X96400000Y-112428200D01*
X96736832Y-112428200D01*
X97011703Y-112542336D01*
X97386652Y-112542664D01*
X97636800Y-112439305D01*
X97636800Y-113202420D01*
X97625519Y-113194882D01*
X97195000Y-113109246D01*
X96764481Y-113194882D01*
X96560000Y-113331512D01*
X96355519Y-113194882D01*
X95925000Y-113109246D01*
X95494481Y-113194882D01*
X95290000Y-113331512D01*
X95085519Y-113194882D01*
X94655000Y-113109246D01*
X94224481Y-113194882D01*
X93859505Y-113438751D01*
X93615636Y-113803727D01*
X93530000Y-114234246D01*
X93530000Y-115705754D01*
X93615636Y-116136273D01*
X93859505Y-116501249D01*
X94224481Y-116745118D01*
X94655000Y-116830754D01*
X95085519Y-116745118D01*
X95290000Y-116608488D01*
X95494481Y-116745118D01*
X95925000Y-116830754D01*
X96355519Y-116745118D01*
X96560000Y-116608488D01*
X96764481Y-116745118D01*
X97195000Y-116830754D01*
X97625519Y-116745118D01*
X97830000Y-116608488D01*
X98034481Y-116745118D01*
X98465000Y-116830754D01*
X98895519Y-116745118D01*
X99100000Y-116608488D01*
X99304481Y-116745118D01*
X99735000Y-116830754D01*
X100165519Y-116745118D01*
X100370000Y-116608488D01*
X100574481Y-116745118D01*
X101005000Y-116830754D01*
X101435519Y-116745118D01*
X101640000Y-116608488D01*
X101844481Y-116745118D01*
X102275000Y-116830754D01*
X102705519Y-116745118D01*
X102926538Y-116597438D01*
X103246640Y-116754715D01*
X103420000Y-116630652D01*
X103420000Y-115095000D01*
X103670000Y-115095000D01*
X103670000Y-116630652D01*
X103843360Y-116754715D01*
X104252107Y-116553884D01*
X104536529Y-116216004D01*
X104670000Y-115795000D01*
X104670000Y-115095000D01*
X103670000Y-115095000D01*
X103420000Y-115095000D01*
X103400000Y-115095000D01*
X103400000Y-114845000D01*
X103420000Y-114845000D01*
X103420000Y-114825000D01*
X103670000Y-114825000D01*
X103670000Y-114845000D01*
X104670000Y-114845000D01*
X104670000Y-114145000D01*
X104536529Y-113723996D01*
X104467927Y-113642500D01*
X107057462Y-113642500D01*
X107057336Y-113786652D01*
X107200521Y-114133186D01*
X107465419Y-114398547D01*
X107811703Y-114542336D01*
X108186652Y-114542664D01*
X108533186Y-114399479D01*
X108798547Y-114134581D01*
X108942336Y-113788297D01*
X108942464Y-113642500D01*
X118999177Y-113642500D01*
X119186652Y-113642664D01*
X119533186Y-113499479D01*
X119798547Y-113234581D01*
X119942336Y-112888297D01*
X119942664Y-112513348D01*
X119799479Y-112166814D01*
X119534581Y-111901453D01*
X119188297Y-111757664D01*
X118813348Y-111757336D01*
X118812951Y-111757500D01*
X114772077Y-111757500D01*
X114842336Y-111588297D01*
X114842664Y-111213348D01*
X114728200Y-110936324D01*
X114728200Y-103563168D01*
X114842336Y-103288297D01*
X114842664Y-102913348D01*
X114699479Y-102566814D01*
X114434581Y-102301453D01*
X114088297Y-102157664D01*
X113836927Y-102157444D01*
X113799479Y-102066814D01*
X113749090Y-102016337D01*
X113811703Y-102042336D01*
X114186652Y-102042664D01*
X114533186Y-101899479D01*
X114798547Y-101634581D01*
X114942336Y-101288297D01*
X114942664Y-100913348D01*
X114799479Y-100566814D01*
X114534581Y-100301453D01*
X114534184Y-100301288D01*
X111203701Y-96970805D01*
X111430000Y-96632124D01*
X111657017Y-96971880D01*
X112135542Y-97291619D01*
X112700000Y-97403897D01*
X113264458Y-97291619D01*
X113742983Y-96971880D01*
X114062722Y-96493355D01*
X114124803Y-96181250D01*
X120825000Y-96181250D01*
X120825000Y-96874320D01*
X120920150Y-97104034D01*
X121095966Y-97279849D01*
X121325680Y-97375000D01*
X122018750Y-97375000D01*
X122175000Y-97218750D01*
X122175000Y-96025000D01*
X120981250Y-96025000D01*
X120825000Y-96181250D01*
X114124803Y-96181250D01*
X114175000Y-95928897D01*
X114175000Y-95871103D01*
X114062722Y-95306645D01*
X113808171Y-94925680D01*
X120825000Y-94925680D01*
X120825000Y-95618750D01*
X120981250Y-95775000D01*
X122175000Y-95775000D01*
X122175000Y-94581250D01*
X122425000Y-94581250D01*
X122425000Y-95775000D01*
X122445000Y-95775000D01*
X122445000Y-96025000D01*
X122425000Y-96025000D01*
X122425000Y-97218750D01*
X122581250Y-97375000D01*
X123274320Y-97375000D01*
X123504034Y-97279849D01*
X123679850Y-97104034D01*
X123758479Y-96914204D01*
X123797017Y-96971880D01*
X123897500Y-97039020D01*
X123897500Y-97740000D01*
X123969244Y-98100679D01*
X124173552Y-98406448D01*
X129857500Y-104090396D01*
X129857500Y-114900000D01*
X129929244Y-115260679D01*
X130133552Y-115566448D01*
X131033552Y-116466448D01*
X131339321Y-116670756D01*
X131700000Y-116742500D01*
X132441668Y-116742500D01*
X132600951Y-116980885D01*
X133128139Y-117333140D01*
X133750000Y-117456836D01*
X134371861Y-117333140D01*
X134706489Y-117109549D01*
X134793219Y-117244332D01*
X135002076Y-117387038D01*
X135250000Y-117437244D01*
X137250000Y-117437244D01*
X137481611Y-117393663D01*
X137694332Y-117256781D01*
X137837038Y-117047924D01*
X137887244Y-116800000D01*
X137887244Y-114800000D01*
X137846964Y-114585932D01*
X139066448Y-113366448D01*
X139270756Y-113060679D01*
X139342500Y-112700000D01*
X139342500Y-103700000D01*
X139270756Y-103339321D01*
X139066448Y-103033552D01*
X131266448Y-95233552D01*
X130960679Y-95029244D01*
X130600000Y-94957500D01*
X128509432Y-94957500D01*
X128422983Y-94828120D01*
X127944458Y-94508381D01*
X127380000Y-94396103D01*
X126815542Y-94508381D01*
X126337017Y-94828120D01*
X126110000Y-95167876D01*
X125882983Y-94828120D01*
X125404458Y-94508381D01*
X124840000Y-94396103D01*
X124275542Y-94508381D01*
X123797017Y-94828120D01*
X123758479Y-94885796D01*
X123679850Y-94695966D01*
X123504034Y-94520151D01*
X123274320Y-94425000D01*
X122581250Y-94425000D01*
X122425000Y-94581250D01*
X122175000Y-94581250D01*
X122018750Y-94425000D01*
X121325680Y-94425000D01*
X121095966Y-94520151D01*
X120920150Y-94695966D01*
X120825000Y-94925680D01*
X113808171Y-94925680D01*
X113742983Y-94828120D01*
X113264458Y-94508381D01*
X112700000Y-94396103D01*
X112135542Y-94508381D01*
X111657017Y-94828120D01*
X111430000Y-95167876D01*
X111202983Y-94828120D01*
X110724458Y-94508381D01*
X110160000Y-94396103D01*
X109595542Y-94508381D01*
X109117017Y-94828120D01*
X108890000Y-95167876D01*
X108662983Y-94828120D01*
X108184458Y-94508381D01*
X107620000Y-94396103D01*
X107055542Y-94508381D01*
X106577017Y-94828120D01*
X106350000Y-95167876D01*
X106122983Y-94828120D01*
X105644458Y-94508381D01*
X105080000Y-94396103D01*
X104515542Y-94508381D01*
X104037017Y-94828120D01*
X103800915Y-95181473D01*
X103727815Y-95025503D01*
X103302742Y-94637513D01*
X102893372Y-94467955D01*
X102665000Y-94587188D01*
X102665000Y-95775000D01*
X102685000Y-95775000D01*
X102685000Y-96025000D01*
X102665000Y-96025000D01*
X102665000Y-97212812D01*
X102893372Y-97332045D01*
X103302742Y-97162487D01*
X103727815Y-96774497D01*
X103800915Y-96618527D01*
X104037017Y-96971880D01*
X104137500Y-97039020D01*
X104137500Y-97229604D01*
X103709604Y-97657500D01*
X92100000Y-97657500D01*
X91739321Y-97729244D01*
X91433552Y-97933552D01*
X89233552Y-100133552D01*
X89029244Y-100439321D01*
X88957500Y-100800000D01*
X88800000Y-100800000D01*
X88800000Y-95839380D01*
X89121590Y-96161531D01*
X89755371Y-96424700D01*
X90441618Y-96425299D01*
X91032263Y-96181250D01*
X98525000Y-96181250D01*
X98525000Y-96874320D01*
X98620150Y-97104034D01*
X98795966Y-97279849D01*
X99025680Y-97375000D01*
X99718750Y-97375000D01*
X99875000Y-97218750D01*
X99875000Y-96025000D01*
X100125000Y-96025000D01*
X100125000Y-97218750D01*
X100281250Y-97375000D01*
X100974320Y-97375000D01*
X101204034Y-97279849D01*
X101379850Y-97104034D01*
X101471310Y-96883229D01*
X101777258Y-97162487D01*
X102186628Y-97332045D01*
X102415000Y-97212812D01*
X102415000Y-96025000D01*
X100125000Y-96025000D01*
X99875000Y-96025000D01*
X98681250Y-96025000D01*
X98525000Y-96181250D01*
X91032263Y-96181250D01*
X91075858Y-96163237D01*
X91561531Y-95678410D01*
X91824700Y-95044629D01*
X91824803Y-94925680D01*
X98525000Y-94925680D01*
X98525000Y-95618750D01*
X98681250Y-95775000D01*
X99875000Y-95775000D01*
X99875000Y-94581250D01*
X100125000Y-94581250D01*
X100125000Y-95775000D01*
X102415000Y-95775000D01*
X102415000Y-94587188D01*
X102186628Y-94467955D01*
X101777258Y-94637513D01*
X101471310Y-94916771D01*
X101379850Y-94695966D01*
X101204034Y-94520151D01*
X100974320Y-94425000D01*
X100281250Y-94425000D01*
X100125000Y-94581250D01*
X99875000Y-94581250D01*
X99718750Y-94425000D01*
X99025680Y-94425000D01*
X98795966Y-94520151D01*
X98620150Y-94695966D01*
X98525000Y-94925680D01*
X91824803Y-94925680D01*
X91825299Y-94358382D01*
X91563237Y-93724142D01*
X91239660Y-93400000D01*
X138160620Y-93400000D01*
X137838469Y-93721590D01*
G36*
X126337017Y-96971880D02*
X126815542Y-97291619D01*
X127380000Y-97403897D01*
X127944458Y-97291619D01*
X128422983Y-96971880D01*
X128509432Y-96842500D01*
X130209604Y-96842500D01*
X135342402Y-101975298D01*
X134658382Y-101974701D01*
X134024142Y-102236763D01*
X133538469Y-102721590D01*
X133275300Y-103355371D01*
X133274701Y-104041618D01*
X133536763Y-104675858D01*
X134021590Y-105161531D01*
X134655371Y-105424700D01*
X135341618Y-105425299D01*
X135975858Y-105163237D01*
X136461531Y-104678410D01*
X136724700Y-104044629D01*
X136725299Y-103358382D01*
X136725167Y-103358063D01*
X137457500Y-104090396D01*
X137457500Y-106706593D01*
X137399049Y-106619115D01*
X136871861Y-106266860D01*
X136250000Y-106143164D01*
X135628139Y-106266860D01*
X135100951Y-106619115D01*
X135000000Y-106770199D01*
X134899049Y-106619115D01*
X134371861Y-106266860D01*
X133750000Y-106143164D01*
X133128139Y-106266860D01*
X132600951Y-106619115D01*
X132248696Y-107146303D01*
X132125000Y-107768164D01*
X132125000Y-107831836D01*
X132248696Y-108453697D01*
X132600951Y-108980885D01*
X133128139Y-109333140D01*
X133750000Y-109456836D01*
X134371861Y-109333140D01*
X134899049Y-108980885D01*
X135000000Y-108829801D01*
X135100951Y-108980885D01*
X135628139Y-109333140D01*
X136250000Y-109456836D01*
X136871861Y-109333140D01*
X137399049Y-108980885D01*
X137457500Y-108893407D01*
X137457500Y-110706593D01*
X137399049Y-110619115D01*
X136871861Y-110266860D01*
X136250000Y-110143164D01*
X135628139Y-110266860D01*
X135100951Y-110619115D01*
X135000000Y-110770199D01*
X134899049Y-110619115D01*
X134371861Y-110266860D01*
X133750000Y-110143164D01*
X133128139Y-110266860D01*
X132600951Y-110619115D01*
X132248696Y-111146303D01*
X132125000Y-111768164D01*
X132125000Y-111831836D01*
X132248696Y-112453697D01*
X132600951Y-112980885D01*
X133128139Y-113333140D01*
X133750000Y-113456836D01*
X134371861Y-113333140D01*
X134899049Y-112980885D01*
X135000000Y-112829801D01*
X135100951Y-112980885D01*
X135628139Y-113333140D01*
X136250000Y-113456836D01*
X136325233Y-113441871D01*
X135604348Y-114162756D01*
X135250000Y-114162756D01*
X135018389Y-114206337D01*
X134805668Y-114343219D01*
X134705514Y-114489799D01*
X134371861Y-114266860D01*
X133750000Y-114143164D01*
X133128139Y-114266860D01*
X132600951Y-114619115D01*
X132441668Y-114857500D01*
X132090396Y-114857500D01*
X131742500Y-114509604D01*
X131742500Y-103700000D01*
X131670756Y-103339321D01*
X131466448Y-103033552D01*
X125782500Y-97349604D01*
X125782500Y-97039020D01*
X125882983Y-96971880D01*
X126110000Y-96632124D01*
X126337017Y-96971880D01*
X126337017Y-96971880D01*
G37*
X126337017Y-96971880D02*
X126815542Y-97291619D01*
X127380000Y-97403897D01*
X127944458Y-97291619D01*
X128422983Y-96971880D01*
X128509432Y-96842500D01*
X130209604Y-96842500D01*
X135342402Y-101975298D01*
X134658382Y-101974701D01*
X134024142Y-102236763D01*
X133538469Y-102721590D01*
X133275300Y-103355371D01*
X133274701Y-104041618D01*
X133536763Y-104675858D01*
X134021590Y-105161531D01*
X134655371Y-105424700D01*
X135341618Y-105425299D01*
X135975858Y-105163237D01*
X136461531Y-104678410D01*
X136724700Y-104044629D01*
X136725299Y-103358382D01*
X136725167Y-103358063D01*
X137457500Y-104090396D01*
X137457500Y-106706593D01*
X137399049Y-106619115D01*
X136871861Y-106266860D01*
X136250000Y-106143164D01*
X135628139Y-106266860D01*
X135100951Y-106619115D01*
X135000000Y-106770199D01*
X134899049Y-106619115D01*
X134371861Y-106266860D01*
X133750000Y-106143164D01*
X133128139Y-106266860D01*
X132600951Y-106619115D01*
X132248696Y-107146303D01*
X132125000Y-107768164D01*
X132125000Y-107831836D01*
X132248696Y-108453697D01*
X132600951Y-108980885D01*
X133128139Y-109333140D01*
X133750000Y-109456836D01*
X134371861Y-109333140D01*
X134899049Y-108980885D01*
X135000000Y-108829801D01*
X135100951Y-108980885D01*
X135628139Y-109333140D01*
X136250000Y-109456836D01*
X136871861Y-109333140D01*
X137399049Y-108980885D01*
X137457500Y-108893407D01*
X137457500Y-110706593D01*
X137399049Y-110619115D01*
X136871861Y-110266860D01*
X136250000Y-110143164D01*
X135628139Y-110266860D01*
X135100951Y-110619115D01*
X135000000Y-110770199D01*
X134899049Y-110619115D01*
X134371861Y-110266860D01*
X133750000Y-110143164D01*
X133128139Y-110266860D01*
X132600951Y-110619115D01*
X132248696Y-111146303D01*
X132125000Y-111768164D01*
X132125000Y-111831836D01*
X132248696Y-112453697D01*
X132600951Y-112980885D01*
X133128139Y-113333140D01*
X133750000Y-113456836D01*
X134371861Y-113333140D01*
X134899049Y-112980885D01*
X135000000Y-112829801D01*
X135100951Y-112980885D01*
X135628139Y-113333140D01*
X136250000Y-113456836D01*
X136325233Y-113441871D01*
X135604348Y-114162756D01*
X135250000Y-114162756D01*
X135018389Y-114206337D01*
X134805668Y-114343219D01*
X134705514Y-114489799D01*
X134371861Y-114266860D01*
X133750000Y-114143164D01*
X133128139Y-114266860D01*
X132600951Y-114619115D01*
X132441668Y-114857500D01*
X132090396Y-114857500D01*
X131742500Y-114509604D01*
X131742500Y-103700000D01*
X131670756Y-103339321D01*
X131466448Y-103033552D01*
X125782500Y-97349604D01*
X125782500Y-97039020D01*
X125882983Y-96971880D01*
X126110000Y-96632124D01*
X126337017Y-96971880D01*
G36*
X107066814Y-98600521D02*
X106801453Y-98865419D01*
X106657664Y-99211703D01*
X106657336Y-99586652D01*
X106800521Y-99933186D01*
X107065419Y-100198547D01*
X107411703Y-100342336D01*
X107786652Y-100342664D01*
X108063676Y-100228200D01*
X109836832Y-100228200D01*
X110111703Y-100342336D01*
X110486652Y-100342664D01*
X110833186Y-100199479D01*
X111098547Y-99934581D01*
X111216829Y-99649725D01*
X113250666Y-101683562D01*
X113188297Y-101657664D01*
X112813348Y-101657336D01*
X112466814Y-101800521D01*
X112201453Y-102065419D01*
X112057664Y-102411703D01*
X112057336Y-102786652D01*
X112171800Y-103063676D01*
X112171800Y-110336832D01*
X112057664Y-110611703D01*
X112057336Y-110986652D01*
X112200521Y-111333186D01*
X112465419Y-111598547D01*
X112811703Y-111742336D01*
X113021739Y-111742520D01*
X113027929Y-111757500D01*
X103217500Y-111757500D01*
X103217500Y-110315538D01*
X103145756Y-109954859D01*
X102941448Y-109649090D01*
X102312668Y-109020310D01*
X102398547Y-108934581D01*
X102542336Y-108588297D01*
X102542664Y-108213348D01*
X102399479Y-107866814D01*
X102134581Y-107601453D01*
X101788297Y-107457664D01*
X101628200Y-107457524D01*
X101628200Y-105225497D01*
X101933186Y-105099479D01*
X102198547Y-104834581D01*
X102342336Y-104488297D01*
X102342664Y-104113348D01*
X102342500Y-104112951D01*
X102342500Y-101690396D01*
X105470396Y-98562500D01*
X107158832Y-98562500D01*
X107066814Y-98600521D01*
X107066814Y-98600521D01*
G37*
X107066814Y-98600521D02*
X106801453Y-98865419D01*
X106657664Y-99211703D01*
X106657336Y-99586652D01*
X106800521Y-99933186D01*
X107065419Y-100198547D01*
X107411703Y-100342336D01*
X107786652Y-100342664D01*
X108063676Y-100228200D01*
X109836832Y-100228200D01*
X110111703Y-100342336D01*
X110486652Y-100342664D01*
X110833186Y-100199479D01*
X111098547Y-99934581D01*
X111216829Y-99649725D01*
X113250666Y-101683562D01*
X113188297Y-101657664D01*
X112813348Y-101657336D01*
X112466814Y-101800521D01*
X112201453Y-102065419D01*
X112057664Y-102411703D01*
X112057336Y-102786652D01*
X112171800Y-103063676D01*
X112171800Y-110336832D01*
X112057664Y-110611703D01*
X112057336Y-110986652D01*
X112200521Y-111333186D01*
X112465419Y-111598547D01*
X112811703Y-111742336D01*
X113021739Y-111742520D01*
X113027929Y-111757500D01*
X103217500Y-111757500D01*
X103217500Y-110315538D01*
X103145756Y-109954859D01*
X102941448Y-109649090D01*
X102312668Y-109020310D01*
X102398547Y-108934581D01*
X102542336Y-108588297D01*
X102542664Y-108213348D01*
X102399479Y-107866814D01*
X102134581Y-107601453D01*
X101788297Y-107457664D01*
X101628200Y-107457524D01*
X101628200Y-105225497D01*
X101933186Y-105099479D01*
X102198547Y-104834581D01*
X102342336Y-104488297D01*
X102342664Y-104113348D01*
X102342500Y-104112951D01*
X102342500Y-101690396D01*
X105470396Y-98562500D01*
X107158832Y-98562500D01*
X107066814Y-98600521D01*
G36*
X99971800Y-105143052D02*
X99971800Y-107571800D01*
X99800000Y-107571800D01*
X99483061Y-107634843D01*
X99214374Y-107814374D01*
X97879374Y-109149374D01*
X97699843Y-109418061D01*
X97699843Y-109418062D01*
X97636800Y-109735000D01*
X97636800Y-110760851D01*
X97388297Y-110657664D01*
X97013348Y-110657336D01*
X96741085Y-110769833D01*
X95828200Y-109856948D01*
X95828200Y-107977244D01*
X96355019Y-107977244D01*
X96257664Y-108211703D01*
X96257336Y-108586652D01*
X96400521Y-108933186D01*
X96665419Y-109198547D01*
X97011703Y-109342336D01*
X97386652Y-109342664D01*
X97733186Y-109199479D01*
X97998547Y-108934581D01*
X98142336Y-108588297D01*
X98142664Y-108213348D01*
X98048200Y-107984728D01*
X98048200Y-107977244D01*
X98720000Y-107977244D01*
X98951611Y-107933663D01*
X99164332Y-107796781D01*
X99307038Y-107587924D01*
X99357244Y-107340000D01*
X99357244Y-106340000D01*
X99313663Y-106108389D01*
X99176781Y-105895668D01*
X98967924Y-105752962D01*
X98720000Y-105702756D01*
X95720000Y-105702756D01*
X95700577Y-105706411D01*
X95585626Y-105534374D01*
X95365404Y-105314152D01*
X95472076Y-105387038D01*
X95720000Y-105437244D01*
X98720000Y-105437244D01*
X98951611Y-105393663D01*
X99164332Y-105256781D01*
X99252188Y-105128200D01*
X99956948Y-105128200D01*
X99971800Y-105143052D01*
X99971800Y-105143052D01*
G37*
X99971800Y-105143052D02*
X99971800Y-107571800D01*
X99800000Y-107571800D01*
X99483061Y-107634843D01*
X99214374Y-107814374D01*
X97879374Y-109149374D01*
X97699843Y-109418061D01*
X97699843Y-109418062D01*
X97636800Y-109735000D01*
X97636800Y-110760851D01*
X97388297Y-110657664D01*
X97013348Y-110657336D01*
X96741085Y-110769833D01*
X95828200Y-109856948D01*
X95828200Y-107977244D01*
X96355019Y-107977244D01*
X96257664Y-108211703D01*
X96257336Y-108586652D01*
X96400521Y-108933186D01*
X96665419Y-109198547D01*
X97011703Y-109342336D01*
X97386652Y-109342664D01*
X97733186Y-109199479D01*
X97998547Y-108934581D01*
X98142336Y-108588297D01*
X98142664Y-108213348D01*
X98048200Y-107984728D01*
X98048200Y-107977244D01*
X98720000Y-107977244D01*
X98951611Y-107933663D01*
X99164332Y-107796781D01*
X99307038Y-107587924D01*
X99357244Y-107340000D01*
X99357244Y-106340000D01*
X99313663Y-106108389D01*
X99176781Y-105895668D01*
X98967924Y-105752962D01*
X98720000Y-105702756D01*
X95720000Y-105702756D01*
X95700577Y-105706411D01*
X95585626Y-105534374D01*
X95365404Y-105314152D01*
X95472076Y-105387038D01*
X95720000Y-105437244D01*
X98720000Y-105437244D01*
X98951611Y-105393663D01*
X99164332Y-105256781D01*
X99252188Y-105128200D01*
X99956948Y-105128200D01*
X99971800Y-105143052D01*
G36*
X100733552Y-100633552D02*
X100529244Y-100939321D01*
X100457500Y-101300000D01*
X100457500Y-103503129D01*
X100300000Y-103471800D01*
X99251510Y-103471800D01*
X99176781Y-103355668D01*
X98967924Y-103212962D01*
X98720000Y-103162756D01*
X95720000Y-103162756D01*
X95488389Y-103206337D01*
X95275668Y-103343219D01*
X95132962Y-103552076D01*
X95082756Y-103800000D01*
X95082756Y-104800000D01*
X95126337Y-105031611D01*
X95204803Y-105153551D01*
X94317244Y-104265992D01*
X94317244Y-103800000D01*
X94273663Y-103568389D01*
X94136781Y-103355668D01*
X93927924Y-103212962D01*
X93680000Y-103162756D01*
X90842500Y-103162756D01*
X90842500Y-102885000D01*
X91898750Y-102885000D01*
X92055000Y-102728750D01*
X92055000Y-101885000D01*
X92305000Y-101885000D01*
X92305000Y-102728750D01*
X92461250Y-102885000D01*
X93804320Y-102885000D01*
X94034034Y-102789850D01*
X94209849Y-102614034D01*
X94305000Y-102384320D01*
X94305000Y-102041250D01*
X94148750Y-101885000D01*
X92305000Y-101885000D01*
X92055000Y-101885000D01*
X92035000Y-101885000D01*
X92035000Y-101635000D01*
X92055000Y-101635000D01*
X92055000Y-100791250D01*
X92305000Y-100791250D01*
X92305000Y-101635000D01*
X94148750Y-101635000D01*
X94305000Y-101478750D01*
X94305000Y-101260000D01*
X95082756Y-101260000D01*
X95082756Y-102260000D01*
X95126337Y-102491611D01*
X95263219Y-102704332D01*
X95472076Y-102847038D01*
X95720000Y-102897244D01*
X98720000Y-102897244D01*
X98951611Y-102853663D01*
X99164332Y-102716781D01*
X99307038Y-102507924D01*
X99357244Y-102260000D01*
X99357244Y-101260000D01*
X99313663Y-101028389D01*
X99176781Y-100815668D01*
X98967924Y-100672962D01*
X98720000Y-100622756D01*
X98144404Y-100622756D01*
X98019479Y-100320414D01*
X97754581Y-100055053D01*
X97408297Y-99911264D01*
X97033348Y-99910936D01*
X96686814Y-100054121D01*
X96421453Y-100319019D01*
X96295331Y-100622756D01*
X95720000Y-100622756D01*
X95488389Y-100666337D01*
X95275668Y-100803219D01*
X95132962Y-101012076D01*
X95082756Y-101260000D01*
X94305000Y-101260000D01*
X94305000Y-101135680D01*
X94209849Y-100905966D01*
X94034034Y-100730150D01*
X93804320Y-100635000D01*
X92461250Y-100635000D01*
X92305000Y-100791250D01*
X92055000Y-100791250D01*
X91898750Y-100635000D01*
X91397896Y-100635000D01*
X92490396Y-99542500D01*
X101824604Y-99542500D01*
X100733552Y-100633552D01*
X100733552Y-100633552D01*
G37*
X100733552Y-100633552D02*
X100529244Y-100939321D01*
X100457500Y-101300000D01*
X100457500Y-103503129D01*
X100300000Y-103471800D01*
X99251510Y-103471800D01*
X99176781Y-103355668D01*
X98967924Y-103212962D01*
X98720000Y-103162756D01*
X95720000Y-103162756D01*
X95488389Y-103206337D01*
X95275668Y-103343219D01*
X95132962Y-103552076D01*
X95082756Y-103800000D01*
X95082756Y-104800000D01*
X95126337Y-105031611D01*
X95204803Y-105153551D01*
X94317244Y-104265992D01*
X94317244Y-103800000D01*
X94273663Y-103568389D01*
X94136781Y-103355668D01*
X93927924Y-103212962D01*
X93680000Y-103162756D01*
X90842500Y-103162756D01*
X90842500Y-102885000D01*
X91898750Y-102885000D01*
X92055000Y-102728750D01*
X92055000Y-101885000D01*
X92305000Y-101885000D01*
X92305000Y-102728750D01*
X92461250Y-102885000D01*
X93804320Y-102885000D01*
X94034034Y-102789850D01*
X94209849Y-102614034D01*
X94305000Y-102384320D01*
X94305000Y-102041250D01*
X94148750Y-101885000D01*
X92305000Y-101885000D01*
X92055000Y-101885000D01*
X92035000Y-101885000D01*
X92035000Y-101635000D01*
X92055000Y-101635000D01*
X92055000Y-100791250D01*
X92305000Y-100791250D01*
X92305000Y-101635000D01*
X94148750Y-101635000D01*
X94305000Y-101478750D01*
X94305000Y-101260000D01*
X95082756Y-101260000D01*
X95082756Y-102260000D01*
X95126337Y-102491611D01*
X95263219Y-102704332D01*
X95472076Y-102847038D01*
X95720000Y-102897244D01*
X98720000Y-102897244D01*
X98951611Y-102853663D01*
X99164332Y-102716781D01*
X99307038Y-102507924D01*
X99357244Y-102260000D01*
X99357244Y-101260000D01*
X99313663Y-101028389D01*
X99176781Y-100815668D01*
X98967924Y-100672962D01*
X98720000Y-100622756D01*
X98144404Y-100622756D01*
X98019479Y-100320414D01*
X97754581Y-100055053D01*
X97408297Y-99911264D01*
X97033348Y-99910936D01*
X96686814Y-100054121D01*
X96421453Y-100319019D01*
X96295331Y-100622756D01*
X95720000Y-100622756D01*
X95488389Y-100666337D01*
X95275668Y-100803219D01*
X95132962Y-101012076D01*
X95082756Y-101260000D01*
X94305000Y-101260000D01*
X94305000Y-101135680D01*
X94209849Y-100905966D01*
X94034034Y-100730150D01*
X93804320Y-100635000D01*
X92461250Y-100635000D01*
X92305000Y-100791250D01*
X92055000Y-100791250D01*
X91898750Y-100635000D01*
X91397896Y-100635000D01*
X92490396Y-99542500D01*
X101824604Y-99542500D01*
X100733552Y-100633552D01*
M02*
