G04 #@! TF.FileFunction,Legend,Bot*
%FSLAX46Y46*%
G04 Gerber Fmt 4.6, Leading zero omitted, Abs format (unit mm)*
G04 Created by KiCad (PCBNEW 4.0.4-stable) date Friday, October 13, 2017 'PMt' 10:51:30 PM*
%MOMM*%
%LPD*%
G01*
G04 APERTURE LIST*
%ADD10C,0.100000*%
%ADD11C,0.200000*%
%ADD12C,0.180000*%
%ADD13C,0.120000*%
%ADD14C,0.010000*%
G04 APERTURE END LIST*
D10*
D11*
X100538095Y-83928571D02*
X101300000Y-83928571D01*
X100538095Y-85928571D02*
X101300000Y-85928571D01*
X100919048Y-85547619D02*
X100919048Y-86309524D01*
X100538095Y-75928571D02*
X101300000Y-75928571D01*
X100538095Y-77928571D02*
X101300000Y-77928571D01*
X100919048Y-77547619D02*
X100919048Y-78309524D01*
D12*
X91136812Y-68203177D02*
X90832057Y-68205304D01*
X91020667Y-67937315D02*
X91025454Y-68623012D01*
X90987892Y-68699467D01*
X90911968Y-68738093D01*
X90835780Y-68738625D01*
X90226271Y-68742881D02*
X90223346Y-68323843D01*
X90260908Y-68247389D01*
X90336830Y-68208762D01*
X90489207Y-68207698D01*
X90565662Y-68245261D01*
X90226005Y-68704786D02*
X90302459Y-68742349D01*
X90492931Y-68741019D01*
X90568854Y-68702393D01*
X90606416Y-68625938D01*
X90605884Y-68549750D01*
X90567258Y-68473826D01*
X90490803Y-68436264D01*
X90300332Y-68437594D01*
X90223878Y-68400032D01*
X89841604Y-68212219D02*
X89847189Y-69012200D01*
X89841870Y-68250314D02*
X89765415Y-68212751D01*
X89613038Y-68213815D01*
X89537116Y-68252442D01*
X89499287Y-68290802D01*
X89461724Y-68367256D01*
X89463320Y-68595822D01*
X89501947Y-68671745D01*
X89540307Y-68709574D01*
X89616761Y-68747136D01*
X89769138Y-68746072D01*
X89845062Y-68707446D01*
X89121535Y-68750593D02*
X89117812Y-68217272D01*
X89118876Y-68369649D02*
X89080250Y-68293727D01*
X89041889Y-68255899D01*
X88965434Y-68218336D01*
X88889245Y-68218868D01*
X88625777Y-68677861D02*
X88587949Y-68716222D01*
X88626309Y-68754051D01*
X88664137Y-68715691D01*
X88625777Y-68677861D01*
X88626309Y-68754051D01*
X88131083Y-68757508D02*
X88207006Y-68718882D01*
X88244835Y-68680521D01*
X88282397Y-68604067D01*
X88280801Y-68375500D01*
X88242175Y-68299578D01*
X88203815Y-68261750D01*
X88127360Y-68224187D01*
X88013077Y-68224985D01*
X87937154Y-68263612D01*
X87899326Y-68301972D01*
X87861763Y-68378426D01*
X87863359Y-68606992D01*
X87901986Y-68682915D01*
X87940346Y-68720744D01*
X88016800Y-68758306D01*
X88131083Y-68757508D01*
X87521574Y-68761763D02*
X87517851Y-68228442D01*
X87518915Y-68380819D02*
X87480289Y-68304897D01*
X87441928Y-68267069D01*
X87365473Y-68229506D01*
X87289284Y-68230038D01*
X86679776Y-68234293D02*
X86684297Y-68881896D01*
X86722923Y-68957820D01*
X86761283Y-68995648D01*
X86837738Y-69033210D01*
X86952021Y-69032412D01*
X87027944Y-68993786D01*
X86683234Y-68729520D02*
X86759688Y-68767082D01*
X86912065Y-68766018D01*
X86987988Y-68727392D01*
X87025816Y-68689031D01*
X87063378Y-68612577D01*
X87061783Y-68384011D01*
X87023157Y-68308089D01*
X86984797Y-68270261D01*
X86908342Y-68232697D01*
X86755964Y-68233761D01*
X86680042Y-68272388D01*
X85725290Y-67936188D02*
X86418169Y-68959947D01*
X85350198Y-68776923D02*
X85426121Y-68738297D01*
X85463949Y-68699936D01*
X85501511Y-68623481D01*
X85499916Y-68394915D01*
X85461290Y-68318993D01*
X85422930Y-68281165D01*
X85346475Y-68243602D01*
X85232191Y-68244399D01*
X85156269Y-68283026D01*
X85118441Y-68321386D01*
X85080878Y-68397840D01*
X85082474Y-68626407D01*
X85121101Y-68702329D01*
X85159461Y-68740158D01*
X85235915Y-68777720D01*
X85350198Y-68776923D01*
X84740689Y-68781178D02*
X84735104Y-67981197D01*
X84397840Y-68783571D02*
X84394915Y-68364534D01*
X84432477Y-68288079D01*
X84508399Y-68249452D01*
X84622682Y-68248655D01*
X84699137Y-68286218D01*
X84737497Y-68324046D01*
X83902613Y-68787029D02*
X83978536Y-68748403D01*
X84016099Y-68671948D01*
X84011311Y-67986250D01*
X94922376Y-76186731D02*
X94773722Y-76721116D01*
X94618685Y-76341236D01*
X94468968Y-76723244D01*
X94312867Y-76190987D01*
X94011837Y-76726435D02*
X94008113Y-76193114D01*
X94006252Y-75926455D02*
X94044612Y-75964283D01*
X94006784Y-76002643D01*
X93968424Y-75964815D01*
X94006252Y-75926455D01*
X94006784Y-76002643D01*
X93630894Y-76729095D02*
X93627171Y-76195774D01*
X93628235Y-76348151D02*
X93589609Y-76272229D01*
X93551248Y-76234401D01*
X93474793Y-76196838D01*
X93398604Y-76197369D01*
X92830648Y-76696586D02*
X92907102Y-76734148D01*
X93059479Y-76733084D01*
X93135402Y-76694458D01*
X93172964Y-76618003D01*
X93170837Y-76313248D01*
X93132211Y-76237326D01*
X93055756Y-76199763D01*
X92903378Y-76200827D01*
X92827456Y-76239454D01*
X92789894Y-76315908D01*
X92790426Y-76392097D01*
X93171901Y-76465626D01*
X92335688Y-76738137D02*
X92411611Y-76699511D01*
X92449173Y-76623056D01*
X92444386Y-75937359D01*
X91725913Y-76704298D02*
X91802367Y-76741861D01*
X91954744Y-76740797D01*
X92030667Y-76702171D01*
X92068229Y-76625716D01*
X92066102Y-76320961D01*
X92027476Y-76245039D01*
X91951021Y-76207476D01*
X91798643Y-76208540D01*
X91722721Y-76247166D01*
X91685159Y-76323621D01*
X91685691Y-76399810D01*
X92067165Y-76473338D01*
X91383064Y-76706692D02*
X91307142Y-76745318D01*
X91154764Y-76746382D01*
X91078309Y-76708820D01*
X91039683Y-76632896D01*
X91039417Y-76594802D01*
X91076980Y-76518347D01*
X91152903Y-76479721D01*
X91267185Y-76478923D01*
X91343108Y-76440297D01*
X91380670Y-76363842D01*
X91380404Y-76325748D01*
X91341778Y-76249826D01*
X91265323Y-76212263D01*
X91151041Y-76213061D01*
X91075118Y-76251688D01*
X90735461Y-76711213D02*
X90659538Y-76749839D01*
X90507161Y-76750903D01*
X90430706Y-76713341D01*
X90392080Y-76637418D01*
X90391814Y-76599323D01*
X90429376Y-76522868D01*
X90505300Y-76484242D01*
X90619582Y-76483445D01*
X90695505Y-76444819D01*
X90733067Y-76368363D01*
X90732801Y-76330269D01*
X90694175Y-76254347D01*
X90617720Y-76216784D01*
X90503438Y-76217582D01*
X90427515Y-76256209D01*
X89780443Y-76336918D02*
X90047104Y-76335057D01*
X90050029Y-76754094D02*
X90044444Y-75954114D01*
X89663501Y-75956773D01*
X89250049Y-76759679D02*
X89325972Y-76721053D01*
X89363534Y-76644598D01*
X89358747Y-75958901D01*
X88831011Y-76762605D02*
X88906934Y-76723979D01*
X88944762Y-76685618D01*
X88982325Y-76609164D01*
X88980729Y-76380597D01*
X88942103Y-76304675D01*
X88903743Y-76266847D01*
X88827288Y-76229284D01*
X88713005Y-76230082D01*
X88637082Y-76268709D01*
X88599254Y-76307069D01*
X88561691Y-76383523D01*
X88563287Y-76612089D01*
X88601914Y-76688011D01*
X88640274Y-76725841D01*
X88716728Y-76763403D01*
X88831011Y-76762605D01*
X88293967Y-76233007D02*
X88145313Y-76767392D01*
X87990276Y-76387512D01*
X87840558Y-76769520D01*
X87684458Y-76237262D01*
X87383427Y-76772711D02*
X87377842Y-75972731D01*
X87115171Y-76546006D01*
X86844521Y-75976454D01*
X86850106Y-76776434D01*
X86164143Y-76743127D02*
X86240597Y-76780690D01*
X86392974Y-76779626D01*
X86468898Y-76741000D01*
X86506460Y-76664545D01*
X86504332Y-76359790D01*
X86465706Y-76283868D01*
X86389251Y-76246305D01*
X86236874Y-76247369D01*
X86160952Y-76285996D01*
X86123389Y-76362450D01*
X86123921Y-76438639D01*
X86505396Y-76512167D01*
X85894026Y-76249762D02*
X85589272Y-76251890D01*
X85777881Y-75983901D02*
X85782668Y-76669598D01*
X85745106Y-76746053D01*
X85669183Y-76784679D01*
X85592995Y-76785211D01*
X85021314Y-76751106D02*
X85097768Y-76788668D01*
X85250145Y-76787604D01*
X85326069Y-76748978D01*
X85363631Y-76672523D01*
X85361503Y-76367769D01*
X85322877Y-76291847D01*
X85246422Y-76254283D01*
X85094045Y-76255347D01*
X85018123Y-76293974D01*
X84980560Y-76370428D01*
X84981092Y-76446617D01*
X85362567Y-76520146D01*
X84640637Y-76791860D02*
X84636914Y-76258539D01*
X84637978Y-76410916D02*
X84599352Y-76334994D01*
X84560991Y-76297166D01*
X84484537Y-76259602D01*
X84408347Y-76260134D01*
X83644600Y-75998794D02*
X83187468Y-76001985D01*
X83421619Y-76800370D02*
X83416034Y-76000390D01*
X83002581Y-76803296D02*
X82579821Y-76272900D01*
X82998858Y-76269975D02*
X82583544Y-76806221D01*
X81511318Y-76013687D02*
X81435129Y-76014219D01*
X81359207Y-76052845D01*
X81321379Y-76091205D01*
X81283816Y-76167660D01*
X81246785Y-76320304D01*
X81248115Y-76510775D01*
X81287273Y-76662886D01*
X81325900Y-76738808D01*
X81364260Y-76776638D01*
X81440714Y-76814200D01*
X81516903Y-76813668D01*
X81592825Y-76775042D01*
X81630655Y-76736681D01*
X81668217Y-76660227D01*
X81705247Y-76507583D01*
X81703917Y-76317112D01*
X81664759Y-76165001D01*
X81626133Y-76089078D01*
X81587772Y-76051249D01*
X81511318Y-76013687D01*
X80906862Y-76741734D02*
X80869034Y-76780095D01*
X80907394Y-76817923D01*
X80945222Y-76779563D01*
X80906862Y-76741734D01*
X80907394Y-76817923D01*
X80559492Y-76096524D02*
X80521132Y-76058696D01*
X80444677Y-76021134D01*
X80254206Y-76022464D01*
X80178284Y-76061090D01*
X80140455Y-76099450D01*
X80102892Y-76175905D01*
X80103424Y-76252093D01*
X80142316Y-76366110D01*
X80602640Y-76820051D01*
X80107414Y-76823508D01*
X95449742Y-78058334D02*
X95526196Y-78095896D01*
X95678573Y-78094832D01*
X95754497Y-78056206D01*
X95792325Y-78017845D01*
X95829887Y-77941391D01*
X95828291Y-77712825D01*
X95789665Y-77636903D01*
X95751305Y-77599074D01*
X95674850Y-77561511D01*
X95522473Y-77562575D01*
X95446551Y-77601202D01*
X94764311Y-78101215D02*
X94761385Y-77682177D01*
X94798947Y-77605723D01*
X94874870Y-77567096D01*
X95027247Y-77566033D01*
X95103702Y-77603596D01*
X94764045Y-78063121D02*
X94840499Y-78100683D01*
X95030970Y-78099354D01*
X95106893Y-78060728D01*
X95144456Y-77984272D01*
X95143924Y-77908084D01*
X95105298Y-77832161D01*
X95028843Y-77794599D01*
X94838371Y-77795929D01*
X94761917Y-77758367D01*
X94269084Y-78104673D02*
X94345007Y-78066047D01*
X94382569Y-77989591D01*
X94377782Y-77303894D01*
X93621215Y-78071100D02*
X93697669Y-78108662D01*
X93850046Y-78107598D01*
X93925969Y-78068972D01*
X93963797Y-78030611D01*
X94001359Y-77954157D01*
X93999764Y-77725591D01*
X93961138Y-77649668D01*
X93922778Y-77611840D01*
X93846323Y-77574277D01*
X93693945Y-77575341D01*
X93618023Y-77613968D01*
X93278632Y-78111587D02*
X93274909Y-77578266D01*
X93273047Y-77311607D02*
X93311407Y-77349435D01*
X93273579Y-77387795D01*
X93235219Y-77349967D01*
X93273047Y-77311607D01*
X93273579Y-77387795D01*
X92551117Y-77583319D02*
X92554841Y-78116640D01*
X92893966Y-77580926D02*
X92896891Y-77999964D01*
X92859329Y-78076419D01*
X92783406Y-78115045D01*
X92669123Y-78115843D01*
X92592669Y-78078280D01*
X92554309Y-78040451D01*
X92173897Y-78119300D02*
X92170173Y-77585979D01*
X92170705Y-77662168D02*
X92132345Y-77624340D01*
X92055890Y-77586777D01*
X91941607Y-77587575D01*
X91865685Y-77626202D01*
X91828123Y-77702656D01*
X91831048Y-78121694D01*
X91828123Y-77702656D02*
X91789496Y-77626734D01*
X91713042Y-77589170D01*
X91598758Y-77589968D01*
X91522836Y-77628595D01*
X91485274Y-77705049D01*
X91488200Y-78124087D01*
X91177859Y-77326234D02*
X90682633Y-77329692D01*
X90951421Y-77632585D01*
X90837138Y-77633382D01*
X90761216Y-77672008D01*
X90723387Y-77710368D01*
X90685824Y-77786823D01*
X90687154Y-77977295D01*
X90725780Y-78053217D01*
X90764141Y-78091046D01*
X90840595Y-78128608D01*
X91069162Y-78127013D01*
X91145084Y-78088387D01*
X91182912Y-78050026D01*
X90187407Y-77333149D02*
X90111218Y-77333681D01*
X90035296Y-77372307D01*
X89997468Y-77410667D01*
X89959904Y-77487122D01*
X89922874Y-77639765D01*
X89924204Y-77830237D01*
X89963362Y-77982348D01*
X90001989Y-78058270D01*
X90040349Y-78096099D01*
X90116803Y-78133661D01*
X90192992Y-78133130D01*
X90268914Y-78094504D01*
X90306743Y-78056143D01*
X90344306Y-77979688D01*
X90381336Y-77827045D01*
X90380006Y-77636574D01*
X90340848Y-77484462D01*
X90302222Y-77408539D01*
X90263861Y-77370711D01*
X90187407Y-77333149D01*
X89425521Y-77338468D02*
X89349332Y-77339000D01*
X89273409Y-77377626D01*
X89235581Y-77415986D01*
X89198018Y-77492441D01*
X89160988Y-77645084D01*
X89162318Y-77835556D01*
X89201475Y-77987667D01*
X89240102Y-78063589D01*
X89278462Y-78101418D01*
X89354917Y-78138980D01*
X89431106Y-78138449D01*
X89507028Y-78099823D01*
X89544857Y-78061462D01*
X89582419Y-77985007D01*
X89619449Y-77832364D01*
X89618120Y-77641893D01*
X89578962Y-77489782D01*
X89540336Y-77413858D01*
X89501975Y-77376030D01*
X89425521Y-77338468D01*
X88663634Y-77343787D02*
X88587445Y-77344319D01*
X88511523Y-77382945D01*
X88473695Y-77421305D01*
X88436132Y-77497760D01*
X88399101Y-77650403D01*
X88400431Y-77840875D01*
X88439589Y-77992986D01*
X88478216Y-78068908D01*
X88516576Y-78106737D01*
X88593030Y-78144300D01*
X88669219Y-78143768D01*
X88745141Y-78105142D01*
X88782971Y-78066781D01*
X88820533Y-77990327D01*
X88857563Y-77837683D01*
X88856233Y-77647212D01*
X88817075Y-77495101D01*
X88778449Y-77419177D01*
X88740088Y-77381349D01*
X88663634Y-77343787D01*
X88059178Y-78071834D02*
X88021350Y-78110195D01*
X88059710Y-78148023D01*
X88097538Y-78109663D01*
X88059178Y-78071834D01*
X88059710Y-78148023D01*
X87751232Y-77616829D02*
X87602578Y-78151214D01*
X87447541Y-77771334D01*
X87297824Y-78153342D01*
X87141723Y-77621085D01*
X86726410Y-78157331D02*
X86802333Y-78118705D01*
X86840161Y-78080344D01*
X86877723Y-78003890D01*
X86876127Y-77775324D01*
X86837501Y-77699401D01*
X86799141Y-77661573D01*
X86722686Y-77624010D01*
X86608403Y-77624808D01*
X86532481Y-77663435D01*
X86494653Y-77701795D01*
X86457090Y-77778249D01*
X86458685Y-78006816D01*
X86497312Y-78082738D01*
X86535672Y-78120567D01*
X86612126Y-78158129D01*
X86726410Y-78157331D01*
X86116900Y-78161586D02*
X86113177Y-77628265D01*
X86114241Y-77780643D02*
X86075615Y-77704721D01*
X86037254Y-77666892D01*
X85960800Y-77629329D01*
X85884611Y-77629861D01*
X85278826Y-78167437D02*
X85273241Y-77367457D01*
X85278560Y-78129343D02*
X85355014Y-78166906D01*
X85507391Y-78165842D01*
X85583314Y-78127216D01*
X85621143Y-78088855D01*
X85658705Y-78012401D01*
X85657109Y-77783834D01*
X85618483Y-77707912D01*
X85580123Y-77670084D01*
X85503668Y-77632521D01*
X85351291Y-77633585D01*
X85275368Y-77672211D01*
X84894159Y-77636776D02*
X84899744Y-78436756D01*
X84894425Y-77674871D02*
X84817970Y-77637308D01*
X84665592Y-77638372D01*
X84589670Y-77676999D01*
X84551842Y-77715359D01*
X84514279Y-77791813D01*
X84515875Y-78020379D01*
X84554502Y-78096301D01*
X84592862Y-78134131D01*
X84669316Y-78171693D01*
X84821693Y-78170629D01*
X84897616Y-78132003D01*
X84174090Y-78175150D02*
X84170366Y-77641829D01*
X84171430Y-77794206D02*
X84132804Y-77718284D01*
X84094443Y-77680456D01*
X84017989Y-77642893D01*
X83941800Y-77643425D01*
X83373843Y-78142641D02*
X83450297Y-78180203D01*
X83602675Y-78179139D01*
X83678598Y-78140513D01*
X83716160Y-78064058D01*
X83714032Y-77759304D01*
X83675406Y-77683382D01*
X83598951Y-77645818D01*
X83446574Y-77646882D01*
X83370652Y-77685509D01*
X83333090Y-77761963D01*
X83333622Y-77838152D01*
X83715096Y-77911681D01*
X83030995Y-78145035D02*
X82955072Y-78183661D01*
X82802695Y-78184724D01*
X82726240Y-78147162D01*
X82687614Y-78071239D01*
X82687348Y-78033145D01*
X82724910Y-77956690D01*
X82800834Y-77918064D01*
X82915116Y-77917266D01*
X82991039Y-77878640D01*
X83028601Y-77802185D01*
X83028335Y-77764091D01*
X82989709Y-77688169D01*
X82913254Y-77650605D01*
X82798972Y-77651403D01*
X82723049Y-77690030D01*
X82383391Y-78149556D02*
X82307469Y-78188182D01*
X82155092Y-78189246D01*
X82078637Y-78151683D01*
X82040011Y-78075760D01*
X82039745Y-78037666D01*
X82077307Y-77961211D01*
X82153230Y-77922585D01*
X82267513Y-77921787D01*
X82343436Y-77883161D01*
X82380998Y-77806706D01*
X82380732Y-77768612D01*
X82342106Y-77692690D01*
X82265651Y-77655127D01*
X82151369Y-77655925D01*
X82075445Y-77694552D01*
X81697428Y-78116248D02*
X81659600Y-78154609D01*
X81697960Y-78192437D01*
X81735788Y-78154077D01*
X81697428Y-78116248D01*
X81697960Y-78192437D01*
X80973903Y-78159396D02*
X81050357Y-78196958D01*
X81202734Y-78195894D01*
X81278657Y-78157268D01*
X81316486Y-78118907D01*
X81354048Y-78042453D01*
X81352452Y-77813887D01*
X81313826Y-77737965D01*
X81275466Y-77700137D01*
X81199011Y-77662573D01*
X81046634Y-77663637D01*
X80970711Y-77702264D01*
X80517037Y-78200682D02*
X80592960Y-78162056D01*
X80630788Y-78123695D01*
X80668350Y-78047240D01*
X80666755Y-77818674D01*
X80628129Y-77742752D01*
X80589769Y-77704924D01*
X80513314Y-77667361D01*
X80399030Y-77668158D01*
X80323108Y-77706785D01*
X80285280Y-77745145D01*
X80247717Y-77821599D01*
X80249313Y-78050166D01*
X80287940Y-78126088D01*
X80326300Y-78163917D01*
X80402754Y-78201479D01*
X80517037Y-78200682D01*
X79907528Y-78204937D02*
X79903804Y-77671616D01*
X79904336Y-77747805D02*
X79865976Y-77709977D01*
X79789521Y-77672414D01*
X79675238Y-77673211D01*
X79599316Y-77711838D01*
X79561754Y-77788293D01*
X79564679Y-78207330D01*
X79561754Y-77788293D02*
X79523127Y-77712370D01*
X79446673Y-77674807D01*
X79332389Y-77675605D01*
X79256467Y-77714232D01*
X79218905Y-77790686D01*
X79221830Y-78209724D01*
D11*
X102652381Y-70895238D02*
X102652381Y-71466667D01*
X103652381Y-71180952D02*
X102652381Y-71180952D01*
X102652381Y-71990476D02*
X102652381Y-72180953D01*
X102700000Y-72276191D01*
X102795238Y-72371429D01*
X102985714Y-72419048D01*
X103319048Y-72419048D01*
X103509524Y-72371429D01*
X103604762Y-72276191D01*
X103652381Y-72180953D01*
X103652381Y-71990476D01*
X103604762Y-71895238D01*
X103509524Y-71800000D01*
X103319048Y-71752381D01*
X102985714Y-71752381D01*
X102795238Y-71800000D01*
X102700000Y-71895238D01*
X102652381Y-71990476D01*
X103652381Y-72847619D02*
X102652381Y-72847619D01*
X102652381Y-73228572D01*
X102700000Y-73323810D01*
X102747619Y-73371429D01*
X102842857Y-73419048D01*
X102985714Y-73419048D01*
X103080952Y-73371429D01*
X103128571Y-73323810D01*
X103176190Y-73228572D01*
X103176190Y-72847619D01*
X101052381Y-71038095D02*
X100052381Y-71038095D01*
X100766667Y-71371429D01*
X100052381Y-71704762D01*
X101052381Y-71704762D01*
X101052381Y-72180952D02*
X100052381Y-72180952D01*
X101052381Y-72657142D02*
X100052381Y-72657142D01*
X100052381Y-72895237D01*
X100100000Y-73038095D01*
X100195238Y-73133333D01*
X100290476Y-73180952D01*
X100480952Y-73228571D01*
X100623810Y-73228571D01*
X100814286Y-73180952D01*
X100909524Y-73133333D01*
X101004762Y-73038095D01*
X101052381Y-72895237D01*
X101052381Y-72657142D01*
X97600000Y-71561905D02*
X97552381Y-71466667D01*
X97552381Y-71323810D01*
X97600000Y-71180952D01*
X97695238Y-71085714D01*
X97790476Y-71038095D01*
X97980952Y-70990476D01*
X98123810Y-70990476D01*
X98314286Y-71038095D01*
X98409524Y-71085714D01*
X98504762Y-71180952D01*
X98552381Y-71323810D01*
X98552381Y-71419048D01*
X98504762Y-71561905D01*
X98457143Y-71609524D01*
X98123810Y-71609524D01*
X98123810Y-71419048D01*
X98552381Y-72038095D02*
X97552381Y-72038095D01*
X98552381Y-72609524D01*
X97552381Y-72609524D01*
X98552381Y-73085714D02*
X97552381Y-73085714D01*
X97552381Y-73323809D01*
X97600000Y-73466667D01*
X97695238Y-73561905D01*
X97790476Y-73609524D01*
X97980952Y-73657143D01*
X98123810Y-73657143D01*
X98314286Y-73609524D01*
X98409524Y-73561905D01*
X98504762Y-73466667D01*
X98552381Y-73323809D01*
X98552381Y-73085714D01*
X81694566Y-73779039D02*
X82027892Y-73776712D01*
X82031549Y-74300509D02*
X82024568Y-73300534D01*
X81548389Y-73303858D01*
X80698248Y-74309818D02*
X81174427Y-74306493D01*
X81167446Y-73306517D01*
X80167470Y-73313499D02*
X79976998Y-73314829D01*
X79882095Y-73363111D01*
X79787524Y-73459012D01*
X79741236Y-73649816D01*
X79743563Y-73983141D01*
X79792510Y-74173280D01*
X79888411Y-74267851D01*
X79983979Y-74314804D01*
X80174451Y-74313474D01*
X80269355Y-74265192D01*
X80363925Y-74169291D01*
X80410214Y-73978487D01*
X80407886Y-73645161D01*
X80358939Y-73455023D01*
X80263038Y-73360452D01*
X80167470Y-73313499D01*
X79405584Y-73318818D02*
X79174476Y-74320456D01*
X78979017Y-73607517D01*
X78793532Y-74323115D01*
X78548462Y-73324802D01*
X76882168Y-73384055D02*
X76977071Y-73335772D01*
X77119924Y-73334775D01*
X77263111Y-73381395D01*
X77359012Y-73475966D01*
X77407295Y-73570870D01*
X77456242Y-73761008D01*
X77457240Y-73903863D01*
X77410952Y-74094667D01*
X77363999Y-74190235D01*
X77269428Y-74286135D01*
X77126906Y-74334751D01*
X77031670Y-74335415D01*
X76888484Y-74288795D01*
X76840534Y-74241510D01*
X76838207Y-73908185D01*
X77028678Y-73906855D01*
X76412638Y-74339737D02*
X76405657Y-73339762D01*
X75841223Y-74343727D01*
X75834242Y-73343751D01*
X75365045Y-74347051D02*
X75358063Y-73347075D01*
X75119974Y-73348737D01*
X74977452Y-73397353D01*
X74882881Y-73493253D01*
X74835928Y-73588821D01*
X74789640Y-73779625D01*
X74790638Y-73922480D01*
X74839585Y-74112619D01*
X74887868Y-74207522D01*
X74983768Y-74302093D01*
X75126955Y-74348713D01*
X75365045Y-74347051D01*
X80170794Y-71289677D02*
X80504119Y-71287350D01*
X80507776Y-71811147D02*
X80500795Y-70811172D01*
X80024616Y-70814496D01*
X79174475Y-71820456D02*
X79650654Y-71817131D01*
X79643673Y-70817156D01*
X78643697Y-70824137D02*
X78453225Y-70825467D01*
X78358322Y-70873749D01*
X78263751Y-70969650D01*
X78217463Y-71160454D01*
X78219790Y-71493780D01*
X78268738Y-71683919D01*
X78364638Y-71778489D01*
X78460206Y-71825442D01*
X78650679Y-71824112D01*
X78745582Y-71775830D01*
X78840153Y-71679929D01*
X78886441Y-71489125D01*
X78884114Y-71155800D01*
X78835166Y-70965661D01*
X78739265Y-70871090D01*
X78643697Y-70824137D01*
X77881811Y-70829456D02*
X77650703Y-71831094D01*
X77455244Y-71118155D01*
X77269759Y-71833753D01*
X77024689Y-70835440D01*
X75888841Y-71843394D02*
X75881860Y-70843418D01*
X75412662Y-71846718D02*
X75405681Y-70846743D01*
X74841247Y-71850708D01*
X74834266Y-70850732D01*
X81504095Y-68680369D02*
X81837421Y-68678042D01*
X81841078Y-69201839D02*
X81834097Y-68201863D01*
X81357917Y-68205188D01*
X80507776Y-69211147D02*
X80983956Y-69207823D01*
X80976974Y-68207847D01*
X79976999Y-68214829D02*
X79786526Y-68216158D01*
X79691623Y-68264441D01*
X79597052Y-68360342D01*
X79550764Y-68551145D01*
X79553091Y-68884471D01*
X79602039Y-69074610D01*
X79697940Y-69169181D01*
X79793508Y-69216134D01*
X79983980Y-69214804D01*
X80078883Y-69166521D01*
X80173454Y-69070621D01*
X80219742Y-68879817D01*
X80217415Y-68546491D01*
X80168467Y-68356352D01*
X80072567Y-68261781D01*
X79976999Y-68214829D01*
X79215112Y-68220148D02*
X78984004Y-69221785D01*
X78788545Y-68508847D01*
X78603061Y-69224445D01*
X78357990Y-68226132D01*
X77358015Y-68233113D02*
X77031671Y-69235415D01*
X76691364Y-68237767D01*
X76365020Y-69240070D02*
X76358039Y-68240094D01*
X76119950Y-68241756D01*
X75977428Y-68290371D01*
X75882857Y-68386272D01*
X75835904Y-68481840D01*
X75789616Y-68672644D01*
X75790613Y-68815498D01*
X75839561Y-69005637D01*
X75887844Y-69100541D01*
X75983744Y-69195111D01*
X76126931Y-69241732D01*
X76365020Y-69240070D01*
X75365045Y-69247051D02*
X75358063Y-68247075D01*
X75119974Y-68248737D01*
X74977452Y-68297353D01*
X74882881Y-68393253D01*
X74835928Y-68488821D01*
X74789640Y-68679625D01*
X74790638Y-68822480D01*
X74839585Y-69012619D01*
X74887868Y-69107522D01*
X74983768Y-69202093D01*
X75126955Y-69248713D01*
X75365045Y-69247051D01*
X83890476Y-86352381D02*
X84223810Y-85876190D01*
X84461905Y-86352381D02*
X84461905Y-85352381D01*
X84080952Y-85352381D01*
X83985714Y-85400000D01*
X83938095Y-85447619D01*
X83890476Y-85542857D01*
X83890476Y-85685714D01*
X83938095Y-85780952D01*
X83985714Y-85828571D01*
X84080952Y-85876190D01*
X84461905Y-85876190D01*
X83509524Y-86304762D02*
X83366667Y-86352381D01*
X83128571Y-86352381D01*
X83033333Y-86304762D01*
X82985714Y-86257143D01*
X82938095Y-86161905D01*
X82938095Y-86066667D01*
X82985714Y-85971429D01*
X83033333Y-85923810D01*
X83128571Y-85876190D01*
X83319048Y-85828571D01*
X83414286Y-85780952D01*
X83461905Y-85733333D01*
X83509524Y-85638095D01*
X83509524Y-85542857D01*
X83461905Y-85447619D01*
X83414286Y-85400000D01*
X83319048Y-85352381D01*
X83080952Y-85352381D01*
X82938095Y-85400000D01*
X82652381Y-85352381D02*
X82080952Y-85352381D01*
X82366667Y-86352381D02*
X82366667Y-85352381D01*
X84700000Y-85180000D02*
X81985714Y-85180000D01*
X84509524Y-88804762D02*
X84366667Y-88852381D01*
X84128571Y-88852381D01*
X84033333Y-88804762D01*
X83985714Y-88757143D01*
X83938095Y-88661905D01*
X83938095Y-88566667D01*
X83985714Y-88471429D01*
X84033333Y-88423810D01*
X84128571Y-88376190D01*
X84319048Y-88328571D01*
X84414286Y-88280952D01*
X84461905Y-88233333D01*
X84509524Y-88138095D01*
X84509524Y-88042857D01*
X84461905Y-87947619D01*
X84414286Y-87900000D01*
X84319048Y-87852381D01*
X84080952Y-87852381D01*
X83938095Y-87900000D01*
X82938095Y-88757143D02*
X82985714Y-88804762D01*
X83128571Y-88852381D01*
X83223809Y-88852381D01*
X83366667Y-88804762D01*
X83461905Y-88709524D01*
X83509524Y-88614286D01*
X83557143Y-88423810D01*
X83557143Y-88280952D01*
X83509524Y-88090476D01*
X83461905Y-87995238D01*
X83366667Y-87900000D01*
X83223809Y-87852381D01*
X83128571Y-87852381D01*
X82985714Y-87900000D01*
X82938095Y-87947619D01*
X82509524Y-88852381D02*
X82509524Y-87852381D01*
X81938095Y-88852381D02*
X82366667Y-88280952D01*
X81938095Y-87852381D02*
X82509524Y-88423810D01*
X84461905Y-91452381D02*
X84461905Y-90452381D01*
X84128571Y-91166667D01*
X83795238Y-90452381D01*
X83795238Y-91452381D01*
X83319048Y-91452381D02*
X83319048Y-90452381D01*
X82890477Y-91404762D02*
X82747620Y-91452381D01*
X82509524Y-91452381D01*
X82414286Y-91404762D01*
X82366667Y-91357143D01*
X82319048Y-91261905D01*
X82319048Y-91166667D01*
X82366667Y-91071429D01*
X82414286Y-91023810D01*
X82509524Y-90976190D01*
X82700001Y-90928571D01*
X82795239Y-90880952D01*
X82842858Y-90833333D01*
X82890477Y-90738095D01*
X82890477Y-90642857D01*
X82842858Y-90547619D01*
X82795239Y-90500000D01*
X82700001Y-90452381D01*
X82461905Y-90452381D01*
X82319048Y-90500000D01*
X81700001Y-90452381D02*
X81509524Y-90452381D01*
X81414286Y-90500000D01*
X81319048Y-90595238D01*
X81271429Y-90785714D01*
X81271429Y-91119048D01*
X81319048Y-91309524D01*
X81414286Y-91404762D01*
X81509524Y-91452381D01*
X81700001Y-91452381D01*
X81795239Y-91404762D01*
X81890477Y-91309524D01*
X81938096Y-91119048D01*
X81938096Y-90785714D01*
X81890477Y-90595238D01*
X81795239Y-90500000D01*
X81700001Y-90452381D01*
X96185714Y-85400000D02*
X96280952Y-85352381D01*
X96423809Y-85352381D01*
X96566667Y-85400000D01*
X96661905Y-85495238D01*
X96709524Y-85590476D01*
X96757143Y-85780952D01*
X96757143Y-85923810D01*
X96709524Y-86114286D01*
X96661905Y-86209524D01*
X96566667Y-86304762D01*
X96423809Y-86352381D01*
X96328571Y-86352381D01*
X96185714Y-86304762D01*
X96138095Y-86257143D01*
X96138095Y-85923810D01*
X96328571Y-85923810D01*
X95709524Y-86352381D02*
X95709524Y-85352381D01*
X95138095Y-86352381D01*
X95138095Y-85352381D01*
X94661905Y-86352381D02*
X94661905Y-85352381D01*
X94423810Y-85352381D01*
X94280952Y-85400000D01*
X94185714Y-85495238D01*
X94138095Y-85590476D01*
X94090476Y-85780952D01*
X94090476Y-85923810D01*
X94138095Y-86114286D01*
X94185714Y-86209524D01*
X94280952Y-86304762D01*
X94423810Y-86352381D01*
X94661905Y-86352381D01*
X97280952Y-88852381D02*
X97280952Y-87852381D01*
X96947618Y-88566667D01*
X96614285Y-87852381D01*
X96614285Y-88852381D01*
X95947619Y-87852381D02*
X95757142Y-87852381D01*
X95661904Y-87900000D01*
X95566666Y-87995238D01*
X95519047Y-88185714D01*
X95519047Y-88519048D01*
X95566666Y-88709524D01*
X95661904Y-88804762D01*
X95757142Y-88852381D01*
X95947619Y-88852381D01*
X96042857Y-88804762D01*
X96138095Y-88709524D01*
X96185714Y-88519048D01*
X96185714Y-88185714D01*
X96138095Y-87995238D01*
X96042857Y-87900000D01*
X95947619Y-87852381D01*
X95138095Y-88804762D02*
X94995238Y-88852381D01*
X94757142Y-88852381D01*
X94661904Y-88804762D01*
X94614285Y-88757143D01*
X94566666Y-88661905D01*
X94566666Y-88566667D01*
X94614285Y-88471429D01*
X94661904Y-88423810D01*
X94757142Y-88376190D01*
X94947619Y-88328571D01*
X95042857Y-88280952D01*
X95090476Y-88233333D01*
X95138095Y-88138095D01*
X95138095Y-88042857D01*
X95090476Y-87947619D01*
X95042857Y-87900000D01*
X94947619Y-87852381D01*
X94709523Y-87852381D01*
X94566666Y-87900000D01*
X94138095Y-88852381D02*
X94138095Y-87852381D01*
X96661905Y-90352381D02*
X96328572Y-91352381D01*
X95995238Y-90352381D01*
X95661905Y-91352381D02*
X95661905Y-90352381D01*
X95423810Y-90352381D01*
X95280952Y-90400000D01*
X95185714Y-90495238D01*
X95138095Y-90590476D01*
X95090476Y-90780952D01*
X95090476Y-90923810D01*
X95138095Y-91114286D01*
X95185714Y-91209524D01*
X95280952Y-91304762D01*
X95423810Y-91352381D01*
X95661905Y-91352381D01*
X94661905Y-91352381D02*
X94661905Y-90352381D01*
X94423810Y-90352381D01*
X94280952Y-90400000D01*
X94185714Y-90495238D01*
X94138095Y-90590476D01*
X94090476Y-90780952D01*
X94090476Y-90923810D01*
X94138095Y-91114286D01*
X94185714Y-91209524D01*
X94280952Y-91304762D01*
X94423810Y-91352381D01*
X94661905Y-91352381D01*
D13*
X86700000Y-91740000D02*
X86700000Y-92270000D01*
X86700000Y-92270000D02*
X91900000Y-92270000D01*
X91900000Y-92270000D02*
X91900000Y-91740000D01*
X86700000Y-85060000D02*
X86700000Y-84530000D01*
X86700000Y-84530000D02*
X91900000Y-84530000D01*
X91900000Y-84530000D02*
X91900000Y-85060000D01*
X85280000Y-91740000D02*
X86700000Y-91740000D01*
D14*
G36*
X89900256Y-66919918D02*
X89844799Y-66947568D01*
X89795852Y-66998480D01*
X89782371Y-67017338D01*
X89767686Y-67042015D01*
X89758158Y-67068816D01*
X89752707Y-67104587D01*
X89750253Y-67156169D01*
X89749714Y-67224267D01*
X89752148Y-67317588D01*
X89760606Y-67387657D01*
X89776826Y-67439931D01*
X89802546Y-67479869D01*
X89839503Y-67512929D01*
X89842218Y-67514886D01*
X89878640Y-67534908D01*
X89922498Y-67544815D01*
X89978276Y-67547257D01*
X90068952Y-67547257D01*
X90068990Y-67635283D01*
X90069834Y-67684308D01*
X90074976Y-67713065D01*
X90088413Y-67730311D01*
X90114142Y-67744808D01*
X90120321Y-67747769D01*
X90149236Y-67761648D01*
X90171624Y-67770414D01*
X90188271Y-67771171D01*
X90199964Y-67761023D01*
X90207490Y-67737073D01*
X90211634Y-67696426D01*
X90213185Y-67636186D01*
X90212929Y-67553455D01*
X90211651Y-67445339D01*
X90211252Y-67413000D01*
X90209815Y-67301524D01*
X90208528Y-67228603D01*
X90069029Y-67228603D01*
X90068245Y-67290499D01*
X90064760Y-67330997D01*
X90056876Y-67357708D01*
X90042895Y-67378244D01*
X90033403Y-67388260D01*
X89994596Y-67417567D01*
X89960237Y-67419952D01*
X89924784Y-67395750D01*
X89923886Y-67394857D01*
X89909461Y-67376153D01*
X89900687Y-67350732D01*
X89896261Y-67311584D01*
X89894882Y-67251697D01*
X89894857Y-67238430D01*
X89898188Y-67155901D01*
X89909031Y-67098691D01*
X89928660Y-67063766D01*
X89958350Y-67048094D01*
X89975509Y-67046514D01*
X90016234Y-67053926D01*
X90044168Y-67078330D01*
X90060983Y-67122980D01*
X90068350Y-67191130D01*
X90069029Y-67228603D01*
X90208528Y-67228603D01*
X90208292Y-67215245D01*
X90206323Y-67150333D01*
X90203550Y-67102958D01*
X90199612Y-67069290D01*
X90194151Y-67045498D01*
X90186808Y-67027753D01*
X90177223Y-67012224D01*
X90173113Y-67006381D01*
X90118595Y-66951185D01*
X90049664Y-66919890D01*
X89969928Y-66911165D01*
X89900256Y-66919918D01*
X89900256Y-66919918D01*
G37*
X89900256Y-66919918D02*
X89844799Y-66947568D01*
X89795852Y-66998480D01*
X89782371Y-67017338D01*
X89767686Y-67042015D01*
X89758158Y-67068816D01*
X89752707Y-67104587D01*
X89750253Y-67156169D01*
X89749714Y-67224267D01*
X89752148Y-67317588D01*
X89760606Y-67387657D01*
X89776826Y-67439931D01*
X89802546Y-67479869D01*
X89839503Y-67512929D01*
X89842218Y-67514886D01*
X89878640Y-67534908D01*
X89922498Y-67544815D01*
X89978276Y-67547257D01*
X90068952Y-67547257D01*
X90068990Y-67635283D01*
X90069834Y-67684308D01*
X90074976Y-67713065D01*
X90088413Y-67730311D01*
X90114142Y-67744808D01*
X90120321Y-67747769D01*
X90149236Y-67761648D01*
X90171624Y-67770414D01*
X90188271Y-67771171D01*
X90199964Y-67761023D01*
X90207490Y-67737073D01*
X90211634Y-67696426D01*
X90213185Y-67636186D01*
X90212929Y-67553455D01*
X90211651Y-67445339D01*
X90211252Y-67413000D01*
X90209815Y-67301524D01*
X90208528Y-67228603D01*
X90069029Y-67228603D01*
X90068245Y-67290499D01*
X90064760Y-67330997D01*
X90056876Y-67357708D01*
X90042895Y-67378244D01*
X90033403Y-67388260D01*
X89994596Y-67417567D01*
X89960237Y-67419952D01*
X89924784Y-67395750D01*
X89923886Y-67394857D01*
X89909461Y-67376153D01*
X89900687Y-67350732D01*
X89896261Y-67311584D01*
X89894882Y-67251697D01*
X89894857Y-67238430D01*
X89898188Y-67155901D01*
X89909031Y-67098691D01*
X89928660Y-67063766D01*
X89958350Y-67048094D01*
X89975509Y-67046514D01*
X90016234Y-67053926D01*
X90044168Y-67078330D01*
X90060983Y-67122980D01*
X90068350Y-67191130D01*
X90069029Y-67228603D01*
X90208528Y-67228603D01*
X90208292Y-67215245D01*
X90206323Y-67150333D01*
X90203550Y-67102958D01*
X90199612Y-67069290D01*
X90194151Y-67045498D01*
X90186808Y-67027753D01*
X90177223Y-67012224D01*
X90173113Y-67006381D01*
X90118595Y-66951185D01*
X90049664Y-66919890D01*
X89969928Y-66911165D01*
X89900256Y-66919918D01*
G36*
X88783907Y-66927780D02*
X88737328Y-66954723D01*
X88704943Y-66981466D01*
X88681258Y-67009484D01*
X88664941Y-67043748D01*
X88654661Y-67089227D01*
X88649086Y-67150892D01*
X88646884Y-67233711D01*
X88646629Y-67293246D01*
X88646629Y-67512391D01*
X88708314Y-67540044D01*
X88770000Y-67567697D01*
X88777257Y-67327670D01*
X88780256Y-67238028D01*
X88783402Y-67172962D01*
X88787299Y-67128026D01*
X88792553Y-67098770D01*
X88799769Y-67080748D01*
X88809550Y-67069511D01*
X88812688Y-67067079D01*
X88860239Y-67048083D01*
X88908303Y-67055600D01*
X88936914Y-67075543D01*
X88948553Y-67089675D01*
X88956609Y-67108220D01*
X88961729Y-67136334D01*
X88964559Y-67179173D01*
X88965744Y-67241895D01*
X88965943Y-67307261D01*
X88965982Y-67389268D01*
X88967386Y-67447316D01*
X88972086Y-67486465D01*
X88982013Y-67511780D01*
X88999097Y-67528323D01*
X89025268Y-67541156D01*
X89060225Y-67554491D01*
X89098404Y-67569007D01*
X89093859Y-67311389D01*
X89092029Y-67218519D01*
X89089888Y-67149889D01*
X89086819Y-67100711D01*
X89082206Y-67066198D01*
X89075432Y-67041562D01*
X89065881Y-67022016D01*
X89054366Y-67004770D01*
X88998810Y-66949680D01*
X88931020Y-66917822D01*
X88857287Y-66910191D01*
X88783907Y-66927780D01*
X88783907Y-66927780D01*
G37*
X88783907Y-66927780D02*
X88737328Y-66954723D01*
X88704943Y-66981466D01*
X88681258Y-67009484D01*
X88664941Y-67043748D01*
X88654661Y-67089227D01*
X88649086Y-67150892D01*
X88646884Y-67233711D01*
X88646629Y-67293246D01*
X88646629Y-67512391D01*
X88708314Y-67540044D01*
X88770000Y-67567697D01*
X88777257Y-67327670D01*
X88780256Y-67238028D01*
X88783402Y-67172962D01*
X88787299Y-67128026D01*
X88792553Y-67098770D01*
X88799769Y-67080748D01*
X88809550Y-67069511D01*
X88812688Y-67067079D01*
X88860239Y-67048083D01*
X88908303Y-67055600D01*
X88936914Y-67075543D01*
X88948553Y-67089675D01*
X88956609Y-67108220D01*
X88961729Y-67136334D01*
X88964559Y-67179173D01*
X88965744Y-67241895D01*
X88965943Y-67307261D01*
X88965982Y-67389268D01*
X88967386Y-67447316D01*
X88972086Y-67486465D01*
X88982013Y-67511780D01*
X88999097Y-67528323D01*
X89025268Y-67541156D01*
X89060225Y-67554491D01*
X89098404Y-67569007D01*
X89093859Y-67311389D01*
X89092029Y-67218519D01*
X89089888Y-67149889D01*
X89086819Y-67100711D01*
X89082206Y-67066198D01*
X89075432Y-67041562D01*
X89065881Y-67022016D01*
X89054366Y-67004770D01*
X88998810Y-66949680D01*
X88931020Y-66917822D01*
X88857287Y-66910191D01*
X88783907Y-66927780D01*
G36*
X90458885Y-66921962D02*
X90390855Y-66957733D01*
X90340649Y-67015301D01*
X90322815Y-67052312D01*
X90308937Y-67107882D01*
X90301833Y-67178096D01*
X90301160Y-67254727D01*
X90306573Y-67329552D01*
X90317730Y-67394342D01*
X90334286Y-67440873D01*
X90339374Y-67448887D01*
X90399645Y-67508707D01*
X90471231Y-67544535D01*
X90548908Y-67555020D01*
X90627452Y-67538810D01*
X90649311Y-67529092D01*
X90691878Y-67499143D01*
X90729237Y-67459433D01*
X90732768Y-67454397D01*
X90747119Y-67430124D01*
X90756606Y-67404178D01*
X90762210Y-67370022D01*
X90764914Y-67321119D01*
X90765701Y-67250935D01*
X90765714Y-67235200D01*
X90765678Y-67230192D01*
X90620571Y-67230192D01*
X90619727Y-67296430D01*
X90616404Y-67340386D01*
X90609417Y-67368779D01*
X90597584Y-67388325D01*
X90591543Y-67394857D01*
X90556814Y-67419680D01*
X90523097Y-67418548D01*
X90489005Y-67397016D01*
X90468671Y-67374029D01*
X90456629Y-67340478D01*
X90449866Y-67287569D01*
X90449402Y-67281399D01*
X90448248Y-67185513D01*
X90460312Y-67114299D01*
X90485430Y-67068194D01*
X90523440Y-67047635D01*
X90537008Y-67046514D01*
X90572636Y-67052152D01*
X90597006Y-67071686D01*
X90611907Y-67109042D01*
X90619125Y-67168150D01*
X90620571Y-67230192D01*
X90765678Y-67230192D01*
X90765174Y-67160413D01*
X90762904Y-67108159D01*
X90757932Y-67071949D01*
X90749287Y-67045299D01*
X90735995Y-67021722D01*
X90733057Y-67017338D01*
X90683687Y-66958249D01*
X90629891Y-66923947D01*
X90564398Y-66910331D01*
X90542158Y-66909665D01*
X90458885Y-66921962D01*
X90458885Y-66921962D01*
G37*
X90458885Y-66921962D02*
X90390855Y-66957733D01*
X90340649Y-67015301D01*
X90322815Y-67052312D01*
X90308937Y-67107882D01*
X90301833Y-67178096D01*
X90301160Y-67254727D01*
X90306573Y-67329552D01*
X90317730Y-67394342D01*
X90334286Y-67440873D01*
X90339374Y-67448887D01*
X90399645Y-67508707D01*
X90471231Y-67544535D01*
X90548908Y-67555020D01*
X90627452Y-67538810D01*
X90649311Y-67529092D01*
X90691878Y-67499143D01*
X90729237Y-67459433D01*
X90732768Y-67454397D01*
X90747119Y-67430124D01*
X90756606Y-67404178D01*
X90762210Y-67370022D01*
X90764914Y-67321119D01*
X90765701Y-67250935D01*
X90765714Y-67235200D01*
X90765678Y-67230192D01*
X90620571Y-67230192D01*
X90619727Y-67296430D01*
X90616404Y-67340386D01*
X90609417Y-67368779D01*
X90597584Y-67388325D01*
X90591543Y-67394857D01*
X90556814Y-67419680D01*
X90523097Y-67418548D01*
X90489005Y-67397016D01*
X90468671Y-67374029D01*
X90456629Y-67340478D01*
X90449866Y-67287569D01*
X90449402Y-67281399D01*
X90448248Y-67185513D01*
X90460312Y-67114299D01*
X90485430Y-67068194D01*
X90523440Y-67047635D01*
X90537008Y-67046514D01*
X90572636Y-67052152D01*
X90597006Y-67071686D01*
X90611907Y-67109042D01*
X90619125Y-67168150D01*
X90620571Y-67230192D01*
X90765678Y-67230192D01*
X90765174Y-67160413D01*
X90762904Y-67108159D01*
X90757932Y-67071949D01*
X90749287Y-67045299D01*
X90735995Y-67021722D01*
X90733057Y-67017338D01*
X90683687Y-66958249D01*
X90629891Y-66923947D01*
X90564398Y-66910331D01*
X90542158Y-66909665D01*
X90458885Y-66921962D01*
G36*
X89331697Y-66931239D02*
X89274473Y-66969735D01*
X89230251Y-67025335D01*
X89203833Y-67096086D01*
X89198490Y-67148162D01*
X89199097Y-67169893D01*
X89204178Y-67186531D01*
X89218145Y-67201437D01*
X89245411Y-67217973D01*
X89290388Y-67239498D01*
X89357489Y-67269374D01*
X89357829Y-67269524D01*
X89419593Y-67297813D01*
X89470241Y-67322933D01*
X89504596Y-67342179D01*
X89517482Y-67352848D01*
X89517486Y-67352934D01*
X89506128Y-67376166D01*
X89479569Y-67401774D01*
X89449077Y-67420221D01*
X89433630Y-67423886D01*
X89391485Y-67411212D01*
X89355192Y-67379471D01*
X89337483Y-67344572D01*
X89320448Y-67318845D01*
X89287078Y-67289546D01*
X89247851Y-67264235D01*
X89213244Y-67250471D01*
X89206007Y-67249714D01*
X89197861Y-67262160D01*
X89197370Y-67293972D01*
X89203357Y-67336866D01*
X89214643Y-67382558D01*
X89230050Y-67422761D01*
X89230829Y-67424322D01*
X89277196Y-67489062D01*
X89337289Y-67533097D01*
X89405535Y-67554711D01*
X89476362Y-67552185D01*
X89544196Y-67523804D01*
X89547212Y-67521808D01*
X89600573Y-67473448D01*
X89635660Y-67410352D01*
X89655078Y-67327387D01*
X89657684Y-67304078D01*
X89662299Y-67194055D01*
X89656767Y-67142748D01*
X89517486Y-67142748D01*
X89515676Y-67174753D01*
X89505778Y-67184093D01*
X89481102Y-67177105D01*
X89442205Y-67160587D01*
X89398725Y-67139881D01*
X89397644Y-67139333D01*
X89360791Y-67119949D01*
X89346000Y-67107013D01*
X89349647Y-67093451D01*
X89365005Y-67075632D01*
X89404077Y-67049845D01*
X89446154Y-67047950D01*
X89483897Y-67066717D01*
X89509966Y-67102915D01*
X89517486Y-67142748D01*
X89656767Y-67142748D01*
X89652806Y-67106027D01*
X89628450Y-67036212D01*
X89594544Y-66987302D01*
X89533347Y-66937878D01*
X89465937Y-66913359D01*
X89397120Y-66911797D01*
X89331697Y-66931239D01*
X89331697Y-66931239D01*
G37*
X89331697Y-66931239D02*
X89274473Y-66969735D01*
X89230251Y-67025335D01*
X89203833Y-67096086D01*
X89198490Y-67148162D01*
X89199097Y-67169893D01*
X89204178Y-67186531D01*
X89218145Y-67201437D01*
X89245411Y-67217973D01*
X89290388Y-67239498D01*
X89357489Y-67269374D01*
X89357829Y-67269524D01*
X89419593Y-67297813D01*
X89470241Y-67322933D01*
X89504596Y-67342179D01*
X89517482Y-67352848D01*
X89517486Y-67352934D01*
X89506128Y-67376166D01*
X89479569Y-67401774D01*
X89449077Y-67420221D01*
X89433630Y-67423886D01*
X89391485Y-67411212D01*
X89355192Y-67379471D01*
X89337483Y-67344572D01*
X89320448Y-67318845D01*
X89287078Y-67289546D01*
X89247851Y-67264235D01*
X89213244Y-67250471D01*
X89206007Y-67249714D01*
X89197861Y-67262160D01*
X89197370Y-67293972D01*
X89203357Y-67336866D01*
X89214643Y-67382558D01*
X89230050Y-67422761D01*
X89230829Y-67424322D01*
X89277196Y-67489062D01*
X89337289Y-67533097D01*
X89405535Y-67554711D01*
X89476362Y-67552185D01*
X89544196Y-67523804D01*
X89547212Y-67521808D01*
X89600573Y-67473448D01*
X89635660Y-67410352D01*
X89655078Y-67327387D01*
X89657684Y-67304078D01*
X89662299Y-67194055D01*
X89656767Y-67142748D01*
X89517486Y-67142748D01*
X89515676Y-67174753D01*
X89505778Y-67184093D01*
X89481102Y-67177105D01*
X89442205Y-67160587D01*
X89398725Y-67139881D01*
X89397644Y-67139333D01*
X89360791Y-67119949D01*
X89346000Y-67107013D01*
X89349647Y-67093451D01*
X89365005Y-67075632D01*
X89404077Y-67049845D01*
X89446154Y-67047950D01*
X89483897Y-67066717D01*
X89509966Y-67102915D01*
X89517486Y-67142748D01*
X89656767Y-67142748D01*
X89652806Y-67106027D01*
X89628450Y-67036212D01*
X89594544Y-66987302D01*
X89533347Y-66937878D01*
X89465937Y-66913359D01*
X89397120Y-66911797D01*
X89331697Y-66931239D01*
G36*
X88124114Y-66851289D02*
X88119861Y-66910613D01*
X88114975Y-66945572D01*
X88108205Y-66960820D01*
X88098298Y-66961015D01*
X88095086Y-66959195D01*
X88052356Y-66946015D01*
X87996773Y-66946785D01*
X87940263Y-66960333D01*
X87904918Y-66977861D01*
X87868679Y-67005861D01*
X87842187Y-67037549D01*
X87824001Y-67077813D01*
X87812678Y-67131543D01*
X87806778Y-67203626D01*
X87804857Y-67298951D01*
X87804823Y-67317237D01*
X87804800Y-67522646D01*
X87850509Y-67538580D01*
X87882973Y-67549420D01*
X87900785Y-67554468D01*
X87901309Y-67554514D01*
X87903063Y-67540828D01*
X87904556Y-67503076D01*
X87905674Y-67446224D01*
X87906303Y-67375234D01*
X87906400Y-67332073D01*
X87906602Y-67246973D01*
X87907642Y-67185981D01*
X87910169Y-67144177D01*
X87914836Y-67116642D01*
X87922293Y-67098456D01*
X87933189Y-67084698D01*
X87939993Y-67078073D01*
X87986728Y-67051375D01*
X88037728Y-67049375D01*
X88083999Y-67071955D01*
X88092556Y-67080107D01*
X88105107Y-67095436D01*
X88113812Y-67113618D01*
X88119369Y-67139909D01*
X88122474Y-67179562D01*
X88123824Y-67237832D01*
X88124114Y-67318173D01*
X88124114Y-67522646D01*
X88169823Y-67538580D01*
X88202287Y-67549420D01*
X88220099Y-67554468D01*
X88220623Y-67554514D01*
X88221963Y-67540623D01*
X88223172Y-67501439D01*
X88224199Y-67440700D01*
X88224998Y-67362141D01*
X88225519Y-67269498D01*
X88225714Y-67166509D01*
X88225714Y-66769342D01*
X88178543Y-66749444D01*
X88131371Y-66729547D01*
X88124114Y-66851289D01*
X88124114Y-66851289D01*
G37*
X88124114Y-66851289D02*
X88119861Y-66910613D01*
X88114975Y-66945572D01*
X88108205Y-66960820D01*
X88098298Y-66961015D01*
X88095086Y-66959195D01*
X88052356Y-66946015D01*
X87996773Y-66946785D01*
X87940263Y-66960333D01*
X87904918Y-66977861D01*
X87868679Y-67005861D01*
X87842187Y-67037549D01*
X87824001Y-67077813D01*
X87812678Y-67131543D01*
X87806778Y-67203626D01*
X87804857Y-67298951D01*
X87804823Y-67317237D01*
X87804800Y-67522646D01*
X87850509Y-67538580D01*
X87882973Y-67549420D01*
X87900785Y-67554468D01*
X87901309Y-67554514D01*
X87903063Y-67540828D01*
X87904556Y-67503076D01*
X87905674Y-67446224D01*
X87906303Y-67375234D01*
X87906400Y-67332073D01*
X87906602Y-67246973D01*
X87907642Y-67185981D01*
X87910169Y-67144177D01*
X87914836Y-67116642D01*
X87922293Y-67098456D01*
X87933189Y-67084698D01*
X87939993Y-67078073D01*
X87986728Y-67051375D01*
X88037728Y-67049375D01*
X88083999Y-67071955D01*
X88092556Y-67080107D01*
X88105107Y-67095436D01*
X88113812Y-67113618D01*
X88119369Y-67139909D01*
X88122474Y-67179562D01*
X88123824Y-67237832D01*
X88124114Y-67318173D01*
X88124114Y-67522646D01*
X88169823Y-67538580D01*
X88202287Y-67549420D01*
X88220099Y-67554468D01*
X88220623Y-67554514D01*
X88221963Y-67540623D01*
X88223172Y-67501439D01*
X88224199Y-67440700D01*
X88224998Y-67362141D01*
X88225519Y-67269498D01*
X88225714Y-67166509D01*
X88225714Y-66769342D01*
X88178543Y-66749444D01*
X88131371Y-66729547D01*
X88124114Y-66851289D01*
G36*
X87460256Y-66950968D02*
X87403384Y-66972087D01*
X87402733Y-66972493D01*
X87367560Y-66998380D01*
X87341593Y-67028633D01*
X87323330Y-67068058D01*
X87311268Y-67121462D01*
X87303904Y-67193651D01*
X87299736Y-67289432D01*
X87299371Y-67303078D01*
X87294124Y-67508842D01*
X87338284Y-67531678D01*
X87370237Y-67547110D01*
X87389530Y-67554423D01*
X87390422Y-67554514D01*
X87393761Y-67541022D01*
X87396413Y-67504626D01*
X87398044Y-67451452D01*
X87398400Y-67408393D01*
X87398408Y-67338641D01*
X87401597Y-67294837D01*
X87412712Y-67273944D01*
X87436499Y-67272925D01*
X87477704Y-67288741D01*
X87539914Y-67317815D01*
X87585659Y-67341963D01*
X87609187Y-67362913D01*
X87616104Y-67385747D01*
X87616114Y-67386877D01*
X87604701Y-67426212D01*
X87570908Y-67447462D01*
X87519191Y-67450539D01*
X87481939Y-67450006D01*
X87462297Y-67460735D01*
X87450048Y-67486505D01*
X87442998Y-67519337D01*
X87453158Y-67537966D01*
X87456983Y-67540632D01*
X87492999Y-67551340D01*
X87543434Y-67552856D01*
X87595374Y-67545759D01*
X87632178Y-67532788D01*
X87683062Y-67489585D01*
X87711986Y-67429446D01*
X87717714Y-67382462D01*
X87713343Y-67340082D01*
X87697525Y-67305488D01*
X87666203Y-67274763D01*
X87615322Y-67243990D01*
X87540824Y-67209252D01*
X87536286Y-67207288D01*
X87469179Y-67176287D01*
X87427768Y-67150862D01*
X87410019Y-67128014D01*
X87413893Y-67104745D01*
X87437357Y-67078056D01*
X87444373Y-67071914D01*
X87491370Y-67048100D01*
X87540067Y-67049103D01*
X87582478Y-67072451D01*
X87610616Y-67115675D01*
X87613231Y-67124160D01*
X87638692Y-67165308D01*
X87670999Y-67185128D01*
X87717714Y-67204770D01*
X87717714Y-67153950D01*
X87703504Y-67080082D01*
X87661325Y-67012327D01*
X87639376Y-66989661D01*
X87589483Y-66960569D01*
X87526033Y-66947400D01*
X87460256Y-66950968D01*
X87460256Y-66950968D01*
G37*
X87460256Y-66950968D02*
X87403384Y-66972087D01*
X87402733Y-66972493D01*
X87367560Y-66998380D01*
X87341593Y-67028633D01*
X87323330Y-67068058D01*
X87311268Y-67121462D01*
X87303904Y-67193651D01*
X87299736Y-67289432D01*
X87299371Y-67303078D01*
X87294124Y-67508842D01*
X87338284Y-67531678D01*
X87370237Y-67547110D01*
X87389530Y-67554423D01*
X87390422Y-67554514D01*
X87393761Y-67541022D01*
X87396413Y-67504626D01*
X87398044Y-67451452D01*
X87398400Y-67408393D01*
X87398408Y-67338641D01*
X87401597Y-67294837D01*
X87412712Y-67273944D01*
X87436499Y-67272925D01*
X87477704Y-67288741D01*
X87539914Y-67317815D01*
X87585659Y-67341963D01*
X87609187Y-67362913D01*
X87616104Y-67385747D01*
X87616114Y-67386877D01*
X87604701Y-67426212D01*
X87570908Y-67447462D01*
X87519191Y-67450539D01*
X87481939Y-67450006D01*
X87462297Y-67460735D01*
X87450048Y-67486505D01*
X87442998Y-67519337D01*
X87453158Y-67537966D01*
X87456983Y-67540632D01*
X87492999Y-67551340D01*
X87543434Y-67552856D01*
X87595374Y-67545759D01*
X87632178Y-67532788D01*
X87683062Y-67489585D01*
X87711986Y-67429446D01*
X87717714Y-67382462D01*
X87713343Y-67340082D01*
X87697525Y-67305488D01*
X87666203Y-67274763D01*
X87615322Y-67243990D01*
X87540824Y-67209252D01*
X87536286Y-67207288D01*
X87469179Y-67176287D01*
X87427768Y-67150862D01*
X87410019Y-67128014D01*
X87413893Y-67104745D01*
X87437357Y-67078056D01*
X87444373Y-67071914D01*
X87491370Y-67048100D01*
X87540067Y-67049103D01*
X87582478Y-67072451D01*
X87610616Y-67115675D01*
X87613231Y-67124160D01*
X87638692Y-67165308D01*
X87670999Y-67185128D01*
X87717714Y-67204770D01*
X87717714Y-67153950D01*
X87703504Y-67080082D01*
X87661325Y-67012327D01*
X87639376Y-66989661D01*
X87589483Y-66960569D01*
X87526033Y-66947400D01*
X87460256Y-66950968D01*
G36*
X86970074Y-66949755D02*
X86904142Y-66974084D01*
X86850727Y-67017117D01*
X86829836Y-67047409D01*
X86807061Y-67102994D01*
X86807534Y-67143186D01*
X86831438Y-67170217D01*
X86840283Y-67174813D01*
X86878470Y-67189144D01*
X86897972Y-67185472D01*
X86904578Y-67161407D01*
X86904914Y-67148114D01*
X86917008Y-67099210D01*
X86948529Y-67064999D01*
X86992341Y-67048476D01*
X87041305Y-67052634D01*
X87081106Y-67074227D01*
X87094550Y-67086544D01*
X87104079Y-67101487D01*
X87110515Y-67124075D01*
X87114683Y-67159328D01*
X87117403Y-67212266D01*
X87119498Y-67287907D01*
X87120040Y-67311857D01*
X87122019Y-67393790D01*
X87124269Y-67451455D01*
X87127643Y-67489608D01*
X87132994Y-67513004D01*
X87141176Y-67526398D01*
X87153041Y-67534545D01*
X87160638Y-67538144D01*
X87192898Y-67550452D01*
X87211889Y-67554514D01*
X87218164Y-67540948D01*
X87221994Y-67499934D01*
X87223400Y-67430999D01*
X87222402Y-67333669D01*
X87222092Y-67318657D01*
X87219899Y-67229859D01*
X87217307Y-67165019D01*
X87213618Y-67119067D01*
X87208136Y-67086935D01*
X87200165Y-67063553D01*
X87189007Y-67043852D01*
X87183170Y-67035410D01*
X87149704Y-66998057D01*
X87112273Y-66969003D01*
X87107691Y-66966467D01*
X87040574Y-66946443D01*
X86970074Y-66949755D01*
X86970074Y-66949755D01*
G37*
X86970074Y-66949755D02*
X86904142Y-66974084D01*
X86850727Y-67017117D01*
X86829836Y-67047409D01*
X86807061Y-67102994D01*
X86807534Y-67143186D01*
X86831438Y-67170217D01*
X86840283Y-67174813D01*
X86878470Y-67189144D01*
X86897972Y-67185472D01*
X86904578Y-67161407D01*
X86904914Y-67148114D01*
X86917008Y-67099210D01*
X86948529Y-67064999D01*
X86992341Y-67048476D01*
X87041305Y-67052634D01*
X87081106Y-67074227D01*
X87094550Y-67086544D01*
X87104079Y-67101487D01*
X87110515Y-67124075D01*
X87114683Y-67159328D01*
X87117403Y-67212266D01*
X87119498Y-67287907D01*
X87120040Y-67311857D01*
X87122019Y-67393790D01*
X87124269Y-67451455D01*
X87127643Y-67489608D01*
X87132994Y-67513004D01*
X87141176Y-67526398D01*
X87153041Y-67534545D01*
X87160638Y-67538144D01*
X87192898Y-67550452D01*
X87211889Y-67554514D01*
X87218164Y-67540948D01*
X87221994Y-67499934D01*
X87223400Y-67430999D01*
X87222402Y-67333669D01*
X87222092Y-67318657D01*
X87219899Y-67229859D01*
X87217307Y-67165019D01*
X87213618Y-67119067D01*
X87208136Y-67086935D01*
X87200165Y-67063553D01*
X87189007Y-67043852D01*
X87183170Y-67035410D01*
X87149704Y-66998057D01*
X87112273Y-66969003D01*
X87107691Y-66966467D01*
X87040574Y-66946443D01*
X86970074Y-66949755D01*
G36*
X86309883Y-67065358D02*
X86310067Y-67173837D01*
X86310781Y-67257287D01*
X86312325Y-67319704D01*
X86314999Y-67365085D01*
X86319106Y-67397429D01*
X86324945Y-67420733D01*
X86332818Y-67438995D01*
X86338779Y-67449418D01*
X86388145Y-67505945D01*
X86450736Y-67541377D01*
X86519987Y-67554090D01*
X86589332Y-67542463D01*
X86630625Y-67521568D01*
X86673975Y-67485422D01*
X86703519Y-67441276D01*
X86721345Y-67383462D01*
X86729537Y-67306313D01*
X86730698Y-67249714D01*
X86730542Y-67245647D01*
X86629143Y-67245647D01*
X86628524Y-67310550D01*
X86625686Y-67353514D01*
X86619160Y-67381622D01*
X86607477Y-67401953D01*
X86593517Y-67417288D01*
X86546635Y-67446890D01*
X86496299Y-67449419D01*
X86448724Y-67424705D01*
X86445021Y-67421356D01*
X86429217Y-67403935D01*
X86419307Y-67383209D01*
X86413942Y-67352362D01*
X86411772Y-67304577D01*
X86411429Y-67251748D01*
X86412173Y-67185381D01*
X86415252Y-67141106D01*
X86421939Y-67112009D01*
X86433504Y-67091173D01*
X86442987Y-67080107D01*
X86487040Y-67052198D01*
X86537776Y-67048843D01*
X86586204Y-67070159D01*
X86595550Y-67078073D01*
X86611460Y-67095647D01*
X86621390Y-67116587D01*
X86626722Y-67147782D01*
X86628837Y-67196122D01*
X86629143Y-67245647D01*
X86730542Y-67245647D01*
X86727190Y-67158568D01*
X86715274Y-67090086D01*
X86692865Y-67038600D01*
X86657876Y-66998443D01*
X86630625Y-66977861D01*
X86581093Y-66955625D01*
X86523684Y-66945304D01*
X86470318Y-66948067D01*
X86440457Y-66959212D01*
X86428739Y-66962383D01*
X86420963Y-66950557D01*
X86415535Y-66918866D01*
X86411429Y-66870593D01*
X86406933Y-66816829D01*
X86400687Y-66784482D01*
X86389324Y-66765985D01*
X86369472Y-66753770D01*
X86357000Y-66748362D01*
X86309829Y-66728601D01*
X86309883Y-67065358D01*
X86309883Y-67065358D01*
G37*
X86309883Y-67065358D02*
X86310067Y-67173837D01*
X86310781Y-67257287D01*
X86312325Y-67319704D01*
X86314999Y-67365085D01*
X86319106Y-67397429D01*
X86324945Y-67420733D01*
X86332818Y-67438995D01*
X86338779Y-67449418D01*
X86388145Y-67505945D01*
X86450736Y-67541377D01*
X86519987Y-67554090D01*
X86589332Y-67542463D01*
X86630625Y-67521568D01*
X86673975Y-67485422D01*
X86703519Y-67441276D01*
X86721345Y-67383462D01*
X86729537Y-67306313D01*
X86730698Y-67249714D01*
X86730542Y-67245647D01*
X86629143Y-67245647D01*
X86628524Y-67310550D01*
X86625686Y-67353514D01*
X86619160Y-67381622D01*
X86607477Y-67401953D01*
X86593517Y-67417288D01*
X86546635Y-67446890D01*
X86496299Y-67449419D01*
X86448724Y-67424705D01*
X86445021Y-67421356D01*
X86429217Y-67403935D01*
X86419307Y-67383209D01*
X86413942Y-67352362D01*
X86411772Y-67304577D01*
X86411429Y-67251748D01*
X86412173Y-67185381D01*
X86415252Y-67141106D01*
X86421939Y-67112009D01*
X86433504Y-67091173D01*
X86442987Y-67080107D01*
X86487040Y-67052198D01*
X86537776Y-67048843D01*
X86586204Y-67070159D01*
X86595550Y-67078073D01*
X86611460Y-67095647D01*
X86621390Y-67116587D01*
X86626722Y-67147782D01*
X86628837Y-67196122D01*
X86629143Y-67245647D01*
X86730542Y-67245647D01*
X86727190Y-67158568D01*
X86715274Y-67090086D01*
X86692865Y-67038600D01*
X86657876Y-66998443D01*
X86630625Y-66977861D01*
X86581093Y-66955625D01*
X86523684Y-66945304D01*
X86470318Y-66948067D01*
X86440457Y-66959212D01*
X86428739Y-66962383D01*
X86420963Y-66950557D01*
X86415535Y-66918866D01*
X86411429Y-66870593D01*
X86406933Y-66816829D01*
X86400687Y-66784482D01*
X86389324Y-66765985D01*
X86369472Y-66753770D01*
X86357000Y-66748362D01*
X86309829Y-66728601D01*
X86309883Y-67065358D01*
G36*
X85720167Y-66958663D02*
X85717952Y-66996850D01*
X85716216Y-67054886D01*
X85715101Y-67128180D01*
X85714743Y-67205055D01*
X85714743Y-67465196D01*
X85760674Y-67511127D01*
X85792325Y-67539429D01*
X85820110Y-67550893D01*
X85858085Y-67550168D01*
X85873160Y-67548321D01*
X85920274Y-67542948D01*
X85959244Y-67539869D01*
X85968743Y-67539585D01*
X86000767Y-67541445D01*
X86046568Y-67546114D01*
X86064326Y-67548321D01*
X86107943Y-67551735D01*
X86137255Y-67544320D01*
X86166320Y-67521427D01*
X86176812Y-67511127D01*
X86222743Y-67465196D01*
X86222743Y-66978602D01*
X86185774Y-66961758D01*
X86153941Y-66949282D01*
X86135317Y-66944914D01*
X86130542Y-66958718D01*
X86126079Y-66997286D01*
X86122225Y-67056356D01*
X86119278Y-67131663D01*
X86117857Y-67195286D01*
X86113886Y-67445657D01*
X86079241Y-67450556D01*
X86047732Y-67447131D01*
X86032292Y-67436041D01*
X86027977Y-67415308D01*
X86024292Y-67371145D01*
X86021531Y-67309146D01*
X86019988Y-67234909D01*
X86019765Y-67196706D01*
X86019543Y-66976783D01*
X85973834Y-66960849D01*
X85941482Y-66950015D01*
X85923885Y-66944962D01*
X85923377Y-66944914D01*
X85921612Y-66958648D01*
X85919671Y-66996730D01*
X85917718Y-67054482D01*
X85915916Y-67127227D01*
X85914657Y-67195286D01*
X85910686Y-67445657D01*
X85823600Y-67445657D01*
X85819604Y-67217240D01*
X85815608Y-66988822D01*
X85773153Y-66966868D01*
X85741808Y-66951793D01*
X85723256Y-66944951D01*
X85722721Y-66944914D01*
X85720167Y-66958663D01*
X85720167Y-66958663D01*
G37*
X85720167Y-66958663D02*
X85717952Y-66996850D01*
X85716216Y-67054886D01*
X85715101Y-67128180D01*
X85714743Y-67205055D01*
X85714743Y-67465196D01*
X85760674Y-67511127D01*
X85792325Y-67539429D01*
X85820110Y-67550893D01*
X85858085Y-67550168D01*
X85873160Y-67548321D01*
X85920274Y-67542948D01*
X85959244Y-67539869D01*
X85968743Y-67539585D01*
X86000767Y-67541445D01*
X86046568Y-67546114D01*
X86064326Y-67548321D01*
X86107943Y-67551735D01*
X86137255Y-67544320D01*
X86166320Y-67521427D01*
X86176812Y-67511127D01*
X86222743Y-67465196D01*
X86222743Y-66978602D01*
X86185774Y-66961758D01*
X86153941Y-66949282D01*
X86135317Y-66944914D01*
X86130542Y-66958718D01*
X86126079Y-66997286D01*
X86122225Y-67056356D01*
X86119278Y-67131663D01*
X86117857Y-67195286D01*
X86113886Y-67445657D01*
X86079241Y-67450556D01*
X86047732Y-67447131D01*
X86032292Y-67436041D01*
X86027977Y-67415308D01*
X86024292Y-67371145D01*
X86021531Y-67309146D01*
X86019988Y-67234909D01*
X86019765Y-67196706D01*
X86019543Y-66976783D01*
X85973834Y-66960849D01*
X85941482Y-66950015D01*
X85923885Y-66944962D01*
X85923377Y-66944914D01*
X85921612Y-66958648D01*
X85919671Y-66996730D01*
X85917718Y-67054482D01*
X85915916Y-67127227D01*
X85914657Y-67195286D01*
X85910686Y-67445657D01*
X85823600Y-67445657D01*
X85819604Y-67217240D01*
X85815608Y-66988822D01*
X85773153Y-66966868D01*
X85741808Y-66951793D01*
X85723256Y-66944951D01*
X85722721Y-66944914D01*
X85720167Y-66958663D01*
G36*
X85355124Y-66956335D02*
X85313333Y-66975344D01*
X85280531Y-66998378D01*
X85256497Y-67024133D01*
X85239903Y-67057358D01*
X85229423Y-67102800D01*
X85223729Y-67165207D01*
X85221493Y-67249327D01*
X85221257Y-67304721D01*
X85221257Y-67520826D01*
X85258226Y-67537670D01*
X85287344Y-67549981D01*
X85301769Y-67554514D01*
X85304528Y-67541025D01*
X85306718Y-67504653D01*
X85308058Y-67451542D01*
X85308343Y-67409372D01*
X85309566Y-67348447D01*
X85312864Y-67300115D01*
X85317679Y-67270518D01*
X85321504Y-67264229D01*
X85347217Y-67270652D01*
X85387582Y-67287125D01*
X85434321Y-67309458D01*
X85479155Y-67333457D01*
X85513807Y-67354930D01*
X85529998Y-67369685D01*
X85530062Y-67369845D01*
X85528670Y-67397152D01*
X85516182Y-67423219D01*
X85494257Y-67444392D01*
X85462257Y-67451474D01*
X85434908Y-67450649D01*
X85396174Y-67450042D01*
X85375842Y-67459116D01*
X85363631Y-67483092D01*
X85362091Y-67487613D01*
X85356797Y-67521806D01*
X85370953Y-67542568D01*
X85407852Y-67552462D01*
X85447711Y-67554292D01*
X85519438Y-67540727D01*
X85556568Y-67521355D01*
X85602424Y-67475845D01*
X85626744Y-67419983D01*
X85628927Y-67360957D01*
X85608371Y-67305953D01*
X85577451Y-67271486D01*
X85546580Y-67252189D01*
X85498058Y-67227759D01*
X85441515Y-67202985D01*
X85432090Y-67199199D01*
X85369981Y-67171791D01*
X85334178Y-67147634D01*
X85322663Y-67123619D01*
X85333420Y-67096635D01*
X85351886Y-67075543D01*
X85395531Y-67049572D01*
X85443554Y-67047624D01*
X85487594Y-67067637D01*
X85519291Y-67107551D01*
X85523451Y-67117848D01*
X85547673Y-67155724D01*
X85583035Y-67183842D01*
X85627657Y-67206917D01*
X85627657Y-67141485D01*
X85625031Y-67101506D01*
X85613770Y-67069997D01*
X85588801Y-67036378D01*
X85564831Y-67010484D01*
X85527559Y-66973817D01*
X85498599Y-66954121D01*
X85467495Y-66946220D01*
X85432287Y-66944914D01*
X85355124Y-66956335D01*
X85355124Y-66956335D01*
G37*
X85355124Y-66956335D02*
X85313333Y-66975344D01*
X85280531Y-66998378D01*
X85256497Y-67024133D01*
X85239903Y-67057358D01*
X85229423Y-67102800D01*
X85223729Y-67165207D01*
X85221493Y-67249327D01*
X85221257Y-67304721D01*
X85221257Y-67520826D01*
X85258226Y-67537670D01*
X85287344Y-67549981D01*
X85301769Y-67554514D01*
X85304528Y-67541025D01*
X85306718Y-67504653D01*
X85308058Y-67451542D01*
X85308343Y-67409372D01*
X85309566Y-67348447D01*
X85312864Y-67300115D01*
X85317679Y-67270518D01*
X85321504Y-67264229D01*
X85347217Y-67270652D01*
X85387582Y-67287125D01*
X85434321Y-67309458D01*
X85479155Y-67333457D01*
X85513807Y-67354930D01*
X85529998Y-67369685D01*
X85530062Y-67369845D01*
X85528670Y-67397152D01*
X85516182Y-67423219D01*
X85494257Y-67444392D01*
X85462257Y-67451474D01*
X85434908Y-67450649D01*
X85396174Y-67450042D01*
X85375842Y-67459116D01*
X85363631Y-67483092D01*
X85362091Y-67487613D01*
X85356797Y-67521806D01*
X85370953Y-67542568D01*
X85407852Y-67552462D01*
X85447711Y-67554292D01*
X85519438Y-67540727D01*
X85556568Y-67521355D01*
X85602424Y-67475845D01*
X85626744Y-67419983D01*
X85628927Y-67360957D01*
X85608371Y-67305953D01*
X85577451Y-67271486D01*
X85546580Y-67252189D01*
X85498058Y-67227759D01*
X85441515Y-67202985D01*
X85432090Y-67199199D01*
X85369981Y-67171791D01*
X85334178Y-67147634D01*
X85322663Y-67123619D01*
X85333420Y-67096635D01*
X85351886Y-67075543D01*
X85395531Y-67049572D01*
X85443554Y-67047624D01*
X85487594Y-67067637D01*
X85519291Y-67107551D01*
X85523451Y-67117848D01*
X85547673Y-67155724D01*
X85583035Y-67183842D01*
X85627657Y-67206917D01*
X85627657Y-67141485D01*
X85625031Y-67101506D01*
X85613770Y-67069997D01*
X85588801Y-67036378D01*
X85564831Y-67010484D01*
X85527559Y-66973817D01*
X85498599Y-66954121D01*
X85467495Y-66946220D01*
X85432287Y-66944914D01*
X85355124Y-66956335D01*
G36*
X84847400Y-66958752D02*
X84830052Y-66966334D01*
X84788644Y-66999128D01*
X84753235Y-67046547D01*
X84731336Y-67097151D01*
X84727771Y-67122098D01*
X84739721Y-67156927D01*
X84765933Y-67175357D01*
X84794036Y-67186516D01*
X84806905Y-67188572D01*
X84813171Y-67173649D01*
X84825544Y-67141175D01*
X84830972Y-67126502D01*
X84861410Y-67075744D01*
X84905480Y-67050427D01*
X84961990Y-67051206D01*
X84966175Y-67052203D01*
X84996345Y-67066507D01*
X85018524Y-67094393D01*
X85033673Y-67139287D01*
X85042750Y-67204615D01*
X85046714Y-67293804D01*
X85047086Y-67341261D01*
X85047270Y-67416071D01*
X85048478Y-67467069D01*
X85051691Y-67499471D01*
X85057891Y-67518495D01*
X85068060Y-67529356D01*
X85083181Y-67537272D01*
X85084054Y-67537670D01*
X85113172Y-67549981D01*
X85127597Y-67554514D01*
X85129814Y-67540809D01*
X85131711Y-67502925D01*
X85133153Y-67445715D01*
X85134002Y-67374027D01*
X85134171Y-67321565D01*
X85133308Y-67220047D01*
X85129930Y-67143032D01*
X85122858Y-67086023D01*
X85110912Y-67044526D01*
X85092910Y-67014043D01*
X85067673Y-66990080D01*
X85042753Y-66973355D01*
X84982829Y-66951097D01*
X84913089Y-66946076D01*
X84847400Y-66958752D01*
X84847400Y-66958752D01*
G37*
X84847400Y-66958752D02*
X84830052Y-66966334D01*
X84788644Y-66999128D01*
X84753235Y-67046547D01*
X84731336Y-67097151D01*
X84727771Y-67122098D01*
X84739721Y-67156927D01*
X84765933Y-67175357D01*
X84794036Y-67186516D01*
X84806905Y-67188572D01*
X84813171Y-67173649D01*
X84825544Y-67141175D01*
X84830972Y-67126502D01*
X84861410Y-67075744D01*
X84905480Y-67050427D01*
X84961990Y-67051206D01*
X84966175Y-67052203D01*
X84996345Y-67066507D01*
X85018524Y-67094393D01*
X85033673Y-67139287D01*
X85042750Y-67204615D01*
X85046714Y-67293804D01*
X85047086Y-67341261D01*
X85047270Y-67416071D01*
X85048478Y-67467069D01*
X85051691Y-67499471D01*
X85057891Y-67518495D01*
X85068060Y-67529356D01*
X85083181Y-67537272D01*
X85084054Y-67537670D01*
X85113172Y-67549981D01*
X85127597Y-67554514D01*
X85129814Y-67540809D01*
X85131711Y-67502925D01*
X85133153Y-67445715D01*
X85134002Y-67374027D01*
X85134171Y-67321565D01*
X85133308Y-67220047D01*
X85129930Y-67143032D01*
X85122858Y-67086023D01*
X85110912Y-67044526D01*
X85092910Y-67014043D01*
X85067673Y-66990080D01*
X85042753Y-66973355D01*
X84982829Y-66951097D01*
X84913089Y-66946076D01*
X84847400Y-66958752D01*
G36*
X84346405Y-66966966D02*
X84288979Y-67004497D01*
X84261281Y-67038096D01*
X84239338Y-67099064D01*
X84237595Y-67147308D01*
X84241543Y-67211816D01*
X84390314Y-67276934D01*
X84462651Y-67310202D01*
X84509916Y-67336964D01*
X84534493Y-67360144D01*
X84538763Y-67382667D01*
X84525111Y-67407455D01*
X84510057Y-67423886D01*
X84466254Y-67450235D01*
X84418611Y-67452081D01*
X84374855Y-67431546D01*
X84342711Y-67390752D01*
X84336962Y-67376347D01*
X84309424Y-67331356D01*
X84277742Y-67312182D01*
X84234286Y-67295779D01*
X84234286Y-67357966D01*
X84238128Y-67400283D01*
X84253177Y-67435969D01*
X84284720Y-67476943D01*
X84289408Y-67482267D01*
X84324494Y-67518720D01*
X84354653Y-67538283D01*
X84392385Y-67547283D01*
X84423665Y-67550230D01*
X84479615Y-67550965D01*
X84519445Y-67541660D01*
X84544292Y-67527846D01*
X84583344Y-67497467D01*
X84610375Y-67464613D01*
X84627483Y-67423294D01*
X84636762Y-67367521D01*
X84640307Y-67291305D01*
X84640590Y-67252622D01*
X84639628Y-67206247D01*
X84551993Y-67206247D01*
X84550977Y-67231126D01*
X84548444Y-67235200D01*
X84531726Y-67229665D01*
X84495751Y-67215017D01*
X84447669Y-67194190D01*
X84437614Y-67189714D01*
X84376848Y-67158814D01*
X84343368Y-67131657D01*
X84336010Y-67106220D01*
X84353609Y-67080481D01*
X84368144Y-67069109D01*
X84420590Y-67046364D01*
X84469678Y-67050122D01*
X84510773Y-67077884D01*
X84539242Y-67127152D01*
X84548369Y-67166257D01*
X84551993Y-67206247D01*
X84639628Y-67206247D01*
X84638715Y-67162249D01*
X84631804Y-67095384D01*
X84618116Y-67046695D01*
X84595904Y-67010849D01*
X84563426Y-66982513D01*
X84549267Y-66973355D01*
X84484947Y-66949507D01*
X84414527Y-66948006D01*
X84346405Y-66966966D01*
X84346405Y-66966966D01*
G37*
X84346405Y-66966966D02*
X84288979Y-67004497D01*
X84261281Y-67038096D01*
X84239338Y-67099064D01*
X84237595Y-67147308D01*
X84241543Y-67211816D01*
X84390314Y-67276934D01*
X84462651Y-67310202D01*
X84509916Y-67336964D01*
X84534493Y-67360144D01*
X84538763Y-67382667D01*
X84525111Y-67407455D01*
X84510057Y-67423886D01*
X84466254Y-67450235D01*
X84418611Y-67452081D01*
X84374855Y-67431546D01*
X84342711Y-67390752D01*
X84336962Y-67376347D01*
X84309424Y-67331356D01*
X84277742Y-67312182D01*
X84234286Y-67295779D01*
X84234286Y-67357966D01*
X84238128Y-67400283D01*
X84253177Y-67435969D01*
X84284720Y-67476943D01*
X84289408Y-67482267D01*
X84324494Y-67518720D01*
X84354653Y-67538283D01*
X84392385Y-67547283D01*
X84423665Y-67550230D01*
X84479615Y-67550965D01*
X84519445Y-67541660D01*
X84544292Y-67527846D01*
X84583344Y-67497467D01*
X84610375Y-67464613D01*
X84627483Y-67423294D01*
X84636762Y-67367521D01*
X84640307Y-67291305D01*
X84640590Y-67252622D01*
X84639628Y-67206247D01*
X84551993Y-67206247D01*
X84550977Y-67231126D01*
X84548444Y-67235200D01*
X84531726Y-67229665D01*
X84495751Y-67215017D01*
X84447669Y-67194190D01*
X84437614Y-67189714D01*
X84376848Y-67158814D01*
X84343368Y-67131657D01*
X84336010Y-67106220D01*
X84353609Y-67080481D01*
X84368144Y-67069109D01*
X84420590Y-67046364D01*
X84469678Y-67050122D01*
X84510773Y-67077884D01*
X84539242Y-67127152D01*
X84548369Y-67166257D01*
X84551993Y-67206247D01*
X84639628Y-67206247D01*
X84638715Y-67162249D01*
X84631804Y-67095384D01*
X84618116Y-67046695D01*
X84595904Y-67010849D01*
X84563426Y-66982513D01*
X84549267Y-66973355D01*
X84484947Y-66949507D01*
X84414527Y-66948006D01*
X84346405Y-66966966D01*
G36*
X87396090Y-62242348D02*
X87317546Y-62242778D01*
X87260702Y-62243942D01*
X87221895Y-62246207D01*
X87197462Y-62249940D01*
X87183738Y-62255506D01*
X87177060Y-62263273D01*
X87173764Y-62273605D01*
X87173444Y-62274943D01*
X87168438Y-62299079D01*
X87159171Y-62346701D01*
X87146608Y-62412741D01*
X87131713Y-62492128D01*
X87115449Y-62579796D01*
X87114881Y-62582875D01*
X87098590Y-62668789D01*
X87083348Y-62744696D01*
X87070139Y-62806045D01*
X87059946Y-62848282D01*
X87053752Y-62866855D01*
X87053457Y-62867184D01*
X87035212Y-62876253D01*
X86997595Y-62891367D01*
X86948729Y-62909262D01*
X86948457Y-62909358D01*
X86886907Y-62932493D01*
X86814343Y-62961965D01*
X86745943Y-62991597D01*
X86742706Y-62993062D01*
X86631298Y-63043626D01*
X86384601Y-62875160D01*
X86308923Y-62823803D01*
X86240369Y-62777889D01*
X86182912Y-62740030D01*
X86140524Y-62712837D01*
X86117175Y-62698921D01*
X86114958Y-62697889D01*
X86097990Y-62702484D01*
X86066299Y-62724655D01*
X86018648Y-62765447D01*
X85953802Y-62825905D01*
X85887603Y-62890227D01*
X85823786Y-62953612D01*
X85766671Y-63011451D01*
X85719695Y-63060175D01*
X85686297Y-63096210D01*
X85669915Y-63115984D01*
X85669306Y-63117002D01*
X85667495Y-63130572D01*
X85674317Y-63152733D01*
X85691460Y-63186478D01*
X85720607Y-63234800D01*
X85763445Y-63300692D01*
X85820552Y-63385517D01*
X85871234Y-63460177D01*
X85916539Y-63527140D01*
X85953850Y-63582516D01*
X85980548Y-63622420D01*
X85994015Y-63642962D01*
X85994863Y-63644356D01*
X85993219Y-63664038D01*
X85980755Y-63702293D01*
X85959952Y-63751889D01*
X85952538Y-63767728D01*
X85920186Y-63838290D01*
X85885672Y-63918353D01*
X85857635Y-63987629D01*
X85837432Y-64039045D01*
X85821385Y-64078119D01*
X85812112Y-64098541D01*
X85810959Y-64100114D01*
X85793904Y-64102721D01*
X85753702Y-64109863D01*
X85695698Y-64120523D01*
X85625237Y-64133685D01*
X85547665Y-64148333D01*
X85468328Y-64163449D01*
X85392569Y-64178018D01*
X85325736Y-64191022D01*
X85273172Y-64201445D01*
X85240224Y-64208270D01*
X85232143Y-64210199D01*
X85223795Y-64214962D01*
X85217494Y-64225718D01*
X85212955Y-64246098D01*
X85209896Y-64279734D01*
X85208033Y-64330255D01*
X85207082Y-64401292D01*
X85206760Y-64496476D01*
X85206743Y-64535492D01*
X85206743Y-64852799D01*
X85282943Y-64867839D01*
X85325337Y-64875995D01*
X85388600Y-64887899D01*
X85465038Y-64902116D01*
X85546957Y-64917210D01*
X85569600Y-64921355D01*
X85645194Y-64936053D01*
X85711047Y-64950505D01*
X85761634Y-64963375D01*
X85791426Y-64973322D01*
X85796388Y-64976287D01*
X85808574Y-64997283D01*
X85826047Y-65037967D01*
X85845423Y-65090322D01*
X85849266Y-65101600D01*
X85874661Y-65171523D01*
X85906183Y-65250418D01*
X85937031Y-65321266D01*
X85937183Y-65321595D01*
X85988553Y-65432733D01*
X85819601Y-65681253D01*
X85650648Y-65929772D01*
X85867571Y-66147058D01*
X85933181Y-66211726D01*
X85993021Y-66268733D01*
X86043733Y-66315033D01*
X86081954Y-66347584D01*
X86104325Y-66363343D01*
X86107534Y-66364343D01*
X86126374Y-66356469D01*
X86164820Y-66334578D01*
X86218670Y-66301267D01*
X86283724Y-66259131D01*
X86354060Y-66211943D01*
X86425445Y-66163810D01*
X86489092Y-66121928D01*
X86540959Y-66088871D01*
X86577005Y-66067218D01*
X86593133Y-66059543D01*
X86612811Y-66066037D01*
X86650125Y-66083150D01*
X86697379Y-66107326D01*
X86702388Y-66110013D01*
X86766023Y-66141927D01*
X86809659Y-66157579D01*
X86836798Y-66157745D01*
X86850943Y-66143204D01*
X86851025Y-66143000D01*
X86858095Y-66125779D01*
X86874958Y-66084899D01*
X86900305Y-66023525D01*
X86932829Y-65944819D01*
X86971222Y-65851947D01*
X87014178Y-65748072D01*
X87055778Y-65647502D01*
X87101496Y-65536516D01*
X87143474Y-65433703D01*
X87180452Y-65342215D01*
X87211173Y-65265201D01*
X87234378Y-65205815D01*
X87248810Y-65167209D01*
X87253257Y-65152800D01*
X87242104Y-65136272D01*
X87212931Y-65109930D01*
X87174029Y-65080887D01*
X87063243Y-64989039D01*
X86976649Y-64883759D01*
X86915284Y-64767266D01*
X86880185Y-64641776D01*
X86872392Y-64509507D01*
X86878057Y-64448457D01*
X86908922Y-64321795D01*
X86962080Y-64209941D01*
X87034233Y-64114001D01*
X87122083Y-64035076D01*
X87222335Y-63974270D01*
X87331690Y-63932687D01*
X87446853Y-63911428D01*
X87564525Y-63911599D01*
X87681410Y-63934301D01*
X87794211Y-63980638D01*
X87899631Y-64051713D01*
X87943632Y-64091911D01*
X88028021Y-64195129D01*
X88086778Y-64307925D01*
X88120296Y-64427010D01*
X88128965Y-64549095D01*
X88113177Y-64670893D01*
X88073322Y-64789116D01*
X88009793Y-64900475D01*
X87922979Y-65001684D01*
X87825971Y-65080887D01*
X87785563Y-65111162D01*
X87757018Y-65137219D01*
X87746743Y-65152825D01*
X87752123Y-65169843D01*
X87767425Y-65210500D01*
X87791388Y-65271642D01*
X87822756Y-65350119D01*
X87860268Y-65442780D01*
X87902667Y-65546472D01*
X87944337Y-65647526D01*
X87990310Y-65758607D01*
X88032893Y-65861541D01*
X88070779Y-65953165D01*
X88102660Y-66030316D01*
X88127229Y-66089831D01*
X88143180Y-66128544D01*
X88149090Y-66143000D01*
X88163052Y-66157685D01*
X88190060Y-66157642D01*
X88233587Y-66142099D01*
X88297110Y-66110284D01*
X88297612Y-66110013D01*
X88345440Y-66085323D01*
X88384103Y-66067338D01*
X88405905Y-66059614D01*
X88406867Y-66059543D01*
X88423279Y-66067378D01*
X88459513Y-66089165D01*
X88511526Y-66122328D01*
X88575275Y-66164291D01*
X88645940Y-66211943D01*
X88717884Y-66260191D01*
X88782726Y-66302151D01*
X88836265Y-66335227D01*
X88874303Y-66356821D01*
X88892467Y-66364343D01*
X88909192Y-66354457D01*
X88942820Y-66326826D01*
X88989990Y-66284495D01*
X89047342Y-66230505D01*
X89111516Y-66167899D01*
X89132503Y-66146983D01*
X89349501Y-65929623D01*
X89184332Y-65687220D01*
X89134136Y-65612781D01*
X89090081Y-65545972D01*
X89054638Y-65490665D01*
X89030281Y-65450729D01*
X89019478Y-65430036D01*
X89019162Y-65428563D01*
X89024857Y-65409058D01*
X89040174Y-65369822D01*
X89062463Y-65317430D01*
X89078107Y-65282355D01*
X89107359Y-65215201D01*
X89134906Y-65147358D01*
X89156263Y-65090034D01*
X89162065Y-65072572D01*
X89178548Y-65025938D01*
X89194660Y-64989905D01*
X89203510Y-64976287D01*
X89223040Y-64967952D01*
X89265666Y-64956137D01*
X89325855Y-64942181D01*
X89398078Y-64927422D01*
X89430400Y-64921355D01*
X89512478Y-64906273D01*
X89591205Y-64891669D01*
X89658891Y-64878980D01*
X89707840Y-64869642D01*
X89717057Y-64867839D01*
X89793257Y-64852799D01*
X89793257Y-64535492D01*
X89793086Y-64431154D01*
X89792384Y-64352213D01*
X89790866Y-64295038D01*
X89788251Y-64255999D01*
X89784254Y-64231465D01*
X89778591Y-64217805D01*
X89770980Y-64211389D01*
X89767857Y-64210199D01*
X89749022Y-64205980D01*
X89707412Y-64197562D01*
X89648370Y-64185961D01*
X89577243Y-64172195D01*
X89499375Y-64157280D01*
X89420113Y-64142232D01*
X89344802Y-64128069D01*
X89278787Y-64115806D01*
X89227413Y-64106461D01*
X89196025Y-64101050D01*
X89189041Y-64100114D01*
X89182715Y-64087596D01*
X89168710Y-64054246D01*
X89149645Y-64006377D01*
X89142366Y-63987629D01*
X89113004Y-63915195D01*
X89078429Y-63835170D01*
X89047463Y-63767728D01*
X89024677Y-63716159D01*
X89009518Y-63673785D01*
X89004458Y-63647834D01*
X89005264Y-63644356D01*
X89015959Y-63627936D01*
X89040380Y-63591417D01*
X89075905Y-63538687D01*
X89119913Y-63473635D01*
X89169783Y-63400151D01*
X89179644Y-63385645D01*
X89237508Y-63299704D01*
X89280044Y-63234261D01*
X89308946Y-63186304D01*
X89325910Y-63152820D01*
X89332633Y-63130795D01*
X89330810Y-63117217D01*
X89330764Y-63117131D01*
X89316414Y-63099297D01*
X89284677Y-63064817D01*
X89238990Y-63017268D01*
X89182796Y-62960222D01*
X89119532Y-62897255D01*
X89112398Y-62890227D01*
X89032670Y-62813020D01*
X88971143Y-62756330D01*
X88926579Y-62719110D01*
X88897743Y-62700315D01*
X88885042Y-62697889D01*
X88866506Y-62708471D01*
X88828039Y-62732916D01*
X88773614Y-62768612D01*
X88707202Y-62812947D01*
X88632775Y-62863311D01*
X88615399Y-62875160D01*
X88368703Y-63043626D01*
X88257294Y-62993062D01*
X88189543Y-62963595D01*
X88116817Y-62933959D01*
X88054297Y-62910330D01*
X88051543Y-62909358D01*
X88002640Y-62891457D01*
X87964943Y-62876320D01*
X87946575Y-62867210D01*
X87946544Y-62867184D01*
X87940715Y-62850717D01*
X87930808Y-62810219D01*
X87917805Y-62750242D01*
X87902691Y-62675340D01*
X87886448Y-62590064D01*
X87885119Y-62582875D01*
X87868825Y-62495014D01*
X87853867Y-62415260D01*
X87841209Y-62348681D01*
X87831814Y-62300347D01*
X87826646Y-62275325D01*
X87826556Y-62274943D01*
X87823411Y-62264299D01*
X87817296Y-62256262D01*
X87804547Y-62250467D01*
X87781500Y-62246547D01*
X87744491Y-62244135D01*
X87689856Y-62242865D01*
X87613933Y-62242371D01*
X87513056Y-62242286D01*
X87500000Y-62242286D01*
X87396090Y-62242348D01*
X87396090Y-62242348D01*
G37*
X87396090Y-62242348D02*
X87317546Y-62242778D01*
X87260702Y-62243942D01*
X87221895Y-62246207D01*
X87197462Y-62249940D01*
X87183738Y-62255506D01*
X87177060Y-62263273D01*
X87173764Y-62273605D01*
X87173444Y-62274943D01*
X87168438Y-62299079D01*
X87159171Y-62346701D01*
X87146608Y-62412741D01*
X87131713Y-62492128D01*
X87115449Y-62579796D01*
X87114881Y-62582875D01*
X87098590Y-62668789D01*
X87083348Y-62744696D01*
X87070139Y-62806045D01*
X87059946Y-62848282D01*
X87053752Y-62866855D01*
X87053457Y-62867184D01*
X87035212Y-62876253D01*
X86997595Y-62891367D01*
X86948729Y-62909262D01*
X86948457Y-62909358D01*
X86886907Y-62932493D01*
X86814343Y-62961965D01*
X86745943Y-62991597D01*
X86742706Y-62993062D01*
X86631298Y-63043626D01*
X86384601Y-62875160D01*
X86308923Y-62823803D01*
X86240369Y-62777889D01*
X86182912Y-62740030D01*
X86140524Y-62712837D01*
X86117175Y-62698921D01*
X86114958Y-62697889D01*
X86097990Y-62702484D01*
X86066299Y-62724655D01*
X86018648Y-62765447D01*
X85953802Y-62825905D01*
X85887603Y-62890227D01*
X85823786Y-62953612D01*
X85766671Y-63011451D01*
X85719695Y-63060175D01*
X85686297Y-63096210D01*
X85669915Y-63115984D01*
X85669306Y-63117002D01*
X85667495Y-63130572D01*
X85674317Y-63152733D01*
X85691460Y-63186478D01*
X85720607Y-63234800D01*
X85763445Y-63300692D01*
X85820552Y-63385517D01*
X85871234Y-63460177D01*
X85916539Y-63527140D01*
X85953850Y-63582516D01*
X85980548Y-63622420D01*
X85994015Y-63642962D01*
X85994863Y-63644356D01*
X85993219Y-63664038D01*
X85980755Y-63702293D01*
X85959952Y-63751889D01*
X85952538Y-63767728D01*
X85920186Y-63838290D01*
X85885672Y-63918353D01*
X85857635Y-63987629D01*
X85837432Y-64039045D01*
X85821385Y-64078119D01*
X85812112Y-64098541D01*
X85810959Y-64100114D01*
X85793904Y-64102721D01*
X85753702Y-64109863D01*
X85695698Y-64120523D01*
X85625237Y-64133685D01*
X85547665Y-64148333D01*
X85468328Y-64163449D01*
X85392569Y-64178018D01*
X85325736Y-64191022D01*
X85273172Y-64201445D01*
X85240224Y-64208270D01*
X85232143Y-64210199D01*
X85223795Y-64214962D01*
X85217494Y-64225718D01*
X85212955Y-64246098D01*
X85209896Y-64279734D01*
X85208033Y-64330255D01*
X85207082Y-64401292D01*
X85206760Y-64496476D01*
X85206743Y-64535492D01*
X85206743Y-64852799D01*
X85282943Y-64867839D01*
X85325337Y-64875995D01*
X85388600Y-64887899D01*
X85465038Y-64902116D01*
X85546957Y-64917210D01*
X85569600Y-64921355D01*
X85645194Y-64936053D01*
X85711047Y-64950505D01*
X85761634Y-64963375D01*
X85791426Y-64973322D01*
X85796388Y-64976287D01*
X85808574Y-64997283D01*
X85826047Y-65037967D01*
X85845423Y-65090322D01*
X85849266Y-65101600D01*
X85874661Y-65171523D01*
X85906183Y-65250418D01*
X85937031Y-65321266D01*
X85937183Y-65321595D01*
X85988553Y-65432733D01*
X85819601Y-65681253D01*
X85650648Y-65929772D01*
X85867571Y-66147058D01*
X85933181Y-66211726D01*
X85993021Y-66268733D01*
X86043733Y-66315033D01*
X86081954Y-66347584D01*
X86104325Y-66363343D01*
X86107534Y-66364343D01*
X86126374Y-66356469D01*
X86164820Y-66334578D01*
X86218670Y-66301267D01*
X86283724Y-66259131D01*
X86354060Y-66211943D01*
X86425445Y-66163810D01*
X86489092Y-66121928D01*
X86540959Y-66088871D01*
X86577005Y-66067218D01*
X86593133Y-66059543D01*
X86612811Y-66066037D01*
X86650125Y-66083150D01*
X86697379Y-66107326D01*
X86702388Y-66110013D01*
X86766023Y-66141927D01*
X86809659Y-66157579D01*
X86836798Y-66157745D01*
X86850943Y-66143204D01*
X86851025Y-66143000D01*
X86858095Y-66125779D01*
X86874958Y-66084899D01*
X86900305Y-66023525D01*
X86932829Y-65944819D01*
X86971222Y-65851947D01*
X87014178Y-65748072D01*
X87055778Y-65647502D01*
X87101496Y-65536516D01*
X87143474Y-65433703D01*
X87180452Y-65342215D01*
X87211173Y-65265201D01*
X87234378Y-65205815D01*
X87248810Y-65167209D01*
X87253257Y-65152800D01*
X87242104Y-65136272D01*
X87212931Y-65109930D01*
X87174029Y-65080887D01*
X87063243Y-64989039D01*
X86976649Y-64883759D01*
X86915284Y-64767266D01*
X86880185Y-64641776D01*
X86872392Y-64509507D01*
X86878057Y-64448457D01*
X86908922Y-64321795D01*
X86962080Y-64209941D01*
X87034233Y-64114001D01*
X87122083Y-64035076D01*
X87222335Y-63974270D01*
X87331690Y-63932687D01*
X87446853Y-63911428D01*
X87564525Y-63911599D01*
X87681410Y-63934301D01*
X87794211Y-63980638D01*
X87899631Y-64051713D01*
X87943632Y-64091911D01*
X88028021Y-64195129D01*
X88086778Y-64307925D01*
X88120296Y-64427010D01*
X88128965Y-64549095D01*
X88113177Y-64670893D01*
X88073322Y-64789116D01*
X88009793Y-64900475D01*
X87922979Y-65001684D01*
X87825971Y-65080887D01*
X87785563Y-65111162D01*
X87757018Y-65137219D01*
X87746743Y-65152825D01*
X87752123Y-65169843D01*
X87767425Y-65210500D01*
X87791388Y-65271642D01*
X87822756Y-65350119D01*
X87860268Y-65442780D01*
X87902667Y-65546472D01*
X87944337Y-65647526D01*
X87990310Y-65758607D01*
X88032893Y-65861541D01*
X88070779Y-65953165D01*
X88102660Y-66030316D01*
X88127229Y-66089831D01*
X88143180Y-66128544D01*
X88149090Y-66143000D01*
X88163052Y-66157685D01*
X88190060Y-66157642D01*
X88233587Y-66142099D01*
X88297110Y-66110284D01*
X88297612Y-66110013D01*
X88345440Y-66085323D01*
X88384103Y-66067338D01*
X88405905Y-66059614D01*
X88406867Y-66059543D01*
X88423279Y-66067378D01*
X88459513Y-66089165D01*
X88511526Y-66122328D01*
X88575275Y-66164291D01*
X88645940Y-66211943D01*
X88717884Y-66260191D01*
X88782726Y-66302151D01*
X88836265Y-66335227D01*
X88874303Y-66356821D01*
X88892467Y-66364343D01*
X88909192Y-66354457D01*
X88942820Y-66326826D01*
X88989990Y-66284495D01*
X89047342Y-66230505D01*
X89111516Y-66167899D01*
X89132503Y-66146983D01*
X89349501Y-65929623D01*
X89184332Y-65687220D01*
X89134136Y-65612781D01*
X89090081Y-65545972D01*
X89054638Y-65490665D01*
X89030281Y-65450729D01*
X89019478Y-65430036D01*
X89019162Y-65428563D01*
X89024857Y-65409058D01*
X89040174Y-65369822D01*
X89062463Y-65317430D01*
X89078107Y-65282355D01*
X89107359Y-65215201D01*
X89134906Y-65147358D01*
X89156263Y-65090034D01*
X89162065Y-65072572D01*
X89178548Y-65025938D01*
X89194660Y-64989905D01*
X89203510Y-64976287D01*
X89223040Y-64967952D01*
X89265666Y-64956137D01*
X89325855Y-64942181D01*
X89398078Y-64927422D01*
X89430400Y-64921355D01*
X89512478Y-64906273D01*
X89591205Y-64891669D01*
X89658891Y-64878980D01*
X89707840Y-64869642D01*
X89717057Y-64867839D01*
X89793257Y-64852799D01*
X89793257Y-64535492D01*
X89793086Y-64431154D01*
X89792384Y-64352213D01*
X89790866Y-64295038D01*
X89788251Y-64255999D01*
X89784254Y-64231465D01*
X89778591Y-64217805D01*
X89770980Y-64211389D01*
X89767857Y-64210199D01*
X89749022Y-64205980D01*
X89707412Y-64197562D01*
X89648370Y-64185961D01*
X89577243Y-64172195D01*
X89499375Y-64157280D01*
X89420113Y-64142232D01*
X89344802Y-64128069D01*
X89278787Y-64115806D01*
X89227413Y-64106461D01*
X89196025Y-64101050D01*
X89189041Y-64100114D01*
X89182715Y-64087596D01*
X89168710Y-64054246D01*
X89149645Y-64006377D01*
X89142366Y-63987629D01*
X89113004Y-63915195D01*
X89078429Y-63835170D01*
X89047463Y-63767728D01*
X89024677Y-63716159D01*
X89009518Y-63673785D01*
X89004458Y-63647834D01*
X89005264Y-63644356D01*
X89015959Y-63627936D01*
X89040380Y-63591417D01*
X89075905Y-63538687D01*
X89119913Y-63473635D01*
X89169783Y-63400151D01*
X89179644Y-63385645D01*
X89237508Y-63299704D01*
X89280044Y-63234261D01*
X89308946Y-63186304D01*
X89325910Y-63152820D01*
X89332633Y-63130795D01*
X89330810Y-63117217D01*
X89330764Y-63117131D01*
X89316414Y-63099297D01*
X89284677Y-63064817D01*
X89238990Y-63017268D01*
X89182796Y-62960222D01*
X89119532Y-62897255D01*
X89112398Y-62890227D01*
X89032670Y-62813020D01*
X88971143Y-62756330D01*
X88926579Y-62719110D01*
X88897743Y-62700315D01*
X88885042Y-62697889D01*
X88866506Y-62708471D01*
X88828039Y-62732916D01*
X88773614Y-62768612D01*
X88707202Y-62812947D01*
X88632775Y-62863311D01*
X88615399Y-62875160D01*
X88368703Y-63043626D01*
X88257294Y-62993062D01*
X88189543Y-62963595D01*
X88116817Y-62933959D01*
X88054297Y-62910330D01*
X88051543Y-62909358D01*
X88002640Y-62891457D01*
X87964943Y-62876320D01*
X87946575Y-62867210D01*
X87946544Y-62867184D01*
X87940715Y-62850717D01*
X87930808Y-62810219D01*
X87917805Y-62750242D01*
X87902691Y-62675340D01*
X87886448Y-62590064D01*
X87885119Y-62582875D01*
X87868825Y-62495014D01*
X87853867Y-62415260D01*
X87841209Y-62348681D01*
X87831814Y-62300347D01*
X87826646Y-62275325D01*
X87826556Y-62274943D01*
X87823411Y-62264299D01*
X87817296Y-62256262D01*
X87804547Y-62250467D01*
X87781500Y-62246547D01*
X87744491Y-62244135D01*
X87689856Y-62242865D01*
X87613933Y-62242371D01*
X87513056Y-62242286D01*
X87500000Y-62242286D01*
X87396090Y-62242348D01*
D10*
X87316666Y-93586667D02*
X87316666Y-92886667D01*
X87050000Y-92886667D01*
X86983333Y-92920000D01*
X86950000Y-92953333D01*
X86916666Y-93020000D01*
X86916666Y-93120000D01*
X86950000Y-93186667D01*
X86983333Y-93220000D01*
X87050000Y-93253333D01*
X87316666Y-93253333D01*
X86650000Y-92953333D02*
X86616666Y-92920000D01*
X86550000Y-92886667D01*
X86383333Y-92886667D01*
X86316666Y-92920000D01*
X86283333Y-92953333D01*
X86250000Y-93020000D01*
X86250000Y-93086667D01*
X86283333Y-93186667D01*
X86683333Y-93586667D01*
X86250000Y-93586667D01*
M02*
