G04 #@! TF.FileFunction,Profile,NP*
%FSLAX46Y46*%
G04 Gerber Fmt 4.6, Leading zero omitted, Abs format (unit mm)*
G04 Created by KiCad (PCBNEW 4.0.4-stable) date Friday, October 13, 2017 'PMt' 10:51:30 PM*
%MOMM*%
%LPD*%
G01*
G04 APERTURE LIST*
%ADD10C,0.100000*%
G04 APERTURE END LIST*
D10*
X103000000Y-90000000D02*
X103000000Y-92000000D01*
X104000000Y-89000000D02*
G75*
G03X103000000Y-90000000I0J-1000000D01*
G01*
X100000000Y-95000000D02*
G75*
G03X103000000Y-92000000I0J3000000D01*
G01*
X104000000Y-89000000D02*
G75*
G03X105000000Y-88000000I0J1000000D01*
G01*
X72000000Y-90000000D02*
X72000000Y-92000000D01*
X72000000Y-90000000D02*
G75*
G03X71000000Y-89000000I-1000000J0D01*
G01*
X70000000Y-88000000D02*
G75*
G03X71000000Y-89000000I1000000J0D01*
G01*
X72000000Y-92000000D02*
G75*
G03X75000000Y-95000000I3000000J0D01*
G01*
X72000000Y-63000000D02*
X72000000Y-65000000D01*
X71000000Y-66000000D02*
G75*
G03X72000000Y-65000000I0J1000000D01*
G01*
X71000000Y-66000000D02*
G75*
G03X70000000Y-67000000I0J-1000000D01*
G01*
X75000000Y-60000000D02*
G75*
G03X72000000Y-63000000I0J-3000000D01*
G01*
X103000000Y-63000000D02*
G75*
G03X100000000Y-60000000I-3000000J0D01*
G01*
X103000000Y-63000000D02*
X103000000Y-65000000D01*
X105000000Y-67000000D02*
G75*
G03X104000000Y-66000000I-1000000J0D01*
G01*
X103000000Y-65000000D02*
G75*
G03X104000000Y-66000000I1000000J0D01*
G01*
X70000000Y-88000000D02*
X70000000Y-67000000D01*
X100000000Y-95000000D02*
X75000000Y-95000000D01*
X105000000Y-67000000D02*
X105000000Y-88000000D01*
X75000000Y-60000000D02*
X100000000Y-60000000D01*
M02*
