G04 #@! TF.FileFunction,Soldermask,Top*
%FSLAX46Y46*%
G04 Gerber Fmt 4.6, Leading zero omitted, Abs format (unit mm)*
G04 Created by KiCad (PCBNEW 4.0.4-stable) date Friday, October 13, 2017 'PMt' 10:51:30 PM*
%MOMM*%
%LPD*%
G01*
G04 APERTURE LIST*
%ADD10C,0.100000*%
%ADD11C,3.600000*%
%ADD12R,1.300000X1.600000*%
%ADD13R,1.600000X1.150000*%
%ADD14R,1.650000X1.900000*%
%ADD15R,1.750000X1.750000*%
%ADD16O,1.750000X1.750000*%
%ADD17R,2.100000X2.100000*%
%ADD18O,2.100000X2.100000*%
%ADD19R,1.600000X1.300000*%
%ADD20R,2.300000X1.600000*%
%ADD21R,1.900000X1.000000*%
%ADD22R,1.960000X1.050000*%
%ADD23R,1.150000X1.600000*%
%ADD24R,1.900000X0.800000*%
%ADD25O,1.400000X2.800000*%
%ADD26R,1.400000X1.400000*%
G04 APERTURE END LIST*
D10*
D11*
X100000000Y-92000000D03*
X100000000Y-63000000D03*
X75000000Y-92000000D03*
D12*
X83600000Y-71100000D03*
X83600000Y-73300000D03*
D13*
X88050000Y-67200000D03*
X89950000Y-67200000D03*
D14*
X95100000Y-77950000D03*
X95100000Y-75450000D03*
D15*
X99000000Y-86000000D03*
D16*
X99000000Y-84000000D03*
D15*
X99000000Y-78000000D03*
D16*
X99000000Y-76000000D03*
D17*
X98100000Y-69000000D03*
D18*
X100640000Y-69000000D03*
X103180000Y-69000000D03*
D12*
X77700000Y-70100000D03*
X77700000Y-67900000D03*
D19*
X81200000Y-76100000D03*
X83400000Y-76100000D03*
D12*
X81700000Y-67900000D03*
X81700000Y-70100000D03*
D20*
X71600000Y-81000000D03*
X71600000Y-86000000D03*
X76600000Y-83500000D03*
X71600000Y-83500000D03*
X76600000Y-81000000D03*
X76600000Y-86000000D03*
D21*
X86200000Y-69690000D03*
X86200000Y-70960000D03*
X86200000Y-72230000D03*
X86200000Y-73500000D03*
X86200000Y-74770000D03*
X86200000Y-76040000D03*
X86200000Y-77310000D03*
X91600000Y-77310000D03*
X91600000Y-76040000D03*
X91600000Y-74770000D03*
X91600000Y-73500000D03*
X91600000Y-72230000D03*
X91600000Y-70960000D03*
X91600000Y-69690000D03*
D22*
X87050000Y-62850000D03*
X87050000Y-63800000D03*
X87050000Y-64750000D03*
X89750000Y-64750000D03*
X89750000Y-62850000D03*
D23*
X94800000Y-71450000D03*
X94800000Y-69550000D03*
D14*
X83900000Y-62850000D03*
X83900000Y-65350000D03*
D13*
X92850000Y-62300000D03*
X94750000Y-62300000D03*
D14*
X92900000Y-64700000D03*
X92900000Y-67200000D03*
D17*
X72800000Y-68800000D03*
D18*
X72800000Y-71340000D03*
X72800000Y-73880000D03*
D24*
X80330000Y-73850000D03*
X80330000Y-73200000D03*
X80330000Y-72550000D03*
X77670000Y-72550000D03*
X77670000Y-73200000D03*
X77670000Y-73850000D03*
D25*
X88365000Y-82100000D03*
X89635000Y-82100000D03*
X87095000Y-82100000D03*
X90905000Y-82100000D03*
X92175000Y-82100000D03*
X85825000Y-82100000D03*
X93445000Y-82100000D03*
X84555000Y-82100000D03*
D26*
X83900000Y-93300000D03*
D11*
X75000000Y-63000000D03*
D19*
X97200000Y-73300000D03*
X95000000Y-73300000D03*
M02*
