M48
;DRILL file {KiCad 4.0.4-stable} date Friday, October 13, 2017 'PMt' 10:50:01 PM
;FORMAT={-:-/ absolute / metric / decimal}
FMAT,2
METRIC,TZ
T1C0.400
T2C0.500
T3C0.700
T4C0.800
T5C1.000
T6C3.200
%
G90
G05
M71
T1
X77.7Y-71.9
X80.3Y-74.5
X85.8Y-63.8
X86.5Y-84.5
X87.4Y-78.7
X89.7Y-84.4
X93.Y-74.
X96.2Y-75.4
X97.2Y-72.2
T2
X73.Y-78.
X73.4Y-86.
X77.Y-76.
X77.Y-78.
X79.Y-76.
X79.Y-78.
X80.Y-62.
X80.Y-65.5
X82.Y-62.
X82.Y-65.5
X88.4Y-61.6
X94.3Y-64.7
X95.1Y-79.5
X95.9Y-82.5
X96.Y-63.
X97.Y-66.
X102.Y-71.5
X103.Y-76.
X103.Y-79.
X103.Y-82.
X103.Y-85.
T3
X83.9Y-93.3
X84.555Y-82.7
X85.825Y-82.7
X87.095Y-82.7
X88.365Y-82.7
X89.635Y-82.7
X90.905Y-82.7
X92.175Y-82.7
X93.445Y-82.7
T4
X99.Y-76.
X99.Y-78.
X99.Y-84.
X99.Y-86.
T5
X72.8Y-68.8
X72.8Y-71.34
X72.8Y-73.88
X98.1Y-69.
X100.64Y-69.
X103.18Y-69.
T6
X75.Y-63.
X75.Y-92.
X100.Y-63.
X100.Y-92.
T0
M30
